/* XPM */
static char *_81cede34c2544f5fb315711df63ec5a6wJhgpemi9kaMby0[] = {
/* columns rows colors chars-per-pixel */
"64 64 221 2 ",
"   c None",
".  c #2B1715",
"X  c #2B1616",
"o  c #2B1716",
"O  c #2B1717",
"+  c #2D1715",
"@  c #2C1716",
"#  c #2D1716",
"$  c #2C1717",
"%  c #2A1816",
"&  c #2B1816",
"*  c #2D1815",
"=  c #2C1816",
"-  c #2D1816",
";  c #2C1817",
":  c #2D1817",
">  c #2D1917",
",  c #2F1816",
"<  c #2E1917",
"1  c #2F1A17",
"2  c #2D1918",
"3  c #2E1918",
"4  c #2D1A18",
"5  c #2E1A18",
"6  c #2E1A19",
"7  c #301A17",
"8  c #311A17",
"9  c #341B17",
"0  c #351C17",
"q  c #361B18",
"w  c #351C18",
"e  c #3A1D18",
"r  c #391E19",
"t  c #3C1E18",
"y  c #3D1F18",
"u  c #3E1F18",
"i  c #3F1F18",
"p  c #3E201A",
"a  c #3E211A",
"s  c #372220",
"d  c #372320",
"f  c #3B2725",
"g  c #422119",
"h  c #442219",
"j  c #452219",
"k  c #482319",
"l  c #48231A",
"z  c #492419",
"x  c #4B2419",
"c  c #4A251A",
"v  c #4B251A",
"b  c #4B251B",
"n  c #4B261B",
"m  c #52271A",
"M  c #53281B",
"N  c #54291B",
"B  c #562A1B",
"V  c #57291C",
"C  c #582A1C",
"Z  c #602D1D",
"A  c #66311D",
"S  c #67311D",
"D  c #68311D",
"F  c #6B331D",
"G  c #6C331E",
"H  c #6D331E",
"J  c #6D341E",
"K  c #74361E",
"L  c #75371F",
"P  c #76381F",
"I  c #7B391F",
"U  c #7C3A1F",
"Y  c #43302D",
"T  c #46322F",
"R  c #46332F",
"E  c #473431",
"W  c #4A3733",
"Q  c #4B3834",
"!  c #4B3936",
"~  c #4D3A36",
"^  c #4E3C38",
"/  c #4F3C38",
"(  c #513F3B",
")  c #793820",
"_  c #7A3920",
"`  c #7E3B20",
"'  c #7F3B20",
"]  c #52403C",
"[  c #55423F",
"{  c #574541",
"}  c #584641",
"|  c #594743",
" . c #5A4944",
".. c #5C4B46",
"X. c #5F4E4A",
"o. c #604F4A",
"O. c #70605B",
"+. c #776761",
"@. c #776862",
"#. c #786963",
"$. c #7B6B66",
"%. c #7C6C67",
"&. c #833D20",
"*. c #823C21",
"=. c #833C21",
"-. c #843E20",
";. c #863E21",
":. c #883F21",
">. c #8A3F22",
",. c #8B4121",
"<. c #8B4022",
"1. c #8C4121",
"2. c #8D4121",
"3. c #914222",
"4. c #914322",
"5. c #924323",
"6. c #944422",
"7. c #954522",
"8. c #974623",
"9. c #9A4724",
"0. c #9B4724",
"q. c #9D4823",
"w. c #9E4923",
"e. c #A04924",
"r. c #A14924",
"t. c #A14A24",
"y. c #A34A25",
"u. c #A44C24",
"i. c #A54C24",
"p. c #A74C25",
"a. c #A84C25",
"s. c #A94D25",
"d. c #AB4E26",
"f. c #AD4F25",
"g. c #AC4F26",
"h. c #B05026",
"j. c #B15026",
"k. c #B15126",
"l. c #B25026",
"z. c #B25126",
"x. c #B65326",
"c. c #B75326",
"v. c #B85327",
"b. c #BA5427",
"n. c #BA5527",
"m. c #BE5627",
"M. c #BE5727",
"N. c #BF5727",
"B. c #BD5628",
"V. c #BF5628",
"C. c #C05728",
"Z. c #C25828",
"A. c #C35828",
"S. c #C55A29",
"D. c #C65A28",
"F. c #C75A28",
"G. c #C85A29",
"H. c #C95B29",
"J. c #CB5B29",
"K. c #CC5C29",
"L. c #CF5E29",
"P. c #CC5D2A",
"I. c #CD5D2A",
"U. c #D05D29",
"Y. c #D05E2A",
"T. c #D15E2A",
"R. c #D25E2A",
"E. c #D35F2A",
"W. c #D4602A",
"Q. c #D5602B",
"!. c #D7612A",
"~. c #D8612A",
"^. c #D9612B",
"/. c #DB632B",
"(. c #DC632B",
"). c #DD632B",
"_. c #DD642C",
"`. c #DE642C",
"'. c #DF652C",
"]. c #E0642B",
"[. c #E1652B",
"{. c #E1652C",
"}. c #E3662C",
"|. c #897A73",
" X c #8A7B74",
".X c #8B7D76",
"XX c #8C7D77",
"oX c #998B84",
"OX c #AFA399",
"+X c #B9AEA3",
"@X c #C4B8AE",
"#X c #C6BAB0",
"$X c #C6BBB1",
"%X c #CABFB5",
"&X c #D4CABD",
"*X c #D5CBBE",
"=X c #DACFC4",
"-X c #DAD0C5",
";X c #DED4C7",
":X c #DDD3C8",
">X c #DFD5C8",
",X c #E3D9CD",
"<X c #E6DDD1",
"1X c #E7DED0",
"2X c #EAE1D4",
"3X c #EBE2D5",
"4X c #ECE3D6",
"5X c #EEE5D8",
"6X c #EEE6D9",
"7X c #F3E9DC",
"8X c #F4EBDE",
"9X c #F5ECDF",
"0X c #F6EDE0",
"qX c #F8F0E3",
"wX c #F9F1E4",
"eX c #FBF2E4",
"rX c #FAF2E5",
"tX c #FCF3E5",
"yX c #FDF4E6",
"uX c #FEF6E8",
"iX c #FFF7E9",
/* pixels */
"                                                                                                                                ",
"                                                                                                                                ",
"                                                                                                                                ",
"                                                                                                                                ",
"                                                                                                                                ",
"                                                                                                                                ",
"                                                                                                                                ",
"                                                                                                                                ",
"                                                                                                                                ",
"                                                                                                                                ",
"                                                                                                                                ",
"                                                                                                                                ",
"                                                          @ & o o & @                                                           ",
"                            & @ & o o o o o @     & = o o o o o o o o o o = o     @ o o o o o & @ =                             ",
"                          & o h F -.w.x.Y.M.v o = o m 5.B.W.}.}.}.[.W.B.5.m o = o M B.Y.x.w.-.F h o &                           ",
"                        o g n.}.}.}.}.}.}.}.H.o h x.}.}.}.}.}.}.}.}.}.}.}.}.x.h o K.}.}.}.}.}.}.}.n.g o                         ",
"                      = w Y.}.}.}.}.}.}.}.}._.= U }.}.}.}.}.}.}.}.}.}.}.}.}.}.I = _.}.}.}.}.}.}.}.}.Y.w =                       ",
"                      o >.}.}.}.}.}.}.}.}.}.9.o t.}.}.}.}.}.}.}.}.}.}.}.}.}.}.t.o 9.}.}.}.}.}.}.}.}.}.>.o                       ",
"                      o j.}.}.}.}.}.}.}.}.K.0 l [.}.}.}.}.}.}.}.}.}.}.}.}.}.}.[.l 0 K.}.}.}.}.}.}.}.}.j.o                       ",
"                      o A.}.}.}.}.}.}.}.[.V = M.}.}.}.}.}.}.}.` ` }.}.}.}.}.}.}.M.= V [.}.}.}.}.}.}.}.A.o                       ",
"                      o D.}.}.}.}.}.}.}.,.o ,.}.}.}.}.}.}.}.}.p p }.}.}.}.}.}.}.}.,.o 2.}.}.}.}.}.}.}.D.o                       ",
"                      o H.}.}.}.}.}.}.B.= B [.}.}.}.}.}.}.}.^.= o ^.}.}.}.}.}.}.}.}.C = B.}.}.}.}.}.}.H.o                       ",
"                      o K.}.}.}.}.}._.v 9 H.}.}.}.}.}.}.}.}.B.o o M.}.}.}.}.}.}.}.}.K.0 l ).}.}.}.}.}.K.o                       ",
"                      o Y.}.}.}.}.}.) o w.}.}.}.}.}.}.}.}.}.t.o o t.}.}.}.}.}.}.}.}.}.w.o ) }.}.}.}.}.K.o                       ",
"                    & o Y.}.}.}.}.j.@ y }.}.}.}.}.}.}.}.}.}.&.o o &.}.}.}.}.}.}.}.}.}.}.y @ j.}.}.}.}.Y.o &                     ",
"                    & o Y.}.}.}.W.y o 8 }.}.}.}.}.}.}.}.}.}.F d d F }.}.}.}.}.}.}.}.}.}.8 o y W.}.}.}.Y.o &                     ",
"                      o j.}.}.}.S o o o ^.}.}.}.).v.W.}.}.}.v { { v }.}.}.W.v.).}.}.}.^.o o o S }.}.}.j.o                       ",
"                      = y s.C.L o o   o v.}.}.^.l o e K.}.[.8 @.@.8 [.}.K.e o v ).}.}.v.o   o o P A.s.y =                       ",
"                        @ o o o &     o 5.}.}.j.o o o 6.}.H.o oXoXo H.}.6.o o o j.}.}.5.o     & o o o =                         ",
"                                      = H }.}.s.o o o 2.}.f.o +X+Xo f.}.2.o o o s.}.}.H =                                       ",
"                                      o h }.}.A.@ o o p.}.5.o -X=Xo 5.}.p.o o @ A.}.}.h @                                       ",
"                                      o @ ^.}.}.6.B &.}.}.L 4 qXqX4 L }.}.&.B 6.}.}.^.@ o                                       ",
"                                        o j.}.}.}.}.}.}.}.v ] iXiX( v }.}.}.}.}.}.}.j.o                                         ",
"                                        o 2.}.}.}.}.}.}.D.=  XiXiX|.= D.}.}.}.}.}.}.2.o                                         ",
"                                        = S }.}.}.}.}.}.H = >XiXiX;X= J }.}.}.}.}.}.S =                                         ",
"                                        o y }.}.}.}.}.t.o %.iXiXiXiX$.o p.}.}.}.}.}.y o                                         ",
"                                        o o Y.}.}.}.s.8 Q 8XiXiXiXiX8XW 8 s.}.}.}.Y.o o                                         ",
"                                          o f.}.}.t.= E ,XiXiXiXiXiXiX1XQ = 9.}.}.s.o                                           ",
"                                          o -.}.6.= [ 4XiXiXiXiXiXiXiXiX4X[ = 6.}.-.o                                           ",
"                                          = Z j.= ..8XiXiXiXiXiXiXiXiXiXiX8X .= j.Z =                                           ",
"                                          o q e R 6XiXiXiX0X*X*X*X*X0XiXiXiX6XR e q o                                           ",
"                                          & o = $XiXiXiX2Xf o o o o f 2XiXiXiX%X= o =                                           ",
"                                            o $.iXiXiXiX*Xo o o o o o *XiXiXiXiX$.o                                             ",
"                                            o XXiXiXiXiXiXO.o o o o O.iXiXiXiXiX.Xo                                             ",
"                                            4 o.iXiXiXiXiX9X/ o o Q 7XiXiXiXiXiXX.=                                             ",
"                                            & d tXiXiXiXiXiX:XY Y :XiXiXiXiXiXtXd &                                             ",
"                                              o $XiXiXiXiXiXiXiXiXiXiXiXiXiXiX@Xo                                               ",
"                                              4 | tXiXiXiXiXiXiXiXiXiXiXiXiXrX| 4                                               ",
"                                                o #.rXiXiXiXiXiXiXiXiXiXiXrX+.o                                                 ",
"                                                o o / OX1XyXiXiXiXiXyX1XOX~ o o                                                 ",
"                                                    4 o o o o o o o o o o 4                                                     ",
"                                                          & o o o o o                                                           ",
"                                                                                                                                ",
"                                                                                                                                ",
"                                                                                                                                ",
"                                                                                                                                ",
"                                                                                                                                ",
"                                                                                                                                ",
"                                                                                                                                ",
"                                                                                                                                ",
"                                                                                                                                ",
"                                                                                                                                ",
"                                                                                                                                ",
"                                                                                                                                "
};
