/* XPM */
static char *e3b006f8d7ad405feda7f1dd8b39a90byyDlAvALwquVl7UQ[] = {
/* columns rows colors chars-per-pixel */
"64 64 124 2 ",
"   c None",
".  c #231F1F",
"X  c #231F20",
"o  c #242121",
"O  c #2A2525",
"+  c #2F2927",
"@  c #2A2629",
"#  c #2D292A",
"$  c #302A27",
"%  c #302B29",
"&  c #3D322B",
"*  c #363334",
"=  c #393537",
"-  c #3A3738",
";  c #3D3A3B",
":  c #41342D",
">  c #493D33",
",  c #423D3F",
"<  c #524337",
"1  c #574939",
"2  c #5A493A",
"3  c #60513F",
"4  c #433F41",
"5  c #464243",
"6  c #494648",
"7  c #4D4A4A",
"8  c #575456",
"9  c #5E5C5C",
"0  c #645441",
"q  c #6C5743",
"w  c #6C5A46",
"e  c #6B5948",
"r  c #705E47",
"t  c #715E4C",
"y  c #785F48",
"u  c #7E694E",
"i  c #605D60",
"p  c #656265",
"a  c #696769",
"s  c #706F71",
"d  c #747273",
"f  c #7C7B7D",
"g  c #8B7254",
"h  c #917154",
"j  c #927958",
"k  c #9D7B5B",
"l  c #A1865F",
"z  c #A48761",
"x  c #B38C65",
"c  c #B29368",
"v  c #BE946A",
"b  c #BB9B6D",
"n  c #BCA17C",
"m  c #C2966B",
"M  c #C1A070",
"N  c #CBA774",
"B  c #CCA975",
"V  c #D7A775",
"C  c #D1AC77",
"Z  c #DAA977",
"A  c #DBAB7A",
"S  c #D7B17A",
"D  c #DFB27C",
"F  c #E0B67E",
"G  c #E1B97F",
"H  c #7F7D81",
"J  c #838284",
"K  c #89878A",
"L  c #8B898D",
"P  c #8E8D90",
"I  c #908F91",
"U  c #939293",
"Y  c #9C9B9E",
"T  c #A2A1A5",
"R  c #A6A7A8",
"E  c #A7A8A9",
"W  c #AAA9AC",
"Q  c #B3B3B5",
"!  c #B7B7BA",
"~  c #B9B9BC",
"^  c #C0A582",
"/  c #CBB08B",
"(  c #DCB083",
")  c #DEB688",
"_  c #E4BC81",
"`  c #E5C18A",
"'  c #E5C395",
"]  c #E5C599",
"[  c #C2C3C5",
"{  c #C5C5CA",
"}  c #C7C8CA",
"|  c #CACBCD",
" . c #CDCDD2",
".. c #CFD0D2",
"X. c #D1D1D6",
"o. c #D5D6DA",
"O. c #D7D9DC",
"+. c #DADBDE",
"@. c #DDDEE1",
"#. c #DEDFE1",
"$. c #DFDFE1",
"%. c #DCDCE1",
"&. c #DBDDE2",
"*. c #DFE1E3",
"=. c #E0E2E4",
"-. c #E4E4E7",
";. c #E4E6E8",
":. c #E6E7EA",
">. c #E7E8EA",
",. c #E7E8EB",
"<. c #E8EAEC",
"1. c #E8EAED",
"2. c #E9EBED",
"3. c #EAEBED",
"4. c #E9EAEE",
"5. c #E9ECEE",
"6. c #EAECEE",
"7. c #EBECEF",
"8. c #EBEDEF",
"9. c #ECEDF1",
"0. c #ECEEF0",
"q. c #ECEFF0",
"w. c #EDEFF0",
"e. c #EDEFF1",
/* pixels */
"                                                              o X X X X X X X X X X X X X X X X X X X X X X X X X X X o         ",
"                              o X X X X X                     o 4 K Y Y Y Y Y Y Y Y Y Y Y % 8 P Y Y Y Y Y Y Y Y Y Y Y X         ",
"                              O 9 ~ ~ L X                     o 8 :.e.e.e.e.e.e.e.e.e.e.e.- d 3.e.e.e.e.e.e.e.e.e.e.3.X         ",
"                              O p X.X.Y X                     o 8 :.e.e.e.e.e.e.e.e.e.e.e.- d 3.e.e.e.e.e.e.e.e.e.e.3.X         ",
"                              O p X.X.Y X                     o 8 :.e.e.e.e.e.e.e.e.e.e.e.- d 3.e.e.e.e.e.e.e.e.e.e.3.X         ",
"                              O p X.X.Y X                     o 8 :.e.e.e.e.e.e.e.e.e.e.e.- d 3.e.e.e.e.e.e.e.e.e.e.3.X         ",
"                              O p X.X.Y X                     o 8 :.e.e.e.e.e.e.e.e.e.e.e.- d 3.e.e.e.e.e.e.e.e.e.e.3.X         ",
"                              O p X.X.Y X                     o 8 :.e.e.e.e.e.e.e.e.e.e.e.- d 3.e.e.e.e.e.e.e.e.e.e.3.X         ",
"                              O 5 H H p X                     o 8 :.e.e.e.e.e.e.e.e.e.e.e.- d 3.e.e.e.e.e.e.e.e.e.e.3.X         ",
"                              o * = = = o o                   o 8 :.e.e.e.e.e.e.e.e.e.e.e.- d 3.e.e.e.e.e.e.e.e.e.e.3.X         ",
"                            o s 8.e.e.e.Q o o                 o 8 :.e.e.e.e.e.e.e.e.e.e.e.- d 3.e.e.e.e.e.e.e.e.e.e.3.X         ",
"                          o d 8.e.e.e.e.e.Q O o               o 8 :.e.e.e.e.e.e.e.e.e.e.e.- d 3.e.e.e.e.e.e.e.e.e.e.3.X         ",
"                        o d 8.e.e.e.e.e.e.e.Q O o             o 8 :.e.e.e.e.e.[ * * { e.e.- d 3.e.E ; 5 @.e.e.e.e.e.3.X         ",
"                      o d 8.e.e.e.e.e.e.e.e.e.Q O o           o 8 :.e.e.e.e.e.@.U U =.e.e.- d 3.e.X.J I 3.e.e.e.e.e.3.X         ",
"                    X ; Y Y Y Y Y Y Y Y Y Y Y Y p X o         o 8 :.e.e.e.e.e.e.e.e.e.e.e.- d 8.e.e.e.e.e.e.e.e.e.e.3.X         ",
"                  o X X X X X X X X X X X X X X X X X         o 8 *.e.e.e.e.e.e.e.e.e.e.e.- d ,.e.e.e.e.e.e.e.e.e.e.3.X         ",
"                  o f { { { { { { { { { { { { { { Q X         o 8 O.e.e.e.e.e.e.e.e.e.e.e.- d @.e.e.e.e.e.e.e.e.e.e.3.X         ",
"                  o 6 a a a a a a a a a a a a a a i X         o 8 X.e.e.e.e.e.e.e.e.e.e.e.- d X.e.e.e.e.e.e.e.e.e.e.3.X         ",
"                  O @ @ @ @ @ @ @ @ @ @ @ @ @ @ @ @ O         o 8 X.&.e.e.e.e.e.e.e.e.e.e.- d X.-.e.e.e.e.e.e.e.e.e.3.X         ",
"                                                              o 8 X.X.,.e.e.e.e.e.e.e.e.e.- d X.X.8.e.e.e.e.e.e.e.e.3.X         ",
"                                                              o 8 X.X.X.:.e.e.e.e.e.e.e.e.- d X.X.X.3.e.e.e.e.e.e.e.3.X         ",
"                                                              o 8 X.X.X.X.+.3.e.e.e.e.e.e.- d X.X.X.X.@.8.e.e.e.e.e.3.X         ",
"                                                              o 8 X.X.X.X.X.X.X.O.+.+.+.+.* d X.X.X.X.X.X.X.o.+.+.+.o.X         ",
"                                                              o 8 X.X.X.X.X.X.X.X.X.X.X.X.* d X.X.X.X.X.X.X.X.X.X.X. .X         ",
"                                                              o O = = = = = = = = = = = = o # = = = = = = = = = = = * X         ",
"                                                                o o o o o o o o o o o o o o o o o o o o o o o o o o o X         ",
"              X     X .     X           X       X       X                                                                       ",
"              X     X X     X           X o   o X     .                                                                         ",
"              o X X X X X X X           . X X X X X X .                                                                         ",
"              o X o o o o X o           . X o o o o X X                                                                         ",
"  X X X X X X X X X X X X X X X X X X X X X X X X X X X X X X X X X X X X X X X X X X X X X X X X X X X X X X X X X X X X X X   ",
"  X v m m m m m m m m m m m m m m m m m m m m m m m m m m m m m m m m m m m m m m m m m m m m m m m m m m m m m m m m m m v X   ",
"  X V V V V V V V V V V V V V V V V V V V V V V V V V V V V V V V V V V V V V V V V V V V V V V V V V V V V V V V V V V V V X   ",
"  X & : : : : : : : : : : : : : : : : : : : : : : : : : : : : : : : : : : : : : : : : : : : : : : : : : : : : : : : : : : & X   ",
"  X o X X a a p d d d d d d d d d d d d d d d d d d d d d d d - & q q r r r r r r r r r r r r r r r r r r r r r r r w X X o X   ",
"        X  .X.O.e.e.e.e.e.e.e.e.e.e.e.e.e.e.e.e.e.e.e.e.e.e.e.9 2 Z Z _ _ _ _ _ _ _ _ _ _ _ _ _ _ _ _ _ _ _ _ _ _ _ G X         ",
"        X  .X.o.[ ! { e.e.e.+.! ! @.e.e.e.[ ! [ e.e.e.e.e.e.e.9 2 Z Z _ _ _ _ _ _ _ _ _ _ _ _ _ _ _ _ _ _ _ _ _ _ _ G X         ",
"        X  .X.p X X X L e.o.# X X % @.e.f X X X J e.e.e.e.e.e.9 2 Z Z _ _ _ _ _ _ _ _ _ _ _ _ _ _ _ _ _ _ _ _ _ _ _ G X         ",
"        X  .X.= e N 2 8 e.E X ^ c X Q e.5 0 N 0 7 e.e.e.e.e.e.9 2 Z Z _ _ _ _ _ _ _ _ _ _ _ _ _ _ _ _ _ _ _ _ _ _ _ G X         ",
"        X  .X.* t S 3 8 e.R X / b X Q e.5 e S 0 7 e.e.e.e.e.e.9 2 Z Z _ _ _ _ _ _ _ _ _ _ _ _ _ _ _ _ _ _ _ _ _ _ _ G X         ",
"        X  .X.9 X X X J e.X.O X X # O.e.d X X X f e.e.e.e.e.e.9 2 Z Z _ _ _ _ _ _ _ C g g g g g j D _ _ _ _ _ _ _ _ G X         ",
"        X  .X.X.Q W Q 8.e.e...W W X.e.e.3.Q W Q 8.e.e.e.e.e.e.9 2 Z Z _ _ _ _ _ _ _ l $ $ o O $ % M _ _ _ _ _ _ _ _ G X         ",
"        X  .X.O.e.e.e.e.e.e.e.e.e.e.e.e.e.e.e.e.e.e.e.e.e.e.e.9 2 Z Z _ _ _ _ _ _ _ _ _ _ : u _ _ _ _ _ _ _ _ _ _ _ G X         ",
"        X  .X.T P P P P P P P P P P P P P P P P P P P P Y 8.e.9 2 Z Z F _ _ _ _ _ _ _ _ _ c B _ _ _ _ _ _ _ _ _ _ _ G X         ",
"        X  .X.= O % % % % % % % % % % % % % % % % % % O X | e.9 2 Z Z Z G _ _ _ _ _ _ _ _ _ _ _ _ _ _ _ _ _ _ _ _ _ G X         ",
"        X  .X.= y A _ _ _ _ _ _ _ _ _ _ _ _ _ _ _ _ _ b X } e.9 2 Z Z Z Z A F G G G G G G G G G G G G G G G G G G G D X         ",
"        X  .X.= y A _ _ _ _ _ _ _ _ _ _ _ _ _ _ _ _ _ b X } e.9 2 Z Z Z Z Z Z Z Z Z Z Z Z Z Z Z Z Z Z Z Z Z Z Z Z Z V X         ",
"        X  .X.= y A _ _ _ _ _ _ _ _ _ _ _ _ _ _ _ _ _ b X } e.9 < m m m m m m m m m m m m m m m m m m m m m m m m m v X         ",
"        X  .X.= y ( _ _ _ _ _ _ _ _ _ _ _ _ _ _ _ _ _ b X } e.9 X X X X X X X X X X X X X X X X X X X X X X X X X X X X         ",
"        X  .X.= y A _ _ _ _ _ _ _ _ _ _ _ _ _ _ _ _ _ b X } e.9 > k k z z z z z z z z z z z z z z z z z z z z z z z l X         ",
"        X  .X.= y A _ _ _ _ _ _ _ _ _ _ _ _ _ _ _ _ _ b X } e.9 2 Z Z _ _ _ _ _ _ _ _ _ _ _ _ _ _ _ _ _ _ _ _ _ _ _ G X         ",
"        X  .X.= y A _ _ _ _ _ _ _ _ _ _ _ _ _ _ _ _ _ b X } e.9 2 Z Z _ _ _ _ _ _ _ _ _ _ _ _ _ _ _ _ _ _ _ _ _ _ _ G X         ",
"        X  .X.= y A _ _ _ _ _ _ _ _ _ _ _ _ _ _ _ _ _ b X } e.9 2 Z Z _ _ _ _ _ _ _ _ _ _ _ _ _ _ _ _ _ _ _ _ _ _ _ G X         ",
"        X  .X.= y Z _ _ _ _ _ _ _ _ _ _ _ _ _ _ _ _ _ b X } e.9 2 Z Z _ _ _ _ _ _ _ _ _ _ _ _ _ _ _ _ _ _ _ _ _ _ _ G X         ",
"        X  .X.= y Z ] _ _ _ _ _ _ _ _ _ _ _ _ _ _ _ _ b X } e.9 2 Z Z _ _ _ _ _ _ _ _ _ _ _ _ _ _ _ _ _ _ _ _ _ _ _ G X         ",
"        X  .X.= y Z ( _ _ _ _ _ _ _ _ _ _ _ _ _ _ _ _ b X } e.9 2 Z Z _ _ _ _ _ _ _ c 2 1 1 1 1 2 B _ _ _ _ _ _ _ _ G X         ",
"        X  .X.= y Z Z ) ` _ _ _ _ _ _ _ _ _ _ _ _ _ _ b X } e.9 2 Z Z _ _ _ _ _ _ _ b 0 0 O : 0 e C _ _ _ _ _ _ _ _ G X         ",
"        X  .X.= y Z Z Z A ' ] ' ' ' ' ' ' ' ' ' ' ' ' n X } e.9 2 Z Z _ _ _ _ _ _ _ _ _ _ > g _ _ _ _ _ _ _ _ _ _ _ G X         ",
"        X  .X.= y Z Z Z Z Z Z Z Z Z Z Z Z Z Z Z Z Z Z x X } e.9 2 Z Z D _ _ _ _ _ _ _ _ _ D _ _ _ _ _ _ _ _ _ _ _ _ G X         ",
"        X  .X.; O + + + + + + + + + + + + + + + + + + O X [ e.8 2 Z Z Z D _ _ _ _ _ _ _ _ _ _ _ _ _ _ _ _ _ _ _ _ _ G X         ",
"        X  .X.T H H H H H H H H H H H H H H H H H H H H L  .X.8 2 Z Z Z Z Z A D D D D D D D D D D D D D D D D D D D A X         ",
"        X  .X.X.X.X.X.X.X.X.X.X.X.X.X.X.X.X.X.X.X.X.X.X.X.X.X.8 2 Z Z Z Z Z Z Z Z Z Z Z Z Z Z Z Z Z Z Z Z Z Z Z Z Z V X         ",
"        X K L L L L L L L L L L L L L L L L L L L L L L L L L , : h h h h h h h h h h h h h h h h h h h h h h h h h g X         ",
"        o X X X X X X X X X X X X X X X X X X X X X X X X X X X X X X X X X X X X X X X X X X X X X X X X X X X X X X o         "
};
