/* XPM */
static char *_83deb992f47408cf626c77846603e86NNaAOlkoaK3ODRzD[] = {
/* columns rows colors chars-per-pixel */
"64 64 226 2 ",
"   c #2F170F",
".  c #352E26",
"X  c #3A3127",
"o  c #35332D",
"O  c #3A352C",
"+  c #38332A",
"@  c #2E3433",
"#  c #323633",
"$  c #333936",
"%  c #3B3B35",
"&  c #333C3C",
"*  c #3A3E3A",
"=  c #383730",
"-  c #2B302E",
";  c #4E2F1A",
":  c #6A391B",
">  c #783F16",
",  c #463727",
"<  c #553C26",
"1  c #423C32",
"2  c #6F3E25",
"3  c #3B413D",
"4  c #7D4315",
"5  c #6F431B",
"6  c #59422B",
"7  c #45443B",
"8  c #584936",
"9  c #6A4629",
"0  c #774B29",
"q  c #7C5229",
"w  c #654C33",
"e  c #69533A",
"r  c #7A5837",
"t  c #333F40",
"y  c #364444",
"u  c #3A4544",
"i  c #3C4846",
"p  c #364749",
"a  c #3C4C4C",
"s  c #37484A",
"d  c #3C4F50",
"f  c #3E5253",
"g  c #3F565A",
"h  c #434E4B",
"j  c #454A43",
"k  c #45514E",
"l  c #49524B",
"z  c #5B5748",
"x  c #435454",
"c  c #415659",
"v  c #435A5D",
"b  c #4A5A57",
"n  c #525B53",
"m  c #544F41",
"M  c #705E44",
"N  c #5A6258",
"B  c #7E6546",
"V  c #676858",
"C  c #797059",
"Z  c #455E62",
"A  c #476265",
"S  c #496264",
"D  c #496569",
"F  c #4A676B",
"G  c #777563",
"H  c #834515",
"J  c #99561A",
"K  c #934E17",
"L  c #A45C1C",
"P  c #A7631E",
"I  c #864927",
"U  c #88552B",
"Y  c #9B5D23",
"T  c #995B27",
"R  c #875C35",
"E  c #924C28",
"W  c #A1582E",
"Q  c #AA5F32",
"!  c #99632A",
"~  c #8C633B",
"^  c #8C6339",
"/  c #95683B",
"(  c #9A6C3D",
")  c #976635",
"_  c #9D703D",
"`  c #A76726",
"'  c #AB712D",
"]  c #B97628",
"[  c #B56938",
"{  c #A4733B",
"}  c #A87537",
"|  c #BB753B",
" . c #A16D33",
".. c #C17F29",
"X. c #C17039",
"o. c #886945",
"O. c #946B42",
"+. c #9B6E42",
"@. c #966B45",
"#. c #9C7142",
"$. c #99754C",
"%. c #987A54",
"&. c #817154",
"*. c #A37444",
"=. c #AA7A44",
"-. c #A27A4C",
";. c #AA7C4A",
":. c #A47648",
">. c #B17E49",
",. c #B07D46",
"<. c #A37C52",
"1. c #A06F47",
"2. c #877E64",
"3. c #C67A43",
"4. c #BE8638",
"5. c #D08B2D",
"6. c #CF9134",
"7. c #CA872D",
"8. c #B2824C",
"9. c #B9854C",
"0. c #AB8455",
"q. c #AC865B",
"w. c #A8855A",
"e. c #B38954",
"r. c #B48C5D",
"t. c #BA8B56",
"y. c #BC935C",
"u. c #B9905A",
"i. c #AB824E",
"p. c #968667",
"a. c #83806A",
"s. c #AC8E62",
"d. c #B48E61",
"f. c #B59264",
"g. c #BC9563",
"h. c #BD9B6C",
"j. c #B69469",
"k. c #B29870",
"l. c #BCA176",
"z. c #C8864C",
"x. c #D5894C",
"c. c #C18D52",
"v. c #CE8A50",
"b. c #C4935A",
"n. c #CA9559",
"m. c #CC9A5D",
"M. c #C69458",
"N. c #D9975A",
"B. c #CF9649",
"V. c #E29B5D",
"C. c #CD9D62",
"Z. c #C39A67",
"A. c #D09F62",
"S. c #C19F71",
"D. c #E39F61",
"F. c #CDA36D",
"G. c #CAA068",
"H. c #D3A265",
"J. c #D4A56A",
"K. c #D5A96D",
"L. c #DCAB6C",
"P. c #DBA566",
"I. c #C5A374",
"U. c #CAA673",
"Y. c #CDA976",
"T. c #CDAC7C",
"R. c #C4A77A",
"E. c #D9AD72",
"W. c #D2AE7C",
"Q. c #D4AC73",
"!. c #DCB275",
"~. c #D5B37D",
"^. c #DDB57B",
"/. c #CFB07F",
"(. c #E5AA6A",
"). c #E1B67C",
"_. c #E6B877",
"`. c #E4B36F",
"'. c #DDAE5B",
"]. c #EEC37C",
"[. c #CDAF80",
"{. c #CDB286",
"}. c #D4B483",
"|. c #D9B783",
" X c #DCBA85",
".X c #DDBD8C",
"XX c #D6B789",
"oX c #E3BD84",
"OX c #E1BE89",
"+X c #DFC190",
"@X c #EAC486",
"#X c #E5C28B",
"$X c #EBC68B",
"%X c #EEC98E",
"&X c #E4C086",
"*X c #F2CB89",
"=X c #E5C692",
"-X c #EAC791",
";X c #EECC93",
":X c #EDCE9A",
">X c #E5C898",
",X c #F0CE95",
"<X c #F0CF98",
"1X c #EFD19C",
"2X c #F1D096",
"3X c #F2D29B",
"4X c #F9D69B",
"5X c #F9D89D",
"6X c #F9D79A",
"7X c #EFD3A1",
"8X c #F4D7A3",
"9X c #F4D6A1",
"0X c #F3D6A2",
"qX c #F4D8A5",
"wX c #F4D9A6",
"eX c #F6D9A5",
"rX c #F4D9A6",
"tX c #FADCA4",
"yX c #F5DAA9",
"uX c #F5DAAA",
"iX c #F5DAA9",
"pX c #FADEAA",
"aX c #FCE1AC",
"sX c #FFE1A7",
"dX c #FCE3B1",
"fX c #FCE5B3",
/* pixels */
";X%X%X%X;X;X,X,X;X;X,X,X<X2X,X<X2X,X,X,X2X2X,X,X2X,X<X2X2X2X2X2X2X2X2X2X2X<X:X;X;X,X<X;X<X2X,X;X;X;X;X;X;X;X;X;X%X$X$X$X%X%X;X$X",
";X%X$X%X,X,X,X,X,X2X2X2X3X3X3X3X3X3X2X2X3X3X2X2X3X3X3X3X3X3X0X3X3X3X3X3X0X3X3X3X2X2X2X2X2X3X3X3X2X2X2X2X2X2X;X,X;X;X,X;X%X%X;X%X",
"%X%X%X;X2X2X2X2X3X3X3X0X9X0X0XqX9X0X3X3X9X0X3X0X0X0X0X0X0X0XqX0X0X0X0X3X3X3X3X9XpX9XtX3X3X3X3X2X3X3X2X3X3X2X;X;X2X2X2X,X%X;X;X$X",
"$X%X,X,X2X3X3X9X9X0X9X0X9XqXqXyXqX9XqX9X0X9X9X0XqX0X9X9XqXqXqX9X9X0X9X0X0X0XpX>Xd.$.U.tX0X0X0X3X0X3X3X3X3X4XtX3X2X2X,X,X,X,X;X$X",
"%X%X,X,X2X3X3X0X9X0X9X9X9X9XqXqXqXqX9X9X9X9XqXqXqXqXqXqXqXqXqX9XqXqX9X9X0XpXXXw.T.F.~ :XqX0X0X0X9X3X3XtX4X XI. X3X2X,X,X2X,X,X;X",
"%X%X,X,X2X3X3X0X9X3X9XyX9X9XqXqXyXyX9XqXqXqXyXyXqXqXqXyXyXqXqXqXqXqX0X0XaXT.q.:X$XP.#..XpX0X0X0X0XpX9XY.0.d.q.^ #X4X2X2X2X,X,X;X",
"%X%X,X2X2X3X0X9X3XqXqXqXqXqXqXqXyX9X9XqXqXqXqXqXqXqXqXyXyXyXqXqX9XqX0XdX[.q.9X-XE.A.+.+XtX0X0XtX8XT.q.S. XZ.P.+.T.tX,X2X2X,X;X%X",
"$X%X,X,X3X3X3X0X3X9X9XqXqXqXqXyXyX0XqXqXqXqXyXqXyXyXqXqXyXyXyX9X3X0XpX.Xq.qX;XOXQ.M.O.:XqXqXpX|.0.h.;XU.( Q z./ |.4X,X2X2X,X;X%X",
"%X$X,X,X2X3X3X0X9X9XqXqXqXqXyXyXyXyXqXqXyXqXqXqXqXqXqXyXqXyXyXqXqXyX0Xq.1XqX>XoXK.9.@.0XpX:Xd.q.-X#X1.E | v.n.~ -X2X,X2X2X;X;X$X",
";X%X,X2X3X3X3X9X9X9XqXyXqXyXyXyXyXyXyX9XyXqXqXyXyXyXyXyXqXqXyXyXqXdXh.W.dX0X-X^.H.=.q.fX X<.T.tXF.I W 3.z.V.c.-.5X;X,X,X,X,X;X$X",
"%X;X2X3X3X3X0X9XqXqXyXqXyXyXqXyXyXyXuXyXyXyXqXyXyXyXyXqXqXqXqXqXpX=Xd.pXwX;XoXK.m./ XX X<.:XaXu.I [ 3.v.N.(.*.U.5X<X,X,X2X,X%X$X",
"%X;X3X3X3X3X0X9XqXqXqXyXyXyXyXyXuXuXuXyXyXyXyXyXyXqXyXyXyXqXqXqXaXj.|.pX1X#X^.m.c.$.I.r.qXtXZ.I [ 3.z.D.V.N.@.:X2X2X2X2X2X,X$X$X",
";X,X3X3X3X0X9X9XqXqXqXyXqXqXyXqXyXuXyXyXyXyXyXyXyXyXyXyXqXqXqXuX:Xr.9X3X$X!.m.n.>.~ r.wXuX!.I [ 3.z.N.V.(.8.j.tX2X2X3X3X2X2X$X$X",
";X;X2X3X3X0X9XqXyXqXqXqXqXqXyXqXyXyXyXyXyXqXyXqXyXyXyXqXyXyXwXaXT.S.tX>X).A.M.n.U o.qXwX;XO.T | 3.x.V.N.!.+.-X8X3X2X2X2X2X,X%X$X",
";X;X2X3X3X0X0XqXqX0X9XqXqXyXyXqXyXyXyXyXyXyXyXyXyXyXyXyXyXuXqXaXj.XX2X).H.M.M.;.0 :XyX2XF.I [ 3.x.N.x.(.e.d.tX2X2X2X,X2X<X2X;X%X",
";X%X2X3X3X0X0X0X0X0XqXyXqXyXqXqXyXyXqXyXyXyXyXyXyXyXqXqXyXyXwXqX0.#XoXK.m.M.M.9 I.pX:X,XO.E | 3.x.x.V.E.+.:X3X3X3X2X2X3X3X2X;X%X",
";X,X3X2X3X0X3XqXqXqXqXqXqXyXyXqXyXyXyXuXyXuXyXyXyXuXyXyXyXyXfX:X0.$XK.A.M.n.R $.tX7X8XS.2 Q | 3.3.x._.+.W.tX3X3X0X3X3X3X2X,X;X;X",
";X;X2X2X3X3X3X0X9XqXqXyXqXqXyXqXqXqXyXyXyXuXyXyXyXyXyXuXfXyXXX<.O.u.M.8.*.^ 0 1X0X;X^.R E [ | X.3.`.*.j.pX3X3X0X3X3X2X2X2X2X;X;X",
";X;X2X2X3X3X0X0X0X9XqXqXqXyXyXqXqXyXuXyXuXuXyXyXyXwXuXpXT.-.<.I..XOXoXE.F.^ }.tX>X$XZ.I W W [ v.`.+.q.pX3X3X3X3X0X3X3X2X2X2X,X$X",
";X,X2X2X2X3X0XqX9X9XqXqX9X9XqXqXqXqXyXyXuXuXyXyXyXdX7Xq.d.#XpXpXqXqX0X0X-XOX9X:X$XE.2 : U 9.L.J.O.j.pX0X0X3X0X0X0X0X3X3X2X2X;X$X",
";X,X2X2X3X9X0X0XqXqXqX9X9XqXqXqXqXqXqXyXuXyXyXwXdX>Xq.XXaXyXqX0X0XqXqX0X0X3X;X#XJ.R 9 8.L.A.;.O.T.aX0X0X0X0X0X0X0X3X3X3X2X2X;X;X",
";X,X2X2X0X9X9X0X9X0X9XqXqXqXqXqXyXyXyXyXyXyXqXuX:Xr.>XpXqXqX0X0XqX0X1X3X:X;XoX!.u.t.`.C.O.O.j.3XpX0X0X0X0X0X0X0X3X3X0X3X2X2X,X;X",
";X,X2X2X3X0X9X9X9X9XqXqXqXqXqXqXyXyXyXyXyXyXwXaXg.OXpXqXqXqXqX0X7X:X:X1X:X;X#XE.J.H.:.9 I.0XaXqX0X0X0XqX9X0X0X0X0X3X3X3X2X2X,X;X",
";X,X2X2X2X0X3X9X9X9XqXqXqXqXqXyXyXqXqXqXyXyXpX=Xg.pXqXqXqXwX1X3XtX9X:X;X;X$X$XoXC.M.^ o.aX0X0XqX0X3X9XqX9X0X0X0X0X3X3X3X2X2X2X;X",
";X,X2X2X2X0X0X9X9X9XqXqXyXyXyXyXyXyXyXyXyXwXdXT.W.pX0XwXqX1X2X|.-.Z.%X#XoX#X-X#XJ.M.M.R XXpX0XqX0X0XqX0X0X0XqX0X0X3X3X3X2X2X,X;X",
";X,X2X3X0X0X0X0X0X0XqXqXyXyXyXyXqXyXyXyXyXqXuXZ.:XuXwXqX0X:X|.r 6   <.,X#X-X:X-XoXJ.H.#.j.dX0X0X0X0X0X0X9X0X0X0X3X0X0X3X2X2X,X%X",
",X<X2X3X3X3X0X0XqX9XwXqXqXqX0XqXyXyXqXqXqXaXXXY.aXwXwXqX:X6X%.; w   9 3X0X3X3X:X#XE.H.;.<.aX0X0X0X0X3X0X0X3X0X3X3X3X3X3X2X,X,X%X",
";X,X2X2X2X3X9X0X3X0XyXpXwXpXpXqXyX9XqXqXqX0XS.3XqXwXwX0X1X8X~     ; q.tX1X0X3X:XoXH.J.;.$.aX0X0XqX0X3X0X0X0X3X0X3X3X3X3X2X2X,X%X",
";X,X2X3X3X0X0X0X0XtX>Xg.9.t.+XpX0X0XqXwXpXU.).4XpXwXqX3XqX3X|.w.r q.3X0X0XqX3X$X#XE.H.;.<.aX0X0XqX9X0X0X0X0X3X3X0X0X3X3X2X2X,X%X",
";X;X2X3X2X0X0X3XqX>Xe.! ) Y ` .XtX0X0XqXqXr.N._.F.:XyX0XqXqX9X4X3X8X0X0XqX3X;X;X).H.J.( h.aX0X0XqX0X0XqXqX0X3X0X0X0X3X2X2X2X,X%X",
";X;X2X2X3X0X0X3XyXY.} k.dX{.Y e.uX0X0X0X=XZ.;.U g.qX0X1X0XqX0X7X7X1X3X0X3X:X$XoX!.M.M.R }.pX0XqX0X0X0X0X0X0X0X0X3X3X3X3X2X,X;X%X",
";X,X2X2X3X2X3X3XqXZ.! R.b.u.) { wX0X0X3X-Xy.F.r.5X:X;X-X$X$X:X3X1X1X:X:X;X$XoX!.C.m.8.r >X8X0X0X0X0X0X0X0X0X3X3X0X3X3X3X2X,X;X%X",
"%X,X2X2X3X3X3X0XtX}.J U 9.q 4 Z.tX3X0X0X8XY.;.*.K.%X,XoXoXoXoX-X;X:X:X$X#XoXK.C.m.8.9 e tX0X0X0X0XqX0X0X0X3X3X3X3X3X0X2X2X2X,X%X",
";X,X2X2X3X3X3X3X3X9Xr.q ) ' r =X0XpXpX3X1X8XY.0 R b.g.C.J.!.oXoXoXoX!.E.J.H.m.M.9.6 # O I.tX3X0X3X0X0X0X0X3X0X3X3X3X3X3X3X2X;X%X",
";X,X2X2X2X0X3X3X:X4XaXj.! ] ' } =.u.[.0XpX1XaX#X^ *.8.m.L.H.J.E.K.H.C.m.m.M.8.R , # y @ &.tX1X3X0X0X0X3X0X0X3X3X3X3X3X3X2X2X;X%X",
";X,X2X2X3X3X3X2XtX=X;.4.6.] ` Y J J J ( [.pX1XtX.X0.:.*.=.c.b.M.M.M.b.e.*.q , o & y u o %.aX1X0XqX0X0X0XqX0X3X3X0X3X3X2X2X2X,X;X",
";X,X2X2X3X3X3XtX|._ B.| ) ( #.;.8./ U J J h.tX1X9XaXd.+ , r ( #.>.+.^ R 9 = a s u u 3 X , T.pX0X0X0X0X0X0X0X0X0X3X3X3X2X2X2X,X;X",
";X;X2X3X3X3X8X=X_ '.) / `.!.O.r.].L.8./ J J S.tX3X Xm a 6 ( =.;.( / / w h A v a g u X * @ 8 :X9X3X0X0X0X0X3X3X0X3X3X3X3X2X2X;X%X",
";X,X2X2X3X3XtX-.'.{ -.$.h.2Xw.s.2XF.m.`.#.Y T .XsXj.j x w c.b.b.b.8.e v D A x v x O s a h @ w.aX3X3X0X0X0X3X0X0X3X3X3X3X3X2X;X$X",
";X,X2X2X3XtXT.=.B./ 6XT.$.=X1X1X2X X*XJ.#./ J -.aXOX8 a r K.K.^.Q.M A S b S S v 1 h c a a u 8 ;X9X3X0X0X3X0X0X3X3X3X3X2X3X2X;X$X",
";X,X,X2X2XaX<.B.} u.3X1X8XaX0X3X1X5XU.O.y.n.! ! T.e h i -.).^.$Xo.v v O O % k 7 7 f f x a a = f.aX0X0X0X0X0X2X2X3X2X2X2X3X2X;X%X",
"%X,X,X2X2X2X/ 6._ q.w.h.h.[.aXtXsXI.q !.*X`.{ L < = v 7 t.).$Xr.l F v O $ o X j c Z A v a x & B tX0X0X0X3X3X3X3X3X3X2X2X2X2X;X%X",
"%X,X2X2X4X=X) 6.{ 2X3X;Xh.r j.I.f.0._.2X0.~ _ P 6 * h m 9.^.).e S S D h O * u Z D A Z v d a y 8 ;X8X0X3X3X3X3X3X3X3X2X2X2X2X;X$X",
"%X;X2X2X3X#X! 5.{ Q.h.=XtX%Xg.5 U ].2X2Xu.-.-.` 9 * 3 m 8.J.e.j Z Z b 1 % % Z D D A A v c a s 1 XXtX3X0X0X3X3X2X3X3X3X2X2X,X,X%X",
"%X;X,X3X4X>XU 5.{ $.$..X9X3X5XF.Z.%X;X;X$X*Xt.J ; @ * 8 >.M.r s x l O * * k F D D F D Z d u s # f.tX3X0X0X3X3X3X3X2X2X2X,X,X,X%X",
";X;X2X2X2X3XR ..' G.,X~.2X2X:X4X3X<X2X#XO.i.;./ $.e X , >.c.6 d u X * y O a v v A F A g s y u @ &.tX3X3X3X3X3X0X3X2X,X2X,X;X;X%X",
";X;X,X2X;XtX<.P ..t.f.o.|.4X2X<X;X;X2X X~ r ~ I.$X4XU.r ^ R , % X + = . o a Z Z D Z v a u y * y 1  X9X:X2X2X3X3X3X2X2X2X,X,X,X%X",
";X,X,X2X2X5XT.4 5. .-.@.T.|.$X,X2X,X~.!._.i.r.-X=X1X8X@X#., x k h k * 7 i 3 v A c g g a u * $ u # o.tX:X3X2X3X3X2X2X2X2X,X,X;X$X",
"%X;X,X2X2X2X5XO.J 7.( G.#Xo.g.@Xu.^.^.#.H.R -.!.-X:X;X-X_.t.8 A D F v j F a & v v d a y u o & y u X U.tX;X2X3X2X2X2X2X2X2X;X;X$X",
"%X%X,X,X2X,X4X#X0 ` ] { g.$.y.@X~ 0.].y.) K 9 E.$X;X;X$XK.P.e Z S Z S 7 f A f d v a p y = o & y i & w ;X3X2X2X2X2X2X2X2X2X,X%X%X",
";X;X,X2X,X2X2XtX~.: L ] Y { y.J.e.8.;.! J : , -.H.L.^.!.H.m.r g S v D h 3 g A v f y y * . & & y u a - w.tX;X2X2X2X2X2X2X,X,X;X%X",
"%X;X,X,X,X2X2X;XtX X0 4 L L J Y ` Y K H ; % 3 O < R 9.n.M.c.r x v x c j * f d s y p p . # & y y u i i , ~.4X;X2X3X2X2X2X2X,X%X%X",
"%X;X2X,X2X2X2X3X:XtX;Xq.0 > > H H 4 q o.6 # $ $ - . , 0 ^ / w a f a f j $ p y y y s . # & y & y s a k 3 o.3X;X2X2X2X2X2X2X,X%X%X",
"%X;X,X,X,X2X3X2X3X2X3XtX2X}.h.f.j.Y.#X6XOXs.o.M B 6 @ , < , , f a y s 3 * y p y * . o & & y y y s a l l 8 ~.4X2X2X2X2X2X2X,X;X$X",
"%X;X,X;X,X3X2X2X3X3X3X2X3XtXtXtXtXtX3X;X4XtX4X4X%X8 & 6 q o y d u y i + o # o o o # & & & & p p s i n V C U.4X2X2X3X2X2X2X,X%X%X",
"%X;X;X,X2X2X2X2X2X3X2X3X3X3X2X3X2X3X0X0X0X1X:X4XW.7 a 6 { ^ 6 O + o + o # # # & & & & y y u s a k l V p.I.&X,X2X2X2X2X2X2X;X%X$X",
"$X;X,X,X2X,X2X2X2X2X2X2X2X3X3X0X3X0X3X3X3X3X2XtXI.m b w ,.c.^ 3 3 * $ & & y t & & y y a x x x n N V p.l.#X;X,X2X2X2X2X2X2X;X%X%X",
"%X%X%X,X,X,X2X3X2X2X2X2X2X2X2X0X3X3X3X3X0X3X3X8XT.&.V B c.b.>.z x h i u u y p s a f a l k x N G p.k.~.;X;X,X2X2X2X,X,X,X;X%X;X%X",
"$X$X%X,X,X2X2X2X2X3X2X2X2X2X3X3X3X3X3X3X2X3X0X0X%XY.l.f.J.E.H.%.N N n l a b x x b n N z V G k.R. X$X;X;X,X,X2X2X2X2X2X,X;X%X%X%X",
"$X$X%X,X,X,X,X,X2X2X2X2X2X2X,X,X3X3X2X2X3X3X2X3X2X;X#X&X).@X$XK.p.a.G V N V G G V 2.p.p.l.}.OX$X;X,X,X,X,X,X2X,X2X2X2X2X,X;X$X%X",
"%X$X%X%X%X,X,X,X2X2X2X2X2X2X,X2X2X2X2X2X2X2X,X<X,X2X,X;X;X;X;X;X#XXX[./.R.T.[.T. X#X$X%X,X,X;X;X;X;X;X,X,X,X,X2X,X,X,X2X,X%X%X%X",
"%X%X$X$X%X,X;X,X;X;X,X,X,X;X<X2X,X,X2X2X,X,X,X,X;X,X;X,X2X2X2X2X2X2X2X2X,X,X,X,X,X,X,X;X2X2X,X;X,X2X,X,X,X,X,X,X;X,X,X;X%X,X;X$X",
"%X;X%X$X$X;X%X%X,X;X;X;X;X,X,X,X;X%X,X,X;X;X;X;X;X,X,X;X,X;X,X,X2X:X:X2X;X;X;X;X,X,X,X;X;X2X;X;X,X;X,X;X;X;X;X;X;X;X%X%X%X;X%X@X",
"$X%X%X%X$X$X$X$X$X%X;X%X%X%X;X%X;X;X;X%X%X%X$X%X%X;X;X%X$X%X%X;X;X;X;X;X;X<X;X;X,X;X;X;X%X;X;X%X$X%X%X$X;X%X%X$X;X;X%X%X$X$X$X@X"
};
