/* XPM */
static char *_77ad910e9914a19e1f07f14b5d3be8cIjBfBeDTDGzDX0FH[] = {
/* columns rows colors chars-per-pixel */
"64 64 195 2 ",
"   c #381E10",
".  c #342215",
"X  c #3C2313",
"o  c #432513",
"O  c #492712",
"+  c #462915",
"@  c #4C2B15",
"#  c #462D19",
"$  c #4B2E18",
"%  c #532E16",
"&  c #5A2F15",
"*  c #532F18",
"=  c #592F18",
"-  c #4E3119",
";  c #563117",
":  c #5B3217",
">  c #54351B",
",  c #5B3318",
"<  c #57381C",
"1  c #5A391C",
"2  c #5E3817",
"3  c #633416",
"4  c #643B16",
"5  c #6B3E17",
"6  c #633619",
"7  c #693719",
"8  c #653A1B",
"9  c #6B3A1A",
"0  c #6B3717",
"q  c #733E1B",
"w  c #793F1A",
"e  c #6D4117",
"r  c #66401F",
"t  c #6C411B",
"y  c #7C4B17",
"u  c #76401B",
"i  c #7C421C",
"p  c #7A4B19",
"a  c #664121",
"s  c #6C4522",
"d  c #6E4825",
"f  c #704621",
"g  c #734B25",
"h  c #754E28",
"j  c #794F27",
"k  c #76502A",
"l  c #7B522A",
"z  c #7B5731",
"x  c #83461D",
"c  c #89461C",
"v  c #86481E",
"b  c #8B4A1E",
"n  c #934D1F",
"m  c #875217",
"M  c #845119",
"N  c #8D5818",
"B  c #8C5518",
"V  c #925A19",
"C  c #995F19",
"Z  c #99501F",
"A  c #9C6119",
"S  c #AA6B1A",
"D  c #A46519",
"F  c #B16E19",
"G  c #B5721A",
"H  c #BB761A",
"J  c #BE791B",
"K  c #8E4D20",
"L  c #924E20",
"P  c #835529",
"I  c #84592E",
"U  c #8B5C2E",
"Y  c #935021",
"T  c #9C5321",
"R  c #835C31",
"E  c #8A5E31",
"W  c #A05622",
"Q  c #9A652E",
"!  c #9A652E",
"~  c #8D6233",
"^  c #956634",
"/  c #956936",
"(  c #9B6B37",
")  c #966D3B",
"_  c #9C6E3A",
"`  c #9D713D",
"'  c #A56D32",
"]  c #A96F31",
"[  c #A3743D",
"{  c #A8743A",
"}  c #AB7438",
"|  c #B67C3B",
" . c #C47D1B",
".. c #9C7241",
"X. c #A27640",
"o. c #A47A44",
"O. c #AC7C42",
"+. c #B17E42",
"@. c #BF813A",
"#. c #CC831C",
"$. c #C6801C",
"%. c #D48A1D",
"&. c #DC8F1D",
"*. c #D4871C",
"=. c #DD921D",
"-. c #E2951D",
";. c #E5991E",
":. c #EA9B1E",
">. c #C3863C",
",. c #C6883E",
"<. c #C88A3F",
"1. c #E09820",
"2. c #AD824B",
"3. c #B38246",
"4. c #B48549",
"5. c #BD8B4B",
"6. c #BE8947",
"7. c #B68A50",
"8. c #BE8F51",
"9. c #BE9153",
"0. c #C68B42",
"q. c #CA8D43",
"w. c #C18E4C",
"e. c #CC9146",
"r. c #C3914F",
"t. c #CD9349",
"y. c #D09547",
"u. c #DA9946",
"i. c #D1964A",
"p. c #D49A4D",
"a. c #DC9D4B",
"s. c #C59453",
"d. c #C99754",
"f. c #CB9955",
"g. c #C69958",
"h. c #CC9C5A",
"j. c #D59E52",
"k. c #D19F59",
"l. c #D89F52",
"z. c #CFA05D",
"x. c #D7A054",
"c. c #D9A355",
"v. c #D4A25C",
"b. c #DBA65A",
"n. c #DDA95E",
"m. c #E1A757",
"M. c #E4AD5F",
"N. c #D5A660",
"B. c #DEAC63",
"V. c #DCAE68",
"C. c #D6A864",
"Z. c #DFB16A",
"A. c #E0AD62",
"S. c #E0AE63",
"D. c #E0AF65",
"F. c #E0AF66",
"G. c #E0AE65",
"H. c #E1B067",
"J. c #E2B066",
"K. c #E1B067",
"L. c #E1B168",
"P. c #E1B169",
"I. c #E2B168",
"U. c #E2B269",
"Y. c #E2B268",
"T. c #E2B36A",
"R. c #E0B16A",
"E. c #E3B46B",
"W. c #E1B36C",
"Q. c #E3B46C",
"!. c #E3B56D",
"~. c #E3B56E",
"^. c #E1B46E",
"/. c #E4B56D",
"(. c #E4B66F",
"). c #E4B66E",
"_. c #E4B56E",
"`. c #E2B36B",
"'. c #E9B76B",
"]. c #E7B86F",
"[. c #EAB96E",
"{. c #E4B770",
"}. c #E4B770",
"|. c #E4B770",
" X c #E5B871",
".X c #E5B871",
"XX c #E5B872",
"oX c #E5B973",
"OX c #E5B872",
"+X c #E7BA72",
"@X c #E5B973",
"#X c #EBBD73",
"$X c #EEC076",
"%X c #EDC27B",
"&X c #F1C276",
/* pixels */
". . X > < < < < , < < < < < < < < > , < < < < < < < < < < < < 1 < < 1 1 1 < < < < < < < < < < > > < < < > > > > > > > > - X . . ",
". > ] >.0.q.e.y.y.e.y.p.y.y.p.p.p.j.p.p.p.p.y.y.p.p.p.j.p.p.j.j.p.p.p.p.p.i.p.p.p.p.y.y.p.p.i.y.e.y.p.p.p.y.t.e.e.0.q.0.,.] - . ",
"X } u.p.c.b.b.n.n.n.B.n.n.n.A.A.D.J.J.J.D.B.A.n.B.B.D.A.J.D.A.A.D.A.B.B.B.A.A.J.J.n.n.n.B.D.n.B.n.n.B.B.n.n.n.n.b.b.c.p.p.a.] X ",
"> ,.j.c.b.n.n.n.B.J.D.D.D.D.D.J.U.U.U.U.U.J.U.D.U.U.U.D.U.J.U.U.Q.J.U.U.U.U.U.J.U.U.D.Q.Q.J.J.J.D.D.D.U.B.D.D.B.B.n.b.b.c.j.,.- ",
"> ,.c.c.n.B.B.B.U.U.J.U.D.U.U.Q.E.U.U.J.U.Q./.{.Q.Q.{.J.E.{.Q.U.U.Q.U.{.U.U.U.U.U.U.U.U.U.U.Q.U.Q.Q.U.D.A.U.U.D.J.A.B.n.b.x.>.- ",
"> 0.c.c.A.n.B.J.U.D.U.XXU.U././.E.{.{././.XXXXXXQ./.XX/./.XX/././.XX/.{.{.Q.J.E.U./.Q.E./.{./.{.Q.Q.Q.U.J.U.U.A.J.U.B.n.n.c.,.- ",
"> q.c.n.B.D.U.J.U.U.U.C.[.+XQ.{.{.{.Q././.XXXX/.XXXX{.XX/.XX{./././.oXXXXXQ.Q.Q./.{.XXU.U././.{.U.XX+XC.U.J.J.U.J.D.B.B.b.c.,.- ",
"> <.c.b.B.J.U.U.D.E.s.> k s.#X{.W.Q.Q./.{.XXXXXXXXXX{.{.XXoXXX/.XXXX{././.{.Q.{././.Q.Q./.XXU.W.#Xz.R > 7.[.U.J.D.U.A.B.n.c.0.- ",
"> q.x.b.B.J.U.J.U.'.~ : % o ~ V.+XW.Q.{././.XXXX/./.XX/.XXXX/./.XXXXXX{.{./.{.oXXX{./.Q.Q.Q./.E.X.+ : 6 z [.J.D.U.U.A.B.n.x.0.- ",
"> q.b.b.B.A.U.U.W.U.d x Y 6 o a g.#XQ.Q.XXQ.{././.XX{././.XXXXXXXX/.XX{.XXXX{.XXXX/.XXQ.U.#XV.l X > L x a C.U.J.U.D.D.n.b.c.0.- ",
"> e.b.b.B.J.U.D.Q.C.t b Y b , @ > 7.#XQ.Q.Q.XX/.XXoXXX/.U.XX{.XXoX{.{.XX{.XXXXXX{./.{.|.#Xh.a % * i L L 8 v.E.D.A.D.A.n.B.b.q.- ",
"> e.b.B.B.D.U.D.E.h.9 T T L x * 6 % ..+XQ.Q./.Q./.XXXX{././.{././.{.{.{./.XX/.XXXX/.Q.$X8.> 3 , 7 b L T 6 f./.U.A.D.B.n.B.n.0.- ",
"> q.n.B.n.D.D.U.].g.8 T T L x 6 @ 9 O E U.{.U.U.U./.{.Q.{.XX/.Q.XX/./.{./././.{.Q.|.#X2.@ 7 7 @ i L T T 8 s./.U.U.J.D.B.n.b.q.- ",
"> q.b.n.B.B.J.U.#X9.6 T T L x w * : 9 O h B.{.|.Q.Q.Q.Q.Q.XXQ.|.{.|.Q.XXXX/.Q.Q.U.#Xo.O 7 u @ 9 b T T T 8 g.].U.U.D.J.B.n.b.q.- ",
"> t.c.b.B.n.B.B.[.7.: T T b x i 9 @ 9 7 O g B.|.Z.W.U.Q./.XXXXXXoX#XXX{.Q.W.W.Z.[...o 6 q 7 % i x n W W 8 g.].U.U.A.n.D.B.b.e.> ",
"< e.x.n.B.D.J.B./.9.6 T T n i q q @ , 9 6 O g B.[.E.J.B.v.v.h.h.v.z.v.B.U.[.[.'.) X 6 7 q @ 6 q x T W T u g.E.D.J.D.B.B.B.n.e.- ",
"< e.b.n.B.D.J.U.E.h.8 T T n x q 7 ; @ q 6 8 o h [ E g a 8 , > > > > , 8 d R [ / o , 7 9 7 @ 7 9 i n T T q h.].U.U.J.U.A.B.n.q.- ",
"> t.c.b.B.D.J.J.U.N.s n W n x q 7 : + 9 9 6 : o o X o % : @ @ @ % ; % @ o O @ o > 7 8 i > @ 7 9 i b T T f N./.U.U.U.D.B.n.n.q.- ",
"> q.c.B.D.A.J.U.B.D.d x T x q , % ; + : q 7 6 7 9 6 + 7 q % @ @ % : 6 , @ : 7 q q 9 q q @ % : 9 q c T b d B.U.J.J.J.A.D.n.b.e.> ",
"< e.c.B.J.D.J.W.Z.E.R 0 Z c w 6 @ % 7 + u q i i i q % @ q 6 @ @ @ , q 7 % 7 q q u q q 7 + : : 7 w c L w l '.U.U.U.D.D.A.B.n.t.> ",
"< e.b.B.D.U.D.U.W.[.o.& n x q 3 % 6 q 7 u q u i x x i @ q 9 ; % % 9 i 6 , i i x i i i i 9 8 ; 7 w b T 6 ) [.B.U.U.U.J.J.B.b.e.> ",
"< q.b.B.D.U.U.U.U.E.f.; i x q % , q i i 9 7 6 6 9 i x 7 q i 6 @ , i i , 9 x i 7 6 , 7 9 x q 6 , 9 x b : 9./.U.U.U.U.U.D.B.c.e.> ",
"> e.b.B.U.J.U.Q.U.B.J.d & i % , 7 q q q i v v x u 7 x q q i 9 @ 6 i q 8 x i 7 q i q q 6 6 q q 7 : 9 7 a B.U.U.Q.U.U.U.J.B.n.e.< ",
"> e.n.b.B.B.U.Q.J.B./.4.@ 7 6 q q q i x b b v x b x i i q i q ; 6 i q i x i b b b b b x i q i q 6 9 O ` [.Z.U.U.U.D.B.B.B.n.t.< ",
"> q.b.n.B.D.D.Q.W.B.J.f.@ % q u i x b i : > ; : q b x x x i i 8 9 i i x x b i * % : , i b x i q q 9 o 5.E.B.U.U.J.U.A.B.n.b.t.> ",
"< q.b.B.B.U.B.U.U.V.[.~ o 6 q q i v q @ m F H S e : x b x i i q q w x x b 7 % V G G C ; 6 b i i q 7 o h D.U.U.U.U.Q.U.B.b.n.t.> ",
"< t.b.n.D.U.D.J.U.XX8.% % , 7 i x 9 @ S -.:.J D :.N % x x x i q i i i x 7 4 *.H S ;.;.#.2 6 i i 7 : >   ~ '.B.J.U.D.B.D.B.b.e.> ",
"> e.b.b.B.U.W.Z.Z.Y.g + > : , 8 8 X B :.=.;.M ; =.-.e 7 b x i i i w i i ;  .:.u 2 -.=.;.J @ 7 8 6 7 : @ o 4.E.B.U.D.A.B.B.b.e.> ",
"> q.c.n.J.E./.].[.O.+ : , 9 q 7 + o J ;.=.;.e ; *.;.G % x i i i i i x 6 m ;.=.5 ; %.;.=.=.e X : 7 7 8 , o h Y.U.E.U.J.D.n.c.e.> ",
"< e.c.n.k.6.3.3.4.> : q q q i v q @  .-.-.-.5 % #.;.*.2 i x x i i i x , F ;.=.4 % #.;.=.-.e : i i i u u 9 % 4.J.N.C.B.J.n.b.t.> ",
"< q.c.b.n.v.h.8.( @ @ % q i i x b * A :.=.-.e : %.-.&.5 q x i i i i x 6  .-.=.5 ; *.-.-.*.: i v i u q 7 , @ 1 [ [ O.5.n.B.b.e.> ",
"< e.c.b.J.U.U.#X` @ 6 8 7 q x x b i 2 %.-.;.p e ;.=.&.4 q i i q q i x : $.;.;.p 8 1.=.:.N , n x v i 7 ; : @ , k./.D.J.B.B.n.e.> ",
"< q.b.B.B.B.J.B.8 @ q i v 9 : q x b 7 5 #.:. . .:.=.A o 9 i q q q q u + m &.:.J G :.=.V > v b x 7 ; 7 q q 6 o [ /.V.U.B.B.n.t.> ",
"> 0.b.b.A.E.B.v.d : q x i o : i q x b 7 2 y A A B e @ o q i i x i x i + @ 4 N S S C 5 : x x i 7 9 @ 6 x q 9 O ~ [.E.U.B.B.n.e.> ",
"> q.b.c.r.O.[ ^ @ @ , 7 6 + @ u i i x b x 9 7 7 7 q i u q : 6 7 7 6 9 q i q 6 , = : 9 b x i 9 q q o + 6 6 , o P s.N.J.J.n.n.t.> ",
"> q.c.e.w.f.B.k.> 6 x i x 7 $ + 7 x x x v b b b x x x b % 9 b x x i @ i v x x x x x x x x x i 8 + @ 7 q 7 , o l +.[ +.j.n.n.t.> ",
"> t.c.n.A.J.U.n.8 % x v b q r P @ u b b x i u x x x b b 9 % 9 n i , 8 v v x x i q i x x v b i > g : x v q 7 o _ [.B.v.x.n.b.q.> ",
"> e.b.n.n.U.B.E.X.@ q 9 7 9 @ U s @ 6 x Y b x i b b b K Y u % i : : b b b b x u u x b b i : @ ' P % i i q : , 5.D.B.A.D.n.b.q.> ",
"< e.b.B.B.J.E.Z.[ @ > 7 u x 3 l { { P % 7 v L v i b b Y K Y q @ 7 b b x v i q v b b i 7 2 U U | , 7 q 7 6 @ l Y.E.U.J.B.B.n.t.> ",
"> e.b.n.B.U.f.[ 4.s % u q x x > d t.m.~ g 8 3 u x b Y Y K Y x % q b b b b K b i q 3 f d 6.m.' d 7 v i q 9 @ E [ h.E.B.B.B.c.q.> ",
"< q.c.n.B.k.w.C.[.3.o 6 9 i v i @ 6.J.O.k.v.[ 8 r , 6 7 6 : ; @ ; 2 3 7 8 : 8 8 l 5.B.3.v.A.E O x x i 7 % g A.f.[ r.J.B.B.b.q.> ",
"< q.j.n.B.v.U.U.B.D.I X 7 i i K 7 l M.3.h.+XB.+.n.s.) d ` o.d._ w.5.O.~ k 3.z.s.5.#XQ.4.v.v.1 q v i u : > s.U.E.U.w.k.D.n.c.q.> ",
"> 0.c.c.n.D.J.U.U.U.B.l % 7 q x K : ~ } s./.C.w./.%XC.6.&X#X#Xr.U.#X#XC.6.#X#Xv.s.XXE.3.f.l 9 K i i 8 @ O.E.B.B.D.U.C.B.n.b.q.> ",
"< q.b.B.B.B.U.Q.Q.U.U.n.s @ 7 u x K , , r.].C.s.{.oXV.d.+XoXoXs.Z.XXXXV.s.XXoXv.h.|.[.[ 1 7 Y i q q O ^ '.Z.W.Q.J.D.U.Z.n.c.e.> ",
"< q.b.B.B.B.U.U.J.U.U.E.d.8 @ q i v Y : h n.B.6.Q.XXV.d.#XoXXXs.Z.{.oXC.g.+XXXz.g.$Xf.8 7 Y v q 8 % P C.W.U.Q.U.J.B.B.B.B.b.q.> ",
"< q.b.n.B.U.U.U.Q.Q.U.B.U.v.U O 6 i b K 7 8 O.| U.OXC.8.+XQ.XXs.Z.XXoXN.s.XXXXf.6.O., u Y v u : % ( D.U.U.U.D.U.U.U.D.n.n.c.q.> ",
"> ,.j.n.B.D.D.W.Q.Q.U.U.U.U.J./ % % u x b u : r w.[.v.4.].Q.|.5.V.|.oXg.5.#XB./ 2 6 v K x q @ , O.Y.U.U.D.U.U.U.D.B.B.B.n.c.e.- ",
"< q.p.B.B.B.J.U.Q.Q.U.W.U.W.U.J.5.l @ 3 i b K q 8 I / ^ B.E.[.+.B.[.[.4.~ X.d 6 i K x q : ; I f.E.Z.Q.Q.U.U.J.U.J.D.B.B.B.n.q.- ",
"< 0.c.B.B.B.J.J.U.Q.W.W.Q.U.U.U.U.A.4.s @ 7 i b v q 7 , d I ~ a ~ ~ l 8 , 7 i K v q : @ j s.E./.W.U.U.D.D.B.U.U.U.J.B.B.n.x.,.- ",
"< e.x.c.B.D.J.Q.U.Q.Q.W.U.U.Q.U.U.Z.].C.[ 8 % , u v K b x q 9 9 7 0 q v K L v i 7 % f 3.A.J.W.Q.Q.Q.J.D.B.D.U.B.D.U.B.B.c.c.0.> ",
"< e.c.b.n.J.J.J.U.Q.Q.U.J.U.Q.U.U.D.U.D.E.k._ r @ : u v b K K b b K b b i 9 : % f { n./.W.U.Q.Q.Q.Q.Q.U.J.Q.U.D.J.D.n.B.b.c.q.> ",
"> 0.c.b.n.B.D.D.Q.Q.Q.Q.U.U.Q.Q.U.Q.U.U.Z.U.J.v.O.d % : 8 q x x x i q 6 % , P 3.B./.U.U.U.Q.Q.|.Q.U.Q.A.J.U.J.U.D.D.B.B.b.c.0.- ",
"< q.c.b.n.B.D.J.U.Q.U.U.Q.Q.Q.{.Q.Q.Q.U.|.U.B.Q.E.n.4.P 9 ; % % % % : 9 ^ d.E.E.U.W.U.W.U.{.{.Q.Q.U.U.Q.U.U.U.U.U.J.W.D.b.c.0.> ",
"> q.b.b.n.B.U.J.D.U.U.Q.Q.Q.XX{.U.U.U.Q.|.|.Q.|.W.U.E.A.k.5.[ ) ) O.6.v.E.E.Q.Q.U.D.U.Q.Q.Q.XX{.U.Q.U.U.Q.U.U.U.B.D.D.B.b.b.q.> ",
"> q.c.b.n.B.D.D.U.Q.U.U.Q.Q.{./.|.Q.XXE.U.{.{.XXXXJ.B.B.B.J./.[.'././.U.U.Q.Q.{.Q.U.{.Q.Q.J.U.Q.E.U.Q.U.J.U.U.U.J.U.D.B.n.b.0.> ",
"> ,.j.x.n.B.D.J.U.Q.U.J.U././.Q.{.{.oX{.Q.Q.U.Q.{.Q.Q.U.J.U.U.W.U.W.U.Q.Q.Q.E.Q.W.U.Q.U.Q.Q.Q.Q.Q.E.U.U.J.U.U.J.J.U.B.B.b.j.0.> ",
"> ,.c.b.n.n.J.J.U.U.Q.U.J.U.Q.E.{.oXQ.U.Q.Q.Q.Q.E.Q.XXQ.U.{.Q./.Q./.Q.XXQ.U.Q.Q.Q.U.U.J.XX{.Q.Q.Q.U.U.D.J.U.U.J.D.B.n.B.n.j.q.> ",
"> 0.j.x.b.n.B.B.D.B.U.U.D.U.Q.U.U.Q.Q.U.Q.Q.Q.U.XXXXQ.U.Q.XXQ.Q./.Q.Q.XXXXU.Q.U.U.U.U.U.Q.U.U.U.U.J.U.U.U.U.U.U.D.n.n.b.x.j.q.- ",
"> ,.j.p.b.n.n.B.B.B.D.D.U.B.B.U.D.J.U.U.U.Q.Q.Q.{.|.{.Q.Q.Q.Q.U.Q.J.U.J.U.U.Q.U.U.D.U.U.U.U.D.J.J.J.J.D.D.B.D.B.D.D.B.b.x.p.0.> ",
"> >.p.j.c.b.n.n.n.n.B.n.B.n.n.B.U.U.J.J.U.J.J.B.D.U.J.D.J.J.U.U.U.J.U.U.B.B.U.Q.U.U.D.B.D.B.n.D.B.B.B.n.n.B.B.n.B.n.n.b.j.i.>.> ",
"$ | y.y.l.c.n.c.n.n.b.b.B.n.n.n.B.B.B.B.B.n.B.B.B.B.B.B.B.B.B.U.B.B.B.B.B.b.B.B.B.B.B.n.B.B.B.B.n.n.b.n.b.b.n.b.c.c.b.x.p.i.>.$ ",
". Q u.y.i.p.p.j.x.x.x.c.c.j.x.b.c.b.c.c.c.b.b.b.c.c.b.b.n.b.n.n.n.b.b.c.c.b.c.b.b.n.c.b.n.b.b.c.c.c.c.c.l.j.j.c.c.c.j.j.y.u.Q . ",
". # Q @.,.,.,.q.q.e.q.q.e.e.q.t.t.q.q.e.t.t.q.e.q.q.e.e.e.e.q.y.e.t.t.p.t.e.e.e.t.t.e.e.e.e.e.q.t.e.e.e.q.q.e.q.q.0.q.q.>.! + . ",
". . . # - > > > > > > > > > > > > > > > > > > < > < < < < > > < < < < < < < < < < > > < > > > > > > > > > > > - > > > > # . . . "
};
