/* XPM */
static char *e0ef22b98fe941c89ac9626c2e860cd8PXD8NHZwbAkJYRp7[] = {
/* columns rows colors chars-per-pixel */
"64 64 217 2 ",
"   c #352315",
".  c #3B291A",
"X  c #392618",
"o  c #432E1D",
"O  c #4C3623",
"+  c #543E2A",
"@  c #305B29",
"#  c #35632B",
"$  c #3C6A2F",
"%  c #3D6432",
"&  c #3C6C32",
"*  c #3A7037",
"=  c #57412D",
"-  c #59432F",
";  c #5B4632",
":  c #5E4934",
">  c #564530",
",  c #614B36",
"<  c #644F39",
"1  c #66513B",
"2  c #68533D",
"3  c #416235",
"4  c #426B36",
"5  c #466D39",
"6  c #4C6C3D",
"7  c #476039",
"8  c #427236",
"9  c #46733A",
"0  c #49733B",
"q  c #57703F",
"w  c #526D42",
"e  c #587447",
"r  c #64774A",
"t  c #6A7C55",
"y  c #757144",
"u  c #73686F",
"i  c #9B3B3C",
"p  c #8C3B36",
"a  c #A73B3E",
"s  c #B3393E",
"d  c #94413E",
"f  c #AC413F",
"g  c #993E40",
"h  c #AC3B41",
"j  c #B33B42",
"k  c #BC3D43",
"l  c #C23D44",
"z  c #9D4743",
"x  c #95534A",
"c  c #AB4243",
"v  c #A84845",
"b  c #B44244",
"n  c #BC4246",
"m  c #B54549",
"M  c #BC4649",
"N  c #B44C4D",
"B  c #BA4A4A",
"V  c #AA5849",
"C  c #AD5951",
"Z  c #B15653",
"A  c #BA4F51",
"S  c #9D6C58",
"D  c #AD6659",
"F  c #B26658",
"G  c #B26C4F",
"H  c #846A6B",
"J  c #AC6D62",
"K  c #AA7766",
"L  c #B37B6D",
"P  c #B16C61",
"I  c #C3454A",
"U  c #C9454A",
"Y  c #C54A4D",
"T  c #CA4A4E",
"R  c #C64C50",
"E  c #CB4D51",
"W  c #D04A50",
"Q  c #CD684C",
"!  c #C26F5A",
"~  c #D27255",
"^  c #74835C",
"/  c #7C8554",
"(  c #6A8155",
")  c #7C8864",
"_  c #6A8276",
"`  c #AC8D5E",
"'  c #89916B",
"]  c #8E9771",
"[  c #969A76",
"{  c #808966",
"}  c #B88769",
"|  c #AD946A",
" . c #B29679",
".. c #B68973",
"X. c #B8A564",
"o. c #A3A27E",
"O. c #BFA677",
"+. c #CAB85E",
"@. c #C3AF59",
"#. c #C2976E",
"$. c #C8B666",
"%. c #D4BD67",
"&. c #C4A877",
"*. c #CAB47B",
"=. c #D1BC7D",
"-. c #DAC567",
";. c #D8C676",
":. c #EAD469",
">. c #F2DC69",
",. c #E8D36F",
"<. c #F8E26D",
"1. c #FAE771",
"2. c #59798A",
"3. c #708B95",
"4. c #5890A7",
"5. c #5B9AB7",
"6. c #518FAA",
"7. c #668DA1",
"8. c #6896A9",
"9. c #779BA5",
"0. c #649DB6",
"q. c #67A4BE",
"w. c #5FA5C7",
"e. c #65AAC9",
"r. c #6EB3D1",
"t. c #8A978F",
"y. c #BC9883",
"u. c #99A69A",
"i. c #AAA987",
"p. c #B8AA8A",
"a. c #BBB597",
"s. c #AFAC93",
"d. c #859DA0",
"f. c #96A5A0",
"g. c #BDB9A5",
"h. c #A5B1A9",
"j. c #CB9F89",
"k. c #C6A689",
"l. c #C8B989",
"z. c #D5B88D",
"x. c #C5BA9A",
"c. c #CBBE9E",
"v. c #C9B696",
"b. c #D9BE94",
"n. c #D3B998",
"m. c #D0BBA0",
"M. c #D7C284",
"N. c #DAC688",
"B. c #DBC096",
"V. c #DDC49C",
"C. c #D3C193",
"Z. c #CCC09F",
"A. c #E3CD8B",
"S. c #E6D28D",
"D. c #E0C79F",
"F. c #E0C89F",
"G. c #ECDA92",
"H. c #E8D691",
"J. c #F3DE95",
"K. c #F6E69A",
"L. c #F7E198",
"P. c #CAC1A7",
"I. c #D3C5A5",
"U. c #DEC7A0",
"Y. c #DFC8A2",
"T. c #DCCCAD",
"R. c #D4C5A9",
"E. c #DFCFB3",
"W. c #DDD1B1",
"Q. c #DBD0AD",
"!. c #E1CBA5",
"~. c #E3CFAB",
"^. c #E2CEAA",
"/. c #E2CDA9",
"(. c #E3CFAC",
"). c #E3CEAA",
"_. c #E6CCA2",
"`. c #E3D0AD",
"'. c #E3D1AE",
"]. c #E4D1AF",
"[. c #E4D1AE",
"{. c #E4D1AE",
"}. c #E4D1AE",
"|. c #EDD1A4",
" X c #E5D2B1",
".X c #E5D3B2",
"XX c #E5D3B3",
"oX c #E6D3B2",
"OX c #E5D1B0",
"+X c #E5D4B3",
"@X c #E6D4B3",
"#X c #E6D5B3",
"$X c #E6D4B4",
"%X c #E6D5B4",
"&X c #E6D5B5",
"*X c #E7D5B5",
"=X c #E7D4B5",
"-X c #E7D6B5",
";X c #E7D5B6",
":X c #E7D6B6",
">X c #E7D7B6",
",X c #E6D4B3",
"<X c #E8D6B7",
"1X c #E8D6B5",
"2X c #E8D6B6",
"3X c #EAD9B7",
"4X c #E7D6B9",
"5X c #ECDBBA",
"6X c #E7D9B9",
"7X c #F1DDBC",
"8X c #F2DBB5",
"9X c #E1CFB0",
"0X c #EDE0BE",
"qX c #F4E1BE",
"wX c #F3E3C2",
"eX c #FAE6C5",
"rX c #EFE4D2",
/* pixels */
".   o : , < < 1 1 < < < < < , , , < < 1 1 1 1 1 1 1 2 2 2 2 2 2 2 2 2 2 2 2 2 2 2 1 1 1 < < < < 1 , < 1 < < , , , , , , ; .   . ",
"  ; &.B.B.V.V.D.D.!.!.!.!.!.!.!.!.!.!.!.!.!./././.!././././.).)./.).)./././.!.!./.!.!.!.!.!.!.!.!.!.!.!.!.!.V.V.V.V.V.V.B.O.=   ",
"o k._.B.V.V.V.U.!.!.!.!.!.!.!.!.!././././././././././././././././././././././././././.!.!.!./.!.!.!.!.!.!.!.!.!.!.V.V.V.V._.&.. ",
": B.B.V.V.U.Y.!.!.!.!././.!././././././././././././././././././.`.`.`.`././././././././././././././.!.!.!.!.!.!.!.!.Y.V.V.V.b.= ",
": B.V.V.U.!.!.!./././././././././././.`.`.`.[.`.`.[.[.`.`.`.[.[.[.[.[.[.`.`.`.[.`.`.`.(.(.[.`.`.(./././././././.!.!.!.!.V.V.b.= ",
": B.V.Y.!.!.!././././.(.`.`.`.`.`.`.[.[.[.[.[.[.OX[.[.[.[.[.[.[.[.[.OXOX[.[.[.[.[.[.[.[.[.[.[.[.[.[.[.`.(././././.!.!.!.Y.V.b.- ",
": V.V.Y.!.!./././.(.[.[.`.[.[.[.[.[.[.OX[.[.OXOXOX#XOXOXOXOXOXOXOXOXOXOXOXOXOXOXOXOXOXOXOXOXOXOXOX[.[.[.[.`.(./././.!.!.Y.!.B.- ",
": B.U.Y.!./././.`.[.[.[.[.OXOXOXOXOXOXOXOXOXOXOX#X#XOXOXOXOXOX#XOXOXOX#XOXOXOXOXOXOXOXOX#XOXOXOXOXOXOX[.[.[.(.(.(././.!.!.!.B.= ",
", V.Y.!.!././.(.[.[.OXOXOXOXOXOXOXOXOX#X#XOXOXOX#X#X#X#X#X#X#X#X#X#X#X#X#X#X&X&X&X#X#X#XOXOX#X#XOXOXOXOXOXOXOX[.`.`././.!.!.B.= ",
": V.!.!.!././.`.[.OXOXOXOX#X#X#X#X#X#X#X#X#X#X&X&X&X&X&X&X&X&X&X&X&X&X&X&X&X&X&X&X&X&X&X&X&X&X&X#X#X#XOXOXOXOX[.`.`././.!.!.B.; ",
": V.!.!././.(.[.OXOXOXOX#X#X&X&X&X&X&X&X&X&X&X&X&X&X&X&X&X&X&X&X&X&X&X&X&X&X&X&X&X&X&X&X&X&X&X&X&X#X#XOXOXOXOXOX[.[././.!.!.B.; ",
": V.!.!././.`.[.OXOXOXOX#X&X&X&X&X&X&X&X&X&X&X&X&X&X&X&X&X&X&X&X&X&X&X&X&X&X&X&X&X&X&X&X&X&X&X&X&X&X&X=XOXOXOXOXOX[.[./.!.!.V.; ",
"; V.!.!./.(.`.OXOXOXOX&X&X&X&X&X&X&X&X&X&X&X&X&X&X&X&X&X&X&X&X&X&X&X&X&X&X&X&X&X&X&X&X&X&X&X&X&X&X&X&X&X&XOXOXOXOX[.[./.!.!.B.= ",
"; V.!.!./.`.`.OX#X#X#X&X&X&X&X&X&X&X&X&X&X&X&X&X&X&X&X&X&X&X&X&X&X&X&X<X&X&X&X<X<X&X&X&X&X&X&X&X&X&X&X&X&XOXOXOXOX[.[././.!.V.> ",
": V.!././.`.[.OX#X&X&X&X&X&X&X&X&X&X&X&X&X&X&X>X&X&X&X&X&X&X&X&X>X>X&X<X&X<X<X<X<X&X&X&X&X&X&X&X&X&X&X&X&X#X#XOXOX[.[././.!.V.; ",
": U.!././.[.OXOX#X&X&X&X&X&X&X&X&X&X&X&X&X&X&X&X&X<X&X&X&X<X&X&X3X&X&X<X&X<X<X<X<X<X<X<X&X&X&X&X&X&X&X&X&X#X#XOXOX[.[././.!.V.; ",
", U././.(.[.[.OXOX&X&X&X&X&X&X&X&X&X<X&X&X&X&X&X&X&X&X3X0X&X0X5X&X3X0X5X0X<X&X<X<X<X<X<X&X&X<X&X&X&X&X&X&X&XOXOXOX[.[././.!.V.; ",
", Y././.(.[.OXOXOX&X&X&X&X&X&X&X&X&X<X&X&X&X<X<X&X&X3XXXL Z L T.5XT...D y.6X3X&X<X<X<X3X<X<X&X&X&X&X&X&X&X&X#XOXOX[.[././.!.V.; ",
", Y././.`.[.OXOX#X&X&X&X&X&X&X&X&X&X&X&X<X&X&X&X&X=X>XJ l T k J 6XD l I k L 6X&X<X<X<X<X<X<X&X&X&X&X&X&X&X&X#X#XOXOX[./././.V.; ",
", Y././.`.[.OXOX#X&X&X&X&X&X&X&X&X&X&X&X<X<X&X3X5XwXR.m E R E A S I E Y Y c T.wX<X&X<X<X<X3X<X&X<X&X&X&X&X&X&X#XOX[.[.[././.V.; ",
", Y././.(.[.OX#X#X&X&X&X&X&X&X&X&X&X<X<X<X&X3X&Xy... .N E I Y M p T Y Y I N p.v.&X5X&X<X<X<X<X<X&X&X&X&X&X&X#XOXOXOX[.(././.U.: ",
", Y././.(.OXOXOX&X&X&X&X&X&X&X<X&X&X<X&X&X3XW.D k l M g Y I I E c T b M T z c j D R.5X&X3X<X&X&X&X&X&X&X&X&X#XOXOX[.[.(././.U.: ",
", Y././.[.OXOX#X&X&X&X&X&X&X&X&X&X&X>X>X&X0Xk.k E R E m c T s b i j s Y c b E E l J 6X&X&X<X3X<X4X&X&X&X&X&X&X#XOXOX[.(././.Y., ",
", Y./.(.[.OXOX#X&X&X&X&X&X&X&X&X&X&X>X>X&X0Xy.n E M M E h z #.*.=.&.P i a T R R E Z W.3X&X&X<X&X4X&X&X&X&X&X&X#XOXOX[.[././.V.: ",
", Y./.(.[.OXOX#X&X&X&X&X&X&X&X&X&X&X&X&X&X5Xv.h W Y I k C =.A.J.L.N.N.` j M M E k L 5X&X&X<X<X3X3X3X<X&X&X&X&X#XOXOX[.[././.Y.: ",
", Y./.(.[.OXOX#X&X&X&X&X&X&X<X&X&X&X<X&X&X&X0Xy.c m Y h *.M.| S.G.S.M.H.F I R B L T.3X&X<X<X3X3X3X3X<X<X&X&X&X#XOXOX[.[././.U.: ",
", Y././.[.OXOX#X&X&X&X&X&X<X<X&X&X&X&X&X&X3XT...v c h x G.M.> &.L.*.| H.#.a i S R.0X&X<X<X<X<X3X3X<X<X<X&X&X&XOXOXOX[.[././.Y.: ",
", Y././.[.OXOX&X&X&X&X&X&X&X&X&X&X&X&X<X<X5XK s T Y I F G.N.y =.G.M.H.J.&.b E Y c p.5X&X&X<X3X<X<X<X&X&X&X&X&X#X#XOX[.[././.Y.: ",
", Y././.[.OXOX#X&X&X&X&X&X<X<X<X&X&X<X&X3XW.Z I M M k V H.H.A.J.J.S.=.K.} j Y Y U Z W.3X&X&X&X<X<X<X&X&X&X&X&X#XOXOX[.[././.U.: ",
", Y././.[.OXOX#X&X&X&X&X&X<X<X&X&X&X&X&X3XT.N T Y Y E b O.K.*.*.&.&.S.H.C n M I Y m m.wX3X&X&X&X&X&X&X&X&X&X&X#XOXOX[.[././.Y.: ",
", Y././.[.[.OX#X&X&X&X&X&X&X<X&X&X&X5X1X3X5XJ l U l M a z *.K.S.M.K.G.S a I I Y T v c.C.I.3X<X&X&X&X&X&X&X&X&XOXOXOX[.(./.!.U.: ",
": Y././.[.[.OX#X&X&X&X&X&X<X<X&X3X7Xg.9.f.3XW.J N F x b T a D #.&.} V I i d s j h y.;.:.%.E.4X3X3X&X&X&X&X&X&X#XOXOX[.[./.!.U.: ",
", Y././.`.[.OX#X&X&X&X&X&X&X&X3XR.I.9.e.5.P.8X3X6Xv.m T M M I i n k n E U D v.K ` l.-.1.,.p.=.l.&X<X&X&X&X&X&X#XOXOX[.[./.!.U.; ",
": U././.`.[.OX#X&X&X&X&X&X&X5Xg.8.7.4.r.q.t.9.f.5X..k R I Y M i E R M Y T A v.,.1.-.@.,.$.+.<.:.l.3X&X&X&X&X&X#XOXOX[.[./.!.U.: ",
": U././.[.[.OX#X#X&X&X&X&X&X1Xd.e.e.2.3.2.5.e.5.h.k.s E E U C K U Y Y Y T N x.-.>.-.G v V %.<.:.n.3X&X&X&X&X&XOXOXOX[.(./.!.U.; ",
", Y././.(.[.OXOX&X&X&X&X&X&X7Xs.4.7.D Q V 3.e.0.g.0XJ j n c n.i.p U I U s y.Q.X.+.G j f h G +.X.XX<X&X&X&X&XOXOXOX[.[.(././.U.: ",
", Y././.(.[.OXOX#X&X&X&X&X5Xg.8.5.u Q ! ~ H 6.3.T.=X3Xn.j.c.eX[ 3 L F P n.5X%.:.-.V c B B v -.,.l.4X&X&X&X&X#X#XOX[.[././.!.U.: ",
", Y././.`.[.OXOX#X#X&X&X&X8Xf.w.e.H Q ! ~ u e.e.9.r ( ] s.<XeX[ 6 6X5X0Xx.' r y :.V s b j G >.<.;.E.3X&X&X&X#X#XOX[.[././.!.U.: ",
", Y././.`.[.OXOX#X&X&X&X&X5Xg.8.0.2.V ~ V 2.e.w.3.q & # % e T.i.6 5XT.t % & * q +.+.G v G @.$.-.l.4X&X&X&X&X#XOXOX[.[.)./.!.U.; ",
", Y././.[.[.OXOX#X&X&X&X&X&X3XT.d.e.7.u 8.5.3.s.R.e 8 5 0 & r [ e T.e & 0 4 8 r ,.<.-.%.:.>.$.R.&X&X&X&X&X#XOXOXOX[.[.)./.!.V.; ",
": Y././.[.[.OXOX&X&X&X&X&X&X&X1X9.e.5.6.r.e.8.).wXt & 0 4 4 0 7 r { # 5 4 0 & [ ,.>.X.-.<.>.;.4X3X&X&X&X#X#XOXOXOX[.[.)./.!.U.: ",
", Y./.(.[.OXOX#X&X&X&X&X&X&X&X5XP.9.u._ 5.0.h.3X5Xp.# 9 5 4 0 % 3 6 4 4 0 8 6 a.l.M.a./ ;.;.v.R.#X&X&X#X#X#X#XOXOX[.[.`./.!.U.: ",
": Y./.(.[.OXOX#X#X&X&X&X&X&X3XT.p.I.7X^ a.t.' i.5X7X] # & 8 8 % % % 0 9 & 5 i.w 5 [ P.t T.' 6 t 5X#X&X&X#X#X#XOXOX[.[././.!.V.; ",
", !./.(.[.OXOXOX#X&X&X&X&X&X5XR.% 5 ] ) o.0 @ ' wX#X5Xi.t 6 6 6 4 3 & 6 t c.=X6 8 $ r ) ^ # $ ^ 7X#X&X#XOXOXOXOXOX[.[././.!.V.; ",
", Y./.(.[.OXOXOXOX&X&X&X&X&X&X3X( @ % w % & 4 x.7X#X#X7X5XT.<Xo.% x.x.I.7X5X5X) # 4 % 6 5 5 # i.7XOX#X#XOXOXOXOX[.[.(.).!.!.V.; ",
", Y./.(.[.OXOXOXOX#X&X&X&X#X#X5XI.t e 3 5 6 i.7X#X&X&X#X#X&XqXi.e #X7X3X#X#X3XT.^ 5 5 % % 4 ' 3X&X&X#X#XOXOXOX[.[.[.(./.!.!.V.; ",
": Y././.(.OXOXOXOX#X&X&X#X#X&X#X5X5XT.^ x.9X5X&X&X&X&X#X&X#X#X#X(.#X#X&X&X#X&X3X5XT.i.r a.c.5X&X#X#X#X#XOXOXOX[.[.[.(./.!.!.V.; ",
": Y././.(.[.OXOXOXOXOXOXOX#X&X&X#X#X<XXX3X3X#X&X&X&X&X#X&X&X#X&X<X&X&X&X&X&X&X#X#X5XOXZ.7X5X#XOX#X#X#XOXOXOXOX[.[.[.[./.!.!.V.; ",
": U././.[.[.OXOXOXOXOX#X#X#XOX#X#X&X#X<X#X#X&X&X&X&X&X&X&X&X#X&XOX#X&X&X&X&X&X#X&XOX&X5XOXOXOXOXOXOXOX#X#XOXOX[.[.[.[.).!.!.V.; ",
": U././.[.[.OXOXOXOXOX#X#XOXOX#X#XOX&X#X#X&X#X#X&X#X&X&X#X#X#X#X#X#X&X&X&X&X#X#X&X&X#X#X&X#X#X#XOXOXOXOXOXOXOX[.[.[.)./.!.!.V.; ",
", U././.`.[.[.OXOXOXOXOX#XOX#XOXOXOX#X&X#X#X#X#X#X#X#X#X#X#X#X#X#X#X#X#X#X#X#X#X#X#X#X#X#X#X#XOXOXOXOXOXOX[.[.[.[.[.)./.!.!.V.; ",
": U.!././.`.[.[.OXOXOXOXOXOXOXOX#XOX#X=XOX#XOX#X#X#X#X#X#X#X#X#X#XOXOX#X#XOXOX#X#X#X#X#XOX#XOXOXOXOXOXOXOX[.[.[.[.[.)./.!.!.V.; ",
", U.!.!./.(.[.[.OXOXOXOXOXOXOXOXOXOXOX=XOX#XOXOX&XOX#XOXOXOXOXOXOXOX#X#XOXOXOXOXOXOXOXOXOXOXOXOXOXOXOXOX[.[.[.[.[.)./.!.!.!.V.; ",
": V.!.!././.(.[.[.OXOXOXOXOXOXOXOXOXOXOXOXOXOXOX#X#XOXOXOXOXOXOXOXOXOXOXOXOXOXOXOXOXOXOXOXOXOXOXOXOX[.[.[.[.[.(.).)./.!.!.!.V.; ",
": V.!.!.!././.(.[.[.[.OXOXOXOXOXOXOXOXOXOXOXOXOX#XOXOXOXOXOXOXOXOXOXOXOXOXOXOXOXOXOXOXOXOXOX[.[.[.[.[.[.[.[.[.[.)./.!.!.!.!.V.; ",
"; V.Y.!.!.!././.(.[.[.[.[.[.OXOXOXOXOXOXOXOXOXOXOXOXOX#XOXOXOXOXOXOXOX[.OXOXOXOX[.[.[.[.[.[.[.[.[.[.[.[.[.[.[.`./.!.!.!.Y.D.B.; ",
"; V.Y.!.!.!./././.(.(.[.[.[.[.OX[.[.OXOX[.[.[.OXOXOX[.OXOXOXOX[.[.[.[.[.[.[.[.[.[.[.[.[.[.[.[.[.[.[.[.[.[.[./././.!.!.!.V.V.B.; ",
": V.Y.Y.!.!.!././././.(.(.(.(.[.[.[.[.[.[.[.[.[.OXOX[.[.[.[.[.[.[.[.[.[.[.[.[.[.[.(.[.[.[.(.(.[.[.[.(.(.)././.!.!.!.!.!.V.V.b.; ",
"; B.V.U.!.!.!.!./././././././.(.(.(.(.(.`.(.(.[.`.[.[.[.(.`.[.[.(.[.[.[.(.(.[.(.(.(.(./.(./.)././././././.!.!.!.!.!.!.V.V.V.b.- ",
"; B.V.V.Y.!.!.!.!./././././././././././././././.(.(.(.(././././././././././././././././././././././././.!.!.!.!.!.!.V.V.OXV.b.; ",
"+ b.V.V.V.U.Y.Y.!.!.!.!.!.!.!.!././././././././././././././././././././././././././.!.!.!.!././.!.!.!.!.!.!.!.Y.V.V.V.OXrXOXz.+ ",
"X  .|.V.V.V.V.!.!.!.!.!.!.!.!.!.!.!.!.!.!.!././././././././././.!.!.!.!.!.!.!.!.!.!.!.!.!.!./.!.!.!.!.!.!.!.!.D.V.V.V.V.OX|.|   ",
"  O | z.b.b.b.B.V.V.V.V.V.V.V.V.V.U.U.U.U.Y.U.U.U.U.Y.U.U.U.Y.U.U.U.U.U.U.U.U.U.!.V.V.V.V.U.U.U.V.V.V.V.V.V.B.B.b.b.b.z.z.| O   ",
".     O = - - ; ; ; ; ; ; ; ; ; ; ; : ; ; : ; ; ; ; : ; ; ; : : : : : : : : : : : ; : ; ; ; ; ; ; ; ; ; ; ; ; ; - - ; = O     X "
};
