/* XPM */
static char *d35b7b70015e429daa9a695ba4e7fd1cvrCK2hup3KgUqNPf[] = {
/* columns rows colors chars-per-pixel */
"64 64 202 2 ",
"   c #1D171A",
".  c #1F181A",
"X  c #231B1B",
"o  c #2A1E1C",
"O  c #2F201B",
"+  c #35251E",
"@  c #38271F",
"#  c #3D291F",
"$  c #382720",
"%  c #422A1F",
"&  c #4C301F",
"*  c #482F20",
"=  c #452E20",
"-  c #4C3322",
";  c #4C3625",
":  c #523523",
">  c #543926",
",  c #5B3C26",
"<  c #553C29",
"1  c #593E29",
"2  c #5A402B",
"3  c #6E4A2E",
"4  c #9B0000",
"5  c #A30300",
"6  c #AA0300",
"7  c #A90C03",
"8  c #A70900",
"9  c #AC1106",
"0  c #AC150A",
"q  c #B41106",
"w  c #B51509",
"e  c #BC1609",
"r  c #B4190D",
"t  c #BC1A0D",
"y  c #BC1205",
"u  c #AA1D10",
"i  c #B41F11",
"p  c #BB1F11",
"a  c #BC0D02",
"s  c #B62415",
"d  c #BB2415",
"f  c #B92718",
"g  c #B52A1B",
"h  c #BC2B1B",
"j  c #BD301F",
"k  c #AA2A1C",
"l  c #BC3422",
"z  c #BD3D2A",
"x  c #B83825",
"c  c #AF3525",
"v  c #C11609",
"b  c #C31B0D",
"n  c #C61A0C",
"m  c #C31F11",
"M  c #C62515",
"N  c #C92617",
"B  c #CD2817",
"V  c #CA2718",
"C  c #C72818",
"Z  c #CD2919",
"A  c #C72718",
"S  c #D32D1B",
"D  c #D4311E",
"F  c #C53E2A",
"G  c #C53522",
"H  c #8D5830",
"J  c #BD422E",
"K  c #BF4A34",
"L  c #BB4631",
"P  c #B9523C",
"I  c #9A6639",
"U  c #9C6A3D",
"Y  c #996437",
"T  c #A46E3C",
"R  c #AC733E",
"E  c #B7773E",
"W  c #CB402B",
"Q  c #C44B34",
"!  c #CA4A34",
"~  c #C3523B",
"^  c #C8553D",
"/  c #9D6E41",
"(  c #9E7244",
")  c #A27545",
"_  c #A27748",
"`  c #A67B4B",
"'  c #BB7B40",
"]  c #C55B43",
"[  c #CF5A42",
"{  c #C9664B",
"}  c #D16B4D",
"|  c #CE6D51",
" . c #CF7254",
".. c #CC775B",
"X. c #D17556",
"o. c #D47C5D",
"O. c #D67859",
"+. c #D47C60",
"@. c #C6894B",
"#. c #DC815E",
"$. c #CD9251",
"%. c #D19757",
"&. c #D79C5A",
"*. c #D8904C",
"=. c #E39A50",
"-. c #D9A05E",
";. c #E8A55B",
":. c #D28364",
">. c #DD8462",
",. c #D68B6B",
"<. c #DB8B69",
"1. c #DC8866",
"2. c #DA926F",
"3. c #DC9471",
"4. c #DD9C74",
"5. c #E19A74",
"6. c #E09E78",
"7. c #E09371",
"8. c #D7A261",
"9. c #DAA564",
"0. c #DBAB6B",
"q. c #DBA867",
"w. c #DEA976",
"e. c #E4AB65",
"r. c #E5AE69",
"t. c #E7AA63",
"y. c #E6B16D",
"u. c #E9B36D",
"i. c #F1B66C",
"p. c #E2A37C",
"a. c #E3AA7F",
"s. c #EAB671",
"d. c #ECBA75",
"f. c #EEBE7A",
"g. c #E6B875",
"h. c #F0BD76",
"j. c #EFC17E",
"k. c #F1C17D",
"l. c #E4AB83",
"z. c #EAAF86",
"x. c #E6AF88",
"c. c #E3A680",
"v. c #E6B083",
"b. c #E8B48C",
"n. c #EABA8D",
"m. c #E7B489",
"M. c #EABD93",
"N. c #EEC583",
"B. c #EDC48B",
"V. c #F2C581",
"C. c #F6C985",
"Z. c #F8CA86",
"A. c #F2CC8C",
"S. c #F9CE8A",
"D. c #F5D08F",
"F. c #FAD18F",
"G. c #EDC396",
"H. c #EEC599",
"J. c #EFCA9A",
"K. c #F2CE92",
"L. c #F1CB9D",
"P. c #F0C795",
"I. c #F5D295",
"U. c #F9D495",
"Y. c #F5D69C",
"T. c #F8D699",
"R. c #F6D89F",
"E. c #F9DA9D",
"W. c #F1CDA1",
"Q. c #F5D5A1",
"!. c #F7D9A3",
"~. c #F8DBA6",
"^. c #F8DDA6",
"/. c #F8DCA6",
"(. c #F4D6A9",
"). c #F6DBAC",
"_. c #F8DDA9",
"`. c #F8DDAA",
"'. c #F8DEAB",
"]. c #F9DFAD",
"[. c #F9DFAE",
"{. c #F8DEAB",
"}. c #F7DEB0",
"|. c #F9DFB1",
" X c #F9E0AF",
".X c #FBE3AE",
"XX c #F9E1AE",
"oX c #FCE6AB",
"OX c #F7E1B1",
"+X c #F9E0B0",
"@X c #F9E1B1",
"#X c #F9E1B2",
"$X c #FAE2B3",
"%X c #FAE3B5",
"&X c #F9E2B3",
"*X c #FDEAB5",
"=X c #FAE5B8",
"-X c #FDEDBC",
";X c #FFF1BE",
":X c #FFF3C1",
">X c #FFFECB",
",X c #FFFBC2",
/* pixels */
"o X o 3 Y T U / / ( ) ( _ ` _ ) _ ) ) ) ) ) ) ` ` ) _ ` ) ) ) _ _ _ ) U ) _ ( U I I U ) / U U U U U U U I U U U I Y Y H , X X o ",
"X + E ;.t.u.k.Z.S.S.U.U.U.S.S.S.U.S.S.F.S.S.Z.Z.S.C.F.U.S.Z.F.U.U.F.S.C.S.S.S.Z.C.C.C.S.S.S.C.C.k.C.C.C.C.C.C.C.C.k.h.t.=.E @ X ",
"X Y ;.g.A.K.I.Y.I.I.I.Y.Q.Y.!.~.~.~.!.Q.!.Y.Y.Y.!.Y.Q.Q.Q.Q.!.Q.Q.Q.!.Y.Y.Y.Y.Y.!.Y.Y.Y.!.!.Y.Y.Y.Y.Y.Y.Y.Y.I.I.I.I.I.N.y.i.R X ",
"% *.s.V.Y.Y.Y.Y.!.oX^.!.~.!.~._.~.~.~.~.~.!.!.!.~.~._.~.~.~.~.~._._.^.!.!.!.~.~.~.!.!.~.~.!.~.~.~.~.!.!.!.!.Y.Y.I.I.I.I.A.f.&.# ",
": *.N.I.Y.Y.Y.^.v.{ b. X~.~._.[._.^._._._._._._._._.[._._.[.[._.[.[._._.~.~._._._._._._._._._._._.~.~.~.!.~.Y.Y.Y.Y.Y.Y.I.C.e.- ",
": ;.A.K.Y.!.Y.oX^ 5 { -X/.[. X[.[.[. X X X X$X$X$X X$X[.[.$X[. X X$X X[.[.[.[.[._.[.$X[.[. X[.[._._.[._._._.~.!.!.!.!.Y.I.A.r.- ",
"- e.A.I.!.~._.Y.j w z {.$X X$X$X$X$X$X$X$X$X$X$X$X$X%X%X$X$X$X$X$X$X$X$X$X$X$X[.[.$X$X$X$X$X$X X[.$X[.[.[._._.^.~.!.Y.Y.I.A.r.= ",
"> t.K.Y.~.~.*Xl.s G r G.*X[.$X$X$X[.[. X$X$X$X$X$X%X%X%X$X%X=X%X%X%X%X%X$X X$X$X$X$X$X$X$X%X%X$X$X$X$X$X$X[.[.~.!.!.Y.Y.I.I.y.* ",
"> r.I.Y.!.~.*X .~ <.6 3.-X[.$X%X$X$X$X%X%X%X%X%X$X%X%X%X$X=X%X%X=X=X%X%X%X$X%X%X%X$X$X$X%X%X%X$X$X$X%X$X%X$X[.^.^.~.R.Y.Y.K.r.- ",
"> u.I.Y.!.~.*Xz o.M.6 ] -X$X$X$X%X%X%X%X=X%X$X%X%X%X=X%X$X%X%X%X%X=X%X%X=X=X=X=X%X%X%X$X$X$X$X$X%X%X%X$X$X X[._._.^.~.!.Y.K.e.- ",
", d.Y.Y.~.XXQ.i b.-Xh g ).=X$X$X%X=X=X%X%X%X$X%X%X=X=X%X%X%X%X%X%X%X%X$X=X=X=X=X%X%X=X%X$X%X%X%X%X$X%X%X$X[._._._._.~.!.Y.I.e.* ",
"1 f.Y.!.~.*Xl.9 K ~ f w b.-X$X$X%X=X=X%X%X%X%X%X%X=X%X%X%X%X%X%X%X%X%X%X=X=X=X=X%X=X=X=X%X%X%X%X$X$X%X$X$X[._._._.^.~.Y.Y.U.e.* ",
"> d.!.!.!.*X| z b.b.o.6 o.;X|.$X%X=X=X%X%X%X%X%X%X%X%X%X%X%X=X%X%X%X%X=X=X=X%X%X%X%X%X%X%X%X%X%X%X$X%X$X$X$X X[.[._.~.!.Y.Y.y.- ",
"1 d.!.!.~.*Xx +.>X:XL.w K -X%X%X=X=X=X=X%X%X%X=X%X%X%X%X%X%X%X%X=X=X%X%X%X%X%X%X%X%X$X$X%X=X=X=X=X%X$X$X$X$X$X$X$X_.~.!.Y.Y.s.- ",
"1 f.Y.!.Q.L 5 9 l.}.c 8 8 L }.=X=X=X=X%X=X%X%X%X$X$X%X%X=X=X=X=X=X=X=X%X%X%X%X$X$X%X$X$X%X=X=X=X%X%X%X$X[. X$X[.$X_.~.~.!.R.s.- ",
", j.!.~.~.,.:...M.$X,.,.,.,.).%X%X%X=X%X%X=X-X-X;X-X=X$X%X=X=X=X=X=X=X%X%X=X-X-X-X-X=X|.%X=X%X%X%X%X%X$X$X$X$X[.[.[._.^.!.R.y.- ",
"1 k.!.~._.*X;X>X;X$X>X>X:X:X=X%X$X$X%X=X;X/.x.2.2.l.Q.-X=X%X=X%X%X=X$X=X;X(.x.3.3.x.(.-X*X|.%X%X$X%X$X$X$X$X$X X[.[._.~.Y.Y.y.- ",
"2 V.!.!._. XL.o.l.-Xp.7.).%X$X%X%X%X-X).O.G t e w e f { H.-X%X%X=X%X-XW.| h t e e t h | W.-X$X%X$X%X%X$X$X$X$X$X X[.^.!.Y.I.u.; ",
"1 f.!.!._.Q.F a d [ b y [ =X$X$X$X-XG.l e B Z S S S B b p 2.-X%X$X-Xp.f v B S S S S B e f l.-X|.$X$X$X$X$X$X$X$X$X X_.~.!.Y.s.: ",
"1 k.!.!.*Xp.e Z V b V V d L.=X$X=XL.f b D S S S S S S D Z q <.-X*Xp.w V D S S S S S S D M t x.-X|.$X$X$X$X$X$X$X$X[._.~.Q.Y.d.; ",
"2 k.!.!.*Xz.b V Z Z Z M G /.=X%X=XQ b D S S S S S S S S S Z w b.L.p V S S S S S S S S S S M l /.=X$X%X%X$X$X$X$X$X[._.~.Y.Y.f.; ",
"1 k.!.~._. X! b V V Z v O.-X|.-Xc.w Z S S S S S S S S S S D b Q ^ b S S S S S S S S S S S S y 1.;X$X%X$X$X$X X X$X[._.~.!.Y.j.; ",
"1 k.!.~._.*XL.Z M Z n ! }.=X|.-X] t S S S S S S S S S S S S Z p m Z Z S S S S S S S S S S S m J *X$X$X$X$X$X X X$X X[._.!.Y.N.< ",
"< j.!.~._._.*Xn.Z n W (.=X$X%XOXz M S S S S S S S S S S S S S Z Z Z S S S S S S S S S S S S B f L.*X$X%X%X$X X$X X[.[.^.!.Y.V.< ",
"1 k.!.~._.[._.-Xz.F W.=X$X%X=X(.j V S S S S S S S S S S S S S S Z Z S S S S S S S S S S S S Z p M.*X$X%X$X$X X X X[.[._.!.Y.V.< ",
"1 f.!.~._. X[.[.=X{.=X$X=X%X=X).l V S S S S S S S S S S S S S S Z Z S S S S Z S S S S S S S Z d M.=X$X$X$X$X X X$X X[.^.!.R.f.> ",
"2 k.R.!._. X[.$X$X=X$X%X%X%X%X$Xz M Z Z Z S S S S S S S S S S Z Z Z Z Z S S S S S S S S S S V f W.=X$X$X$X X$X$X[.[._.^.!.Y.d.> ",
"1 V.R.R.~.[. X$X$X$X$X%X%X%X|.-X] b Z Z Z Z S S Z S S S S S Z Z Z Z Z S S S S S S Z Z S S S M z OX%X%X$X$X$X$X$X[.[._.~.!.Y.d.> ",
"1 f.R.!.~._.$X$X$X$X%X%X%X%X%X:X,.w Z Z Z Z S Z Z Z Z Z Z S Z Z Z Z Z S S S Z Z Z Z Z Z Z Z e { ;X%X=X%X$X$X$X$X$X[.[._.~.R.d.> ",
"1 f.R.!._.[.$X$X X$X$X$X$X=X=X=XW.f M Z Z Z Z V Z Z Z Z Z Z Z V V Z Z S Z Z Z Z Z Z Z Z Z V r x.-X%X=X%X%X$X$X$X$X$X[._.~.R.d.> ",
"2 V.R.!.[.[.[.$X$X$X$X$X%X%X%X$X;XX.q V V V V V Z Z V V Z Z Z V Z Z Z Z Z Z Z S Z Z Z Z Z t ~ =X%X%X%X%X$X$X$X$X$X X[.~.!.Y.f.> ",
"2 V.!.!.^._.[.$X$X%X$X%X=X=X%X%X=X(.g m V V V V Z V V V V V V V Z Z Z Z Z V V Z Z Z Z V V r n.=X$X%X%X$X X$X$X$X$X[.[._.~.R.d.> ",
"2 f.!.~._._._.$X$X%X$X$X%X%X=X=X%X-Xp.w M V M M V V V V V V V V V V V Z V V Z V Z Z V V q X.-X|.%X=X%X$X X$X$X$X$X X[.^.~.R.s.: ",
"2 k.R.!._._._.[. X$X$X$X%X%X=X%X%X$X-XX.q C M V V V V V V V V V V V V V V V V Z Z V V w Q $X$X$X%X%X$X$X[.$X$X X X X_.^.~.!.d.> ",
"2 k.Y.Y.~._.[.[.[.$X$X%X%X%X=X%X%X%X$X=X~ w V V V V V V V V V V V V M V V M V V V C t h Q.=X$X$X$X$X$X$X[.$X[.[.[. X_._.!.R.d.> ",
"1 f.Y.Y.~._.[.[. X$X$X$X$X%X%X%X%X%X%X=X).F e V M V V V V V V V V V V V V V V V V M s M.-X$X%X$X$X$X$X$X$X%X[.[.[._._.~.!.Y.f.> ",
"1 k.!.!.^.~.[.$X$X X$X$X$X$X$X%X%X%X=X%X=XQ.l t V V V V V M V V V V V V V V V M M r m.-X|.%X%X%X%X$X$X%X%X$X X[.[.~._._.~.Y.d.> ",
"1 k.Y.Y.~._.[. X$X$X$X$X$X$X$X%X%X%X%X=X%X-XL.h t V V V V V V V V M V V M V A d r l.-X|.%X%X%X%X$X$X%X%X|.=X[.[._._._.^.~.R.s.> ",
"2 V.Y.Y.~._.[. X$X$X$X%X$X$X$X%X%X%X$X$X%X%X-XG.s t V V V V M M M M V M M M M r p.;X|.%X%X%X%X%X$X$X%X|.=XJ.). X_._.~.!.!.R.u.- ",
"2 V.Y.Y._.^._. X$X X$X$X$X$X$X%X%X%X$X$X$X%X$X-XM.s m V M M M M M M M M M M r p.;X|.%X%X%X%X$X$X$X$X|.=XH.M O.*X~.~.~.~.!.Y.u.- ",
"1 k.Y.Y.~._._.[.[.|.$X$X%X%X$X$X$X$X$X$X$X$X=X|.-XM.f m V M M M M V M M M w p.;X$X%X%X%X%X$X X X$X$X=XW.G m b >.*X~.~.!.!.R.u.- ",
"< f.Y.!.~.~._.[.[. X$X$X$X$X%X%X$X$X$X$X$X%X%X%X|.-XM.d M C M M M M M M r 6.:X$X%X$X$X%X%X$X$X$X%X=X{.W n V V b 5.oXQ.!.Q.Y.u.: ",
"< d.Y.!.~.!._. X X[.$X$X%X=X%X$X$X$X$X%X$X$X$X$X=X%X-Xb.i M V V V V M w 5.;X|.$X%X%X%X%X%X%X%X$X|.-X>.v Z V V V C P._.!.Y.Y.u.- ",
"< d.Y.!.!.!._.[. X[._. X%X%X$X$X%X$X$X%X$X X%X%X%X=X%X;Xl.r M M M M w 3.;X|.%X%X%X%X%X%X%X%X$X$X$X=X! M Z V V V b >.oXQ.Q.Y.s.- ",
"1 d.I.Y.!.~.[.[.[.[.$X$X$X$X$X%X%X%X%X%X%X%X=X%X$X%X=X|.-X5.w M M q 1.:X$X$X$X%X=X%X%X%X$X$X$X$X$X$XF M Z b M Z v #.oXQ.!.Y.s.- ",
"< u.I.I.!.~.~._._.[. X$X$X[.$X%X%X%X%X%X$X%X%X$X$X%X%X%X|.-X1.w q | -X$X%X$X$X$X%X%X%X%X$X%X%X$X|.=X<.e e } W e F P.^.Y.Y.I.e.- ",
"> r.I.I.!.~.^._._.[.[.[.[._.$X$X$X$X%X%X$X$X%X%X%X$X%X%X%X$X;X{ L *X$X$X%X%X%X%X%X$X%X%X%X$X$X$X$X[.$Xl.6.*XQ.l.Y.^.Q.R.Y.U.y.- ",
"> d.I.Y.~.~._._._._.[.[. X[.[.$X$X$X$X$X$X$X%X%X%X%X$X$X$X$X=X~.Q.=X$X%X%X%X%X%X$X$X%X%X$X$X$X$X$X=X-X:X,X X X;XoX*X^.Q.Y.Y.s.- ",
"> d.I.Y.!.!.~._._._.[.[.$X[.[.$X$X$X$X$X[.$X%X%X$X$X$X$X$X%X$X$X$X$X$X$X%X$X%X$X%X%X$X$X$X$X$X[.=X4.~ { P M.L.] { { n.^.I.U.u.& ",
"< d.K.Y.R.!.^._._.[.[._.[.[.[. X[.[.$X$X X$X$X$X$X$X$X$X$X$X$X$X$X$X%X$X$X$X%X$X$X$X X$X$X[.[._.*X5.u 4 k G.Q.x 5 x B.!.I.I.y.- ",
"< f.I.Y.Y.!.~.^._._._._.[.[.[.[.[.[.[.$X$X$X$X$X$X$X$X$X$X$X$X$X$X%X$X%X$X$X$X$X$X X_. X$X$X X$X{.;Xw.4 :.,X;Xa.9 P.oXY.Y.I.u.- ",
"> d.I.I.Y.!.!.!._._._.[.[.[.[.[. X[.[.[.$X$X$X$X$X$X$X$X$X%X$X$X$X$X$X%X$X$X$X$X$X$X X[.$X$X$X[.[. XH.0 x 4.4.~ x ^.Q.Y.I.A.r.- ",
"> d.I.I.Y.!.!.!.~.~._._.[.[.[.[.[.[.[.[.$X$X$X$X$X$X$X$X$X$X$X$X$X[.[.$X$X$X$X X X X[.[. X$X[._.[._. XJ 7 J K 9 { oXY.!.Y.K.r.- ",
"> u.I.K.Y.!.!.~.~.~._._._._.[._._._.[.[.[.$X X X$X$X$X X[.$X$X$X X[. X$X$X$X X[.[.[._.[. X X[._._./.*XX.6 v.oXr 4.oXY.Y.Y.I.r.- ",
"> u.I.I.Y.!.!.~.!.!.~.~._._._.[.[.[.[.[.[.[._.[.[.$X[._._.[.[.[.[.[.$X$X[. X[.[.[.[.[._.[._._._._./.*Xp.6 X.l.0 P.^.Y.Y.I.A.r.- ",
": r.A.I.Y.Y.!.!.!.~.~.~.^._._._._.[.[.[._._._._.[.[.[.[._.$X[._._.[.[.[. X[._._._.[._._._._._.~._._._.L.i Q  .x XXQ.Y.Y.I.A.y.- ",
"> u.I.A.I.I.Y.Y.!.!.~.~.~.~.^._._._._._.~._.[.[.[.[.[._._.[.[.[._._._._._._._._._._.~.^._._._._._.~.!.XXQ r r X.oXY.Y.Y.I.A.y.- ",
"< s.A.A.K.I.I.Y.!.!.!.!.!.!.!.~.~.~.~.^.~._._._.[._._._._._._.[.^.~._._.^._._._._.~.!.~.~.~.~.~.~.!.Y.oXO.q 0 p.oXI.Y.I.K.A.y.- ",
"> r.A.A.I.I.I.I.Y.Y.Y.Y.Y.Y.!.!.Y.!.~.~.!.~.~.~.^.~.~.^._.^.~.~.!.!.^.!.!.~.~.~.!.Y.R.!.!.~.~.!.Y.Y.Y.!.p.7 g P.R.Y.Y.I.A.A.y.- ",
"- t.N.A.I.I.I.I.Y.I.I.Y.Y.Y.Y.Y.Y.Y.Y.Y.Y.R.!.!.Y.Y.Y.Y.R.R.!.R.Y.Y.!.Y.Y.~.!.Y.!.Y.Y.!.!.!.R.R.Y.I.Y.I.I.v.m.Y.Y.U.Y.I.A.j.-.% ",
"o @.h.N.A.K.K.K.I.I.I.I.I.I.I.I.Y.Y.Y.I.Y.Y.Y.Y.Y.Y.I.I.I.Y.Y.Y.Y.Q.Y.Y.Y.Y.!.Y.Y.Y.Y.Y.Y.Y.Y.I.I.I.I.I.I.E.!.Y.I.I.I.A.B.i.' X ",
"  2 ;.i.k.Z.A.D.I.I.U.I.I.I.I.I.I.U.I.D.D.I.U.U.U.I.I.I.U.U.E.E.U.E.E.I.I.E.E.U.I.I.U.U.U.I.I.I.I.I.U.U.U.U.E.E.I.A.Z.k.i.=.,   ",
"o . : T @.@.%.%.8.0.0.0.q.9.8.0.0.9.8.8.9.9.9.9.8.-.&.8.9.9.9.9.9.9.q.q.8.8.9.q.q.9.q.9.9.9.9.-.q.9.9.q.0.0.0.0.8.%.$.$.R :   o ",
"o o . . o o + + + + + @ + + + @ $ @ @ @ $ + + + + + + + + + + + + + + + + + + + + + + + + + $ + + + + + + + + + + + + O     o o "
};
