/* XPM */
static char *result[] = {
/* columns rows colors chars-per-pixel */
"64 64 182 2 ",
"   c #050404",
".  c #0D0C0D",
"X  c #050908",
"o  c #110E0F",
"O  c #06130A",
"+  c #0A130D",
"@  c #091D0E",
"#  c #051B0D",
"$  c #140F12",
"%  c #0B1D10",
"&  c #0A1912",
"*  c #141414",
"=  c #141A1C",
"-  c #1C1C1D",
";  c #1A1619",
":  c #391808",
">  c #032D0C",
",  c #04220A",
"<  c #02350F",
"1  c #033C0E",
"2  c #0A2212",
"3  c #0D2B16",
"4  c #082B15",
"5  c #192318",
"6  c #063413",
"7  c #093214",
"8  c #063D14",
"9  c #093D12",
"0  c #0A3D1C",
"q  c #0B391C",
"w  c #12331D",
"e  c #163C1C",
"r  c #1F1F20",
"t  c #211E21",
"y  c #1D2727",
"u  c #153B23",
"i  c #1A3B26",
"p  c #193E2A",
"a  c #153426",
"s  c #1D3934",
"d  c #222223",
"f  c #272728",
"g  c #2E292D",
"h  c #2A2528",
"j  c #342E33",
"k  c #263A3F",
"l  c #3B3C3C",
"z  c #3A353A",
"x  c #560104",
"c  c #531813",
"v  c #7E0A0A",
"b  c #790907",
"n  c #6A120B",
"m  c #7D1F1E",
"M  c #6B0505",
"N  c #4E3337",
"B  c #7D2C2E",
"V  c #0A4316",
"C  c #0C441E",
"Z  c #0A4A1C",
"A  c #064615",
"S  c #11441A",
"D  c #0D521E",
"F  c #10521E",
"G  c #0C4520",
"H  c #0D4B22",
"J  c #134A22",
"K  c #1A412B",
"L  c #144526",
"P  c #0E5324",
"I  c #0E5B25",
"U  c #115325",
"Y  c #115B27",
"T  c #125428",
"R  c #125C2A",
"E  c #1E4234",
"W  c #1E4935",
"Q  c #24493D",
"!  c #126427",
"~  c #13632D",
"^  c #146B2E",
"/  c #19652E",
"(  c #19702E",
")  c #166530",
"_  c #176D32",
"`  c #1A6E34",
"'  c #186630",
"]  c #167132",
"[  c #1A7335",
"{  c #1B7638",
"}  c #1E7B3A",
"|  c #217C3C",
" . c #263E42",
".. c #773A42",
"X. c #264444",
"o. c #2A4A49",
"O. c #314D54",
"+. c #345D56",
"@. c #2D5549",
"#. c #217D41",
"$. c #3A5E63",
"%. c #3A5E66",
"&. c #3B6264",
"*. c #3E636A",
"=. c #3F696A",
"-. c #3A6771",
";. c #444446",
":. c #494A4B",
">. c #40686D",
",. c #436C72",
"<. c #49707E",
"1. c #756B79",
"2. c #840303",
"3. c #880909",
"4. c #930909",
"5. c #990C0B",
"6. c #9B0704",
"7. c #98100C",
"8. c #A30202",
"9. c #A30907",
"0. c #AB0906",
"q. c #AA0906",
"w. c #B90B08",
"e. c #A6120E",
"r. c #8E2727",
"t. c #C00800",
"y. c #C60D08",
"u. c #844950",
"i. c #874548",
"p. c #886E7A",
"a. c #1D803B",
"s. c #23833F",
"d. c #24883B",
"f. c #248541",
"g. c #288743",
"h. c #268A43",
"j. c #298B44",
"k. c #2D934A",
"l. c #2D954A",
"z. c #31964C",
"x. c #32994E",
"c. c #4B7382",
"v. c #527B8C",
"b. c #547E91",
"n. c #717887",
"m. c #6B7988",
"M. c #52858D",
"N. c #5A869B",
"B. c #578497",
"V. c #5C8CA0",
"C. c #5C91A2",
"Z. c #758FA1",
"A. c #6295AB",
"S. c #759AAC",
"D. c #679CB1",
"F. c #699EB8",
"G. c #6CA4BC",
"H. c #6EA8BE",
"J. c #7BA6BB",
"K. c #75A4BA",
"L. c #73AFC5",
"P. c #76B2CB",
"I. c #7CB9CF",
"U. c #78B6D2",
"Y. c #7ABAD5",
"T. c #74BED5",
"R. c #7EC3DD",
"E. c #7BD2EC",
"W. c #79CCE6",
"Q. c #80C2DF",
"!. c #80C7E1",
"~. c #82CAE4",
"^. c #84CFE9",
"/. c #85D2EC",
"(. c #88D4EF",
"). c #84D6F1",
"_. c #89D6F0",
"`. c #85D9F4",
"'. c #8BDAF4",
"]. c #A1D8EB",
"[. c #92E3FF",
"{. c #CAE9F3",
/* pixels */
"~.~.~.~.~.~.~.~.~.~.~.~.~.~.~.~.~.~.~.~.~.~.~.~.~.~.~.~.~.~.!.~.~.~.Q.^.^.~.~.~.~.~.~.~.Q.~.~.~.~.~.~.~.~.~.~.~.~.~.~.~.~.~.~.~.",
"~.~.~.~.~.~.~.~.~.~.~.~.~.~.~.~.~.~.~.~.~.~.~.~.~.~.~.~.~.~.^.!.!.~.!.^.Q.^.~.~.~.~.~.~.~.^.~.~.~.~.~.~.~.~.~.~.~.~.~.^.~.~.!.~.",
"~.~.~.~.~.~.~.~.~.~.~.~.W.~.~.~.~.~.~.~.~.~.~.~.~.~.~.~.~.~.!.~.^.~.~.!.~.~.~.~.~.~.~.~.~.~.~.~.~.~.~.~.~.~.~.~.~.~.~.~.~.~.~.~.",
"~.~.~.~.~.~.~.~.~.~.~.~.~.~.~.~.~.~.~.~.~.~.~.~.~.~.~.~.~.~.~.~.!.~.!.^.~.~.~.~.~.~.~.~.~.~.~.~.~.~.~.~.~.~.~.~.~.~.~.~.~.~.~.~.",
"~.~.~.~.~.W.~.~.~.~.~.~.~.~.~.~.!.!.^.!.~.^.~.~.~.~.~.Q.~.~.~.~.~.~.~.~.~.~.~.~.~.~.~.~.~.~.~.^.~.~.~.~.~.~.~.~.~.~.~.~.~.~.~.~.",
"~.~.~.~.~.~.~.~.~.~.~.~.~.~.~.~.^.!.~.~.~.!.~.~.~.~.~.~.~.~.~.~.~.~.~.~.~.~.~.~.~.~.~.~.~.~.~.~.^.~.^.~.~.~.~.~.~.~.~.~.~.~.~.~.",
"~.~.~.~.~.~.~.~.~.~.~.~.~.~.~.~.!.^.~.~.!.~.~.~.~.~.~.~.~.~.~.~.Q.^.Q.^.~.~.~.Q.~.~.~.~.~.~.~.~.~.~.~.~.~.~.~.~.~.~.~.~.~.~.~.~.",
"~.~.~.~.~.~.~.~.~.~.~.~.~.~.~.~.~.~.~.~.~.~.~.~.Q.^.~.~.~.~.~.~.^.Q.~.~.~.~.~.^.~.~.~.~.~.~.~.~.~.~.~.~.~.^.~.~.~.~.~.~.~.~.~.~.",
"~.~.W.~.~.~.~.~.~.~.~.~.~.!.~.~.~.~.~.~.~.~.!.~.~.~.~.~.~.~.~.~.Q.~.~.~.~.~.~.~.~.~.~.~.~.~.~.~.~.~.~.~.~.~.~.~.~.~.^.~.~.~.~.~.",
"~.~.~.~.~.~.~.~.~.~.~.~.~.~.~.~.~.~.~.~.~.~.~.~.R.~.~.~.~.~.~.~.^.^.~.~.~.~.~.~.~.~.~.~.~.~.~.~.~.~.~.~.~.~.~.~.~.~.Q.^.~.~.~.~.",
"~.~.~.~.~.~.!.~.~.~.~.~.~.!.~.~.~.~.~.~.~.~.~.~.~.~.~.~.~.~.~.~.Q.~.~.~.~.~.~.~.~.~.~.~.~.~.~.^.~.~.~.~.~.~.~.~.^.~.^.Q.~.~.~.~.",
"~.~.~.~.~.~.~.~.~.~.~.~.~.~.~.~.~.~.!.~.~.~.~.~.~.~.~.~.~.~.~.~.^.~.~.~.~.~.~.~.~.~.~.~.~.~.~.~.~.~.^.~.~.~.~.~.Q.^.Q.^.~.~.~.~.",
"~.~.~.~.~.~.~.~.~.~.~.~.~.~.~.!.!.~.~.~.~.~.~.~.~.~.~.~.~.~.~.~.~.~.~.~.~.~.~.~.~.Q.~.~.~.~.~.~.~.~.~.~.~.~.~.~.~.~.~.~.~.~.~.~.",
"~.~.~.~.~.~.~.~.~.~.~.~.~.~.~.~.~.~.~.~.~.~.W.^.~.~.~.~.~.R.~.~.~.~.~.Q.~.~.~.~.Q.^.~.~.~.~.~.~.~.~.~.~.~.~.~.~.~.~.~.~.~.~.^.Q.",
"~.^.~.~.~.~.~.~.~.~.~.~.~.!.~.~.~.~.!.~.~.~.~.R.R.R.~.^./.^.~.^.^.^.^.^.^.^.~.Q.Q.~.~.~.~.~.~.~.~.~.~.~.~.~.~.~.~.~.~.~.~.~.~.~.",
"~.~.~.~.~.~.~.~.~.~.~.~.~.~.~.~.~.~.~.~.~.~.~.'.'.'.R.Y.Y.Y.Y.Y.U.Y.Y.Y.Y.U.^.'.]._.~.~.Q.~.~.~.~.~.~.~.^.~.~.~.~.~.~.~.~.~.~.~.",
"~.~.~.~.~.~.~.~.~.^.!.^.!.~.~.~.~.~.^.~.^.'.(.b.b.B.@.i K K K E p i p p K u >.N.v.G.'.(.(.^.~.~.~.~.~.~.~.~.~.~.~.~.~.~.~.~.~.~.",
"~.~.W.~.~.~.!.~.~.~.~.!.~.~.!.^.^.!.Q.^.b. .o.W D 0 ~ [ ] ] ] ] _ ^ ^ ` ( [ D > # a o.X.&.Q.~.~.~.~.~.~.~.~.~.~.~.~.~.~.~.~.~.~.",
"~.~.~.~.~.~.~.~.~.~.~.~.!.^.!.!.!.Q._.F.J s._ f.{ _ ) R R R R R R R R P P P U H Z V 8 D 1 c.'.!.~.~.~.~.~.~.~.~.~.~.~.~.~.~.~.~.",
"~.~.~.~.~.~.~.~.!.~.~.~.^.!.~.~.^.W._.F.C f.} #.g.g.g.g.g.f.#._ [ _ ` ` [ ` ~ ~ ~ _ R R 8 <.'.!.~.~.~.^.~.~.~.~.~.~.~.~.~.~.~.~.",
"~.~.~.~.~.~.!.^.!.~.~.~.~.~.Q.~.^.R.(.G.L ] ` } { { { } f.f.f.f.s.f.| _ ^ P G H H H 0 T A <.'.!.~.~.~.~.~.~.~.~.~.~.~.~.~.~.~.~.",
"~.~.~.~.~.~.~.!.~.~.~.~.^.~.~.~.~.^.R./.=.Y ` s.f.l.k.z.#.~ R R R R R ~ ~ R I C C G G H W Y.~.~.~.~.~.~.^.~.~.~.~.~.~.~.~.~.~.~.",
"~.~.~.~.!.^.~.~.~.~.~.~.~.~.^.~.~.~.R.'.*.F _ } f.x.x.x.f.] ~ ) ^ ~ ) ~ ~ ~ R G G H G Z k /.~.~.~.~.~.~.~.~.~.~.~.~.~.~.~.~.~.~.",
"~.~.~.!.^.!.~.~.~.~.~.~.~.~.^.Q.~.~.R.(.B.T ] s.f.x.x.x.f.] R ~ ~ ~ ~ ~ R ^ P G G G J Z +./.~.~.~.~.~.~.~.~.~.~.~.~.^.~.~.~.~.~.",
"~.~.~.~.~.~.~.~.!.~.~.^.^.!.~.^.~.~.~.~.~.E ^ [ f.x.x.x.f._ ~ ^ ~ R ~ ~ ~ ) P G G G T 7 G._.!.~.~.~.~.W.~.~.~.~.~.~.~.~.~.~.~.~.",
"~.~.~.~.~.!.~.~.^.!.Q.W.!.^.~.!.~.~.~.~.Q.E ^ ` s.h.x.l.f.[ R ) ) ~ ) R R ~ H G G G T 4 D._.!.!.~.^.).^.~.~.~.~.].~.~.~.~.~.~.~.",
"~.~.~.~.~.~.~.~.~.~.^.Q.!.!.!.~.~.~.~.~.R.s ^ ^ } h.x.l.a.] ~ ~ ~ ~ ~ ~ ~ R G G G 0 R L H./.!.(.W.J.B J.].R.~.~.!.~.~.~.~.~.~.~.",
"~.~.~.Q.~.~.~.!.~.Q.^.^.^.!.^.~.~.~.W.^.R.E ] R [ j.x.x.f._ ~ ~ ~ ~ ~ ~ ~ R G G G H A *.'.^.E.S.u.6.r.R.^.~.~.~.!.~.~.~.~.~.^.~.",
"~.~.^.~.~.~.~.~.~.~.~.~.!.^.!.~.~.~.~.!.(.B.0 ^ [ j.x.z.s.] ~ ~ ~ ~ ~ ~ ~ R C G G H 8 >._.S.i.7.0.0.m.`.~.~.~.~.~.~.!.~.~.~.~.~.",
"~.~.Q.~.~.~.~.~.~.~.~.~.~.!.^.!.~.~.~.!._.A.6 _ { j.x.l.f._ ~ ~ ~ ~ ~ ~ ~ G C G G H V -.p.0.y.7.4.m R.~.~.~.~.~.~.~.~.~.~.~.~.~.",
"~.~.~.~.~.^.~.~.~.~.!.~.~.!.^.!.~.~.~.!._.A.6 R ~ a.l.z.f._ ~ ~ ~ R ~ ~ ~ P H H C J H c y.w.3.e.w...W.~.~.~.~.~.~.~.!.!.~.~.~.~.",
"~.~.~.~.~.Q.~.~.~.~.~.~.~.~.!.^.~.!.~.!._.A.6 R ` { l.x.f._ ~ ~ ~ ~ ~ ^ R ! I I Z H J 5.0.b 7.w.B Q.^.~.~.~.~.~.~.~.].~.~.~.~.~.",
"~.~.~.~.~.~.~.~.~.~.~.~.~.~.~.~.~.~.~.!.(.A.7 } { j.z.z.f._ ~ ~ ~ ~ ~ ~ R P P P H 0 n q.M 4.0.2.n.`.Q.~.~.~.~.~.~.~.~.~.~.~.~.~.",
"~.~.!.~.!.~.~.~.~.~.~.~.~.~.~.~.~.~.~.~.(.A.> C T j.x.z.f._ R ~ ~ ~ ~ ~ ~ ~ R Z C n 8.v 2.q.8.n.(.!.~.~.~.~.~.~.^.~.~.~.~.~.~.~.",
"~.~.~.~.~.~.~.~.~.~.~.~.~.~.~.~.~.~.~.!._.A.6 U R f.x.z.f._ ~ ~ ^ ~ ~ ~ ~ R C C 0 4.4.b 7.3.1.E.~.~.~.~.^.~.~.~.~.~.^.~.~.~.~.~.",
"~.~.~.~.~.~.~.~.~.~.~.~.~.~.~.~.~.~.~.Q._.A.4 R ! s.x.l.f.] ~ ~ ~ ~ ~ ~ ^ I C G e v 5.8.3.Z./.~.~.~.~.~.~.Q.^.~.~.~.Q.^.~.~.~.~.",
"~.!.~.~.~.~.~.~.~.~.~.~.~.~.~.!.~.~.~.R._.A.> P _ k.z.z.d.] ~ ~ ~ ~ ~ R P G H H c 3.: N 1.J./.~.~.~.~.~.~.~.~.~.~.~.~.~.~.~.~.~.",
"~.~.~.~.~.!.~.~.~.~.~.~.!.~./.!.Q.~.~.~.R. .* a H ~ k.z.d.[ ) _ ^ ^ ! P G H A 2 x : 2 = T._.!.W.Q.^.~.~.~.~.~.~.~.~.~.~.~.~.~.~.",
"~.~.~.~.~.~.~.~.~.~.~.~.~.~.Y.~.'.'./.R.R.y h t h t i u e w 3 3 3 3 2 @ 2 2 y t - X d o D.~.~.'.'.Q.~./.~.~.~.~.~.~.~.~.~.~.Q.^.",
"~.~.~.~.~.~.~.~.!.~.~.~.Q.&.3 ,.V.v.L.'.).f   X h h h z j h g g g g g t ; ; d d t   .   L.[.Y.b.C.Q +.Q.~.~.~.~.~.~.^.Q.~.~.~.~.",
"~.~.~.~.~.~.~.~.~.~.!._.A.S ^ Z 9 V W O.o.o o o ; = l ;.l r d d t d - o X t - = o   . o  .O.Q 8 > ( F A._.~.~.~.~.~.~.~.~.~.~.~.",
"~.~.~.~.~.~.^.!.~.~.~.(.D.< _ R ^ ] ! A < + = y ; t l ;.f r d t d - t = o r 5 ; *   = ; > 6 6 H ! d.9 D.(.~.~.~.^.~.~.~.~.~.~.~.",
"~.~.~.~.^.!.!.~.~.!.~.~.Q.$.> _ R P ! ^ U % $ ; d z :.;.f r t t t d - + o = r r *   . . 0 H J R | P > K.(.~.~.~.~.~.~.~.~.~.~.~.",
"~.~.~.!.!.~.~.~.~.~.~.!.~./.&.< U _ ~ R ! Z 2 @ * r f j t r r t t t * o . $ . . @ , # 4 U { a.) 8 3 C./.~.~.~.~.~.~.~.^.~.~.~.~.",
"~.~.~.~.~.~.~.~.~.~.!.~.~.~.^.&.a Z [ | ' R U R e 9 7 @ % % O + + O O O O 7 q 6 q U ' ` [ ` Z > a V.'.W.~.~.~.~.~.~.~.~.~.~.~.~.",
"~.~.~.~.~.~.~.~.~.~.~.~.~.Q.W.'.L.%.w Z ! / #.` / R T T U Y F F P P P H H H U | | ` Y D 7 # s M.!./.!.~.~.~.~.~.~.~.~.~.~.~.~.~.",
"~.~.~.~.~.~.~.!.~.~.~.~.~.~.~.Q.~.(.P.$.k Q V C F ` k.d.j.l.d.( R ^ } [ { } Y < 6 > s  .%.P.Y.'.~.~.~.~.~.~.~.~.~.~.~.~.~.~.~.~.",
"~.~.~.~.~.~.~.~.~.~.~.~.~.~.~.^.Q.Q././.'.R.v.v.B.>.i K K K S F K p i u u w =.N.b.b.R.'.(./.^.Q.~.~.~.~.!.].~.~.~.~.~.~.~.~.~.~.",
"~.~.~.~.~.~.~.~.~.~.~.~.~.~.~.~.~.~.R.~.R.W.'.'.'.~.L.I.I.I.I.I.I.I.I.I.I.I.^.].`.].^.~.~.~.~.~.~.~.~.~.~.~.~.~.~.~.~.~.~.^.~.~.",
"~.~.~.~.~.~.~.~.~.~.~.W.~.~.^.Q.~.~.~.~.~.~.R.~.~.~.^./.^.^.~.^.~.~./.^.~./.~.~.R.~.~.~.~.~.~.~.~.~.^.~.~.~.~.~.~.~.~.~.~.~.~.~.",
"~.~.~.~.~.~.~.~.~.~.~.~.^.Q.~.~.~.~.~.~.~.~.~.~.~.~.R.~.~.~.~.~.~.~.~.~.W.~.~.~.W.~.~.~.~.~.^.~.~.~.~.~.~.W.~.~.~.~.~.~.~.~.~.~.",
"Q.~.~.~.~.~.~.~.~.~.~.~.~.~.~.~.~.~.~.~.~.~.~.~.~.~.~.~.~.~.~.~.~.~.~.~.~.~.~.~.~.~.^.~.~.~.~.~.~.~.~.~.~.~.^.~.^.~.~.~.~.~.~.~.",
"^.W.~.~.~.~.~.~.~.~.~.~.~.~.~.~.~.~.~.~.~.~.~.~.~.~.~.~.~.~.~.~.~.~.~.~.~.~.~.~.~.~.^.~.~.~.~.~.~.~.~.^.~.~.~.~.W.~.~.^.~.~.~.~.",
"~.~.~.~.~.~.~.~.~.~.~.~.~.~.^.Q.~.~.~.~.~.~.~.~.~.~.~.~.~.~.~.~.~.~.~.~.~.~.~.~.~.~.~.~.~.~.~.~.~.^.~.~.~.~.~.~.~.~.~.~.~.~.~.~.",
"~.~.~.~.~.~.~.~.~.~.~.~.~.~.~.~.~.~.~.~.~.~.~.~.~.~.~.W.~.~.~.~.~.~.~.~.~.~.~.~.~.^.~.~.~.~.~.~.~.~.~.~.~.~.~.~.~.~.~.~.~.^.~.~.",
"~.~.~.~.~.~.~.~.~.~.~.~.~.~.~.~.~.~.~.~.~.~.~.~.~.~.~.~.~.~.~.~.~.~.~.^.~.~.^.~.~.~.~.~.~.W./.~.~.~.^.~.~.~.~.~.^.~.~.~.~.~.~.~.",
"~.~.~.~.~.~.~.^.~.~.~.~.~.~.~.~.~.~.~.~.~.~.~.~.~.~.~.~.~.~.~.~.~.~.^.~.~.~.~.~.~.~.~.~.~.~.~.~.~.~.~.~.~.~.~.E.~.~.~.~.~.~.~.~.",
"~.~.~.~.~.~.~.~.~.~.~.~.~.~.~.~.~.~.~.~.~.~.~.~.~.~.~.~.~.~.~.~.~.~.~.~.^.~.~.~.~./.~.~.~.~.~.~.~.~.~.~.~.~.~.~.~.~.~.~.^.~.~.~.",
"~.~.~.~.~.~.~.~.^.~.~.~.~.~.~.~.~.~.~.~.~.~.~.~.~.~.~.~.~.~.~.~.~.~.~.~.].~.~.~.~.~.~.~.~.~.~.~.~./.~.~.~.~.~.~.~.~.~.~.W.~.~.~.",
"~.~.~.~.W.~.~.~.W.~.~.~.~.W.~.~.~.~.E.~.~.~.~.~.~.~.~.~.~.~.~.^.~.~.~.~.!.~.~.~.~.~.~.~./.~.~.~.~.~.~.~.~.~.~.~.~.~.~.^.].~.~.~.",
"~.~.~.^.~.~.~.~.~.~.~.~.~.~.~.~.~.~.~.~.~.~.~.~.~.~.~.~.~.~.~.~.~.~.~.~.~.~.~.~.~.~.~.~.~.~.~.~.W.~.~.~.^.~.~.~.~.~.~.].{.].~.~.",
"~.~.~.~.~.~.~.~.~.~.~.~.~.^.W.~.~.~.~.~.~./.~.~.~.~.~.~.~.~.~.~.~.~.~.~.~.~.~.~.~.~.~.~.~.~.~.~.~.~.~.~.~.~.~.~.~.~.~.~.].^.~.~.",
"~.~.~.~.~.~.~.~.~.W.^.~.~.~.~.~.~.~.~.~.~.~.~.~.~.~.~.~.~.~.~.~.~.~.~.~.~.~.~.~.~.~.^.~.~.~.~.~.~.^.~.~.~.~.~.~.~.~.~.~.~.~.~.~.",
"~.~.~.~.~.~.~.~.~.^.~.~.~.~.~.~.~.~.~.~.~.~.~.~.~.~.~.~.~.~.~.~.~.~.~.~.~.~.~.~.~.~.~.~.~.~.~.~.~.~.~.~.~.~.~.~.~.~.~.~.~.~.~.~."
};
