/* XPM */
static char *_38e90d151e44783d7be91bcbf3e1408oGwKH2gwVVMA25SO[] = {
/* columns rows colors chars-per-pixel */
"64 64 236 2 ",
"   c #47633E",
".  c #4B7C3E",
"X  c #447D3E",
"o  c #577A3C",
"O  c #637B39",
"+  c #747B36",
"@  c #787A35",
"#  c #79642E",
"$  c #017D45",
"%  c #0A7F4A",
"&  c #097744",
"*  c #167847",
"=  c #2B7B45",
"-  c #247C46",
";  c #387C44",
":  c #3B7653",
">  c #477C43",
",  c #487353",
"<  c #517155",
"1  c #51764A",
"2  c #70725C",
"3  c #707D66",
"4  c #997E2C",
"5  c #867230",
"6  c #B25555",
"7  c #836547",
"8  c #8A6A5A",
"9  c #867668",
"0  c #927467",
"q  c #A77D74",
"w  c #BD7A7B",
"e  c #AD716D",
"r  c #C44D52",
"t  c #C6595A",
"y  c #C95B61",
"u  c #C77878",
"i  c #D27B7D",
"p  c #C8686D",
"a  c #5C813E",
"s  c #78873E",
"d  c #05844D",
"f  c #0C844E",
"g  c #038B4D",
"h  c #08864C",
"j  c #12834E",
"k  c #1B834D",
"l  c #038551",
"z  c #0C8652",
"x  c #068D51",
"c  c #0B8E53",
"v  c #0C8C5A",
"b  c #1A8553",
"n  c #118E56",
"m  c #158955",
"M  c #059255",
"N  c #0E9156",
"B  c #059259",
"V  c #0C9459",
"C  c #089A5F",
"Z  c #119157",
"A  c #13925A",
"S  c #18945C",
"D  c #18985F",
"F  c #00904F",
"G  c #2D8346",
"H  c #2B8649",
"J  c #25844A",
"K  c #348648",
"L  c #2A875B",
"P  c #34865C",
"I  c #0A9961",
"U  c #199865",
"Y  c #1E9F71",
"T  c #298E62",
"R  c #348C63",
"E  c #3B8D67",
"W  c #2D9D6C",
"Q  c #269768",
"!  c #319E6D",
"~  c #329567",
"^  c #289F71",
"/  c #2CA06E",
"(  c #24A26D",
")  c #33A06F",
"_  c #2CA272",
"`  c #22A173",
"'  c #34A271",
"]  c #35A775",
"[  c #1FA071",
"{  c #478143",
"}  c #5A8548",
"|  c #438956",
" . c #718745",
".. c #549172",
"X. c #47906E",
"o. c #6E8169",
"O. c #44AA7B",
"+. c #888137",
"@. c #938437",
"#. c #A8832D",
"$. c #B1862B",
"%. c #A78635",
"&. c #B7973B",
"*. c #AF9538",
"=. c #BAA13D",
"-. c #C4992E",
";. c #C79935",
":. c #D19C36",
">. c #D89F2F",
",. c #C8A53D",
"<. c #D3AB3D",
"1. c #DAAE3B",
"2. c #D6A836",
"3. c #DDB03A",
"4. c #E6AD39",
"5. c #E5B33C",
"6. c #EBBA3D",
"7. c #EAB53D",
"8. c #F3B83E",
"9. c #9A8857",
"0. c #A98C48",
"q. c #A7994C",
"w. c #B29545",
"e. c #B89A44",
"r. c #AA9755",
"t. c #AC9156",
"y. c #BBA147",
"u. c #B9A356",
"i. c #89917F",
"p. c #A49468",
"a. c #B29E66",
"s. c #BB817E",
"d. c #AA9875",
"f. c #B19776",
"g. c #A68279",
"h. c #B9A567",
"j. c #A8A67B",
"k. c #B8A776",
"l. c #C29A46",
"z. c #CAA341",
"x. c #C9A947",
"c. c #D1AC42",
"v. c #DCAF41",
"b. c #D6B244",
"n. c #C7A84E",
"m. c #ECBC42",
"M. c #E5B944",
"N. c #F6BB41",
"B. c #EDC146",
"V. c #FCC345",
"C. c #FFCC43",
"Z. c #F7C84B",
"A. c #FCCD4B",
"S. c #F7C346",
"D. c #FFD146",
"F. c #FFD14B",
"G. c #FFD94C",
"H. c #D67D81",
"J. c #5FB68F",
"K. c #8D9583",
"L. c #B78988",
"P. c #A69886",
"I. c #B99796",
"U. c #B19490",
"Y. c #A8A685",
"T. c #B5AA87",
"R. c #A9A496",
"E. c #BCA29D",
"W. c #BCB496",
"Q. c #BBB48C",
"!. c #B3B7A4",
"~. c #BE9AA1",
"^. c #C48888",
"/. c #DC8289",
"(. c #C4969B",
"). c #CB8C92",
"_. c #E08C92",
"`. c #C4B89A",
"'. c #C7A19F",
"]. c #C4ABAB",
"[. c #C8A6A6",
"{. c #D0ACAC",
"}. c #D7B4B8",
"|. c #C9AEB2",
" X c #E1A6AB",
".X c #B9C7BC",
"XX c #92CDB3",
"oX c #CCC7B6",
"OX c #D0C9B5",
"+X c #BDC9C2",
"@X c #CBC8C3",
"#X c #D6C9C8",
"$X c #C3D4CA",
"%X c #D7D4CC",
"&X c #CCDDD4",
"*X c #C8DBD8",
"=X c #DCDBD4",
"-X c #DDDEDC",
";X c #D8D8D4",
":X c #E2DBD7",
">X c #E0D9CE",
",X c #CCE8DC",
"<X c #D4E3DC",
"1X c #D4E9DF",
"2X c #D8E5DF",
"3X c #E6E1DB",
"4X c #CFEDE0",
"5X c #CBE4E2",
"6X c #D5EBE1",
"7X c #DBEDE4",
"8X c #DDEEE9",
"9X c #D7E9E6",
"0X c #DBF1E7",
"qX c #DEF1E9",
"wX c #D6F0E5",
"eX c #DEF3F2",
"rX c #E4E5E4",
"tX c #E3ECEA",
"yX c #EBECEC",
"uX c #E7E8E6",
"iX c #F1EEEF",
"pX c #E1F1EA",
"aX c #E0F0E7",
"sX c #EBEDF1",
"dX c #E6F6F4",
"fX c #F5F4F4",
"gX c #F9F5F7",
"hX c #F4F8F7",
"jX c #FAF6F8",
"kX c #F6FAFA",
"lX c white",
"zX c #FEFEFE",
"xX c #FDFEFE",
"cX c #FEFEFE",
"vX c #F3F7F9",
"bX c #F2EFEF",
/* pixels */
"fX&XS c x W kXcXcXqXA N x Q hXhXyXpXA N x ! cXcXcX6Xc N x W xXyXfXqXN N x ) cXcXcX6Xc Z x ! rXcXfX&XA N x ' cXcXcX6Xc A x ! xXfX",
"jX8XA N x W kXcXcXqXA N g ( bXyXcX<XA N x ! cXcXcX6XN Z g ( iXhXcX&XZ N x ) cXcXcX6Xc Z g ( jXyXcX1XZ Z x ' cXcXcX6Xc Z F ( iXfX",
"gX9XA N x W kXcXcXpXA I < 3 9XhXgX6XA N x ! cXcXcX7XN I < 3 9XhXgX<XZ N g ) cXcXcX6XM I < o.9XkXgX<XZ Z x ' cXcXcX6XM I < o.8XhX",
"cX<XA N x W kXcXcXpXh 8 i L.[.:XcX2XA N x ! cXcXcX0X$ 8 i L.[.=XcX<XN N g ) cXcXcX7X$ 0 i L.(.:XcX&XA Z x ' cXcXcX7X$ 0 i U.[.:X",
"@XdXn N x / kXcXcX0XT _.* A r 8 @X6XZ N x ' cXcXcX6XL _.* A r 0 @X<Xc N g ' cXcXcX4XL _.& S r 8 %X8Xc Z x ] cXcXcX,XP _.& S 6 0 ",
"0..XU c x P cXcXcX0XL U.f _ R.*.0.$XD N x R cXcXcX6XL U.h W R.*.w.$XS N g R cXcXcX4XP U.h _ R.*.0..XS N x R cXcXcX,XP U.h W Y.&.",
"C.q.v B = 5 oXcXcXpXn * N b <.F.C.q.v B = 5 oXcXcX7Xc * N b <.F.C.q.v B = 5 @XcXcX6Xc * N b c.F.C.q.v M = 5 @XcXcX6Xc % V b <.D.",
"A.c.d z ,.D.x.rXcX8XA N B G S.Z.F.<.d m z.D.x.uXcX6XN V B G S.Z.A.,.d j ,.D.x.uXcX6Xc V B G S.Z.F.,.l j ,.D.n.yXcX1Xc N B G V.Z.",
"m.<.k J S.F.6.%XcX8XA Z M { 8.M.m.<.* H S.F.6.=XcX6XN Z x { 8.6.m.2.j H V.F.6.=XcX2Xc Z x { 8.M.m.2.% H S.F.M.=XcX1Xc Z x { 8.M.",
"w.e.. { 8.M.2.T.cXqXA N f 5 y.w.w.l.> X N.M.2.T.cX6Xc V f +.e.w.w.l.. . 8.M.2.T.cX2Xc N f @.u.w.w.l.X . N.M.2.T.cX2Xc N j @.e.w.",
"iX2Xj + +.#.0.j.jXpXA N x Q U.[.xX<Xm + +.#.0.j.cX7XN N x Q I.[.xX<Xj @ 5 #.t.j.cX6Xc N x Q I.].xX<Xj + +.#.0.T.cX6Xc Z x W I.[.",
"jX9XS x l } :XcXcX8XA N x _ ^.[.cXpXA N l } :XcXcX6XN N x / ^.{.cX8XZ c l } 3XcXcX6Xc Z x _ ^.{.cX7Xc c l } 3XcXcX6Xc Z x _ ).(.",
"gX7XA N x W cXxXcXtXA N x ] I.|.cX8XA Z x _ cXxXcX6XN Z x ] L.|.cX7XZ Z x _ cXxXcX6Xc Z x ] I.|.cX7Xn Z x _ cXxXcX6Xc A x ] I.].",
"jX7XA N x W kXcXcXqXA N x ) kXxXcX8XA N x ! kXcXcX7XN A x ) kXxXcX7XZ Z x ) cXcXcX6XN Z x ' kXxXcX7XZ Z x ' cXcXcX6Xc Z x ' sXhX",
"fX<XS N x W kXcXcXqXA N x W kXcXcXqXA N x ! xXcXcX7XN Z x W cXcXcX7XZ N x ) cXcXcX6XN Z x ) cXcXcX7XZ Z x ' cXcXcX6Xc Z x ! jXhX",
"jXtXA N x W kXcXcXqXA N x W kXcXcXqXA Z x ) xXcXcX7XZ Z x ) xXcXcX7XZ N x ) cXcXcX6Xc Z x ) cXcXcX7XZ Z x ' cXcXcX6Xc A x ' yXhX",
"fX<XS N x W kXcXcX8XA N c ! kXcXcX8XA Z x ) xXcXcX7XZ Z x ! xXcXcX7XZ N x ) cXcXcX6Xc Z x ! cXcXcX7Xn Z x ' cXcXcX6Xc A c ! kXfX",
"jX7XA N x W kXcXcX8XA Z x ( cXcXcX8XA Z x ! cXcXcX7Xn Z M ( cXcXcX7XZ Z x ) cXcXcX6Xc Z M ( cXcXcX7XA Z x ' cXcXcX6Xc Z g _ fXfX",
"gX7XS N x W kXcXcXqXA C , 3 dXcXcXqXA N x ! xXcXcX6XN C , o.dXcXcX7XN Z x ) cXcXcX6XN I , o.dXcXcX7XA Z x ' cXcXcX6Xc C , o.8XkX",
"cX<XS N x W kXcXcXpXd 2 /.^.].uXcX7XA N x ! xXcXcX0Xd 8 H.).].uXcX6XA A x ) cXcXcX0Xd 9 i L.].yXcX7XA Z x ' cXcXcX7X$ 9 i L.|.:X",
"%XdXn N x / kXcXcX0XL /.* U r 0 =XdXn N x ' xXcXcX6XL /.* S r 0 -XdXn N x ' cXcXcX4XL /.* S r 0 -XdXc Z x ' cXcXcX,XL /.* S 6 q ",
"0.+XU N x ~ cXcXcX0XR I.h W R.%.t.&XS N x ~ cXcXcX6XR I.h W R.%.t.&XA N x ~ cXcXcX4XP I.d W R.%.t.*XS N x ~ cXcXcX,XP U.d W P.*.",
"C.r.A B * # @XcXcXqXn * N b z.F.C.q.V B * # %XcXcX7Xz * V b ,.F.C.q.v B * # %XcXcX6Xc * N b z.F.C.q.v B - # %XcXcX6Xz * M b c.F.",
"A.<.h z &.C.n.yXcX8XA V B H S.Z.A.c.d z &.C.n.yXcX6XN V B H S.Z.A.c.c f =.C.n.yXcX6XN V B G V.Z.F.x.d f =.C.n.sXcX1XN V B G V.Z.",
"S.<.% J N.F.6.%XcX8XA n B ; N.m.S.<.f H S.F.7.%XcX6XZ Z B > N.m.S.<.f H S.F.7.=XcX2Xc Z B { N.m.S.<.d H S.F.M.=XcX1Xc Z B { N.m.",
"&.;.. ; N.m.1.Q.cX8XA N z +.e.e.&.;.{ ; N.B.1.W.cX6Xn N j 5 e.e.e.;.. { V.m.1.W.cX2Xc N f @.e.w.&.;.> X N.m.1.W.cX2Xc N j @.y.e.",
":X$Xb + @.#.0.d.jXpXA N x ~ I.I.fX&Xk @ @.#.0.d.jX7XZ Z x ~ U.E.fX&Xk @ @.#.0.d.cX6Xc N x ~ I.E.fX&Xk @ @.%.0.d.cX6Xc N x ~ U.I.",
"cXpXA n l o %XcXcX8XA N x ^ ^.{.cXpXA Z l O >XcXcX6XZ Z M _ ^.{.cXqXZ n l  .>XcXcX6XN Z x ^ ^.{.cXqXZ Z l  .:XcXcX6Xc Z x _ ^.[.",
"gX<XS N M ^ cXcXcXpXA N x ] L.].cX7XA N M _ cXxXcX7XZ Z x ' L.|.cX7XZ Z x _ cXxXcX6Xc Z x ] L.].cX7XZ N M _ cXxXcX6Xc Z x ' L.].",
"gX7XS N x ! kXcXcXqXA Z x ) hXkXcX8XA Z x ! kXcXcX7XZ Z x ) hXxXcX8XZ Z x ) cXcXcX6XN Z x ' hXkXcX7XZ N x ' cXcXcX6Xc A x ' yXsX",
"kXaXA N x W kXcXcXqXA N x W cXcXcX8XA Z x ! xXcXcX7XZ Z x ! cXcXcX7XZ Z x ' cXcXcX6XN Z x ! cXcXcX7XZ Z x ' cXcXcX6Xc A x ' yXhX",
"fX<XS N x W kXcXcXqXA N x W kXcXcX8XA N x ! xXcXcX7Xn Z x ! xXcXcX7XA Z x ' cXcXcX6Xc Z x ) cXcXcX7XZ N x ' cXcXcX6Xc A x ! kXfX",
"jXtXA N x W kXcXcXpXA Z x ) kXcXcX8XA N x ! xXcXcX7Xn Z c ) xXcXcX7XZ Z x ) cXcXcX6XN A x ' cXcXcX7XZ N x ' cXcXcX6Xc A x ' yXfX",
"fX<XS N x W kXcXcXqXA c g U cXcXcX8XA Z x ! xXcXcX7XZ c g Q cXcXcX7Xn Z x ' cXcXcX6Xc N g Q cXcXcX7XA N x ' cXcXcX6XN N g Q kXfX",
"gX7XA N x W kXcXcXpXc U 9 q 9XcXcX8XA Z x ! xXcXcX7Xx U 8 q 9XcXcX7Xn Z x ' cXcXcX6Xx U 9 g.9XcXcX7XA A x ' cXcXcX6Xx ^ 0 q 9XkX",
"cXaXA N x W kXcXcXpXf 6 q i.u #XcX7XA Z x ! xXcXcX0X% 6 e i.u #XcX7XZ Z c ! cXcXcX7X% 6 q K.u #XcX7XA N x ' cXcXcX7X& 6 q K.u }.",
"R.8XS c x _ kXcXcXwXR  X& I w 7 !.dXn N x _ cXcXcX4XR  X$ A e 7 !.dXn Z x ] cXcXcX,XR  X$ U p 7 !.dXc N x ] cXcXcX,XR  X$ S e 7 ",
"z.W.U N d : vXcXcXqXL 9 z Q Y.<.z.!.S N d : kXcXcX6XL 9 z Q j.<.z.!.S N d : jXcXcX6XL 9 x W Y.<.z.!.A N d : jXcXcX4XL 9 x W j.<.",
"F.y.z M > $.W.cXcXpXA h V k 1.A.D.*.z M . $.`.cXcX7XN h N k 5.F.D.e.z M > $.W.cXcX6Xc h V J 5.A.F.*.z M > $.`.cXcX6XM g B J 5.F.",
"F.b.l j v.G.<.-XcX8XA Z B H V.Z.A.b.d k M.G.<.-XcX6XA A B K V.Z.F.c.d k M.G.<.-XcX6Xc A B K V.Z.F.c.l k M.G.c.rXcX1XN A B K V.Z.",
"2.:.= J S.F.6.%XcX8XA N c o 4.1.2.:.= H S.A.6.%XcX6Xn Z c O 4.1.1.:.- H V.A.6.%XcX2Xc Z x O 4.1.1.:.- K V.A.m.=XcX1Xc Z c O 4.1.",
"h.h.> o 7.c.-.p.cXqXA N f  .a.t.k.h.{ o 4.c.-.p.cX6Xn N j  .a.t.k.h.> o 7.c.-.p.cX6XN N j  .a.a.k.h.{ O 7.c.-.p.cX6Xc V j  .h.t.",
"cXeXm o . 4 a.OXjXpXA N x Y I.|.cXqXz a o 4 k.oXcX7XZ Z x Y (.|.cX9Xz a o 4 k.oXcX6XN Z x ` (.|.cXwXz a o 4 k.OXcX6XN Z x ^ ).~.",
"fX<XS M x P bXcXcX8XA N x / w '.cX7XA M x | fXcXcX6XZ Z x / s.[.cX7XZ B l | fXcXcX6Xc Z x ' w [.cX7XA B x | hXcXcX6Xc A x W ^.[.",
"jX7XA Z x / cXxXcXpXA N x ' ].#XcX8XA Z x _ cXjXcX7Xn Z x ] ].#XcX6XZ Z x ] cXkXcX6Xc Z x ] ].#XcX6Xn Z x ] cXkXcX6Xc Z x ' ].@X",
"gX9XA N x W kXcXcXqXA N x ! cXcXcX8XA N x ! kXcXcX7Xn Z x ! cXcXcX7XZ Z x ) cXcXcX6XN Z x ) cXcXcX7XZ Z x ' cXcXcX6Xc Z x ' kXkX",
"gX2XS N x W kXcXcXqXA N x ! kXcXcX8XA N x ! xXcXcX7Xn Z x ! kXcXcX7XZ Z x ' cXcXcX6XN A x ) xXcXcX7XZ Z x ' cXcXcX6Xc Z x ' yXfX",
"jXtXA N x W kXcXcXpXA N x W xXcXcXqXA A x ! xXcXcX7XZ Z x ! xXcXcX7XZ Z x ' cXcXcX6Xc A x ) cXcXcX8XA Z x ' cXcXcX6Xc Z x ! kXfX",
"fX<XS N x W kXcXcX8XA Z M ' cXcXcX8XA A x ! xXcXcX7Xn A M ' cXcXcX8XZ Z x ' cXcXcX6Xc A M ' cXcXcX7XA Z x ' cXcXcX6Xc A M ] yXfX",
"jXaXA N x W kXcXcXqXA M d T kXcXcX8XA Z x ! xXcXcX7XA M $ T kXcXcX8XZ Z x ) cXcXcX6XZ M $ ~ cXcXcX7XA Z x ' cXcXcX6XN M d T hXhX",
"gX2XA N x W kXcXcXpXx E u ^.*XkXcX8XA Z x ! xXcXcX7Xh E u ^.*XkXcX6XA Z x ) cXcXcX6Xh X.u ^.*XcXcX7XA Z x ' cXcXcX6Xg X.u ^.*XhX",
"fX9XA N x W kXcXcXqXj t 2 ..t [.cXaXA N x ! kXcXcX0Xj y 3 ..t [.cX8Xn Z x ) cXcXcXwXj y 2 ..t ].cX8Xn Z x ' cXcXcX6X* y 2 ..t E.",
"P.8XA N x _ cXcXcXwXR }.$ U L.5 d.dXA c x ] cXcXcX6XR }.$ U L.5 P.eXZ Z x ] cXcXcX,XE }.$ Q L.5 P.eXZ n x ] cXcXcX,XE }.$ U L.5 ",
"5.j.U M d   uXcXcXqXb < c Q h.B.5.j.U N %   yXcXcXwXb < c Q h.B.5.j.A N %   sXcXcX6Xb < c Q h.B.5.Y.U N %   sXcXcX6Xb < c T u.B.",
"F.,.z c s 2.k.jXcX8XA M V - 7.A.F.&.d M s >.k.jXcX7XN M B - 6.A.F.=.z c s 2.k.jXcX6XM B B - 6.Z.F.&.l c s >.k.xXcX6XM M B J 8.A.",
"A.b.d k m.G.1.;XcX8XA n B H S.Z.A.b.l k m.G.3.=XcX6Xn Z B K V.Z.F.c.l J N.G.1.=XcX6Xc n B K V.Z.A.c.l J N.G.1.-XcX6Xc A B K V.Z.",
"-.-.; J V.A.6.OXcX8XA N c @ 2.;.-.;.; G V.A.6.OXcX6XZ V z @ 2.,.-.;.; G V.A.6.OXcX2Xc N c @ 2.;.-.-.; G V.A.6.#XcX1XN Z c +.2.,.",
"`.`.; + :.&.*.9.jXpXA N z } f.f.oXQ.= + :.&.$.9.cX7XN N z } f.f.`.Q.= + :.&.$.9.cX6Xc N z } f.f.`.Q.= + :.&.$.9.cX6XN Z m } f.f.",
"cX9XA K = 5 `.;XfXaXA N x Y ^.[.xXeXc K = 5 `.rXcX7Xn Z M [ ^.}.cX*Xc K = 5 `.rXcX7Xc Z x ` ^.}.cX5Xc K = 5 `.uXcX6XN Z x ` ).[.",
"gXaXA B M T rXcXjX&XS N x _ L.'.cX&XA B x ~ cXcXcX7XZ Z x / L.I.xX7XZ B x ~ cXcXcX6XN Z x _ s.I.cX<XN B x ~ cXcXcX6XN S O.] s.[.",
"hX2XS n x / hXyXjX7XA N x / #X-XgX2XA Z x ' xXcXcX7XZ Z x ' @X-XcX<XZ Z x ' cXxXcX6Xc Z x ' @XrXjX<XA Z x ] cXxXcX6Xx J.XXJ.%X-X",
"gX9XA c x W fXfXgX2XA N x W hXhXgX2XA Z x ! cXcXcX7XZ Z x W kXkXjX<XZ Z x ' cXcXcX6Xc Z x ! kXhXgX<XZ Z x ' cXcXcX6Xc S O.] kXhX",
"kX8XA c x W yXkXgX<XA N x W yXfXcX&XA Z x ) cXcXcX7XZ Z x W hXyXgX7XZ Z x ' cXcXcX6Xc Z x ' jXyXjX2XZ Z x ' cXcXcX6Xc Z g ' yXfX",
"fX&XS c x W cXyXjXpXA N c Q hXgXiXpXA Z x ) cXcXcX7XZ Z x ! rXhXcX$XA Z x ' cXcXcX6Xc A x ! rXcXfX&XA Z x ' cXcXcX6XN A x ! cXfX"
};
