/* XPM */
static char *f5b1a453d64f4a89bd9eb8138f01bbb2ROVvbwi0CycYwQ7S[] = {
/* columns rows colors chars-per-pixel */
"64 64 151 2 ",
"   c #BC0E12",
".  c #BD1215",
"X  c #BF171A",
"o  c #BE1C1E",
"O  c #BE1E21",
"+  c #BF2124",
"@  c #C00F15",
"#  c #C01216",
"$  c #C0171A",
"%  c #C0181B",
"&  c #C01F22",
"*  c #C12224",
"=  c #C73F41",
"-  c #C83F42",
";  c #C74143",
":  c #C84244",
">  c #C95759",
",  c #CA595A",
"<  c #CF6E6F",
"1  c #D06F6F",
"2  c #CF6F70",
"3  c #D06F70",
"4  c #CF7071",
"5  c #D07071",
"6  c #D37C7D",
"7  c #D3807F",
"8  c #D37F80",
"9  c #D38080",
"0  c #D7999B",
"q  c #D89B9B",
"w  c #D99C9C",
"e  c #D99D9C",
"r  c #D99C9D",
"t  c #D99D9D",
"y  c #DA9C9C",
"u  c #DA9C9D",
"i  c #DA9D9D",
"p  c #D99D9E",
"a  c #DA9D9E",
"s  c #D99B9C",
"d  c #DCA8A8",
"f  c #DCA9A8",
"g  c #DCA9A9",
"h  c #DDA9A9",
"j  c #DDAAA9",
"k  c #DEAAA9",
"l  c #DDAAAA",
"z  c #DDAAAB",
"x  c #DDABAB",
"c  c #DEAAAB",
"v  c #DEABAB",
"b  c #DDACAB",
"n  c #DDABAC",
"m  c #DEABAC",
"M  c #DDACAC",
"N  c #DDADAC",
"B  c #DDACAD",
"V  c #DCADAD",
"C  c #DDADAD",
"Z  c #DEACAC",
"A  c #DEADAC",
"S  c #DEACAD",
"D  c #DEADAD",
"F  c #DDABAB",
"G  c #E2C5C5",
"H  c #E2C6C6",
"J  c #E2C6C7",
"K  c #E2C7C7",
"L  c #E3C7C7",
"P  c #E2C6C6",
"I  c #E3C8C8",
"U  c #E4C8C8",
"Y  c #EAE7E7",
"T  c #EAE8E7",
"R  c #EAE8E7",
"E  c #EAE7E8",
"W  c #EAE8E8",
"Q  c #EBE8E8",
"!  c #EAE9E8",
"~  c #EBE9E8",
"^  c #EAE8E9",
"/  c #EBE8E9",
"(  c #EAE9E9",
")  c #EBE9E9",
"_  c #EAEAE9",
"`  c #EBEAE9",
"'  c #EBE9EA",
"]  c #EBEAEA",
"[  c #EBEAEB",
"{  c #EAEBEB",
"}  c gray92",
"|  c #ECE9E9",
" . c #ECEAEA",
".. c #ECEBEB",
"X. c #EAECEA",
"o. c #EBECEB",
"O. c #EBEBEC",
"+. c #ECEBEC",
"@. c #EBECEC",
"#. c #EBEDEC",
"$. c #EBEDED",
"%. c #EBEEED",
"&. c #ECECEC",
"*. c #ECEDEC",
"=. c #ECECED",
"-. c #EDECED",
";. c #ECEDED",
":. c gray93",
">. c #ECEEED",
",. c #ECEDEE",
"<. c #ECEEEE",
"1. c #ECEFEE",
"2. c #EBEAEA",
"3. c #ECF3F3",
"4. c #EDF3F3",
"5. c #EDF4F3",
"6. c #ECF4F4",
"7. c #EDF4F4",
"8. c #ECF5F4",
"9. c #EDF5F4",
"0. c #EDF4F5",
"q. c #EDF5F5",
"w. c #EEF6F5",
"e. c #EDF7F7",
"r. c #EDF5F5",
"t. c #EDF8F7",
"y. c #EEF8F7",
"u. c #EEF8F7",
"i. c #EEF7F8",
"p. c #EEF7F8",
"a. c #EDF8F8",
"s. c #EDF9F8",
"d. c #EEF8F8",
"f. c #EFF8F8",
"g. c #EEF9F8",
"h. c #EFF9F8",
"j. c #EFF8F9",
"k. c #EEF9F9",
"l. c #EFF9F9",
"z. c #EEFAF9",
"x. c #EFFAF9",
"c. c #EEFAFA",
"v. c #EFFAFA",
"b. c #EFFBFA",
"n. c #EEFBFB",
"m. c #EFFBFB",
"M. c #EFFCFB",
"N. c #EFFCFC",
"B. c #EEF9F9",
"V. c #F3F2F2",
"C. c #F1FCFB",
/* pixels */
". x d.' &. .d.x . * * $ : @.&.&.' d.6 . * * . Z d.' &.' 6.> . * & o G 4.' ' ' d.2 . * * . w d.' &.' d.x . * * X = @.&.o.' N.6   ",
". x d.' @.' d.x . * * % : &.&.&.' d.6 . * * . Z d.' o.' 6., . * & o G 5.' ' ' d.5 . * * . w d.' &.' d.x . * * $ ; @.&.&.' M.6   ",
"# x d.' &.' d.x . * * % : &.+. .' d.6 . * * . Z d.' &.' 6., . * & o G 6.' ' ' d.5 . * * . w d.' &.' t.x . * * % ; @.&.+.' d.6   ",
"# x d.' &.' d.x . * * $ : &.+.&.' d.6 . * * . Z d.' ' ' 6., . * & o G 4.' ' ' d.5 . * *   w d.' &.' d.x . * * % ; @.&.' ' d.6   ",
"# x d.' o.' d.x . * * $ : &.&.o.' d.6 . * * . Z 6.' ' ' 6., . * O o G 6.' ' ' d.3 . * *   w d.' @.' d.b . * * % ; @.&.' ' d.6   ",
"# x d.' ' ' d.x . * * $ : &.&.&.' d.6 . * * . Z d.' ' ' 6., . * O o G 5.' o.' d.3 . * *   w d.' @.' d.Z . * * % ; @.&.o.' d.6   ",
". m d.' &.' d.x . * * % : &.&.&. .d.6 . * * . Z d.' ' ' 6.> . * O o G 5.' O.' d.3 . * * . w d.' @.' d.x . * * % : @.@.&.' d.6   ",
". x d.' &.' d.x . * * X : &.+.&.' d.6 . * * . Z d.' O.' 6., . + O & G 4.' ' ' d.3   + * . w d.' o.' i.Z . * * % ; @.&.+.' d.6   ",
". x d.' O.' d.x . * * X ; &.&.&.' d.6 . * + . Z d.' O.' 6., . + O o G 4.' ' ' d.<   + * . w d.' @.' d.Z . * * % ; @.&. .' d.6   ",
". x d.' &.' d.x . * * X ; @.&.@.' d.6 . * + . Z t.' o.' 6.> . * + o G 4.' o.T d.< . + * . q d.' @.' d.b . * * % ; @.@.' ' d.6   ",
". m d.' @.' d.x . * * X : &.@.&.' d.6 . * + . Z d.' o.' 6.> . * O O I 4.' ' ' d.< . + * . w d.' @.' d.x . * * % ; @.@.' ' d.6   ",
". m d.' &.' d.x . * * X : &.+.' ' d.6 . * * . Z 6.' ' ' 6., . * & O G 6.' ' ' d.< . * * . w d.' &.' d.Z . * * % - @.&.+.' d.8   ",
". m d.' &.' d.x . * * X ; &.&.&.' d.6 . * * . Z 6.' ' ' 6., . * & o G 6.'  .' d.3   + *   s d.' &.' d.x . * * $ = @.&.' ' d.9   ",
". m d.' &.' d.x . * * $ : &.&.&.' d.6 . * * . Z d.' ' ' 6., . * O o G 7.' o.' d.1 . + *   s d.' O.' d.x . * * % ; @.&.o.' d.6   ",
". Z d.' &.' d.x . * * X : &.&.&.' d.6 . * * . Z t.' ' ' 6.> . * O O G 5.' o.' d.< . + +   w d.' O.' t.b . * * % ; @.&.o.' d.6   ",
". m d.' o.' d.x . * * $ : &.&.&.' d.6 . * * . Z d.' ' ' 6., . + & o G 5.' ' ' d.<   + +   s d.' @.' d.x . * * % = O.&.' ' d.9   ",
". m d.' &.' d.x . * * X ; &.&.' ' d.6 . * * . Z i.' ' ' 6., . * & o G 6.' ' ' d.1   + *   q d.' ' ' d.x . * * % = ' &.' E d.8   ",
". Z d.' &.' d.x . * * % : &.&.&. .d.6 . * * . Z d.' ' ' 6.> . * O o I 7.' ' ' d.< . * +   w d.' ' ' d.x . * * $ ; @.&.' ' d.8   ",
". Z d.' &.' d.x . * * % : &.&.@.' d.6 . * * . Z d.' ' ' 6., . * * o G 4.' o.' d.< . + + . w d.' @.' t.b . * * % ; o.@.o.' d.9   ",
". m d.' @.' d.x . * * % ; @.&.&.' d.6 . * * . Z i.' ' ' 6., . * * o G 6.' @.' d.3 . + * . q d.' &.' d.x . * * % = ' &.' T d.6   ",
". m d.' &.' d.x . * * % ; @.&.+.' d.6 . * * . Z 6.' ' ' 6.> . * O o G 6.' +.' d.1 . * + . q d. .' ' d.x . * * $ = ' &.' ' d.7   ",
". x d.' &.' d.x . * * $ ; @.+.&.' d.6 . * * . x 6.' ' ' 6., . * O o G 6.'  .' d.< . * +   w d.' ' ' i.x . * * $ = ' O.' Y d.8   ",
". m d.' @.' d.x . * * % : &.&.&.' d.6 . * * . x t.' ' ' 6., . * * o G 6.' ' ' d.5 . * *   s d.' @.' d.x . * * % ; o.&.' T d.6   ",
". m d.' &.' d.x . * * X : @.@.&.' d.6 . * + . Z 6.' ' ' 6., . * + O G 6.' o.' d.2 . + * . q d.' ' ' d.x . * * X ; @.&.' T d.6   ",
". m d.' o.' d.x . * * X : &.&.&.' d.6 . * * . m 6.' ' ' 6.> . * O o G 6.' O.' d.< . * + . w d.' &.' d.x . * * $ ; @.&.' ' d.6   ",
". m d.' &.' d.x . * * X ; &.&.&.' d.6 . * + . m 6.' ' ' 6., . * & o G 6.' ' ' d.2 . * + . w d.' o.' d.x . * * $ - @.@.' E d.6   ",
". Z d.' O.' d.x . * * X ; &.&.&.' d.6 . * + . x 6.' ' ' 6., . * & o G 6.' &.' d.5 . * *   s d.' ' ' d.x . * & $ = o.&.' ' d.9   ",
". m d.' o.' d.x . * * X ; &.&.&. .d.6 . * * . b t.' ' ' 6., . * + o G 6.' o.' d.5 . + * . s d.' @.' t.x . * * % = @.&.' ' d.6   ",
". m d.' &.' d.x . * * $ ; @.&.&.' d.6 . * + . b t.' o.' 6., . * + o G 6.' o.' d.4 . * * . w d.' @.' t.x . * * $ = @.&.o.' d.6   ",
". m d.' &. .d.x . * * $ ; @.+.o.' d.6 . * * . Z 6.' ' ' 6.> . * & o G 6.' O.' d.5 . * *   q d.' &.' d.x . * * $ = @.&.' ' d.6   ",
". x d.' &.' d.x . * * X ; @.+.+.' d.6 . + + . x 6.' ' ' 6., . * & o G 6.' ' ' d.5 . + + . 0 d.' o.' i.Z . * * $ ; o.&.+.E d.6   ",
". Z d.' &.' d.x . * * $ ; @.o.@.' d.6 . * + . Z t.' ' ' 6., . * & o G 6.' o.' d.2 . * + . w d.' &.' d.b . * * $ ; @.&. .' d.6   ",
". m d.' o.' d.x . * * % ; @.@.@.' d.6 . * + . Z 6.' ' ' 6., . * + o G 6.' o.' d.5 . * + . w d.' ' ' d.g . * * $ ; @.&.o.' d.8   ",
". m d.' o.' d.x . * * X : @.@.&.' d.6 . * * . Z 6.' ' ' 6., . * * o G 6.' O.' d.5 . + +   q d.' o.' d.m . * * $ = o.&.' ' d.8   ",
". Z d.' O.' d.x . * * X : &.+.&. .d.6 . * * . Z t.' ' ' 6., . * O O G 6.' +.' d.5 . + + . s d.' &.' d.Z . * * $ = ' &.+.' d.9   ",
". m d.' O.' d.x . * * $ ; @.&.' ' d.6 . * + . Z t.' ' ' 6., . * + o G 6.' ' ' d.4 . + +   s d.' ' ' d.x . * & $ - o.&. .' d.9   ",
". x d.' @.' d.x . * * X ; @.o.@.' d.6 . * * . Z 6.' ' ' 6., . * + o G 6.' o.' d.2 . + +   s d.' @.' d.x . * * $ ; @.&.o.' d.9   ",
". x d.' &.' d.x . * * X ; @.@.&.' d.6 . * * . Z 6.' ' ' 6., . * + O G 6.' o.' d.5 . + +   w d.' &.' d.b . * * % = o.&.&.' d.9   ",
". m d.' &.' d.x . * * $ ; @.&.&. .d.6 . * * . m 6.' ' ' 6., . * O O G 6.' +.' d.5 . + + . s d.' @.' d.x . * * X = @.&.o.' d.9   ",
". m d.' O. .d.x . * * X : @.+.&.' d.6 . * * . m 6.' ' ' 6., . * O O G 6.' +.' d.< . * + . s d.' &.' d.x . * * $ ; &.&.+.' d.9   ",
". m d.' &.' t.x . * * X ; @.o.o.' d.6 . + * . m 6.' ' ' 6., . * * o G 6.' ' ' d.5   + * . q d.' @.' t.x . * * $ = @.&. .' d.7   ",
". x d.' @.' d.x . * * $ : @.o.o.' d.6 . * * . Z t.' ' ' 6., . * + o G 6.' o.' d.5 . + * . q d.' @.' d.x . * * $ ; @.&.o.' d.6   ",
". x d.' &.' d.x . * * $ : @.@.' ' d.6 . * * . Z 6.' o.' 6.> . * + O G 5.' ' ' d.< . * + . w d.' ' ' d.x . * * $ ; @.o.' ' d.7   ",
". x d.' @.' d.x . * * $ ; &.+.+.' d.6 . * * . Z 6.' o.' 6.> . * O o G 5.' +.' d.5 . + * . s d.' &.' d.x . * * $ = @.&.' E d.6   ",
". x d.' +. .d.x . * * $ ; @.+.&.' d.6 . * * . Z 6.' ' ' 6., . * * o G 6.' ' ' d.5   + *   s d.' &.' i.x . * * $ ; @.&.' ' d.6   ",
". x d.' &.' d.x . * * $ : @.o.o. .d.6 . * + . Z t.' ' ' 6., . * + O G 7.' ' ' d.< . + +   q d.' ' ' d.x . * * $ ; @.&.' ' d.6   ",
". x d.' &.' d.x . * * $ : @.o.&. .d.6 . * + . Z 6.' ' ' 6.> . * O o U 5.' o.' d.< . + + . w d.' &.' d.b . * * X = @.&.o.' d.6   ",
". x d.' &.' d.x . * * $ : @.&.&.' d.6   + + . x t.' o.' 6., . * + o G 5.' ' ' d.1 . + +   w d.' @.' d.Z . * * $ = @.&.o.' d.6   ",
"# x d.' +. .d.x . * * $ : &.+.&.' d.6   + + . x 6.' ' ' 6., . * O o G 6.' ' ' d.< . + +   s d.' &.' d.x . * * $ = @.&.+.' d.8   ",
"# x d.' &. .d.x . * * $ : &.&.&.' d.6   + + . Z t.' ' ' 6., . * O O G 4.' ' ' d.3 . + +   s d.' ' ' d.x . * * $ = o.&.&.' d.8   ",
". x d.' &.' d.x . * * $ : &.&.&.' d.6   + + . Z d.' ' ' 6., . * + o G 6.' o.' d.3 . + +   q d.' ' ' d.b . * * X = @.&.&.' M.6   ",
". x d.' &. .d.x . * * $ : &.&.&.' d.6   + + . Z d.' o.' 6.> . + + o G 6.' o.' d.1 . + *   w d.' @.' d.x . * * X = @.&.&.' d.6   ",
". x d.' &. .d.x . * * X ; &.&.&.' d.6   + + . m d.' o.' 6., . + O o G 5.' +.' d.3 . * * . s d.' &.' d.x . * * $ = o.&.&.' d.6   ",
"# x d.' &. .d.x . * * X : &.&.&.' d.6   + + . Z d.' &.' 6., . + O o G 6.' ' ' d.1   + *   q d.' &.' d.x . * * $ = o.&.+.' d.8   ",
". x d.' &. .d.x . * * % : &.&.@.' d.6 . + O . Z t.' ' ' 6., . * + o G 6.' ' ' d.< . + *   q d.' @.' d.b . * * % = @.&.o.' M.8   ",
". x d.' @. .d.x . * * $ : &.&.&. .C.6   + * . Z d.' o.' 6., . * + o G 6.' o.' d.3 . + *   q d.' ' ' d.Z . * * X = @.&.&.' M.6   ",
". x d.' &. .d.x . * * X : &.&.&. .C.6   + + . Z 6.' o.' 6., . * O o G 6.' ' ' d.<   + +   q d.' ' ' d.Z . * * $ = o.&.&.' d.6   ",
". x d.' &. .d.x . * * X : &.&.&. .d.6   + + . m d.' &.' 6., . * & o G 6.' +.' d.<   * +   s C.' &.' d.Z . * * $ = @.&.&.' d.8   ",
"# x d. .&. .d.x . * * $ : &.&.&. .d.6   * * . Z d.' ' ' 6.> . * O o G 6.' &.' d.3   + +   s C.' &.' d.Z . * * $ ; &.&.&.' d.9   ",
"# x d.' &.' d.x . * * $ : &.&.&.' d.6   + & . Z d.' ' ' 6., . * O o G 6.' o.' d.< . * *   w d.' &.' d.Z . * * $ = @.&.&.&.N.8   ",
". x d. .&.' d.x . * * $ : @.&.&.' d.6   * * . Z d.' ' ' 6., . + + o G 5.' o.' d.1   * +   w d.' &.' d.Z . * * % = &.&.V.V.C.6   ",
"# x d.' &. .d.x . * * $ ; @.&.&.' d.6   + + . Z 6.' ' ' 6., . + O o G 5.' ' ' d.3   * +   w d.' &.' d.m . * * $ = @.@.&.&.N.9   ",
"# x d.' &.' d.x . * * $ ; &.&.&.' d.6   + + . Z d.' O.' 6.> . + O o G 4.' ' ' d.2   + +   w d.' &.' d.m . * * $ = o.&.' ' d.8   ",
"@ x d.' ' ' d.x . * * $ ; @.' ' E d.6   * + . Z 6.' ' ' 6., . + O o G 4.' ' Y d.<   + *   s d.Y ' ' d.m . * * % = ' &.' ' d.6   "
};
