/* XPM */
static char *_13a0293bcab41fe80f1a054a3ce0983e5LOJI0IqTeljSVR[] = {
/* columns rows colors chars-per-pixel */
"64 64 202 2 ",
"   c #7E532E",
".  c #6F5F31",
"X  c #7F5A34",
"o  c #546F34",
"O  c #4E7833",
"+  c #587F3E",
"@  c #6C6B3A",
"#  c #67723E",
"$  c #756135",
"%  c #6F6E40",
"&  c #6A7A42",
"*  c #767447",
"=  c #756540",
"-  c #8A361C",
";  c #8A391F",
":  c #8D3D23",
">  c #8E3520",
",  c #9F3F2E",
"<  c #92401F",
"1  c #B8641B",
"2  c #8F4027",
"3  c #8F4229",
"4  c #8E4A2F",
"5  c #92452D",
"6  c #93482E",
"7  c #97432B",
"8  c #8F4B31",
"9  c #934730",
"0  c #9A4532",
"q  c #954A33",
"w  c #984D36",
"e  c #964F39",
"r  c #994F39",
"t  c #8C5637",
"y  c #96523A",
"u  c #9A533C",
"i  c #925B3F",
"p  c #985337",
"a  c #A55A2C",
"s  c #A04D3B",
"d  c #A64638",
"f  c #B65139",
"g  c #85623C",
"h  c #B0622B",
"j  c #AC6437",
"k  c #B76C38",
"l  c #C3433A",
"z  c #8F5E41",
"x  c #9C5641",
"c  c #9D5943",
"v  c #9F5D49",
"b  c #945E40",
"n  c #A15240",
"m  c #A05D47",
"M  c #A05E49",
"N  c #826A43",
"B  c #896947",
"V  c #9F624D",
"C  c #986742",
"Z  c #9F6A52",
"A  c #807850",
"S  c #82734A",
"D  c #A2614C",
"F  c #B06C41",
"G  c #BC7948",
"H  c #A46551",
"J  c #A66955",
"K  c #A76C59",
"L  c #A96E5A",
"P  c #A86C57",
"I  c #AA715E",
"U  c #AD7563",
"Y  c #AE7966",
"T  c #AF7A68",
"R  c #B07967",
"E  c #B17C6B",
"W  c #B37466",
"Q  c #B77F71",
"!  c #C46D41",
"~  c #1B9B3A",
"^  c #3A8A3A",
"/  c #279A3C",
"(  c #48853C",
")  c #53853F",
"_  c #398E41",
"`  c #229A40",
"'  c #289946",
"]  c #379A45",
"[  c #1DA945",
"{  c #28A347",
"}  c #34A051",
"|  c #31A247",
" . c #478F47",
".. c #498E47",
"X. c #558542",
"o. c #4B924B",
"O. c #5D9D5E",
"+. c #669758",
"@. c #43A051",
"#. c #749F6B",
"$. c #52B166",
"%. c #DF9431",
"&. c #D28932",
"*. c #E59F3D",
"=. c #F49D3A",
"-. c #EDA42E",
";. c #FFB92F",
":. c #FEB12E",
">. c #F2A930",
",. c #FFC339",
"<. c #91926C",
"1. c #B3806F",
"2. c #B68574",
"3. c #B88776",
"4. c #B68679",
"5. c #B68979",
"6. c #BA8B7C",
"7. c #B88877",
"8. c #8DA076",
"9. c #CF8E42",
"0. c #CF955A",
"q. c #FB8040",
"w. c #E2A546",
"e. c #FEA341",
"r. c #E8AF5E",
"t. c #FEB647",
"y. c #C2897D",
"u. c #E4B26A",
"i. c #7BB780",
"p. c #7ACC92",
"a. c #BC8F80",
"s. c #B78F86",
"d. c #BE9383",
"f. c #BE9A8D",
"g. c #B29882",
"h. c #AC9C84",
"j. c #92BA90",
"k. c #A9B79A",
"l. c #B8B299",
"z. c #A7A486",
"x. c #B9BEA4",
"c. c #C09687",
"v. c #C09789",
"b. c #C29A8D",
"n. c #C49E91",
"m. c #C48A81",
"M. c #C6A295",
"N. c #C8A396",
"B. c #C6A69A",
"V. c #C9A59A",
"C. c #CBA99D",
"Z. c #C7A89C",
"A. c #D2A59D",
"S. c #CDADA2",
"D. c #CFB1A6",
"F. c #CFB3A8",
"G. c #D0B1A6",
"H. c #D2B5AB",
"J. c #D4B9AE",
"K. c #CFB9B1",
"L. c #D6BEB5",
"P. c #D5BBB2",
"I. c #D9BDB5",
"U. c #D6BBB5",
"Y. c #9CD3A8",
"T. c #ADCEAB",
"R. c #C0C4AF",
"E. c #D8C0B7",
"W. c #D8C0B7",
"Q. c #D7C2B9",
"!. c #D9C2B9",
"~. c #DAC2BA",
"^. c #DAC4BB",
"/. c #DAC3BB",
"(. c #DDC8BF",
"). c #C7C6B3",
"_. c #FCD7A2",
"`. c #DEC9C1",
"'. c #DECBC3",
"]. c #D9CAC5",
"[. c #DFD3CD",
"{. c #D4DACA",
"}. c #DCDBD0",
"|. c #E2C6C1",
" X c #E0CDC6",
".X c #E1CFC8",
"XX c #E3D2CC",
"oX c #E5D6D1",
"OX c #E6DAD4",
"+X c #E8DCD6",
"@X c #EADED9",
"#X c #E7DFDA",
"$X c #EBE1DC",
"%X c #F1E0DE",
"&X c #EEE5E1",
"*X c #EEEAE6",
"=X c #F1E9E6",
"-X c #F3EDEA",
";X c #F0E7E2",
":X c #F4F1EE",
">X c #FFEAF0",
",X c #F8F8F7",
/* pixels */
"E.J.P.J.P.P.J.J.P.H.;X'.H.P.J.J.J.J.J.J.P.-XE.J.J.P.OXJ.P.P.H./.-XP.P.P.P.P.P.P.P.H.'.;XH.P.P.P.J.J.P.P.H.XX$XG.P.J.J.J.J.J.J.P.",
"u q q q q q q q e 3 L.L 5 e q q q q q q e (.c 5 x d.b.7.y q 5 v /.q e e q q q q e 5 I L.3 e e e e q e e : 2.S.: e q q q q q q q ",
"v u u u u u u u x e I.Y e x u u u u u u x '.D e H Z.P.n.c u u H (.u x u u u u u u e Y P.q M e x u u u x q 6.D.9 x u u u u u u u ",
"c u u u u u u u u q L.U e u u u u u u u u (.M e v 2.n.2.x u e H (.u u u u u u u u e U '.2.f.Y u u u u u q 6.S.5 x u u u u u u u ",
"c y u u y e u u u q /.U q u u y e u u u u  XM e e e v q u u e H '.y u u u e u u u q I @XB.L.5.y r u u u 5 6.G.5 u u u e u u u u ",
"'./././.(.XXQ./././.$X XE.^./.'..X/.^./.^.$X(./././.'. X/././.'.$X/./././. X'./.^.E. X$X$X:X.XQ.XX'./.^.E.XX+XE././.^.XX/./././.",
"D D D c 7.'.n D D D c M D D x d.L.u H D D c D D H u S.C.u D D D c D D D u I.v.x D D D x L E M c '.2.c D D M c D D D H XXL M D D ",
"u u u q W R.O i s y i u u u 5 2.S.5 u r u u u r u 5 n.v.5 u r u y q y u 5 S.2.5 u r u u e q u 5 L.I q u u u u u y u y |.m e u u ",
"x x c e E )./ o.& ] N n x c e 6.G.q c x x x x x c q M.n.q c x x x x x c q G.6.q c x x x x x c e /.Y r c c x x x u u n x.S u x x ",
"5 5 6 : L I.. X.' o 5 5 5 6 : E C.- q 5 5 5 5 5 q - v.d.- q 5 5 6 5 5 q - C.E ; 9 5 5 5 5 5 5 : P.J : 5 5 5 5 4 g i x | O 0 3 5 ",
"C.C.C.N./.{.) l ! N.N.V.V.C.M.(.$XM.C.C.C.N.C.C.C.M.oXXXM.C.C.Z.M.C.C.C.M.@X'.M.C.C.V.V.C.C.C.N.;XP.N.C.C.B.V.k.{ ] & { l.A.C.C.",
"v.6.d.d.m.+._ G ,.u.&XC.7.a.a.6.6.d.a.6.d.;Xv.6.6.d.6.6.d.a.6.b.&X6.6.6.d.3.6.a.a.6.C.$X6.d.6.a.3.6.a.d.2.J.XXQ A ] u & i.h.a.a.",
"y 5 q q 9 t e F -.1 J.K 2 q 6 6 q 5 9 5 q /.u 5 q 5 q q 5 q 5 c /.5 q q 6 q q 5 q : J J.: q 5 5 q q 5 q : 2.Z.> z  .b & ~ ^ 8 9 ",
"V x c x c x u u u e /.Y u c c c x x x x c '.D u x x x x x x u J '.u x x x x x x x e Y E.e c x x x x x c q 6.D.0 o.{ N i B C x x ",
"u q e q e e q q e 3 P.K 5 e q e e q q q e /.u 5 q q e e q q 5 c /.q q q q q q q e 5 K P.2 e q q e q q e : 2.C.: @ X 0 e 0 q q q ",
"2.Y T T Y U T Y E I oXv.I E E Y U T T Y E @X2.Y Y T U U T T U 6.@XY Y Y T I U T E I v.oXI E Y T I Y T E L C.'.L W W Y I Y T T E ",
"/././.L.XX;XL./././././././.L.XX&XL./././././././.P.$X@XL./././././.E./.L.&XXXL./././././././.I.;X XI././././././././.-X(./././.",
"q q q 2 I J.: q q q q q q q : 1.S.: q q q q q q e : b.v.: e q q q q e e : S.2.: q q q q q q e 2 P.P 5 q q q q q q q q /.u 5 q q ",
"x x c e E P.q c x u x x x c q 2.G.q c u x x u u c q M.b.q c u x u D n.u q G.6.q x u u x u u x e E.U e x u x x u x u x '.D u x x ",
"u u u q Y P.q x u u u u u u q 2.D.5 x u u u u u u 5 M.b.5 x u u u u c u 5 S.2.q u u u s u u z q L.U e u u u u u u u u /.M u u u ",
"u u u q T /.q y u x e u u x q 6.H.5 x u u y u u x 5 V.M.5 x u u e u u x 5 H.6.q x u @ % i  ...0 /.U e x u u y u u u x '.D u u u ",
"(./././.'.@XL.'.XX'.OX'./././..XOX/./././.XX/./.^./.oXoXE.^./.(.XX/.^././.+XXXE./.|.j.` o.' k.|.+X X/././.'.XX/.^././.@X(./././.",
"J c D D c c c 2.J.D.&XE x D D c c M D M D XXJ c M M c c D D c I XXc M M D c c D D x E T.f k G v c v M D u v.P.u D D M c v M M M ",
"x y u u u u q U B.N.oXL q u u u u u u u u (.c e u u u u u u e D /.e u u u u u u u q L _.:.t.;.k e u u u 5 6.S.5 u u u u u u u u ",
"v u x x x x x u U T L.Y r c x x x x x x c '.D u x x x x x c u J (.u c c x x x x c u J r.-.9.%.j x x x c q 6.D.q c x x u u x c x ",
"e 5 5 5 5 5 5 5 5 - P.J : 5 5 5 5 5 5 5 q ^.u 5 5 5 5 5 5 5 2 c E.5 5 5 5 5 5 5 5 : P L.< 6 5 5 5 5 5 5 ; 2.V.- q 5 q u y q 5 5 ",
"J.D.D.G.S.S.G.D.G.S.;X/.S.D.G.S.S.D.G.G.H.:XH.S.G.S.S.S.G.G.S.P.-XD.D.G.G.S.S.G.G.S./.-XS.D.G.G.S.D.G.G.C.XX$XC.G.S.J.'.'.J.S.G.",
"d.d.d.6.S.$X6.d.d.d.6.d.d.d.6.J.oX6.d.d.d.6.d.d.d.d.XX(.6.d.d.d.6.d.g.d.6.oXP.6.d.d.d.6.d.d.d.6.$XC.6.d.d.6.6.d.d.a.S.,X&XK.d.d.",
"5 5 q : K H.: q 5 5 q 5 5 q : E S.; q 5 5 q 5 6 5 Y V.d.; q 5 5 6 4 ^ $ - C.E : q 6 6 q 5 6 q : J.J : q 5 9 q 5 5 5 y XXf.q 5 5 ",
"c x c e E L.e c x x x x x c e 6.H.q c x x x x x c 5 M.n.q c x x x N [ * , D.6.e c c x x c x c w /.Y u x x x x x x x c /.D u x x ",
"q q e 5 I H.: e q q e q q e : E S.: e q q e q q e : b.c.: e q ( { + g N   G.2.2 e q e e q q e 5 P.P 5 q q e e q q q e /.x q q q ",
"T T E U b.XXI E T T I Y E E I Z. XK E E Y I Y T E K I.J.K E E <.#.+.f @.[ Y.A.I E E Y I E E E U OXv.U E E Y U E E Y E @X2.Y E E ",
"P.H.J.H.J.J.J.H.J.F.&X(.H.J.H.J.J.H.J.H.J.-XL.H.H.H.J.J.J.J.H.I.>X$.O.z.<.l.P.J.J.H.'.;XH.J.J.J.J.J.J.J.G. X@XD.P.H.J.J.J.H.H.H.",
"y 5 q q q q q q q : P.K 2 q 9 5 5 q q 5 e (.u 5 q 9 q q q q 5 c ~._ X.d r q q q q 2 K P.: q q q 6 q q 5 3 M.P.5 q q q q q q q q ",
"v u x x x x x x c e /.Y e x u x x x e u c (.D u x x x x x x u J |.g i u u x x x x r R L.e c x x x x x x U [.#XH u x x x x x x x ",
"c u u u u u u u u q L.U q u u u u y E c u (.M u u u u u u u e D (.r u u u u u u u q U P.5 u u u u u u c 7.[.[.2.u u u u u u u u ",
"D x c c x u c c c y /.E u c c x c B.S.M.J  XD u c c x x c c u J  Xx c c c u x c c u E (.e c c c u x c u Z ].oXi c c c u c c c c ",
"XX'. X'.XX+X'.'. X'.$XXX'. X'.XX+X*X$X*XoX@X X'. X'.oXoX'. X'.XX$X X X X'.+XXX'. X'.XX$X'.'. X'.+XXX'. X'.XX&X'. X X X@X X'.'.'.",
"c c M u 2./.u M c c x c c M u a.L.V M.2.D x c M M e C.V.e M m c c M c D w P.d.u M M c x m m M u '.E u D M c c M M m M XXJ c m m ",
"u u u q Y P.5 u u u u u u u 5 2.D.: M e u u u u u 5 n.v.5 u u u u u u u 5 S.2.5 u u u u u u u q P.I q q w u u u u u u (.M w u u ",
"x x c e E L.e u u x x x x c e 6.H.q x c c x x x c q M.b.q c x x x x x c q G.6.q c x x x x x c w E.Y q 6.K u x x x x c '.D u x x ",
"5 5 q : L J.; J e 5 5 5 5 q : E S.; q 6 5 5 5 6 q ; b.d.; q 5 5 6 5 5 q ; S.1.: q 5 5 5 5 5 q : P.J : M u 5 5 5 6 5 q /.u 5 5 5 ",
"P.P.P.H.'.=XH.-X/.J.H.J.P.P.H.XX&XH.P.P.P.H.P.P.P.H.@X@XH.P.P.P.J.P.P.P.H.&X.XS.J.P.J.H.P.P.P.H.;X'.J.H.J.J.J.P.P.P.P.:X/.J.P.P.",
"d.2.2.2.2.E 3.E 2.E OXM.E 2.2.2.E 2.2.2.7.&X6.2.2.3.1.1.3.2.2.d.&X2.2.2.2.d././.L.E N.+XE 3.2.3.E 2.3.6.E G.XXE 6.3.2.E 2.2.2.2.",
"y 5 q q q q q q q : J.J 3 q q q q q q 5 q /.u 5 q q q q q q 5 c /.5 q q 5 H C.F.d.3 P J.: q q q q q q q : 2.C.: e q q q q q q q ",
"D x x x x x x x c e /.Y r c c c x x x x c '.D u c x x x x c u J (.u c c u J 6.f.T u Y L.e c c c c c x c e 6.D.q c c x x x x x x ",
"y 5 q 5 q q 5 9 q : J.J : q 5 q q 5 q 5 q /.u 5 q 5 q q 5 q 5 c E.5 5 5 6 5 5 u 2 : K H.: q q 5 q q 5 q : 2.Z.; q 6 q q q 9 5 5 ",
"d.6.6.6.7.2.6.6.6.2.@XV.2.6.6.7.2.6.6.6.6.&Xd.6.6.6.2.2.6.6.6.b.&X6.6.6.6.2.6.6.6.2.V.$X2.6.6.6.2.6.6.6.2.J.XX2.6.6.6.2.6.6.6.6.",
"H.H.H.G.'.;XD.H.H.H.G.H.H.H.S. X&XS.H.H.H.D.H.H.H.S.+X+XS.H.H.H.G.H.H.H.S.&XXXG.H.H.G.G.H.H.H.G.;X(.G.H.H.G.G.H.H.H.H.-XP.G.H.H.",
"5 5 6 : K H.; q 5 5 5 5 5 9 : E S.- q 5 5 5 5 5 6 - v.d.- q 5 5 6 5 5 q - C.E : 9 5 5 5 5 5 q : J.J : 6 5 5 5 5 q 6.q E.u 5 5 5 ",
"x x c r R x.e n n x x x x c e 6.H.q c u x x x x c q M.b.q x D D u c x c q G.6.e c c c x x x c e /.U u c x x x c c c c (.D u x x ",
"u u u q L $.( c X.# s u u u 5 2.D.5 u u u u u u u 5 b.v.5 q E 1.q u u u 5 S.2.5 u u u u u u u q P.I q u u u u u u r u ^.c e u u ",
"c v M u Q T./ ] | S x c c M u a.P.y M v v x c c M e C.N.e D c c x c c D y P.d.u v v c x v v M u '.E u v v c c v c c M XXJ c v v ",
"'./.^./.|.}.Z t x.|.oX'./.^./.'.XX/./././.@X(./.^./.XX X/.^./.(.@X^./.^./.XX X/././.'.+X/./././.oX'./././.XXOX/./.^./.oX(.^././.",
"D u x x u ^ # q.*.w /.R e x x u u u u u c  XD u u x u u x x u J  Xu x u u u u x c e E /.e c x x u u x c q d.H.6 c x x u u x u x ",
"c u u u i ..= w.;.a U.U q u u u u u u u u (.M u u u u u u u w D /.y u u u u u u u q U L.q u u u u u u u 6 7.S.5 u u u u u u u u ",
"v u x u u s n j k q L.Y e x u u u u u u x '.D u x u x x x x u H (.u x x u x x u c w Y I.q c u x x x u u 0 y.D.q c x u x x x x x ",
"u 5 q q q q q 9 9 : L.K 2 q q q q q q q e (.u 5 q q q q q q 5 c (.5 q q q q q q q 5 L P.: q q q 0 @  .x X 8.C.: e q q q q q q q ",
"/.J.P.P.P.L.P.P.P.H.&X'.H.P.P.P.L.P.P.P.P.;XE.J.P.P.L.L.P.P.J./.;XP.P.P.P.L.P.P.P.H.'.&XH.P.P.P.I.x.}  .` p.%XH.P.P.P.L.H.P.P.P.",
"U U Y K v.XXL Y U U K U Y Y P M.'.J Y U U K U U Y J P.H.J Y U U L U U Y J '.V.J Y U I K U U Y K oXs.C u * J K U U U Y $XC.Y U U ",
"e q e 5 I H.2 e q q e e q e 2 E S.: e q q e q q e : b.c.: e q q e e q q : C.2.2 e q e e q q e 5 H.0.:.e.=.j q e e q e .XH.U q e ",
"x x c e T L.e c x x x u u c q 7.G.q c u u u u x c q M.n.q c x u x e 6.E 3 G.6.q c u u u u u c e U.0.-.w.,.&.x x x x c '.6.x u x ",
"e q e 5 I J.: e e q q q q e : 1.S.: e q q q q q e : b.v.: e q q q q u u : S.2.: e q q q q q e 3 P.P 7 a h w q e e q e /.u 5 e q ",
"2.2.7.2.M.XXE 6.2.2.2.2.2.6.E S. XE 6.2.2.2.2.2.6.E L.L.E 6.2.2.2.2.2.2.E '.S.E 7.2.2.2.2.2.7.1.oXn.2.7.4.7.3.2.2.2.7.+Xd.2.2.2."
};
