/* XPM */
static char *_dba099f4e964fdaaa44edbea33cf6e3o8IDWxNIJsGSnTVQ[] = {
/* columns rows colors chars-per-pixel */
"64 64 250 2 ",
"   c #0E1132",
".  c #0E143A",
"X  c #121533",
"o  c #161A36",
"O  c #181D37",
"+  c #161B3A",
"@  c #191E3A",
"#  c #12163A",
"$  c #0B0E2D",
"%  c #1C213D",
"&  c #20243F",
"*  c #161C42",
"=  c #191E42",
"-  c #191D4B",
";  c #151A49",
":  c #151E51",
">  c #0B1243",
",  c #1B2242",
"<  c #1C2C45",
"1  c #1A224B",
"2  c #1A274C",
"3  c #1D334B",
"4  c #1A3048",
"5  c #0E2C51",
"6  c #1A2352",
"7  c #1A2A58",
"8  c #0E395B",
"9  c #1D3454",
"0  c #1D325E",
"q  c #123C5F",
"w  c #16375B",
"e  c #0E2E4F",
"r  c #222641",
"t  c #252943",
"y  c #292D45",
"u  c #222A4B",
"i  c #2A2E49",
"p  c #21324E",
"a  c #2D324C",
"s  c #2B3047",
"d  c #32364E",
"f  c #223552",
"g  c #243A56",
"h  c #2A3C56",
"j  c #243B59",
"k  c #2A3D5B",
"l  c #2B3455",
"z  c #343A53",
"x  c #212953",
"c  c #123D61",
"v  c #1D3B64",
"b  c #1D3967",
"n  c #0C3C63",
"m  c #223C64",
"M  c #223E6A",
"N  c #2C3C62",
"B  c #1C4155",
"V  c #26465A",
"C  c #2C425D",
"Z  c #264659",
"A  c #3B4559",
"S  c #28545E",
"D  c #144165",
"F  c #1C4264",
"G  c #15456A",
"H  c #1C456B",
"J  c #1B496D",
"K  c #17496E",
"L  c #1C4C73",
"P  c #174B73",
"I  c #1E5179",
"U  c #0C4774",
"Y  c #224565",
"T  c #2D4362",
"R  c #23456C",
"E  c #244A6B",
"W  c #2B4C6C",
"Q  c #2B4968",
"!  c #314563",
"~  c #334E6C",
"^  c #384D69",
"/  c #2D5E67",
"(  c #2C526D",
")  c #2E5D6A",
"_  c #285268",
"`  c #34516B",
"'  c #36576B",
"]  c #254D72",
"[  c #294E71",
"{  c #234875",
"}  c #334E71",
"|  c #255175",
" . c #2D5473",
".. c #2B5579",
"X. c #2D5A7C",
"o. c #275779",
"O. c #335373",
"+. c #3A5372",
"@. c #325579",
"#. c #345C7B",
"$. c #3A5B7B",
"%. c #355A76",
"&. c #2D626D",
"*. c #32666D",
"=. c #2B6874",
"-. c #326374",
";. c #336C74",
":. c #35627D",
">. c #3B637E",
",. c #346C7A",
"<. c #3C6E7C",
"1. c #36727B",
"2. c #377679",
"3. c #2C7173",
"4. c #43485C",
"5. c #4A5467",
"6. c #415E7C",
"7. c #495B76",
"8. c #4E5469",
"9. c #47667D",
"0. c #54687A",
"q. c #58757E",
"w. c #5A626D",
"e. c #626A7A",
"r. c #707877",
"t. c #285C83",
"y. c #335E82",
"u. c #385D86",
"i. c #1F628A",
"p. c #25658B",
"a. c #2A668A",
"s. c #366184",
"d. c #3B6384",
"f. c #3D6A85",
"g. c #3D668B",
"h. c #3E6C8B",
"j. c #316A8C",
"k. c #3C7B85",
"l. c #3E7C89",
"z. c #3A7486",
"x. c #2A6C93",
"c. c #266C94",
"v. c #3A6B93",
"b. c #2C7196",
"n. c #2C7399",
"m. c #327394",
"M. c #387A99",
"N. c #426C85",
"B. c #466A89",
"V. c #526A83",
"C. c #4C748B",
"Z. c #417D8B",
"A. c #487489",
"S. c #557489",
"D. c #5B7B8D",
"F. c #56798A",
"G. c #436D94",
"H. c #456F95",
"J. c #4D7B95",
"K. c #45739B",
"L. c #4A759C",
"P. c #4B799E",
"I. c #477694",
"U. c #587C94",
"Y. c #657789",
"T. c #67768B",
"R. c #4C7BA4",
"E. c #487BA5",
"W. c #517EA3",
"Q. c #507FA8",
"!. c #3D8289",
"~. c #3F8693",
"^. c #3B81A0",
"/. c #42848D",
"(. c #45898F",
"). c #58858C",
"_. c #448591",
"`. c #458C92",
"'. c #4C8D93",
"]. c #49849A",
"[. c #5C8593",
"{. c #5D8A94",
"}. c #54849B",
"|. c #55899D",
" X c #5C899C",
".X c #558495",
"XX c #4A9396",
"oX c #4B9499",
"OX c #479096",
"+X c #55939B",
"@X c #69858E",
"#X c #658592",
"$X c #648C94",
"%X c #6A8A92",
"&X c #69889B",
"*X c #768896",
"=X c #6A9296",
"-X c #6C959A",
";X c #679498",
":X c #73969B",
">X c #7A8889",
",X c #4C84A6",
"<X c #5482A4",
"1X c #5A8DA2",
"2X c #5483AA",
"3X c #5C8BAC",
"4X c #5887A7",
"5X c #5C92A5",
"6X c #5E95A9",
"7X c #5796A6",
"8X c #5C8BB0",
"9X c #5F9EB9",
"0X c #688CA6",
"qX c #639AAC",
"wX c #6795A7",
"eX c #7798A6",
"rX c #6898B5",
"tX c #749DB6",
"yX c #6D8CA7",
"uX c #7BA5AC",
"iX c #6CA2B5",
"pX c #78A4B9",
"aX c #69A7A9",
"sX c #6DA5A9",
"dX c #78AEC7",
"fX c #889998",
"gX c #85878C",
"hX c #A39F95",
"jX c #91A59D",
"kX c #899BA4",
"lX c #88A6A9",
"zX c #94AAA9",
"xX c #87A8B5",
"cX c #99B6B5",
"vX c #94ABB7",
"bX c #A7B5AB",
"nX c #A8BAB7",
"mX c #A9B2AC",
"MX c #B8C1B7",
"NX c #AFC5B6",
"BX c #C7CCB9",
"VX c #C8D0BF",
"CX c #8EB8C2",
"ZX c #A7BCC2",
"AX c #88C8D9",
"SX c #B7C8C3",
"DX c #A9CBCE",
"FX c #9AD8E5",
"GX c #CBD5C5",
"HX c #E4F0E0",
/* pixels */
"o @ @ @ @ @ @ @ @ @ @ @ @ @ @ @ @ @ @ @ @ @ % y @ @ @ @ @ @ @ % % @ @ @ @ @ @ @ @ @ O @ @ @ @ t % @ @ @ @ @ @ @ @ @ @ @ @ @ @ @ ",
"s o @ o O @ @ @ @ @ @ @ @ @ @ @ @ @ @ @ @ @ @ O @ o o @ @ @ @ @ @ @ @ @ O @ @ @ @ @ O @ @ @ X w.y X @ O @ @ @ @ @ @ X @ @ @ @ @ ",
"% @ + t & O @ @ O d % @ @ @ & & @ @ @ @ @ @ @ @ o t r o @ @ o , , @ @ @ @ @ o @ O O O O @ @ @ o O % O @ @ @ @ @ @ @ 5.% @ @ @ @ ",
"@ @ O & % @ @ @ @ @ @ @ @ O r r @ @ @ O % t @ @ X z d X @ , 1 ~ W 2 = @ @ o y % O O O O @ @ @ o & 4.o @ @ @ @ @ @ @ t @ @ @ @ @ ",
"@ @ @ O O @ @ @ @ o w.t o @ @ O @ @ @ @ @ o o @ @ o o @ % # y.AXdXO.+ % @ O y O O @ @ @ @ @ @ @ @ o @ O @ % @ @ @ @ o @ @ @ @ @ ",
"@ @ @ @ @ @ @ @ @ @ & @ @ o X @ @ @ @ @ o s a @ y O @ @ @ N 9XHXHX8Xk @ O @ o r O @ @ @ @ @ @ X @ @ @ @ @ u @ @ @ @ @ @ @ @ @ @ ",
"@ @ @ @ @ , 2 O @ @ @ @ o s 5.X @ @ @ @ X z A % A X @ @ % * u.FXAX@.* @ @ @ @ t O @ @ @ o @ @ 4.% @ @ @ @ @ @ @ @ @ @ @ @ @ @ @ ",
"@ @ @ @ @ @ , @ @ @ @ @ o r d o @ @ @ @ @ o X O X @ @ @ @ , 7 X...x , @ @ @ O o @ @ @ % y o @ t @ @ @ @ @ O o @ @ @ @ @ @ @ @ @ ",
"@ @ o @ @ @ @ @ @ @ @ @ @ + X @ @ @ @ @ @ @ @ O @ O O O O @ + V.h # % @ O O O @ @ @ O % t o @ o @ @ @ @ O @ & O @ @ @ @ @ @ @ @ ",
"@ % r O @ @ @ @ @ @ @ @ @ @ @ O @ @ @ @ @ O O O @ @ o % O O , pXN.$ o @ O O @ @ O @ @ @ o @ @ @ @ O o O O % t o @ @ @ @ @ @ + @ ",
"@ % r @ @ @ @ @ @ @ @ @ @ O @ t O O @ @ @ O @ O @ X 8.d X X o $ 9 pXA X @ O @ @ O O @ @ @ @ @ @ @ % r o @ O o @ @ @ @ @ @ @ t @ ",
"@ @ + @ @ @ @ @ @ @ @ @ @ @ @ % O O @ @ @ @ @ @ @ O t & % eX~ 0 | J.z X @ @ O O O O @ @ @ @ @ @ o % t o @ @ @ @ @ @ @ @ @ @ t @ ",
"@ @ @ @ @ @ + O @ @ @ @ @ @ @ O @ O O @ @ @ @ @ @ @ o o 2 C.o.H 9   X , @ @ @ @ O @ O @ @ @ @ @ & % o @ @ + O @ @ @ @ @ @ @ o @ ",
"@ @ @ @ @ O % % O @ y @ @ @ @ @ @ @ @ @ @ @ @ @ @ @ O , 1 . 2 0 0 m m # X @ @ @ @ @ @ @ @ @ @ o t r @ @ O r % O @ @ @ @ @ @ @ @ ",
"@ @ @ @ @ + r r O @ @ @ @ @ @ @ @ @ @ o y r O @ @ @ O > : = * * - 6 b <Xk o @ @ o X @ @ @ @ O t r o @ @ O t % O @ @ O @ @ @ @ @ ",
"@ @ @ @ @ @ @ @ @ @ @ @ @ % @ @ @ o @ @ @ @ @ @ @ o u 0XM b M v H R v eX^ X @ o a A X @ @ @ @ @ @ O @ @ @ + O @ @ O r % @ @ @ @ ",
"% @ @ @ @ @ @ @ @ @ @ @ @ % @ @ o r % O @ @ @ @ @ X f dX] v b 0 1 1 1 . + % @ o y d o @ @ @ @ O r % O @ @ @ @ @ @ @ % % @ @ @ O ",
"@ , % + @ @ @ @ @ @ @ @ @ @ @ @ @ % @ @ @ @ o O @ @ @ 1 H { b 7 7 - = = = i @ @ @ t O @ @ @ @ + i t + @ @ @ @ @ @ @ O @ @ @ O d ",
"O @ @ z % @ @ @ @ @ @ @ @ @ @ @ @ @ % @ @ + t , @ % % = - 7 7 v t.H 0 0 7 1 , O r d o @ @ @ @ @ + + @ @ @ @ @ @ @ @ @ @ @ @ @ @ ",
"r , = d = = = = @ @ = @ % @ @ @ O % r O @ O r , + # + = ; ; 1 6 6 0 m m ,XxX; , @ o @ @ @ @ @ @ @ @ @ + i a + @ @ @ @ @ @ @ @ @ ",
", , = + = = , @ z u @ @ @ @ @ @ @ @ @ @ @ @ @ + l pXv v R R H H R M b m R N u d + @ @ @ @ @ @ + @ @ @ @ @ , = @ @ @ @ @ @ @ @ @ ",
"@ @ @ , = = , = r , @ , = @ @ @ @ @ @ @ @ @ , + Q ,Xm 7 0 7 - - - - - ; ; ; 1 = @ @ @ @ @ @ @ t @ @ @ @ , , = = @ @ @ @ @ @ @ @ ",
", , % = = = = , = = = , , @ @ @ @ @ @ @ @ @ = 1 6 b O.b M R M { { H v b b b : - @ @ @ @ @ @ r e.% , , @ , , , @ @ @ @ @ @ % @ % ",
". # + , = , , = * , , = @ # @ % @ @ % + @ , , 6 6 : : 6 1 6 7 0 0 7 0 M M b dXJ.X % O @ @ @ @ @ + + @ % , = + , = @ @ @ O O + @ ",
"8.4.i # , = * , u * , , u z u + = , # i @ = - 6 : N : 7 7 0 0 N b M M v m R B.N @ o r @ O @ % X d a u , , @ a # % @ O % r , d @ ",
"gXGXZXa # , # *XvX, # l hXnXeX@ + z a nX*X. x b B.ZXV.7 R 8 0XDXC.v mX0.eXvX; : * % xX*X$ % X z DXMXgX,   V.vXd X % X @XlXgXT.+ ",
"T.&XfXeX,   T.tXrX*X+ * gXJ.,XT.  @ vXrXxX5.4XdXeXy.vX+.5 T.uXOXxX8.r.kXrX8XyX: , kXA.0Xe.  & nXwXnXw.$ 8.0Xt.eX% $ e.;X;XkX  @ ",
"[.F fXyXV.A 0XK.K.tX0.+.SXeXp.3X5.Y.xX X$.eXV.tXX...I.tX~ CX/.l.aXzX7.vXu.G.rX7.9.|.#.X.eXz kXuX:XBXbXh &XP c s.0.4.sX1.fXxX0.5.",
"F V.mXq.9 } g.L.L.,Xu.0.wXlXs.c.#.F.6X}.B.}.^ ....#.y. .p '.l.{.NXA.O.lX@Xv.K.} $.:.s.:.#.h :XeXlXnXjX! P L D G w ' l.@XbXcX) ! ",
"W E #.` w.m K.R.R.E.*XjXc.i.o.x.] V.qX1X}.}.N #.#...y. .1 Z._.uXMX).y.nXmXP.K.B.$.N.d.#.:.f %XxX:X{.lXhX] D D P w B ;XY.;.'.S k ",
"O.F | D.hX5.K.R.E.0X*XfXM.a.a.x. .9.qXqX}.|.~ #.s.X.s.$.* $XlX'.XXk.d.4XK.yXxXu.@.U.N.#.:.p #XuX-X[.lX>X9.F n o.8 A bXzX3.!.S C ",
"$.Y  .$.! 5.yXR.eXVXS.E n.a.a.x.X.9.qXrX1X|.d.s.d.| S.mX^ bXnX!.oX,.} R.v.vXGXV.gXnXA.$.#.^ -X;X[.$X).9 kXfXJ U ' r.<.A.2.!./ T ",
"N.v @. .3 0 yXbXxXpXV.E x.M.m.x. .S.qXiXqX5Xv S.nXd.@XfXf '.{./.XX,.@.R.K.W.rX$.>XkX$X .] <XeX$X[.;X$Xg d.H q.>X^ B ,.&.3.!._ k ",
"s.Q D. .7.eXmXnXwX&XzXeXa.b.].i.3XxX5XiXxXuXfX*XfXD.nX&XU.'.J.(.OX+XpXK.P.L.v.yXU.A.-XfX@X*XlX:X#X;XeXkX9.0.D.BX@X=X=.,.).z.{.T.",
"y.q.VXV.fXSXB.0X3XH.SXSXC.bX XI.CXNXvXGXeXlXHXC.G t.C.C.rX'..X/.`.oXdXK.2X<Xv.rX4X:.f.mXD.iXGXjX:XBXzXpXMX$.P y.I.GXq.fXMXz.9X3X",
"mX0.#X6.O.yXg.K.3XJ.&XP.j.cXm.c.xXcXpXNX|.1X}.X.F y.y...t./.`.(.XXk.v.L.R.R.K.v.s.N.N.#. .v.cX-X.XNX:Xt.#.F G K y.eX;.F.).lXlX#X",
"mXY #.%.F t.B.K.3X4Xg.s.b.x.m.c.j. XqX1X5XwXy.H F s...] R /.(.(.OXz.v.R.R.<XK.g.#.N.f. .%...;X$XA.;X{.t.D q G L | =.;.o.=.zX$X .",
"f.Y W $.g T d.R.4XrX6. .n.p.p.b. .S.qXwX}.5X@.| F d...E 4 /.`.l.`.,.f.R.W.rXR.@.O.f.>. .#.g -X$X;X:X-XX.G q G a.H _ 2.-.2.k._ ! ",
"B.W F ` f k u.K.4X2XU.%.x.a.m.b. .V.rXqXh.5X! ..F d.| F < /.OXZ.OX-.~ R.P.4XE.O.` f.>. .#.f %XwXeX;X-Xg L D G I Y Z k.1.2.z._ ! ",
"B.O.F W f T g.K.R.2XB.( n.a.m.n. .F.qX1Xf.6X!  .H y.X.q < /.`.(.oX .O.R.K.L.E.O.` s.$. .s.f %X;X[.$X$Xk L L D G ] Z /.,.*.1._ T ",
"N.$.Y W f T d.K.R.<X6.W n.].m.n. .D.qX|.I.6XT  .J s...F < l.`.`.`.E +.Q.K.<XR.O.` :.%.#.:.f %X$Xf.A.=Xk J t.G G w Z `.-.*.2./ T ",
">.%.W [ 9 T g.K.R.G.6.W p.M.M.x. .F.qX}.J.6XC @.| s.X.R , l././.XX-.+.R.I.3XR.} ` :. .:.:.f %X-XN.F.=XC D q q G c V '.-.&.2./ T ",
"O.W @.s.9 Q P.K.R.G.6.Y p.m.M.x. .S.iX1XJ.6XC #...s.g.E , Z././.XXz.` L.K.3XR.O.` f. . .:.f @XeXJ.U.$XC L q J K H V 7X,.) 2./ T ",
"W W Q E f T R.K.P.G.+.Q p.x.m.x. .F.iX0X}.6XT @...G.I.] 2 /.Z./.oX,.` L.G.W.R.O.` f. .:.f.p %XeX;XC.=XC L 8 L K v V 7Xk.) ,.) T ",
"W W Q Y f T R.G.K.G.^ ( M.M.x.j. .F.qX0X|.6XC @.| G.H.] < /.:./.OX-.+.I.g.<XR.O.` #.#.%.h.p @XuXeX$XD.C L c K G F Z OX2.&.-./ T ",
"Q Y Q W f T K.G.K.G.^ ( M.].p.m. .D.6X|.1X5XC  .X.g.h.] < /.z.l.z.,.+.P.d.3XW.} ~ :.#.#.f.p %X-X=X=XA.h L D G G H Z k.;.*.2./ k ",
"W E Y W 9 C K.g.g.K.^ ( M.~.p.b. .D.6X1X5X1XC  .X.g.g.] < l.z.l._.1.~ <XI.P.R.} ` :.:.:.h.p %XuX-X$XA.C D q K D v V 2.-.-.,.) k ",
"W E F O.9 k G.G.d.R.+.W M.I.p.n. .D.qX5XwX|.C @.H g.y.E < Z.z./.`.,.+.tXG.I.W.~ ` s.f.#.h.f @XuX-X[.N.C c G o.G v V 2.#.#.:.( C ",
"W E q O.g g g.2XI.2X6.W ^.].p.b. .D.1X1X5X|.C #.X.#...[ < _././.OX,.+.dXg.P.2X~ ~ f..X#.h.p -X X[.[.>.C c c L D w V 2.s.:.,./ T ",
"Q  .F W g f K.8XH.Q.9.W M.].p.b. .D.J.}.qX6XC #.y...] | 3 f./._.oX1.~ dX<XL.2X} ~ f.J.#.I.p :X[.C.[.>.C D J q c w V 2.h.f.z./ T ",
"Y @.J H g g E.tX0X2X6.E ^.m.p.M. .D.J.|.wX}.C @...| .. .3 l./._.oX,.T tXpXP.4X} ` :.N.#.].f =X.XF.=XA.C D D q L q V 2.h.z.k./ T ",
"F B.F J j g R.3XJ.2X6.W n.x.M.,X .F.h.1X|.}.T @.| E s. .< _.'.oX_.,.~ 3XtX<X2X} ` :.#.:.A.p @X{.[.$XC.C D q D t.w V 2.h.z.l./ k ",
"E d.q E j j 8XR.#.R.6.( b.p.,Xn. .D.B.1X}.G.C #.L ..g.[ < ].+X+X`.,.~ R.pXW.R.O.~ :.#.#.:.p @X[.$X=X).k G | D I c Z 2.:.,.`.) T ",
"] %.q E g j 2XR.g.R.6.( n.a.j.b. .#XI.1X}.g.C #.H ..g.[ 3 /.7X7XoX1.~ R.<XL.R.O.~ #.:.#.#.p @XC.=X-X).g K K c t.H V 1.#.;.oX*.T ",
"] %.D R g T 8XE.H.R.6.( n.p.o.m. .Y.J.5X|.G.C #.] #.s.[ 3 !.|.7X`.1.~ 2XW.K.R.} ` #.>.#.#.p %X{.D.-X).h K D c t.q V 1.:.;._.&.T ",
" .O. .#.9 k 8XK.K.,X6.( x.x.p.b. .D.J.wX5XI.C #.E y.s.] 3 l.}.7X!.1.~ R.R.L.R.} ` :.C.#.#.p %X).N.=X9.h K L q | w g 1.,.;.].*.T ",
"W Q $.@.9 j 8XE.P.2X6.( x.p.x.b. .9.H.qXqXH.C #.E y.h. .< !.J.7X_.1.~ R.P.L.Q.+.~ :.}.f.#.f %X[.A.[.9.C L t.q G 5 V l.&.;./.&.! ",
"W E C.W 9 k 2XK.K.2X6.( x.j.I.c. .9.}.rXrX}.T #.| X.s. .< Z.Z.+XOX%.` R.P.K.2X6.~ s.A.d.#.f %X;XD.D.F.C L | q D e V ~.) ;.z./ ! ",
"W W C. .9 j E.K.G.R.6.( x.M.].c.O.V.1XrXqX6XC [ H s.y. .< /._.'.`.( +.R.P.K.2X$.Q f.A.#.#.f %X;X$X$X$Xh G G D D e _ ~.*.&.-.&.! ",
"~ W J.$.3 j R.E.g.K.9.( x.M.].c. .V.5X1X1X5XC ( J y...[ < _._.'.OX:.~ 2XK.K.R.O.~ f.d.#.#.p %X-X=X-X=Xh G K q c e V ~.2.%X<./ ! ",
"W O.$. .4 k R.E.g.H.6.( p.I.,Xc. .S.qX}.J.5XC  .| y.| $.3 l.`.`.oX-.~ rX4XH.R.} ~ :.#.#.#.p %X-X;XuX=Xh G J H J e j l.;XZX;X/ ! ",
"Q $.%.E 9 T R.R.g.K.6.( p.m.,Xx.( D.qXJ.B.|.C [ ..y... .3 f./.`.oX-.^ rXtXG.R.} ` #. .>.:.p %X;X=XlX=Xk K | L I e j :.2.$X2./ ! ",
"Q $.@.[ g N R.K.g.K.6.( p.p.M.x.( D.qXJ.A.<XC  ...d.| Y 9 s.Z.`.`.,.~ rXrXH.R.} ` #.( <.f.p %X[.D.eX{.k J o.L L e V :.;.-.;.&.T ",
"Q $.O.W g T R.K.g.K.6.( x.p.x.b.( D.qXA.J.6XC @.X.d.| E 9 Z././._.-.+.8XrXL.R.~ ` #. .%.:.f %X{.D.=XD.h G L I L e V s.;.-.;./ T "
};
