/* XPM */
static char *result[] = {
/* columns rows colors chars-per-pixel */
"64 64 217 2 ",
"   c #1A0F08",
".  c #29190D",
"X  c #2B1E14",
"o  c #261C15",
"O  c #2E2116",
"+  c #2E231A",
"@  c #35271D",
"#  c #3B2F26",
"$  c #332921",
"%  c #3D3229",
"&  c #3A3026",
"*  c #5C3A1C",
"=  c #4A2D14",
"-  c #583C25",
";  c #42362C",
":  c #76243D",
">  c #4F4339",
",  c #5D4736",
"<  c #734F2D",
"1  c #765231",
"2  c #1C3E72",
"3  c #123A74",
"4  c #12386F",
"5  c #313B71",
"6  c #642A48",
"7  c #5E3966",
"8  c #4F2D52",
"9  c #134076",
"0  c #3A427C",
"q  c #204176",
"w  c #535653",
"e  c #5E665A",
"r  c #4C6578",
"t  c #6F7A6D",
"y  c #6E7A71",
"u  c #7F5473",
"i  c #9B111F",
"p  c #9C1825",
"a  c #851227",
"s  c #A41924",
"d  c #AD1A29",
"f  c #BD1D2C",
"g  c #9C2A35",
"h  c #B72733",
"j  c #AB323E",
"k  c #AE2632",
"l  c #A7131C",
"z  c #C7161F",
"x  c #C32331",
"c  c #CB2D33",
"v  c #855D39",
"b  c #915C2A",
"n  c #8A613A",
"m  c #98683B",
"M  c #9A6029",
"N  c #A7723E",
"B  c #A66F3F",
"V  c #8D344E",
"C  c #AE3B45",
"Z  c #843F63",
"A  c #CD3D44",
"S  c #B55057",
"D  c #987453",
"F  c #90744C",
"G  c #A87645",
"H  c #A57C54",
"J  c #A45F66",
"K  c #8F6F6E",
"L  c #B36C72",
"P  c #C04B53",
"I  c #A48E3C",
"U  c #AD9132",
"Y  c #C69F25",
"T  c #CAA225",
"R  c #C6A22E",
"E  c #C9A42D",
"W  c #D5AB2B",
"Q  c #C9A432",
"!  c #C4A337",
"~  c #D7B132",
"^  c #D5AE31",
"/  c #CDA219",
"(  c #F4C52D",
")  c #F9C92D",
"_  c #EEC339",
"`  c #F4C734",
"'  c #F5C834",
"]  c #F1C739",
"[  c #F3C839",
"{  c #FBCD36",
"}  c #FFD133",
"|  c #B68A5E",
" . c #B6A24E",
".. c #938D7F",
"X. c #B89573",
"o. c #BBA868",
"O. c #C9AB48",
"+. c #C19267",
"@. c #C4B173",
"#. c #F4C943",
"$. c #F7CD4C",
"%. c #E9C758",
"&. c #EAC858",
"*. c #FAD25D",
"=. c #F7D05F",
"-. c #F4CD4C",
";. c #F8D164",
":. c #F7D168",
">. c #ECCD6D",
",. c #0D3C8D",
"<. c #194789",
"1. c #0D4094",
"2. c #0D4B95",
"3. c #164D92",
"4. c #194A92",
"5. c #0B448E",
"6. c #25549A",
"7. c #31518D",
"8. c #375FA0",
"9. c #3562A2",
"0. c #685882",
"q. c #5B7295",
"w. c #5A78A3",
"e. c #AC7C80",
"r. c #D07E83",
"t. c #968986",
"y. c #9B9A9A",
"u. c #8D8782",
"i. c #AA918D",
"p. c #ACA59E",
"a. c #BEAD99",
"s. c #9CA3A3",
"d. c #9AA8BF",
"f. c #A7A6A6",
"g. c #BBB4AC",
"h. c #B6B2AC",
"j. c #ACB2B2",
"k. c #B4B4B3",
"l. c #B9B6B2",
"z. c #BCBCBC",
"x. c #B9B8B7",
"c. c #A9ACB1",
"v. c #8793AA",
"b. c #CAAA89",
"n. c #C8B296",
"m. c #C1B7AA",
"M. c #C4B9AB",
"N. c #C6BBAB",
"B. c #D4BFAA",
"V. c #C9BEB1",
"C. c #E2ABA9",
"Z. c #CFC29D",
"A. c #E2D29E",
"S. c #E1CE93",
"D. c #CCC2B5",
"F. c #C9C5BD",
"G. c #D3C5B6",
"H. c #D1C7B9",
"J. c #D5CABD",
"K. c #D9CDBE",
"L. c #DBD2BB",
"P. c #CAC3A6",
"I. c #E8DCB4",
"U. c #EFE2B7",
"Y. c #BEBFC3",
"T. c #C0BFC0",
"R. c #BFC0C0",
"E. c #BDC2CD",
"W. c #C3C3C3",
"Q. c #CBC7C2",
"!. c #CBC9C5",
"~. c #CCCCCC",
"^. c #C8C7C8",
"/. c #D6CDC1",
"(. c #DACFC1",
"). c #D3CECB",
"_. c #DBD0C3",
"`. c #D4D1CD",
"'. c #DBD4CB",
"]. c #DAD4CA",
"[. c #CCCED1",
"{. c #CED0D6",
"}. c #D3D3D3",
"|. c #DDDAD5",
" X c #D5D7D9",
".X c #D6D9DA",
"XX c #DCDCDC",
"oX c #DAD6D3",
"OX c #D0CFD0",
"+X c #E0D6CB",
"@X c #E2D9CE",
"#X c #E5DCD2",
"$X c #E1DFDD",
"%X c #E8DFD6",
"&X c #DEE1DF",
"*X c #EBE3CA",
"=X c #E2E1DF",
"-X c #EEE8D4",
";X c #DDDFE3",
":X c #E0DFE0",
">X c #DFE1E4",
",X c #E4E4E3",
"<X c #E8E7E5",
"1X c #E9E8E6",
"2X c #E8E7E8",
"3X c #EBEBEB",
"4X c #E6E7E8",
"5X c #F0EFEF",
"6X c #F1EDE4",
"7X c #F2F1EE",
"8X c #ECEEF2",
"9X c #E5EAF3",
"0X c #F0EFF0",
"qX c #EEF3F7",
"wX c #F2F2F2",
"eX c #F4F9FE",
"rX c #F6F8FB",
/* pixels */
"_.(._._._._._.(.(.(.(._._._._._._._._._._.(._._._._._._._.(._._.(._._._.+X(.(._._._._._._._._._._.'._._._._._._._._._._._._._._.",
"_._.(._._._._.'.(.'._._._._._._._.(.(._.(.+X_._._._._._._._._._.(.+X_._.(.(._._._._.+XL._._._._._._._._._.]._._._._._._._._._._.",
"(._._._._._._._._._._._._._._._._._._._.(._._._._._._._.(._._._.(._._._._._._._._._._._.'.L._.L._._._._._._._._._._._._._._._._.",
"_._._._._._._._._._._._._._._._._.(._._.(._._._._._._._._._._._.(.(._._._._._._._._._._.L.'._.'._._._._._._._._.+XL._._._._._._.",
"_._._._._._._._._._._._._._._._._.(._.(._._._._._._._._._._._._._._._._.+X(._._._._._._._._._._._._._._.+XL._._.'._._._._._._._.",
"(._._._._._._._._._._._._._.(._._._._._._._._._._._._._._._._._._._._._.(.(._._._._._._._._._._._._._._._._._._.L._._._._._._._.",
"_.(._._._._._._._._._._._._.(.(._.(.(._._._._._._._._._._._._._._.+X_._._._._._._._._.K._._._._._._._._._._._._._._._._._._._._.",
"_._._._._._._._._._._.(._._._._._._._._._._._._._._._._._.(._._._._._._._._._._._._._.+X_._._._._._._._._._._._._._._._._._._._.",
")._._._._._._._._._.(.(.(.(.+X(._._._._._._._._.K._._._._._._.'.+X_._._.K._._._._._._.+X_._._._._._._._._._._._._._._.(._._._._.",
"_._._._._._._._._._._._.(.(.(.(._._._.K._._._.K._._._._._._._._.#X+X_._.+X_._._._._._.K._._._._._._._._._._._._._._._._._._._.(.",
"(._._._._._._._._._._._._._.(.(.K._._._._.K._._._._._._._._._.@X@X_.(.+X@X(._._._.K._.+X_._._._._._._._._._._._._._._._._._._._.",
"(._._._._._.(._._._._._.(.(.(.+X_._._._._._._._._._._._._._._.*X+X_._.@X+X_._._.(.+XK.K._.K.+X_._._._._._._._._._._.+X(.(._._.(.",
"(.(.(._._._._._._._._._.(._.(.(._._.L._._.K._._.K._._._.+X+XK.+X#X_.(.#X(._._._.+XK._._._._._._._._._._.+X(.(._._._._._._.(.+XK.",
"+X(._._._._._._._.(._._._.(.(._.K.K._._._._._.K._._._._.+X+XK.+X#X@X(.@X+X_._._.(.(._._.+X_._._._._._._.(.(.(._._.(._.(._._.(.(.",
"(._._._._._._._.(._._.(._._._.(._.+X_._._._._._._._._.K.+X+X_.K.@X%X+X+X#X+XK._.+X_._._.K._._._._._._._.(.(._._._.(._._._._._._.",
"(._._._._._.(._._._._._.(.(._.(.K._._._.K._._._._._.L.'.#X+X+X_.@X#X@X(.@X@X(._.K.(._._._.(._._._._._._.+X(._._._._._._.(._.(._.",
"(.(._._._._.(.(._._._._._._.K._._._._._.K._._._.(._._.#X#X+X_.+X#X#X+X_.@X%X+X(._._.(.(._._._._._._._._._._._.(._.(._._._.(.(._.",
"(.+X_._._._.(._._._._.K._._._._._._._._._._._.K.(.(.+X@X(.K.(.+X#X'.(.(.+X#X(.(._.(.(.+X_._.(._._._._._._._.(._.(._._._.(._._.(.",
"(.(.(.(.(.+X(._._._._._._.K._._._._._._._._.K._._.].|.<X=X$X,X<X1X,XXX,X<X'./.(.(._._.(.(._._._._._._._._._._.(.(._._._._._.(.(.",
"_._.(.+X_.(.(.(.K._._._._._._._.K._._.K.(.(.@X#XXXXX}.,X$X}.XX,X XoXXX<X<X2X3X4X$X_.J.(.+X_.(._._._._._._.(._.(.(._._._._._.(._.",
"(.(.(.+X_.(.(.+X_._.K._._._._._.(././._.:X:XOXT.x.k.Y.~..X~. XXX[.[..X X).}. X,X3X2X,X'.K._.(._._._._._._._.(._._.(.].(._._.(._.",
"+X(.(.(.(.(._._._._._._._._.K._._./.#X,X).k.k.k.k.z.).Q.G.J.H./.G.G.K.'.oX). X.X:X$X4X0X,X(._._._._._._.(._._._._.(.(._._.(.(.(.",
"(.(.(.(._._._._._._._._._._._._.(.oX9XT.c.x.x.n.X.D v v m v 1 D v < v F F +.n.G.'.4X;X$XwX=X(._._._._._._._.(.(._._._._.(._._.(.",
"(.(.(.(._.(._._._._._.K._._._._./.5X Xc.V.i.v * = X o + @ X o > % X - < < G G G | n._.,X<X5X)._._._._._.(.(._.(._.(._.(._.(._.(.",
"(.(.(.(.(.+X_.(.(._._.(._._._._./.3X Xp.G * . o $ # % # % # O O @ $ v F N m v G G m H n.2X5X/.(.K.K.K._._._._._._._._./._._.K._.",
"+X(.+X(.(.(.(.(.+X(._._._._._._.J.4XrXX.=   X ; % % # # # # @ X X X o = * b G G G m b +.wXXX^.|.&X=X=X'._._._.K._.(._._._._._._.",
"_.(.(.(._.(._._._.(._.(._._._._.).I.-XrXf.; o o @ $ % % % ; ; + X X ; - , v B M M m b.,X.XV.{.8XrXrXrX7X.X_._._._._._.(._._._._.",
"_._.+X(._._.(.+X_._._._._._._._.`.S.[ U.rXqXz.K w > $ @ X . .   X * n m m G H b.P.XX9X).O.@.{.;XXX'. X>X4X)._._._.(._._.K._._.K.",
"_.(._._._._.(.(._._._.(._._._._.`.A.) ( >.*X6XrXwX8X~.T.t.u.u.t.n.B.n.J.oX$X9X9X&XZ.o.Q / @.E.F.F.J.H.Q..X~./._._._._._._._._._.",
"_._._.+X(.(.(.(._.(.(.(._._._._.`.A.( ` $.;.:.>.A.I.U.,XrXqXrXqX8X9X8X9X#XU.Z.+. .T T E T @.Y.H.+XK._.J.~.[.F._._._.K._._._._./.",
"_.(.(.(.(.+X_.(.(.(._._._._._._.`.A.( ` $.:.=.) ( ` ( -.%.%.%.%.%.%.&.&.] ) ~ T E E E E T a.!.+XK._._./.!.}.Q._.J._._._._._._._.",
"(._.(.(.(.(.(._._.(.(._._._._._.'.(.#.( $.:.=.#.[ [ ` ` ` ` ( ` ` ` ` ` [ [ ~ R E E E E R n._.+X_.K.+XF.}.}.F._._._._._._._._._.",
"(._._._._._._._._._._._._._._._./.'.-.( -.:.=.] ' [ [ [ ] [ [ ] [ [ [ [ ] [ ~ R E E Q E Q N./.(._._.(.!.XX~./._._._._._.(._.(._.",
"]._._._._._._./._._._._._._.(.oX,X>X>.) -.:.:.#.` [ [ [ [ [ [ [ [ [ [ [ [ [ ~ R E R R T  . X<XoX]./.).}.}.Q._._._._._._._._._._.",
"(.(._._._.(._._._._._._./.'.2X3X1X>X>.) #.=.=.#.` [ [ [ [ [ [ [ [ [ [ ` ` [ ^ R R R Q T !  XrX3X.X}.XX}.!._._._._.(._.(._.(._.(.",
"_.(._./._._.(._._._._./.,X8X1X&X>X>XQ. .{ *.=.#.] ] ] [ [ [ [ [ [ [ [ [ [ _ E R R W W U .. X#X}.}.}.}.^./._._._._._._._._._._._.",
"_.(._.]._._.(._./._.].3X3X,X,X>X,X1X>X8.r o.>.-.} } { ] [ [ ] ] ] ] ] _ [ _ E W Q I e 2 v.~.~.}.~.~.XX3X|.(._._._._._._._._.(.+X",
"_._.(.(._._._._._.].8X4XXX$X,X<X4X4X7Xw.,.6.q.y  .O.O.} } } } } } } } } [ ! I F w 3 3 9 c.^.^.^.XX<X3X3X8X'.K._._._._._._._.(.(.",
"_._.(._._._._._./.4X3X&X$X4X<X3X3X4X7Xd.5.6.8.6.4.4.7.t y y t t t t t t r 2 9 4 4 2 4 q.!.^.XX<X3X3X4X4X,X<X/._._._._._._._.(._.",
"_.(._._._._._._.`.3X,X=X,X4X3X<X1X1X5X3Xu 0 6.9.4.<.<.5.1.1.1.1.1.1.1.,.<.2 q 9 3 2 8 y.}.,X3X3X<X>X=XXXXX4XoX_._._._._._._._._.",
"(._._._.(._._.(.|.5X=X>X,X3X4X3X3X3X5XrXC.f Z u 7.2.3.3.3.3.4.4.3.3.3.3.9 9 9 5 8 a S ,XXX$X,XXX:X:X:X,X:X:X}.(._._._._._._._._.",
"_._._._._._._.(.|.8X&X=X4X1X3X<X3XwXwX5XeXi.z c A Z V 7 0 0 5 7.0 0 0 5 6 6 6 s l s x.&XXX.XXXXX:X:X:XXX}.:XoX_._._._._._._._._.",
"_._._._._._._.(. XwX,X=X,X3X<X3X3XwXwX0XwX>XS f c c x x x x x x x x x s s s p i g i.R.W.W.^.~.[.OX^.^.T.OX,XoX_._._._._._._._._.",
"_._._._._._.(._./.3X3X&X,X<X3X4X3XwX3XwX3X>Xk.e.P h f f f f f f f d s i i i p C ..c.z.R.z.Y.F.W.T.T.T.OX2X;XT._._._._._._._._._.",
"_._._._._._._._._.`.wX3X&X&X4X3X1X0X7X0X7X3X.Xj.y.i.L S j C j j j g g C J J t.y.y.k.W.Y.V.Y.W.^.}. XXX,X2XT./._._._._._._._._._.",
"_._._._._._._._._.D.~.wX7X&X&X,X4X3XqX0XwX8X7X,X~.z.c.s.y.y.f.f.f.f.y.y.s.s.s.f.x.z.z.W.Y.^.`. XXX:X2X:XT.m./.(.(._.(._._._._.(.",
"_._._._._._._._._.G.N.F.4XwX0X>X,X4X3X0XwX7X3X3X3X3X$X}.^.V.k.k.j.k.k.j.j.R.W.W.^.~.}.}. XXXXX>X<X3X}.z.m.M.(._._._._._._._._._.",
"_._._._._._._._._.K.V.N.l.}.7XwXwX1X4X1X3X3X1X,X<X2X3X3X8X8X1X3X1X,X,X,X>X&XXX&X;XXXXXXXXX,X<X4XXXW.g.m.M.B._.(._._._._._._._.(.",
"_._._._._._._._._._.G.N.N.m.m.^.>X3XwXwXwX3X3X4X3X4X<X2X3X<X1X3X3X3X4X<X,X,X=X>XXX;X,X3X3X<X.XW.k.g.N.M.D.K._._._._._._._._._._.",
"_._._._._.(._._._._._.J.V.M.M.m.g.x.!.XX3XwXwXwX3XwX3X3X3X3X3X3X3X3X3X3X3X3X7X3X7X3X<XXX~.z.g.g.M.M.M.V._._._._._._._._._._._._.",
"_._._._._.+X_._._._._._.(.D.M.M.M.g.g.g.z.V.{..XXX4X3X3XwXwXwX7XwXwXwX3X4X4XXX}.[.W.z.h.g.m.N.N.M.N.H.(._._._._._._._._._._.(._.",
"_._._._._._._._._._._._.(.(./.V.N.M.M.M.m.g.h.h.l.k.x.W.W.W.W.W.W.W.W.W.z.k.h.h.g.g.m.N.N.M.M.V.D.K._.(._._._._._._._._._.(._._.",
"_._._._._._._._._._._._.(._._._._.H.D.M.M.M.g.N.M.g.g.g.h.g.h.g.g.h.h.g.g.m.N.N.M.M.M.M.D.D.H._._._._._._._._._._._._._._._._._.",
"_._.(.'._._._._.+X_._._._._._._._._._.K.H.D.D.P.M.N.M.N.m.N.M.M.M.M.N.N.M.N.m.N.M.D.D.K._._._._._._._._._._._._._._._._._._._._.",
"_._._.+X_._._._._._._._.'._._._.L._._._._._._._.J.H.D.G.D.D.D.D.D.D.D.D.D.H.K./._._._._.+XL._._._._._._._._._._._._._._._._._._.",
"_._._._._._._._._._._._._._._._.'._._._._._._.L._._._._._._.'.+X_.+X_._.'._._._._._._._._._._._._._._._._._._._._._._._._._.(._.",
"_._._._.L.]._._._._._._._._._._.+XL.]._._._.L.]._._._._._._._._._._._._._.'._._._._._._._._._._._._._._._._._._.+X_._._._._._._.",
"_._._._._._._._._._._._._._._._._._._._._._.+X_._.'._._._._._.'._._._._._._.L.+X(.K._._._._._._._._._._._._._._._._._._._._._._.",
"_._._._._._._._._._._._.]._._._._._._._._._._._._._.'._.'.L._._._._._._._._._._._.+X_._._._._._._._._._._._._._._._._._.(.(.(._.",
"_._._._._._._.L._._._._.+X_._._._._._._._._._._._._._._._._._._._._._._._._._._.(.(.+X_.+XK._._._._._._._._._._._._._._.#X+X_._.",
"_._._._._._._.]._._._._.L._._._._._._._._._._.L._._._._._._._.L._.L._._._._._._._._._._._._._._._._._._._._._._._._._.#X6X#X(.(.",
"_._._._._._._.+X_._._._._._._._._._._._.'._._.'._._._.'._._.].+X_.+X]._._._._._.+X_._._._._._._.+X_._._._._._._._._._._.#X(.(.(.",
"_._._._._._._.L._._._._._._._._._._._._._._._._._._._._.]._._._._._._._._._._._._._._._._._._._._._._._._._._._._._._._.(._.+X(.",
"_._.]._._._._.+X_._._._._._._._._._._._._._.L.+X_._._._._._._._._._._._._._._._._._._._._._._._._._._._._._._._._._._._._._.(.(."
};
