/* XPM */
static char *_457c30448e147a8c378b15b2ae56541u1WVUD4NRIaAJgG8[] = {
/* columns rows colors chars-per-pixel */
"64 64 204 2 ",
"   c #2E4C7B",
".  c #274B7B",
"X  c #344D73",
"o  c #334D7A",
"O  c #2B507F",
"+  c #3E5475",
"@  c #3D557D",
"#  c #36527E",
"$  c #5F5B5E",
"%  c #65485D",
"&  c #6C4B5E",
"*  c #665E5A",
"=  c #75505E",
"-  c #7C535E",
";  c #756456",
":  c #7C745E",
">  c #4B566B",
",  c #5A5A64",
"<  c #425373",
"1  c #7F5361",
"2  c #53606C",
"3  c #4C607C",
"4  c #686963",
"5  c #6F716C",
"6  c #787162",
"7  c #6D767C",
"8  c #66717E",
"9  c #943E1F",
"0  c #9D4622",
"q  c #9E4B24",
"w  c #A44D25",
"e  c #A55124",
"r  c #AA5326",
"t  c #AE5C2A",
"y  c #A85729",
"u  c #B25D29",
"i  c #AD662F",
"p  c #B4632D",
"a  c #B7682F",
"s  c #BC6B2F",
"d  c #BA652D",
"f  c #B76D33",
"g  c #BC6E34",
"h  c #B46730",
"j  c #AD7B3D",
"k  c #BD7436",
"l  c #B67838",
"z  c #C16C2E",
"x  c #C36E31",
"c  c #C47433",
"v  c #C47A37",
"b  c #CB7E36",
"n  c #C37C3A",
"m  c #CA7F39",
"M  c #CC7733",
"N  c #C7732F",
"B  c #B34F4F",
"V  c #AC5147",
"C  c #AE5148",
"Z  c #B3514B",
"A  c #BC524D",
"S  c #AE5251",
"D  c #B45251",
"F  c #85674D",
"G  c #83775A",
"H  c #936F48",
"J  c #A37540",
"K  c #845566",
"L  c #865769",
"P  c #895769",
"I  c #875869",
"U  c #8B7E60",
"Y  c #C77E7D",
"T  c #BD873B",
"R  c #CC852D",
"E  c #D48C2D",
"W  c #D7902F",
"Q  c #C78432",
"!  c #C4823C",
"~  c #CB843C",
"^  c #CC893E",
"/  c #CA8637",
"(  c #D38C3C",
")  c #D5883A",
"_  c #CC9338",
"`  c #D69231",
"'  c #D59B3A",
"]  c #DA983A",
"[  c #D6A13E",
"{  c #DBA33D",
"}  c #DBA037",
"|  c #E4A53B",
" . c #9E8F65",
".. c #9D936D",
"X. c #88897B",
"o. c #B8A36A",
"O. c #AE8F52",
"+. c #CC8B43",
"@. c #C98B49",
"#. c #D18D42",
"$. c #CD9D41",
"%. c #CD9347",
"&. c #D59343",
"*. c #D99541",
"=. c #D49946",
"-. c #DA9A45",
";. c #D3944A",
":. c #D59C4A",
">. c #D99D4C",
",. c #CD9152",
"<. c #D39D53",
"1. c #D7A342",
"2. c #DCA444",
"3. c #D4A34C",
"4. c #DCA44C",
"5. c #DEAB4D",
"6. c #DDA943",
"7. c #DDB24C",
"8. c #DBA454",
"9. c #DEAB53",
"0. c #DAA55A",
"q. c #DEAD59",
"w. c #D3A854",
"e. c #DAB758",
"r. c #CEAD52",
"t. c #E2AB4C",
"y. c #E5A946",
"u. c #E1B44D",
"i. c #EDB54B",
"p. c #E2AD53",
"a. c #E1AC59",
"s. c #E3B353",
"d. c #E4BA55",
"f. c #E3B55A",
"g. c #E6BC5C",
"h. c #E8BE5B",
"j. c #EEBD53",
"k. c #D4BD7B",
"l. c #D8A760",
"z. c #E4B663",
"x. c #E6BC62",
"c. c #E8BF62",
"v. c #E3B96B",
"b. c #E4BD75",
"n. c #DDC25C",
"m. c #E5C45D",
"M. c #E9C45D",
"N. c #EAC95D",
"B. c #E4C457",
"V. c #F1C45A",
"C. c #E5C361",
"Z. c #EAC463",
"A. c #ECC965",
"S. c #E7C26B",
"D. c #EAC66A",
"F. c #ECCA6C",
"G. c #EED06D",
"H. c #EBCB72",
"J. c #EDCD72",
"K. c #EDCD75",
"L. c #ECCB73",
"P. c #EECE79",
"I. c #ECCC7B",
"U. c #E9C479",
"Y. c #EED174",
"T. c #EED17B",
"R. c #F0D37D",
"E. c #F9D576",
"W. c #F2C661",
"Q. c #324F82",
"!. c #345283",
"~. c #3B5683",
"^. c #3E5A85",
"/. c #3D5B8D",
"(. c #375689",
"). c #3C5E91",
"_. c #284D81",
"`. c #415781",
"'. c #425B85",
"]. c #435E8D",
"[. c #455F90",
"{. c #4F6385",
"}. c #556987",
"|. c #556988",
" X c #536784",
".X c #9E9B82",
"XX c #C8B98A",
"oX c #DFB6B6",
"OX c #EFCD81",
"+X c #EDD181",
"@X c #EED68B",
"#X c #EFD98D",
"$X c #F1D684",
"%X c #F1D589",
"&X c #F2D98B",
"*X c #F8DC8C",
"=X c #FDDE85",
"-X c #E1CC92",
";X c #EED794",
":X c #F2DB95",
">X c #F2DB95",
",X c #FBE18E",
"<X c #FFE69B",
"1X c #F6E29A",
/* pixels */
"N.N.N.N.N.N.N.N.N.N.N.N.N.N.N.N.N.N.N.N.N.N.N.N.N.N.N.N.N.N.N.N.N.N.N.N.N.N.N.N.N.N.N.N.N.N.N.N.N.N.N.N.N.N.N.N.N.N.N.N.N.N.N.N.",
"N.N.N.N.N.N.N.N.N.N.N.N.N.N.N.N.N.N.N.N.N.N.N.N.N.N.N.N.N.N.N.N.N.N.N.N.N.N.N.N.N.N.N.N.N.N.N.N.N.N.N.N.N.N.N.N.N.N.N.N.N.N.N.N.",
"N.N.N.N.N.N.N.N.N.N.N.N.N.N.N.N.N.N.N.N.N.N.N.N.N.N.N.N.N.N.N.N.N.N.N.N.N.N.N.N.N.N.N.N.N.N.N.N.N.N.N.N.N.N.N.N.N.N.N.N.N.N.N.N.",
"N.N.N.N.N.N.N.N.N.N.N.N.N.N.N.N.N.N.N.N.N.N.N.N.N.N.N.N.N.N.N.N.N.N.N.N.N.N.N.N.N.N.N.N.N.N.N.N.N.N.N.N.N.N.N.N.N.N.N.N.N.N.N.N.",
"N.N.N.N.N.N.N.N.N.N.N.N.N.N.N.N.N.N.N.N.N.N.N.N.N.N.N.N.N.N.N.N.N.N.N.N.N.N.N.N.N.N.N.N.N.N.N.N.N.N.N.N.N.N.N.N.N.N.N.N.N.N.N.N.",
"N.N.N.N.N.N.N.N.N.N.N.N.N.N.N.N.N.N.N.N.N.N.N.N.N.N.N.N.N.N.N.N.N.N.N.N.N.N.N.N.N.N.N.N.N.N.N.N.N.N.N.N.N.N.N.N.N.N.N.N.N.N.N.N.",
"N.N.N.N.N.N.N.N.N.N.N.N.N.N.N.N.N.N.N.N.N.N.N.N.N.N.N.N.N.N.N.N.N.N.N.N.N.N.N.N.N.N.N.N.N.N.N.N.N.N.N.N.N.N.N.N.N.N.N.N.N.N.N.N.",
"N.N.N.N.N.N.N.N.N.N.N.N.N.N.N.N.N.N.N.N.N.N.N.N.N.N.N.N.N.N.N.N.N.N.N.N.N.N.N.N.N.N.N.N.N.N.N.N.N.N.N.N.N.N.N.N.N.N.N.N.N.N.N.N.",
"N.N.N.N.N.N.N.N.N.N.N.N.N.N.N.N.N.N.N.N.N.N.N.N.N.N.N.N.N.N.N.N.N.N.N.N.N.N.N.N.N.N.N.N.N.N.N.N.N.N.N.N.N.N.N.N.N.N.N.N.N.N.N.N.",
"N.N.N.N.N.N.N.N.N.N.N.N.N.N.N.N.N.N.N.N.N.N.N.N.N.N.N.N.N.N.N.N.N.N.N.N.N.N.N.N.N.N.N.N.N.N.N.N.N.N.N.N.N.N.N.N.N.N.N.N.N.N.N.N.",
"N.N.N.N.N.N.N.N.N.N.N.N.N.N.N.N.N.N.N.N.N.N.N.N.N.N.N.N.N.N.N.N.N.N.N.N.N.N.N.N.N.N.N.N.N.N.N.N.N.N.N.N.N.N.N.N.N.N.N.N.N.N.N.N.",
"N.N.N.N.N.N.N.N.N.N.N.N.N.N.N.N.N.N.N.N.N.N.N.N.N.N.N.N.N.N.N.N.N.N.N.N.N.N.N.N.N.N.N.N.N.N.N.N.N.N.N.N.N.N.N.N.N.N.N.N.N.N.N.N.",
"N.N.N.N.N.N.N.N.N.N.N.N.N.N.N.N.N.N.N.N.N.N.N.N.N.N.N.N.N.N.N.N.N.N.N.N.N.N.N.N.N.N.N.N.N.N.N.N.N.N.N.N.N.N.N.N.N.N.N.N.N.N.N.N.",
"N.N.N.N.N.N.N.N.N.N.N.N.N.N.N.N.N.N.N.N.N.N.N.N.N.N.N.N.N.N.N.N.N.N.N.N.N.N.N.N.N.N.N.N.N.N.N.N.N.N.N.N.N.N.N.N.N.N.N.N.N.N.N.N.",
"N.N.N.N.N.N.N.N.N.N.N.N.N.N.N.N.N.N.N.N.N.N.N.N.N.N.N.A.A.D.D.D.D.N.N.M.M.N.N.N.N.N.N.N.N.N.N.N.N.N.N.N.N.N.N.N.N.N.N.N.N.N.N.N.",
"N.N.N.N.N.N.N.N.N.N.N.N.N.N.N.N.N.N.N.N.N.N.N.N.A.D.K.T.$X%X%X$X$XR.J.D.Z.h.m.M.N.N.N.N.N.N.N.N.N.N.N.N.N.N.N.N.N.N.N.N.N.N.N.N.",
"N.N.N.N.N.N.N.N.N.N.N.N.N.N.N.N.N.N.N.N.N.N.A.J.P.%X%XOXl.<.0.>.;.8.D.T.K.D.C.d.d.m.N.N.N.N.N.N.N.N.N.N.N.N.N.N.N.N.N.N.N.N.N.N.",
"N.N.N.N.N.N.N.N.N.N.N.N.N.N.N.N.N.N.N.N.N.D.P.%X$Xz.;.g t p +.:.#.&.c.J.D.F.Y.D.g.u.d.N.N.N.N.N.N.N.N.N.N.N.N.N.N.N.N.N.N.N.N.N.",
"N.N.N.N.N.N.N.N.N.N.N.N.N.N.N.N.N.N.N.N.J.+X$Xv.>.&.;.0.S.D.J.F.G.F.D.D.d.-.:.q.S.F.d.u.m.N.N.N.N.N.N.N.N.N.N.N.N.N.N.N.N.N.N.N.",
"N.N.N.N.N.N.N.N.N.N.N.N.N.N.N.N.N.N.N.P.%XP.@.g 8.P.R.T.K.K.F.-.>.D.D.D.D.d.&.s a 3.D.s.7.m.N.N.N.N.N.N.N.N.N.N.N.N.N.N.N.N.N.N.",
"N.N.N.N.N.N.N.N.N.N.N.N.N.N.N.N.N.N.K.%XR.;.w 8.J.a.g.J.L.L.K.c.c #.A.D.Z.Z.Z.h.^ u 9.F.u.7.m.N.N.N.N.N.N.N.N.N.N.N.N.N.N.N.N.N.",
"N.N.N.N.N.N.N.N.N.N.N.N.N.N.N.N.M.H.%XP.p.+.<.J.D.) c 9.J.K.L.K.f.x &.D.D.Z.Z.Z.A.-.( Z.Z.5.7.m.N.N.N.N.N.N.N.N.N.N.N.N.N.N.N.N.",
"N.N.N.N.N.N.N.N.N.N.N.N.N.N.N.M.A.$XI.>.8.L.P.L.J.S.~ u :.Y.L.H.J.g.s v g.D.Z.M.Z.>.a b D.M.1.e.m.N.N.N.N.N.N.N.N.N.N.N.N.N.N.N.",
"N.N.N.N.N.N.N.N.N.N.N.N.N.N.N.m.$XU.k n f.f.D.P.P.P.D.k w >.F.L.H.J.s.z c g.D.Z.Z.Z.d.~ -.A.7.1.m.N.N.N.N.N.N.N.N.N.N.N.N.N.N.N.",
"N.N.N.N.N.N.N.N.N.N.N.N.N.N.M.F.:X@.w 0.S.) -.D.J.H.J.D.n w >.J.L.H.J.d.b v Z.D.h.M.Z.Z.( s.M.[ e.m.N.N.N.N.N.N.N.N.N.N.N.N.N.N.",
"N.N.N.N.N.N.N.N.N.N.N.N.N.N.m.&Xb.t %.F.J.s.M ~ g.J.H.L.D.~ r 4.F.H.H.F.M.c c h.g.g.d.Z.p.#.D.6.$.n.N.N.N.N.N.N.N.N.N.N.N.N.N.N.",
"N.N.N.N.N.N.N.N.N.N.N.N.N.M.Z.1X,.h F.K.L.K.p.u p f.F.H.H.D.+.t 8.F.H.S.S.h.c ~ M.h.d.M.Z.s f.d._ e.m.N.N.N.N.N.N.N.N.N.N.N.N.N.",
"N.N.N.N.N.N.N.N.N.N.N.N.N.B.T.:Xk +.F.H.K.P.J.s.a t t.F.H.H.F.+.t 5.J.S.S.F.M.&.-.d.M.g.Z.k +.m._ 3.m.N.N.N.N.N.N.N.N.N.N.N.N.N.",
"N.N.N.N.N.N.N.N.N.N.N.N.N.B.@X;Xm f.D.H.J.P.P.K.Z.g r 4.F.H.H.F.+.r 5.F.D.D.F.A.( b h.g.Z.&.k m.' $.n.N.N.N.N.N.N.N.N.N.N.N.N.N.",
"N.N.N.N.N.N.N.N.N.N.N.N.N.m.>XOX*.c.F.S.c.T.K.J.K.Z.f w :.D.H.H.F.n r 4.D.D.F.D.h.) -.Z.Z.p.k d.1._ e.N.N.N.N.N.N.N.N.N.N.N.N.N.",
"C.m.m.m.C.C.m.m.C.C.C.m.m.e.>XP.&.D.D.Z.t.f.J.L.L.K.A.~ 0 ~ A.H.H.D.! r 4.A.D.D.Z.h.2.d.Z.h.&.d.' / r.m.m.C.C.C.C.C.C.C.m.m.m.m.",
"}.}.}.}.}.}.}.}.}.}.}.}.{.8 :Xb.v D.D.J.S.( 4.J.K.L.K.D.+.0 n A.H.L.F.&.z 5.D.D.Z.Z.M.Z.M.M.t.s.[ j 3  X}.|.|.|.|.|.|.|.|.|.|.|.",
"].].].].].].].].].].].].(.}.1Xb.y S.D.D.F.S.( -.F.P.H.H.Y.:.w ~ A.H.K.Y.4./ s.D.D.D.Z.M.Z.Z.v :.6.j !./././././.].]././.).[.[.].",
"].].].].].].].].].].].]./. X>XU.e q.D.D.D.J.D.&.( D.K.H.H.J.8.r ^ A.L.H.F.4.N t.D.D.Z.M.Z.Z.y %.{ J ~.'.].].].].].].].].].].].].",
"].].].].].].].].].].].].].'.-X*Xk @.A.c.F.H.J.F.&.*.D.K.H.L.J.q.t ~ A.F.H.D.&.M s.D.D.M.Z.f.e %.} H !.'.].].].].].].].].].].].[.",
"].].].].].].].].].].].].].~.XX<Xq.~ D.Z.s.D.K.K.F.4.) c.H.H.L.K.f.p n A.F.D.A.=.z s.A.M.Z.3.q 3.` ; !.].].].].].].].].].].].].[.",
"].].].].].].].].].].].].].!..X<XI.2.g.D.4.~ S.Y.J.F.-.) Z.F.H.H.J.9.w v Z.D.D.Z.&.b M.C.A.! i 7.R , ~.].].].].].].].].].].].].].",
"].].].].].].].].].].].].].(.7 *X%X:.k D.D.4.) S.K.F.D.4.*.Z.F.F.D.D.4.w ~ Z.Z.Z.D.4.d.A.9.t 3.1.l + ^.].].].].].].].].].].].].].",
"].].].].].].].].].].].].].].~.k.,X0.e :.D.D.f.-.c.J.H.D.&.m f.D.D.D.D.5.x *.M.S.D.Z.D.f.t ! d.W F !.'.].].].].].].].].].].].].].",
"].].].].].].].].].].].].].].!.X.=X+Xn 0 f.F.D.c.p.S.F.D.A.^ r 9.D.Z.g.Z.s.] s.Z.S.C.d./ ^ M.1.Q > ~.].].].].].].].].].].].].].[.",
"].].].].].].].].].].].].].].].@ k.*XS.k g f.A.D.S.p.h.D.D.A.=.5.M.M.M.g.M.h.d.M.A.Z.] -.D.9.E F !.'.].].].].].].].].].].].].].].",
"].].].].].].].].].].].].].].].!.7 E.@XR.;.c f.J.D.Z.c.D.g.C.D.M.M.Z.M.M.g.M.Z.M.=.k ) M.g.' l + ~.].].].].].].].].].].].].].].].",
"].].].].].].].].].].].].].].].].Q...E.;X$Xx.t.4.D.F.D.g.g.C.g.C.Z.M.g.M.M.Z.9.f 9 p c.Z.[ R , # '.].].].].].].].].].].].].].].].",
"].].].].].].].].].].].].].].].]./.# o.E.;X:XR.n a <.C.D.Z.Z.Z.Z.Z.N.M.Z.g.^ q q ! c.C.1.E ;   `.].].].].].].].].].].].].].].].[.",
"].].].].].].].].].].].].].].].].].^.@ o.E.@X>X%X@.e p -.s.9.p.f.9.s.d.t.b d ;.g.F.x.[ E ;   @ '.].].].].].].].].].].].].].].].[.",
"].].].].].].].].].].].].].].].].].].^.#  .W.K.@X&Xv.0.a.t.( u p u c -.t.f.A.Y.C.5.] Q *   @ ^.].].].].].].].].].].].].].].].].].",
"].].].].].].].].].].].].].].].].].].].^.  5 w.V.F.+X#X@X+XI.v.z.z.x.S.H.F.g.5.] ` J >   @ ^.].].].].].].].].].].].].].].].].].].",
"].].].].].].].].].].].].].].].].].].].].'.Q.+ U w.j.Z.D.L.I.+XI.I.H.c.s.t.| ` j * X o @ ^.].].].].].].].].].].[.[.].].].].].].].",
"].].].].].].].].].].].].].].].].].].].].].'.~.o < 6 O.3.t.i.i.i.i.y.| ] T H $ X o @ `.'.].].].].].].].].].].].].].].].].].].].].",
").)./.).).).).).).).).).).).).).).).).).)././.^.!._.. + 2 4 : G G ; 4 > X . O !.~.(.(././.).).).).).).).).).).).).).).).).).).).",
"P P P P P P P P P I I P P P I P P P P P P P P K K K 1 = & & % % % % % & = - - 1 K K P P P P P P P P P P P P P I I I I P P P P P ",
"A A A A A A A A A A A A A A A A A A A A A A A A A A Z Z Z C C V V V V C C Z Z Z A A A A A A A A A A A A A A A A A A A A A A A A ",
"D D D D D D D D D D D D D D D D D D D D D D D D D D D D D S S S S S S S S D D D D D D D D D D D D D D D D D D D D D D D D D D D ",
"D D D D D D D D D D D D D D D D D D D D D D D D D D D D D D D D D D D D D D D D D D D D D D D D D D D D D D D D D D D D D D D D ",
"D D D D D D D D D D D D D D D D D D D D D D D D D D D D D D D D D D D D D D D D D D D D D D D D D D D D D D D D D D D D D D D D ",
"D D D D D D D D D D D D D D D D D D D D D D D D D D D D D D D D D D D D D D D D D D D D D D D D D D D D D D D D D D D D D D D D ",
"D D D D D D D D D D D D D D D D D D D D D D D D D D D D D D D D D D D D D D D D D D D D D D D D D D D D D D D D D D D D D D D D ",
"D D D D D D D D D D D D D D D D D D D D D D D D D D D D D D D D D D D D D D D D D D D D D D D D D D D D D D D D D D D D D D D D ",
"D D D D D D D D D D D D D D D D D D D D D D D D D D D D D D D D D D D D D D D D D D D D D D D D D D D D D D D D D D D D B D D D ",
"D D D D D D D D D D D D D D D D D D D D D D D D D D D D D D D D D D D D D D D D D D D D D D D D D D D D D D D D D D D D Y D D D ",
"D D D D D D D D D D D D D D D D D D D D D D D D D D D D D D D D D D D D D D D D D D D D D D D D D D D D D D D D D D B Y oXY B D ",
"D D D D D D D D D D D D D D D D D D D D D D D D D D D D D D D D D D D D D D D D D D D D D D D D D D D D D D D D D D D D Y D D D ",
"D D D D D D D D D D D D D D D D D D D D D D D D D D D D D D D D D D D D D D D D D D D D D D D D D D D D D D D D D D D D B D D D ",
"D B B B D D D D D D D D D D D D D D D D D D D D D D D D D D D D D D D D D D D D D D D D D D D D D D D D D D D D D D D D D D D D "
};
