/* XPM */
static char *_72a39241dad4ecf88c3bb880a362857j75AlwkW3BKusz6H[] = {
/* columns rows colors chars-per-pixel */
"64 64 241 2 ",
"   c #020201",
".  c #0A0A09",
"X  c #171617",
"o  c #140F0C",
"O  c #302D2C",
"+  c #7C1317",
"@  c #6C0809",
"#  c #552A1A",
"$  c #58321D",
"%  c #693519",
"&  c #591E2F",
"*  c #711E2E",
"=  c #46322A",
"-  c #593523",
";  c #533230",
":  c #613A23",
">  c #75312F",
",  c #78411E",
"<  c #4F433F",
"1  c #524139",
"2  c #6A4128",
"3  c #794523",
"4  c #774728",
"5  c #72503B",
"6  c #18375C",
"7  c #343449",
"8  c #1A3F67",
"9  c #053A75",
"0  c #123969",
"q  c #21376C",
"w  c #4A3258",
"e  c #502D4C",
"r  c #612E4A",
"t  c #0A4279",
"y  c #144478",
"u  c #1D436E",
"i  c #2A4B77",
"p  c #4C4545",
"a  c #514E4D",
"s  c #564742",
"d  c #575658",
"f  c #4D5155",
"g  c #675E5A",
"h  c #734C4C",
"j  c #4B5B64",
"k  c #50546A",
"l  c #6E5E71",
"z  c #745E71",
"x  c #715165",
"c  c #566267",
"v  c #566974",
"b  c #4E646F",
"n  c #666768",
"m  c #746579",
"M  c #6F6C77",
"N  c #990909",
"B  c #861619",
"V  c #9C1A1C",
"C  c #981315",
"Z  c #900C0D",
"A  c #BA120F",
"S  c #AC1415",
"D  c #AC1A1D",
"F  c #A61619",
"G  c #B41B1C",
"H  c #BB1D1C",
"J  c #B81715",
"K  c #AC0C0E",
"L  c #BC211F",
"P  c #891A25",
"I  c #961C22",
"U  c #AF1D23",
"Y  c #972328",
"T  c #97353D",
"R  c #8B2934",
"E  c #A42528",
"W  c #BC2121",
"Q  c #B32629",
"!  c #B12F34",
"~  c #CA130F",
"^  c #C51916",
"/  c #D61915",
"(  c #CA0F0C",
")  c #EB1E1A",
"_  c #F61D1C",
"`  c #D8221E",
"'  c #CD221F",
"]  c #E9211D",
"[  c #EF1F28",
"{  c #CC2221",
"}  c #C62725",
"|  c #D42423",
" . c #DC2623",
".. c #DE2926",
"X. c #D62928",
"o. c #DE3135",
"O. c #E42623",
"+. c #ED2424",
"@. c #E22926",
"#. c #EC2926",
"$. c #EE2C29",
"%. c #E52A2A",
"&. c #F42A26",
"*. c #F32D2A",
"=. c #F52925",
"-. c #EB352A",
";. c #F4312D",
":. c #F9312C",
">. c #F43820",
",. c #F23632",
"<. c #EB3B38",
"1. c #854C27",
"2. c #87522D",
"3. c #885634",
"4. c #955D35",
"5. c #97592D",
"6. c #99623B",
"7. c #917F32",
"8. c #CC403E",
"9. c #ED4D2B",
"0. c #923C47",
"q. c #874D5C",
"w. c #984753",
"e. c #917545",
"r. c #A56D43",
"t. c #AD6F41",
"y. c #AA7247",
"u. c #B07244",
"i. c #8D5969",
"p. c #AC5F67",
"a. c #CE5456",
"s. c #EC4A47",
"d. c #ED6E6A",
"f. c #C56E7A",
"g. c #7E9A6E",
"h. c #AE9632",
"j. c #BD971A",
"k. c #C39A19",
"l. c #C9A31B",
"z. c #DAB51C",
"x. c #D5AB17",
"c. c #CBB02A",
"v. c #F9B722",
"b. c #E3BF20",
"n. c #EC9624",
"m. c #EACA1F",
"M. c #FBD91A",
"N. c #FAC90B",
"B. c #F7D721",
"V. c #EFC621",
"C. c #FFE921",
"Z. c #8B8949",
"A. c #A69D4F",
"S. c #A29D68",
"D. c #0D4783",
"F. c #124D88",
"G. c #17528A",
"H. c #0E5494",
"J. c #125594",
"K. c #165B9A",
"L. c #0F518C",
"P. c #285B88",
"I. c #1C619B",
"U. c #2B6695",
"Y. c #0A5DA5",
"T. c #135EA2",
"R. c #1765A9",
"E. c #156CB3",
"W. c #1772BB",
"Q. c #0C62AE",
"!. c #2466A5",
"~. c #3379AC",
"^. c #4A538D",
"/. c #56798C",
"(. c #507197",
"). c #6D7992",
"_. c #6F738A",
"`. c #1674C1",
"'. c #0672CF",
"]. c #2077C0",
"[. c #937589",
"{. c #3C83B3",
"}. c #4C8397",
"|. c #768695",
" X c #568DA6",
".X c #5B93AD",
"XX c #4C90B7",
"oX c #6E8EAC",
"OX c #6A91AA",
"+X c #6B9AB9",
"@X c #7599B7",
"#X c #7D8CA6",
"$X c #71A3B8",
"%X c #1B8AD0",
"&X c #5298C4",
"*X c #5BA7D0",
"=X c #55A3CE",
"-X c #6AA8C8",
";X c #6CAED0",
":X c #6DB5DA",
">X c #6CB7DB",
",X c #71B5D8",
"<X c #78B3CB",
"1X c #6EBFE5",
"2X c #67BDE5",
"3X c #70BEE4",
"4X c #6FC0E6",
"5X c #6DC4EB",
"6X c #6FC8EF",
"7X c #72C1E6",
"8X c #71C4EB",
"9X c #75C8EE",
"0X c #6ECBF3",
"qX c #68C7F3",
"wX c #72CAF3",
"eX c #74CCF4",
"rX c #73D3FD",
"tX c #6ED1FA",
"yX c #909592",
"uX c #84ACB6",
"iX c #B5B2AC",
"pX c #B5A28E",
"aX c #EE9C99",
"sX c #D8B799",
"dX c #C6AD95",
"fX c #CEBEB4",
"gX c #F2B0AC",
"hX c #E0B997",
"jX c #EDD1B5",
"kX c #CAC1BE",
"lX c #8BB0CF",
"zX c #92D0EC",
"xX c #CDCAC6",
"cX c #F0CCC8",
"vX c #F2D5D1",
"bX c #FFEDDF",
"nX c #F7E9E7",
"mX c #FBF5F2",
"MX c #FCFDFB",
"NX c #FBF7F4",
"BX c #C1E4F4",
/* pixels */
"4X4X4X4X4X1X1X1X1X4X1X1X1X1X1X1X1X1X1X4X3X3X3X4X1X1X4X4X4X4X7X7X4X1X1X4X4X1X1X4X4X1X1X1X4X4X4X1X4X4X4X4X4X1X1X1X1X1X1X1X1X1X1X1X",
"4X4X4X4X4X4X4X4X4X4X4X1X4X4X1X1X1X1X1X1X1X7X3X1X4X4X4X4X4X4X4X4X4X4X4X4X4X4X4X7X4X4X4X4X4X4X4X4X4X4X4X4X4X4X4X4X4X1X4X4X4X4X4X1X",
"4X4X4X4X4X4X4X4X4X4X4X4X4X1X5X0X0X0XwXwXwX3X1X1X4X4X4X4X4X4X4X4X4X4X4X4X4X4X4X4X4X4X4X4X4X4X4X4X4X4X4X4X4X4X4X4X4X4X4X4X4X4X4X1X",
"4X4X4X4X4X4X4X4X4X1X1X1X1XtX;Xm _._._.m |.0X0X5X1X4X4X4X4X4X4X4X4X4X4X4X4X4X4X4X4X4X4X4X4X4X4X4X4X4X4X4X4X4X4X4X4X4X4X4X4X4X4X1X",
"4X4X4X4X4X4X4X4X1X1X1X5X3Xz w.~ ^ ^ ^ ( Q x x -X0X4X1X4X4X4X4X4X4X4X4X4X4X4X4X4X4X4X4X4X4X4X4X4X4X4X4X4X4X4X4X4X4X4X4X4X4X4X4X1X",
"4X4X4X4X4X4X4X4X4X4X3X1Xq./ ] :.=.*.,.,.$./ / T h ;X5X1X4X4X4X4X4X4X4X4X4X4X4X4X4X4X4X4X4X4X4X4X4X4X4X4X4X4X4X4X4X4X4X4X4X4X4X1X",
"4X4X4X4X4X4X4X4X1X1X5Xh / *.*.#.<.gXvXnXgX<.*.#./ 0.;X5X1X4X4X4X4X4X4X4X4X4X4X4X4X4X4X4X4X4X4X4X4X4X4X4X4X4X4X4X4X4X4X4X4X1X1X1X",
"4X4X4X4X4X4X4X4X1X1X5X_.R > E _ aXMXNXiXmXcX<.+.;.] T ;X6X1X4X4X4X1X4X4X4X4X4X4X4X4X4X4X4X4X4X4X4X4X1X4X4X4X4X1X4X4X4X4X4X1X1X1X",
"4X4X4X4X4X4X4X4X4X4X5XuXiXyX; / aXMXn X nXNXcXs.+.*.O.T -X8X1X4X4X4X4X4X4X4X4X4X4X4X4X4X4X4X4X4X4X4X4X4X4X4X4X4X4X4X4X4X4X4X1X1X",
"4X4X4X4X4X4X4X4X4X5XuXsXnXjXS.P gXMXfXxXnXnXMXd.) $.;.~ l wX1X4X4X4X4X4X4X4X4X4X4X4X4X4X4X4X4X4X4X4X4X4X4X4X4X4X4X4X4X4X4X1X1X1X",
"4X4X4X4X4X4X4X4X1X5XyXjXjXjXpXO yXNXNXmXnXnXNXd.) $.*.| B oXwX1X1X1X1X4X4X4X4X4X4X4X4X4X4X4X4X4X4X4X4X4X4X4X4X4X4X4X4X4X4X4X1X1X",
"4X4X4X4X4X4X4X4X3X5XyXsXjXdXO X   yXnXnXnXnXmXd.] $.*.@.N m 1X1X1X1X1X1X1X1X4X4X1X1X1X1X4X4X4X4X4X4X4X1X4X4X4X4X4X4X4X4X4X4X1X1X",
"4X4X4X4X4X4X4X4X3X5XyXsXjXsXX . X   fXmXnXnXMXd.) *.*.*.{ Z @X0X1X1X1X4X1X1X4X4X4X1X1X4X4X4X4X4X4X4X4X4X4X4X4X4X4X4X4X4X4X4X4X1X",
"4X4X4X4X4X4X4X4X3X5XyXhXjXg . O X   kXmXnXNXcXs.+.#.| *.{ S i.>X4X1X1X4X4X4X4X4X4X4X4X4X4X4X4X4X4X4X4X4X4X4X4X4X4X4X4X4X4X4X1X1X",
"4X4X4X4X4X4X4X4X4X5X<XdXsX.   o     xXMXNXvX9.] *.#. .@.H S C ;X5X1X1X4X4X4X4X4X4X4X4X4X4X4X4X4X4X4X4X4X4X4X4X4X4X4X4X4X4X4X1X1X",
"4X4X4X4X4X4X4X4X4X7X5X<Xn O }. Xa @ w.a.p.8.+.$.#.*...B + + V q.1X5X1X4X4X4X4X1X1X1X4X4X4X4X1X1X4X4X4X4X4X4X4X4X1X4X4X4X4X4X4X1X",
"4X4X4X4X4X4X4X4X4X4X3XwX.X7 9XrXz K S K A O.$.*.*. .E a.a.a.-./ q.4X8X1X1X3X1X1X1X1X4X4X4X1X1X4X4X4X4X4X4X4X4X1X1X1X1X1X4X4X4X1X",
"4X4X4X4X4X4X4X4X4X4X4X7X8X:X>X0Xx N W W $.*.*.#. .V @.;.;.,.*.*.` q.2X5X1X7X4X4X4X4X4X1X1X4X4X4X4X4X4X4X4X4X1X1X1X1X1X4X4X4X4X4X",
"4X4X4X4X4X4X4X4X4X4X4X4X1X8X1X6X).I | *.*.#. .{ F V #.#.#.#.#.$.;./ x 4X5X1X4X1X1X4X4X4X1X1X4X4X4X4X4X4X1X1X4X4X4X4X4X4X4X4X4X1X",
"4X4X4X4X4X4X4X4X4X4X4X4X4X4X1X5X-X> C | | { H @.V @.*.$.$.$.$.$.$.*./ i.:X4X1X1X4X1X1X1X4X4X4X4X4X4X4X4X4X4X4X4X4X4X4X4X4X1X4X1X",
"4X4X4X4X4X4X4X4X4X4X4X4X4X4X3X0Xi.Z W { ^  .*.*.V ..*.$.$.$.$.$.$.$.:.A +XwX3X4X4X1X1X1X4X4X4X4X4X4X4X1X4X4X4X4X4X4X4X4X1X1X4X1X",
"4X4X4X4X4X4X4X4X4X4X4X4X4X1X3XqXf.N X.:.*.*.$.*.V ..*.$.$.$.$.$.$.$.*. .w.:X5X1X4X4X4X4X1X4X4X4X4X4X1X4X4X4X4X4X4X1X4X4X4X4X4X1X",
"4X4X4X4X4X4X4X4X4X4X4X4X4X1X3XqXf.C { *.$.$.$.*.V  .=.$.$.*.$.$.$.$.$.*.n.A.1X4X4X4X4X4X1X1X4X4X4X4X4X4X4X4X4X4X4X4X4X4X4X4X1X1X",
"4X4X4X4X4X4X4X4X4X4X4X1X4X4X1X8X&X& ` *.$.*.$.*.@.U %.*.$.+.n.9.[ $.$.+.v.c.<X4X4X4X4X4X1X4X4X1X1X4X4X4X4X4X4X4X1X4X4X4X4X4X1X1X",
"4X4X4X4X4X1X1X4X4X4X1X1X4X4X1X7X%X7 O.*.$.$.$.$.=.R (.o.>.9.v.V.9.9.[ -.v.M.A.5X7X4X4X4X1X4X4X4X4X4X4X4X1X4X4X4X4X4X4X4X1X1X1X1X",
"4X4X4X4X4X1X1X4X4X4X4X1X1X1X1X7X=XF.Q =.*.$.$.*.` Y E.^.n.C.B.B.M.v.9.v.B.z.h.uX4X1X1X1X1X1X1X4X4X4X1X1X4X4X4X4X4X4X4X4X1X4X1X1X",
"4X4X4X4X4X4X4X4X4X4X4X1X1X1X1X1X9XU.P #. .*.*.| ' I F.'.g.M.B.B.k.m.C.m.k.x.x.A.qX3X1X1X1X1X1X4X4X4X4X4X4X1X1X4X4X4X4X4X4X4X1X1X",
"4X4X4X4X4X4X4X4X4X4X4X1X1X1X1X1X8XP.P ` ..@.....{ D w E.P.c.C.m.k.z.z.z.k.z.M.c.uX5X1X1X1X1X4X4X4X1X4X4X4X1X1X4X4X4X1X1X1X1X1X1X",
"4X4X4X1X4X4X4X4X4X4X1X1X1X1X1X1X7X=Xk F { G H { D J P H.Q.Z.M.m.l.B.l.l.m.j.z.N.S.qX3X1X1X1X1X1X1X1X4X4X1X1X1X4X4X1X1X1X1X1X1X1X",
"4X4X4X4X4X4X4X4X1X1X1X1X1X1X1X1X3X9X*X* S D D D D D D r Y.~.h.M.b.z.M.l.m.m.k.A.U.&X9X1X1X1X1X1X1X4X4X1X1X1X1X1X1X4X4X1X1X1X1X1X",
"1X4X4X4X4X4X4X4X1X1X1X1X1X1X3X1X1X1X1Xk F D D D D D D J r Y.!.h.7.j z.M.l.B.z.G.Y.~.8X1X1X1X1X1X1X4X1X4X1X4X1X1X4X4X4X4X4X1X1X1X",
"1X4X4X4X4X4X4X4X1X1X1X1X1X1X1X1X1X1X5X;X> S U D D D D F S r q t F.9 f c.}.e.Z.L.W.F.&X9X1X1X1X1X1X1X1X4X1X1X4X4X4X1X4X4X4X4X4X1X",
"1X4X4X4X4X4X4X4X4X1X1X1X1X1X4X1X1X1X1X5X;XR Z F G D G B Q O.H w T.J.t D.`.H.R.W.J.J.{.1X4X1X1X1X1X1X1X4X1X1X4X4X4X4X1X1X4X4X4X1X",
"1X4X4X4X4X1X1X4X4X1X1X1X1X1X1X1X1X1X1X1X8X-XR C D G D V V X.;.' w `.].y F.`.K.R.R.J.t *X8X1X1X1X1X1X1X1X4X4X4X4X4X4X4X1X1X1X4X1X",
"4X4X4X4X4X1X1X4X4X1X1X4X5X8X8X8X5X8X8X8X8X5XlXT B B S G B } *.$.{ w T.K.y J.W.J.R.E.t *X8X1X3X1X1X1X1X1X1X4X4X1X4X4X4X1X1X1X1X1X",
"1X4X4X4X4X1X4X4X1X1X4X1Xc a d a a a a p v wX Xd I C B B + B X.$.*.| e D.R.y L.`.J.D.{.1X4X1X1X1X1X1X1X1X1X1X1X1X4X4X4X1X1X4X1X1X",
"4X4X1X4X4X1X1X1X4X4X4X5XOX2.1.5.4.4.4.4.3.g |.c s # ; -Xn ; g E D F F w t R.E.T.T.J.I.*X1X1X4X1X1X1X1X1X1X4X4X4X4X4X4X4X4X1X1X1X",
"4X1X1X4X4X1X1X1X4X4X4X1Xc s a 5 3 3 3 , 5 d n c 2 4 4 1 g yXc = # - : - - 8 T.G.y L.Y.K.5XwX1X1X1X1X1X4X1X4X4X4X4X4X4X4X4X1X1X1X",
"1X1X4X4X4X1X1X1X4X4X4X4X1X1XwXOXa d d f c d n d - % % h n n d 3.6.r.r.6.6.2 : : : p i 8 /.+XrXwXwXwX1X1X1X1X4X4X4X4X4X4X1X1X1X1X",
"1X4X4X4X4X1X1X1X4X4X4X4X4X7X1X8XwXwX8XwX3Xf 1 p O c v v p M d 3 6.4.6.3.3.r.y.y.y.u.1.2 % h /./././.8XwXwXeX8X3X4X4X4X1X1X1X1X1X",
"1X4X4X1X4X4X4X4X4X4X4X4X4X4X4X1X1X1X1X1X8X-X/. X X5XrX:Xj p p v - $ $ $ 2.4.3.4.4.3.r.y.y.4.% 3 3 4 c b b j -XwX1X4X4X4X1X1X1X1X",
"4X4X4X1X4X4X4X4X4X4X4X4X4X4X4X4X4X4X4X4X1X5XwXwX9X1X2X5X>X.X+X5X).& 0 6 = # $ # : 4 2.2.3.r.y.y.y.r.2.1.1.1.h -X8X1X4X4X1X1X1X1X",
"4X4X4X4X1X1X4X4X4X4X4X4X4X4X4X4X4X4X4X4X4X1X1X1X1X4X4X1X5XwX8XqXuX* t y 0 P.I B # = # = - 4 3 3 3 2.r.r.r.t.|.2X4X4X4X4X1X1X1X1X",
"4X4X4X4X1X1X1X4X4X4X1X4X4X4X4X4X4X4X4X4X4X4X4X4X4X4X4X4X1X1X1XqX@X& t 8 t !.E N m XX0 K.u = < < p 2 % 3.r.5.@X0X1X4X4X1X1X1X1X1X",
"4X4X4X4X4X1X1X4X4X4X4X4X4X4X4X4X4X4X4X4X4X4X4X4X4X4X4X1X1X1X1X6X@XP i 9 F.!.E K m tX~.D.Q.U.eX1X8Xv p % % 5 $X5X1X4X1X1X1X1X1X1X",
"4X4X1X1X4X4X4X4X4X4X4X4X4X4X4X4X4X4X4X4X4X4X1X4X4X4X4X1X1X1X1X5X+X^ ! y W.R.Q / l 0X7X{.J.!.=X8X1X0X>Xv j .X0X1X4X4X4X4X1X1X1X1X",
"4X4X1X1X4X4X4X4X4X4X4X4X4X4X4X4X4X4X4X4X4X4X4X4X4X4X4X4X4X4X1X5X+XD / ^.%XE.Q / z 0X1X8X{.9 U.wX1X1X4XwXwX8X1X4X4X4X4X4X1X1X1X1X",
"4X4X4X4X4X4X4X4X4X4X4X4X4X4X4X4X4X4X4X4X4X4X4X4X4X4X4X4X1X4X1X6X+XD  .R !.x H / z 0X1X5X1XXX*X8X1X4X1X1X1X1X4X4X4X4X4X4X1X1X1X1X",
"4X4X4X4X4X4X4X4X4X4X4X4X4X4X1X4X4X4X4X4X4X4X4X1X4X4X4X1X1X1X1X3X2X[.` S Y F H / z 0X1X1X4X9X8X1X4X1X1X1X4X4X4X1X4X4X4X1X1X1X1X1X",
"4X4X4X4X4X4X4X4X4X4X4X4X4X4X4X4X4X4X4X4X4X4X4X4X4X4X4X1X1X1X1X1X0X#X~ $.H F H ;.H |.0X1X1X1X1X4X4X1X1X4X4X4X4X4X4X4X4X4X1X1X1X1X",
"4X4X4X4X4X4X4X4X4X4X4X4X4X4X4X4X4X4X4X4X4X4X4X4X4X4X4X4X4X4X1X1X5X@X! :.W D G :.A ).0X1X1X1X4X4X4X1X4X4X4X4X4X4X4X4X4X4X4X1X1X1X",
"4X4X4X4X4X4X4X4X4X4X4X4X4X4X4X4X4X4X4X4X4X4X4X4X4X4X4X4X1X1X1X4X3XqX[.] W | H *.J ).0X1X4X4X4X4X4X4X4X4X4X4X4X4X4X4X4X4X1X1X1X1X",
"4X4X4X4X4X4X4X4X4X4X4X4X4X4X4X4X4X4X4X4X4X4X4X4X4X4X4X4X1X4X4X1X1X0X_.~ } | H :.J ).0X1X4X4X1X4X4X4X4X4X4X4X4X4X4X4X4X4X1X1X1X1X",
"4X4X4X4X4X4X4X4X4X4X4X4X4X4X4X4X4X4X4X4X4X4X4X4X4X4X4X1X4X4X1X1X1X5X;Xw.S @.| X.^ ).0X1X1X1X4X4X4X4X4X4X4X4X4X4X4X4X4X4X4X4X4X1X",
"4X4X4X4X4X4X4X4X4X4X4X4X4X4X4X4X4X4X4X4X4X4X4X4X4X4X4X4X4X4X4X4X4X1XtXz N $.@.W ^ ).0X1X1X4X4X4X4X4X4X4X4X4X4X4X4X4X4X4X4X4X4X1X",
"4X4X4X4X4X4X4X4X4X4X4X4X4X4X4X4X4X4X4X4X4X4X4X4X4X4X4X4X4X4X4X4X4X4X4X:Xw.#...L ;.E +X5X1X4X4X4X4X4X4X4X4X4X4X4X4X4X4X4X4X4X4X4X",
"4X4X4X4X4X4X4X4X4X4X4X4X4X4X4X4X4X4X4X4X4X4X4X4X4X4X4X4X4X4X4X4X4X1X1X5X>Xa. .W :.S oX0X1X4X4X4X4X4X4X4X4X4X4X4X4X4X4X4X4X4X4X4X",
"1X4X4X4X4X4X4X4X4X4X4X4X4X4X4X4X4X4X4X4X4X4X4X4X4X4X4X4X4X4X4X4X4X4X4X1X1XY  .W :.S oX0X1X4X4X4X4X4X4X4X4X4X4X4X4X4X4X4X4X4X4X4X",
"4X4X4X4X4X4X4X4X4X4X4X4X4X4X4X4X4X4X4X4X4X4X1X1X4X4X4X4X4X4X4X4X4X4X4X4X4X[.^ H %.J oX0X1X4X4X4X4X4X4X4X4X4X4X4X4X4X4X1X2X4X4X4X",
"4X4X4X4X4X4X4X4X4X4X4X4X4X4X4X4X4X4X4X4X4X4X4X4X4X4X4X4X4X4X4X4X4X4X4X1X5X5X#Xi.^ J oX0X1X4X4X4X4X4X4X4X4X4X4X4X4X4X4X7XzX7X4X4X",
"4X4X4X4X4X4X4X4X4X4X4X4X4X4X4X4X4X4X4X4X4X4X4X4X4X4X4X4X4X4X4X4X4X4X4X4X4X1XqX5Xi.i.2X7X4X4X4X4X4X4X4X4X4X4X4X4X4X4X2XzXBXzX1X4X",
"4X4X4X4X4X1X4X4X4X4X4X4X4X4X4X4X4X4X4X4X4X4X4X4X1X4X4X4X4X4X4X4X4X4X4X4X4X4X1X5X:X:X5X4X4X4X4X4X4X4X4X4X4X4X4X4X4X4X4X7XzX7X4X1X",
"4X4X4X4X4X4X4X4X4X4X4X4X4X4X4X4X4X4X4X4X4X4X4X4X4X4X4X4X4X4X4X4X4X4X4X4X4X4X4X1X5X5X3X7X4X4X4X4X4X4X4X4X4X4X4X4X4X4X4X4X2X4X4X1X",
"4X4X4X4X4X4X4X4X4X4X4X4X4X4X4X4X4X4X4X4X4X4X4X4X4X4X4X4X4X4X4X4X4X4X4X4X4X4X4X4X1X1X7X7X4X4X4X4X4X4X4X4X4X4X4X4X4X4X4X4X4X4X4X4X"
};
