/* XPM */
static char *_870734134a544cdcf12312f39e0cf3esXJ6KKQCWvg458wU[] = {
/* columns rows colors chars-per-pixel */
"64 64 31 1 ",
"  c #090C17",
". c #060912",
"X c #0C101A",
"o c #121823",
"O c #101521",
"+ c #151B25",
"@ c #0E121D",
"# c #171E28",
"$ c #02040E",
"% c #242D35",
"& c #212932",
"* c #1A212A",
"= c #1C232D",
"- c #1F262F",
"; c #273039",
": c #303C45",
"> c #3A4751",
", c #2A343D",
"< c #2D3841",
"1 c #34404B",
"2 c #41505B",
"3 c #4C5E6A",
"4 c #9A532B",
"5 c #3A1F1E",
"6 c #AB6A33",
"7 c #F4D866",
"8 c #5B251A",
"9 c #CE9A47",
"0 c #7D3D23",
"q c #452E2D",
"w c #96989C",
/* pixels */
"$$$$$$$$$...  X@XOoo+Oo####o@#+o#oo+##++@++o@@OXOXoX X  .$$$$$$$",
"$$$$..$$    ..  @OooooOo+oOoO+++o+OO+oooo+ooO@  @ OO XX. . .$$$$",
"$$$$.... $  .@@Ooo###++*#+=-+#+#===o++#*+*++oO.@X @O@     ..$$$$",
"$$.$$..$$    X@@X@oo+Oo####*#+++##+@o+o+X+++oXXOO. XX .$..$..$$$",
".$ . XXXX. oooO@@@*-%%&&%%=%;&=#=%%*&%&##&&#X o++oXoOO .$.XX .  ",
"..$. X@ XX O++O*#+*-%%=&&,;%,,&;%&&-&*#=%%#OX++oo+OXo@.  @X.. ..",
"....    XoOO###-=#%=;,,;&,%::%%<,%%*-;;;%%#=#&&#o++@X X@X@ .XX .",
"$...$$.X OOOOo#*+O-*&-&&&#*%;&&%;%%#&%&&*=*+X#*#o@OO@. X X      ",
" . X.X @XX++O&&*-%;,<%;,<:1;;1:&,<<,%<%,=%-*---*#o#oo @oo@XXX   ",
"X  X.X@ oXX**&%=-;<<<,;,,11,<:>+*1:,,:,,;:&-%%&#++OO@ +ooX @X  .",
"X X@. OOooO#*%%-#;:,:<:>:<:<>1<Xo:,<1:;1,<;<,%%-#+##XXo#oooOOXX ",
".. .. @XX+OOo**#o+-=;-%;;;%&:<oX@+,%;;%%-;&--#*=#o+@ @ooXXXX .  ",
" X. O@O##=+-&%;<,%1<:1:>1><1::#O++1:111:,:<%%&<,;=-%#=&+@.$.  @X",
" .  Oo#=&#&%&%::::111,<>>>>1:,o$.+,>>11><:,1<;::&#%%*+-+#@ XX  $",
"X XOoO+=-*%%;;,,<;<::12>>2<12-+XO=%>2>:>>>1>:;<1,#%%%=*O#+ Oo   ",
" .XO@O@@++*##-%;;&<;<:::<:&;:#oOoo-,<;,,<:<<%&;%-*=+**=oXOX ..X ",
"X Oo@O-=*=&*%,::11><1>1>::*12%OXXO;2,#2:,1:11:,&;*+%-%&*--#.  X ",
"XX@@+++&%-&=,::*1>>><><;22-%3,ooo#<3%&:1=<1:<<&,*#-:=&=*+=oXoX@O",
"X O@*=o-&-%-:>:o:>21>>%*>>+=%*:+=<+%#=>,#>2212>&+%&,&%&;-@@OOooO",
"  XXo+o+o+=#%%=o%;:;,>;+1:OX@#-++#+O.+<%+11;;<;&oo-;&&-+#*XOOX@@",
"O X#-o#&&%;<:;.+*%1>#1=#+O%*%<,#*&<%*-O#O&1=>:&*O.-,&o&&=# #+OO@",
"O@Xo&*#-%;<,:>&.&212==#o<><+#>1O#2<#=1>,O=*-2>2- ,1&*&%;-*@+++oO",
"XOo ++#&;%;,:>-.=221:< ;22>#>;,+#::>+22>&X1:>>>*.&2:*<<;;&@=oOOO",
".@OX @+###-;<&.O+;><=<O=o;<+<---&*%,#:%+oo:#,<-OX.%,%-&=+# @oXX ",
"X@XoOX@+&#&;>o.o+#12=##<<=2&=:<-&,,#%2*,%+*-21+oo.+,<+;:#+*X@@o ",
"@O O-XO&=o;:>1.. <22*X>;+=2%,32=#22%,>+O<< ,32< $ :,<*%:=O#+@+o ",
"Oo O%oO,,o&1>>Xo#%22+1>,=>2*>>1%%>>>=2>#<><#32&#@o11:O%<oo%* +o.",
"O@.O-+X&&Oo:1:Xo=.&% ,&=-&>%11,<%&><;:---&%.&=X-@O:1,X*;XX-o.X@.",
"... X   @XOO@%XO=#O&;*<:-12;%,>;%:;&;2<&::*=-##*X@-Xo@oX  X .$..",
" X @+oX+;+;%@:O ##:,&*;1-22&>>;--;>2,3>&>,==:<++ +;O,#;=@ ooXOX ",
"X@X+o* *-#&<*,OX+&<1,,1%<:>;q5555555<>::%1,::,-o@O-%:#-%X#o#OoX ",
"@  #o@X+%o--o#X@-O<2,&3%=<3q80044008q3;#,3-<2%o=@X++&O*%@O+#XX@ ",
"  .XoO@OO@##@@ O-X;,X%-=*><866444464811*%%-X<&O&@.O+#O#+@@+@  X.",
"OOX+%&+=;+;>*<O@&--<:=<>%3>867946976813&1;-,;&-&O+&%>#<,-=,- +# ",
"@+Oo=&o&;@%>*;@o%#1>1o>2%3q0464994640q3%3:O1::o-O+-&>*&,-*;-@#* ",
"@+@X##o%=O%:o&@#%+>:,*;<-;549466646905<-:;=;1:o%oO=-,*o&#O#*Xoo ",
"OO@o@+o#=O%1+<O+&&:1,<:%,2-8677777768;2;;:,<%,--@O&%1+&#.X@*@OO ",
"+o o+o.&:#%>=:OO-%>>;:23%33584977968q33,32,,1>-=Xo%;2#<%O=*+@o+X",
"+OX++O.*1#%>*,OO&#+>>=,2;:3;-5588555,31,2,=2>o+-Oo&;2*-*%+o+@@O ",
"OO@##o#=+#&1*<Oo%+1>;-;:%;<,>2<@+12>,<%&,;-<>;o%OO=->#,- #=o@O+ ",
"@@XO+oO;O@%:#%@O&+*#*%<*#<,-;:,;;<<%&<<+-<&*###&oO*&;@&=.o* . @ ",
"XoX@#-o&*@&1#,@O-%&;:&;<=%<,1&&<<-;<%<&=<,-1,%--o+;&1O,& #O@ Oo ",
"X. +-*  %#@=o,@O-*&>-*:>&2:&2;,;&,;1*<>-2<=&>=#-Oo&=:+;+o*%OX@@ ",
"OXX+@O@%;oo%+;XX-#=1=%>%&32#:22-&2>;-3>*%1&-:##= o&*-@*#++*@ @o ",
"X . . @&*X@%#&X =o@X#+o#=-**=&-%&&&*#=*#ooo# XO#@@*o# Xoo@oo .X ",
" X X@oX-=o*;*,@@=*;:-&>%=>1#,2>%%22;=:1#<>=%<,+*Xo&+;+-%**-+X@X ",
"X   O#O%-@;1*;XO*=<>%,3,*>2-;22&;2>%%32*:2&<1;O-@O--%o%;+#=@  O ",
"X@.OO@@&;@#,+;@@#*1%#,2<=31*>*<&%;=1%22#,2&<1-+*OO-+&o%;++=@.XX.",
" .$X.. ++ o+@& O##;*=->%*><*%&1+=1=%->:+%:=%%+O#O@##*X++X@O  ...",
".$$O.X o=O+-@%X@##1%=%1<*>>*&%>#->;-&1:#,>-;%*O#O@*o*O##@@X@..O ",
". .@.@ @oX@#X#X@+O--+-<-#>>*,+1#=<*,->:+;:#&;#@+XX*X-o=-O.@o.X .",
".X . X XOXo@ # Xo+*&=-<-#1:#*&:+=,**->:+<;+-=#Oo X+o*@oOX OO. .$",
"...$X  XX @X o.X+Oo-+o%=O,%O+O&o#;@OO#&oo%+#=OOo. OO+ O .X  .$$.",
"...$X@ XO  +Xo Xo@O=#o&#o%,+&o-o#&o*O,;o*%o=#O@O  OO*XX@.@@X.$..",
"$....X X@XXO o.Xo o@@@*=o+#+O@*oooO++;*@#-o XoXO  @O#X@@ @   X $",
"$$. .  XXXOX O..O +O.O%=O-+OO@-Oo= oOoo@@+@.Oo + .@@#Xo .@    $.",
"$$$..... .   .$$XXX X @XX#OX@ o@OO. XoOXOo X XXO.$. X. .... ..$.",
"$$$$.$. ..@ .X$.  .@@ @oX#*@o@@@@O@O@#+XoOX@@.  $$X. . X$...$$$$",
"$.$$.$$ X X .O$$. XX@ @XX@OXO+@XX@#OXO@  @ @X   $.@    X.$$$$$$$",
" ...  .  ...XX$$$.$...........$  ..............$$.@X ..  . @>X..",
".$. .. .. . X.$$ O++o+#***+#*#*******++###ooooO $$.XX X .X$>w>$.",
"$$..$....$$. $$@oooO#****=*==#-======##=###o+++o@.$$ X  $.$ > $$",
"$$...    ..$$.  X@X@@XOOOOo+OO+oooo+@oooooOOXXX   .$$$.... .$.$$",
"$$$$$$.$....  .   X   @@XX@OOOOO@@OOOXXX  X   ... .  ..$$$$$$$$$"
};
