/* XPM */
static char *_144abe438914139a71bfe89209c3193r2pkceD2actBcbnr[] = {
/* columns rows colors chars-per-pixel */
"64 64 53 1 ",
"  c #24293D",
". c #21253B",
"X c #323A4F",
"o c #272C42",
"O c #292F44",
"+ c #1D2136",
"@ c #2C3248",
"# c #3B455B",
"$ c #04040A",
"% c #3E495E",
"& c #394256",
"* c #353E52",
"= c #2F364B",
"- c #414C61",
"; c #1B1E31",
": c #0B0C14",
"> c #475467",
", c #435064",
"< c #C8C8B3",
"1 c #16192B",
"2 c #474A52",
"3 c #54575B",
"4 c #4D5056",
"5 c #666A6F",
"6 c #BCBDAC",
"7 c #C1C2AF",
"8 c #363944",
"9 c #5E636B",
"0 c #13141D",
"q c #575E68",
"w c #2A2E39",
"e c #30333C",
"r c #11142A",
"t c #212431",
"y c #424449",
"u c #27282F",
"i c #3C3F47",
"p c #4B596D",
"a c #B5B6A8",
"s c #AEB0A3",
"d c #929590",
"f c #A6A89E",
"g c #9B9E96",
"h c #6F7376",
"j c #1E1F25",
"k c #8C8F8A",
"l c #848888",
"z c #777976",
"x c #7E8386",
"c c #7C7F7E",
"v c #D1D2BC",
"b c #747A80",
"n c #82837E",
/* pixels */
"ooO.. 8e;++.++++;;+++;;;;;1+..++++X&=*=Oo   .;;11;1++;;;;;;;++  ",
",*-y8y412u;O+.  X* +++;;;.*>,XX= *&#,,,,%@o e1t8w11++++;;;.@=*->",
"&=&8X4e>4O-#*@@#p,p* +;;@%>2w--%%>>,%-&,%=o.o3wq9q1e++++.O%p,O&&",
"tO#89iX2u,>,%&X>X#-p* ; &@2e&8=@,p>#>#p>-X w8842+481w+.o=%%-&iwt",
"#y83@&8yOO-&O X-,p%#&o @qyeo.4t#%p->>#p#-X@=i=uwoi42;o@ #>2O*2* ",
"p&tj*>0w& #,uO-,,>,#-=@Oei.#42*#%,&&%,>#&&*&&%O:t3yw OX& ,38X2-o",
"8=#$ w0#O88e**p>-#>--%#18&02j.-*Xq%*-%,p&X&#*o@$e8$.o->##&4u1uq=",
">w #:yi920X@X*=%%*%>&p,;e4>3r-#@X3*X*#>->,%*%%X;0: o#9>*w%&.20y>",
"= :j:80wo%3w38.X#==%-p%-=u30@%&23e*=@%pp#X=@=#-2$1@&pp%8-;i3hjj3",
"0 @1:$:i43j0X&@@XXX*,p&X-=0$X#qetO=8@@*&&X*&*O&3:@=#,#-u9iju:0:u",
"XX@-u$$000.o +o@O@>-#*O*%&O$ ,qj=2ywoO  oOo  .500@X%#@&ow3e ;:$1",
"OX&@j$0..ot o O@@ X-#*qXX=@0:90j9e;;;; oo   .3e: O=%%XXo. o@.$$1",
"pc9;:0..+...OOOO=9#==q2r3-oo:$:;r;.25l* Oo  .::oOoXbl-oOO@ oO0$$",
"g53:$+oo&55X..o.99z&O#et*=OO::O@@O*l&54.o.Xo+$;OO.99hq.O @4=ot::",
"k98:$ OXh&@4o..O5r>3o.ieo  O::@OO.q>r42..2h2 ::   bh95. &94h&@1$",
"bX::$.o=4;;+.1r@q;=&X;58O3q@$:OO 19%+2q;.4 O1:$r+ol43xOrq,1*2 $$",
">i$$jw2h2rr4n8ck .;naf6fdh8k2$unbk91 r5l9hq4u:j5*2z3y5X9z=t12dy$",
"sh$$866<qj;9<76x+ 1h7<fdyr$y<ggxg6gnbhdfs<<safa7fslh9ck<g;rr4<6f",
"6u$$$5<asssfs6sgggds7f1:$9c567<<ala<7s66gac3ud<a7a66ggsadxzzla<6",
"yyu0:$966<<gs<7<<6f66sdzz7va5eed<<as7saa7fi3ca<77<6d6667<a7v<g3e",
"h5>9&#5lvgx9hdfdfa<<<<766fg9qh&,bkkg6<<<<<<vvsdgdgaa6sgkdgsfb55q",
"o oo@@O#3O;...o. O24448 oo+ @@OOo.O%-9q44333io.+. o8X8Oo .O .O@O",
"&X&@Oe4;;u+ ;+++..111r1;11 =*oo ; ****XX=.++ r;;0111;1;;;;1+. =X",
"-*%i=28@9u@XO o=>,&  ++;.*,>i%&&X-#-,p-p,@O.8it23w1e+++++ X#%*%>",
"@O&wq3Oqy#p,#X=>#%p>@.;+X&-8O,#=->>#-#->%X  O3i>i9.. ++.o*->%OXw",
"w8#y2X=iw##*&8=,%,#>&o.O4 y @8e=#>,,p#p--X @i1ii+iy w.  *%-XXy= ",
",eeyX-wi=t*%u.#->>,##@O@y4w@eqe%#>#%,#-&%XX*X, 1+y32;o@O@pie*2- ",
"-%=$#%$@Xe#4e*>,--,%>*=.O80iye%#&%%*%,p,XXX**XO$e4jto*#&=*9eOy>@",
"2t#t0jepywe.X*%,,%%>%>%;84 4:X-==9#X##-,,%,%#=@1jj0 XppX=-8t1$9#",
"pX0-:3e2i+>8y8t&%@*,&p,=wyhi+-**24#X=%pp###X&># $0O@>9%XO@>*buu3",
"0;1:$::uXhy02XO=&=OX-p&%# u$X#-8y@*@OX>>#=X*=X#3:o=%pp,eq;02y0:i",
" XXXj$:8iu..@@O@@=%X%,@=-#;$@#qt1=ii@ooO=X===13y$=*-#X% 44w1:0$0",
"X@O#t$:0r;.o.+O@@O%,#=&*X@@:05e132e;+     ..+y3$1o*,-@&=1eoX $$j",
"=93t1$+  .;o@=@@O@=%X&q.2&o+:u$ju11.8  oo ..+8:;oo@X&%9y>-OO.:$:",
"lxq0$1..+*2..o@ 4l5OOq812&oO:$tO+oohd5oO @hho$1O 2c5@Xtt82Ooo0$$",
"dq4$$+o@qqq3 +o.5Oq3OOXw@oo@::@O@.2q122+oz4>3:0 .5=qq oyt. ooo0$",
"k,j0$tO*9.18+.roh1##.r2w+O=.:0@ .;q815&+=5o.80$1 5;#21r3tr.O+o0:",
"q $$$1 X#+;OirO3&+.9c9k59b95$$13425wt5%.o9;O $$wq4;+3z9d53z3530$",
"hq$$ehna2::46kag1+:c<<<7z=:5k23lg7q+;8aglq:1tzkas +:h<<<7c&:hvd3",
"v4$:0fvskh5k6<fb334l6s4i:ue87vvffldgllf7alz5b6<fb42yz6a3y$tuia<v",
"zj:$$jg76<vfs667<6f67gyuuf7sghn67fs6<faa67<<fd6a6<6f67fytjg6ffkh",
"3h2yut3g<6sxg7767767<<v<<<7l2iu9s66sa6a7<f67a6<676777<<v<<<7fqie",
"p&#-#%>9d9XX*-9%35kkkdz559>*>9,&9kcq,p-qqq9q5b555,9zkkdz555>*,9,",
"oOO..+iwr;;.;1r1rrr111rrrr1..;;+;;OX@==o.+++;:rr:rrr111rrrr1+;+.",
",&-iii2;4u+=.. o##O..+++;@&,>@X*o*%#,>%,-Oo.8t i8+;u++++++o=XX%>",
"=@&wi3Op3=,%*==-,-q#o.;;=#>iu,#&,,,#--&>%@ot 5w,391w.++. =->>w*&",
"tw#8q*X2w,>#&&X>X%,p* +o& #eX88O->-#>&p,-X.w2u22;y8;e+.o=#%%&ye.",
"#8*4@#e2X &#OtX%>q#%#ooOq4e .2u%#>%>,#,&%=@Xii. .i34;oO *>iwX2#t",
"p%t0#-:e# &4u@-,>->,-==owit%3yX&%##*#,>#*X*X=&O:u38w @*& ,q8=2- ",
"ie-$ t0#Oeie**>>,%>>--&18%020o-XX9%*-&-p%*%&*@@:ew:+O,p&#&yt0j9X",
"p@ ,:y8941**#*w%%*%>#p,te493r-#=&q&*X%>%,-#&%-*+::oO-q-*w&% 40i4",
"o :1:u0e@>quqi.X%==#,p-,Xe40=%#2qe#=@#>p&===@*-4$;@&pp%8>;e35j04",
"1O=;:$:y44;1X*@@=X&*->#X,*0$X%9w1=*i@O=X**X**.&2:XX%%&-u92jj$0$j",
"*XO,u$$:00 O ;O=@=>,#*=X&*@$ p3u#2y  o   o  .O5:0OX%#@%@u4eO;:$j",
"O&%Oj$1. O+oOO@=@ X>&*q=*=@1:3:j4u1;+ ooo o .2u: O=p%X*@.oO@.$$0",
"9l5t:0 .+ o.o@@O*b3@@5y04-oO:$0+1..3cd&.o . +$:OOo&cl-o@@O  O0$$",
"g53:$+ O255& .o.53h#O*8 ==@@::@=@o#lw92.  2O+$+OO.9q5q.@ *9& .::",
"kqw:$tO*hX 2o.+Oh1%3o;ye  o :0@OO+h>042+.4h4o::  .cb9h. 29&h2@1$",
"hX::$;o@4+;+.rr83+@22OhyX99&$$ =O 9X;y9  4+ r$$;+ c43h@rq-1=#O$$",
"p2$$ui3ny0r4g4dg .1x76<6d9ud9:wllf5+Or5dbkn5ijic-qz345inl  .cs50",
"75$$w67<5we57<6cO@jh77dbwr$8<6akgfffkkdfs<<saa<7sadn5ld<do1>av76",
"fj$$$y66a67fs6asssga<gj:$zgxsfa<6da77f66ga5iuk7a7a6affaagkkg666g",
"23ej0:3s677ds<7<<6s67asdg<vf3wtn7<6s7aa67s35g777776d7a67<s6<7k2u",
"b5>5-,5x7k5p5xgcdf6767asfdx>qh,-9bxds76666<vadkxxkfssglbxlgd55h9"
};
