/* XPM */
static char *_f90afda71b54412cc6a62fab906a18cMt7q7oMXoEh1TMAg[] = {
/* columns rows colors chars-per-pixel */
"64 64 36 1 ",
"  c #FFFFF3",
". c #FBF7E9",
"X c #110F19",
"o c #0B0913",
"O c #D8D5CA",
"+ c #BDBAB2",
"@ c #1E1D24",
"# c #E6E2D6",
"$ c #777573",
"% c #EFEBDE",
"& c #27262D",
"* c #888683",
"= c #25232A",
"- c #FFFBED",
"; c #4B494C",
": c #19171F",
"> c #DFDCD0",
", c #D4D1C7",
"< c #5C5A5C",
"1 c #434145",
"2 c #A6A49E",
"3 c #84827F",
"4 c #38363B",
"5 c #4E4D4F",
"6 c #575658",
"7 c #AEACA5",
"8 c #6E6D6C",
"9 c #646262",
"0 c #2A292F",
"q c #C4C1B8",
"w c #B9B6AE",
"e c #CFCCC2",
"r c #979591",
"t c #6A6868",
"y c #7A7977",
"u c #9B9994",
/* pixels */
"+<X;%.<:&>Ot:6+-,=&O 2X1%.5o7..9o$ q@:+ wX;.>0&*##4X3 %1o$ >3&=e",
"+<X;%.<:&>,t:6+-O=&O 2X1%.5o7..9o$ q@:+ wX;.>0&*%#4X3 %1o$ >3&=e",
"+<X;%.<X&>Ot:6+-O=&O 2X1%.5o7..9o$ q@:+ wX;.>0&*%#4X3 %1o$ #3&=e",
"+<X;%.<X&>Ot:6+-O=&O 2X1%.5o7..9o$ q@:+ wX;.>&&*%#4X3 %1o$ #3&=e",
"+<X;%.<X&>Ot:6+-O=&O 2X1%.5o7..9o$ q@:+ wX;.>&&*%#4X3 %1o$ #3&=e",
"+<X;%.6X&>Ot:6+-O=&O 2X1%.5X7..9o$ q@:+ wX;.>0&*%%4X3 %1o$ #*&=e",
"+<X;%.rX&>Ot:6+-O=&O 2X1%.5o7..9o$ q@:+ wX;.>0&*%#4X3 %1o$ >*&@e",
"+<X;%-7X&>Ot:6+-O=&O 2X1%.5o7..9o$ q@:+ wX;.>&&3%#4X3 %1o$ #*=5e",
"+<X;%-7X&>,t:6+-O=&O 2X1%.5o7..9o$ q@:+ wX;.>&&*%#4X3-%1o$ #*=$,",
"+<X;%-7X&>Ot:6+-O=&O 2X1%.5o7..9o$ q@:+ wX;.>0&*%#4X3-%1o$ #*=t,",
"+<X;%-7X&>Ot:6+-O=&O 2X1%.5o7..9o$ q@:+ wX;.>003#%4X3 %1o$ #*=8,",
"+<X;%-7X&>Ot:6+-O=&O 2X1%.5o7..9o$ q@:+ wX;.>0=7%#4X3 %1o$ #*=8,",
"+<X;%-7X&>Ot:6+-O=&O 2X1%.5o7..9o$ q@:+ wX;.>0@,.#4X3-%1o$ #*=8,",
"+<X;%-7X&>Ot:6+-O=&O 2X4%.5o7..9o$ q@:+ wX;.>0@e.#4X3-%1o$ >*=8,",
"+<X;%-7X&>Ot:6+-O=&O 2:t#.5X7..9o$ q@:+ wX;.>0@e.#4X3 %1o$ #*=8,",
"+<X;%-7X&>Ot:6+-O=&O 2@r#.5o7..9o$ q@:+ wX;.>0@e.#4X3 %1o$ >*=8,",
"+<X;%-7X&>Ot:6+-O=&O 2@*#.5o7..9o$ q@:+ wX;.>0@e.#4X3 %1o$ #*=8,",
"+<X;%-7X&>Ot:6+-O=&O 2@*#.5o7..9o$ q@:+ wX;.>0@e.#4X3-%1o$ #*=8,",
"+<X;%-7X&>Ot:6+-O=&O 2@*#.5o7..9o$ q@:+ wX;.>0@e.#4X3-%1o$ >*=8,",
"+<X;%-7X&>Ot:6+-O=&O 2@*#.5X7..9o$ q@:+ wX;.>0@e.#4X3 %1o$ >*=8,",
"+<X;%-7X&>Ot:6+-O=&O 2@*#.5o7..9o$ q@:+ wX;.>0@e.#4X3 %1o$ #*=8,",
"+<X;%-7X&>Ot:6+-O=&O 2@*#.5o7..9o$ q@:w wX;.>0@e.#4X3 %1o$ #*=8,",
"+<X;%-7X&>Ot:6+-O=&O 2@*#.5o7..9o$ q@:+ wX;.>0@e.#4X3-%1o$ >*=8,",
"+<X;%-7X&>Ot:6+-O=&O 2@*#.5X7..9o$ q@:+ wX;.>0@e.#4X3-%1o$ #*=8,",
"+<X;%-7X&>Ot:6+-O=&O 2@*#.5o7..9o$ q@:w wX;.>0@e.#4X3-%1o$ #*=8,",
"+<X;%-7X&>Ot:6+-O=&O 2@*#.5o7..9o$ q@:+ wX;.>0@e.#4X3 %1o$ #*=8,",
"+<X;%-7X&>Ot:6+-O=&O 2@*#.5o7..9o$ q@:+ wX;.>0@e.#4X3-%1o$ >*=8,",
"+<X;%-7X&>,t:6+-O=&O 2@*#.5o7..9o$ q@:+ wX;.>0@e.#4X3-%1o$ >*=8,",
"+<X;%-7X&>,t:6+-O=&O 2@*#.5X7..9o$ q@:+ wX;.>0@e.#4X3 %1o$ #*=8,",
"+<X;%-7X&>OtX6+-O&&O 2@*#.5o7..9o$ q@:+ wX;.>0@e.#4X3 %1o$ #*=8,",
"+<X;%-7X&>,9:6+-O=&O 2@*#.5o7..9o$ q@:+ wX;.>0@e.#4X3-%1o$ #*=8,",
"+<X;%-7X&O#$X6+-O=&O 2@*#.5o7..9o$ q@:+ wX;.>0@e.#4X3-%1o$ #*=8,",
"+<X;%-7X&, uo6+-O=&O 2@*#.5X7..9o$ q@:+ wX;.>0@e.#4X3-%1o$ #*=8,",
"+<X;%-7X&, ro<+-O&&O 2@*#.5X7..9o$ q@:+ wX;.>0@e.#4X3 %1o$ >*=8,",
"+<X;%-7X0, ro6+-O=&O 2@*#.5o7..9o$ q@:+ wX;.>0@e.#4X3 %1o$ #*=8,",
"+<X;%-7X&, ro6+-O=&O 2@*#.5ow..9o$ q@:+ wX;.>0@e.#4X3-%1o$ #*=8,",
"+<X;%.8:&, ro6+-O=&O 2@*#.5:*>-9o$ q@:+ wX;.>0@e.#4X3-%1o$ >*=8,",
"+<X;%.6X0, ro6+-,=&O 2@*#.5:$O 9o$ q@@+ wX;.>0@e.#4X3 %1o$ #*=8,",
"+<X;%.<X0, ro6+-,=&O 2@*#.5:yO-9o$ q@:+ wX;.>0@e.#4X3 %1o$ #*=8,",
"+<X;%.<:&, ro6+-O=&O 2@*#.5:$O 9o$ q@:w wX;.>0@e.#4X3-%1o$ #*=8,",
"+<X;%.<:&, ro6+-,=&O 2@*#.5:$O 9o$ q@:w wX;.>0@e.#4X3-%1o$ #*=8,",
"+<X;%.<X0, ro6+-O=0O 2@*#.5:yO-9o$ q@@+ wX;.>0@e.#4X3-%1o$ #*=8,",
"+<X;%.<X0, ro6+-O=&O 2@*#.5:yO-9o$ q@:+ wX;.>0@e.#4X3-%1o$ #*=8,",
"+<X;%.<X&, ro6+-,=&O 2@*#.5:$O 9o$ q@:w wX;.>0@e.#4X3 %1o$ #*=8,",
"+<X;%.<X&, ro6+-,=&O 2@*#.5:$O 9o$ q@:w wX;.>0@e.#4X3 %1o$ #*=8,",
"+<X;%.<X&, ro<+-,=&O 2@*#.5:yO-9o$ q@:+ wX;.>0@e.#4X3-%1o$ #*=8,",
"+<X;%.<X0, ro6+-O=&O 2@*#.5:$O 9o$ q@@w wX;.>0@e.#4X3 %1o$ #*=8,",
"+<X;%.<:0, ro6+-O=&O 2@*#.5:$O 9o$ q@:w wX;.>0@e.#4X3 %1o$ #*=8,",
"+<X;%.<:0, ro6+-,=&O 2@*#.5:$O 9o$ q@:w wX;.>0@e.#4X3 %1o$ #*=8,",
"+<X;%.<:0, ro<+-O=&O 2@*#.5:$O 9o$ q@:w wX;.>0@e.#4X3-%1o$ #*=8,",
"+<X;%.<:0, ro6+-O=&O 2@*#.5:$O 9o$ q@@w wX;.>0@e.#4X3 %1o$ #*=8,",
"+<X;%.<:0, ro6+-O=&O 2@*#.5:$O 9o$ q@:+ wX;.>0@e.#4X3 %1o$ #*=8,",
"+<X;%.<X0, ro6+-O=&O 2@*#.5:$O 9o$ q@:+ wX;.>0@e.#4X3 %1o$ #*=8,",
"+<X;.>8@&, ro<+-O=&O 2@*#.5:$O 9o$ q@:w wX;.>0@e.#4X3 %1o$ #*=8,",
"+<X;.,$@&, ro<+-O=&O 2@*#.5:$O 9o$ q@:+ wX;.>0@e.#4X3 %1o$ #*=8,",
"+<X;.O$@&, ro6+-O=&O 2@*#.5:$O 9o$ q@:w wX;.>0@e.#4X3 %1o$ #*=8,",
"+<X;.O$@&, ro6+-O=&O 2@*#.5:$O 9o$ q@:+ wX;.>0@e.#4X3 %1o$ #3=8,",
"+<X;.O$@&, ro6+-O=&O 2@*#.5:$O 9o$ q@:+ wX;.>0@e.#4X3 %1oy #*=8,",
"+<X;.O$@&, ro6+-O=&O 2@*#.5:$O 9o$ q@:+ wX;.>0@e.#4X3 %1X6.#3=8,",
"+<X;.O$@&, ro6+-O=&O 2@*#.5:$O 9o$ q@:+ wX;.>0@e.#4X3 %1:4%%2&8,",
"+<X;.O$@&, ro6+-O=&O 2@*#.5:$O 9o$ q@:+ wX;.>0@e.#4X3 %1:4%%e<t,",
"+<X;.O$@&, ro6+-O=&O 2@*#.5:$O 9o$ q@:+ wX;.>0@e.#4X3 %1:4%%2&8,",
"+<X;.O$@&, ro6+-O=&O 2@*#.5:$O 9o$ q@:w wX;.>0@e.#4X3 %1:4%#3=8,",
"+<X;.O$@&, ro6+-,=&O 2@*#.5:$O 9o$ q@:+ wX;.>0@e.#4X3 %1:4%#*=8,"
};
