/* XPM */
static char *_a547e64dfa44ea2ec296c5891629091aEdrtCWW8shwiIxX[] = {
/* columns rows colors chars-per-pixel */
"64 64 36 1 ",
"  c #AD9F88",
". c #B3A68F",
"X c #B0A28B",
"o c #AA9C86",
"O c #695F4F",
"+ c #1F111C",
"@ c #776C5A",
"# c #716655",
"$ c #988B76",
"% c #A39680",
"& c #938672",
"* c #9D907A",
"= c #8D816D",
"- c #887C69",
"; c #635849",
": c #A79983",
"> c #B7A992",
", c #837764",
"< c #A0937D",
"1 c #7D725F",
"2 c #50483C",
"3 c #1D1B11",
"4 c #5D5345",
"5 c #564E41",
"6 c #101417",
"7 c #181E24",
"8 c #242216",
"9 c #39322A",
"0 c #474135",
"q c #2D2A1E",
"w c #321D2E",
"e c #0C090B",
"r c #3F3A2F",
"t c #BDAE97",
"y c #242C34",
"u c #CABAA1",
/* pixels */
"++++e+++++++++++e+e6q544444O;;;;;;4444;44;44522525r86ee333333333",
"+e+e++e++++++++++e322;;444;OOOOOOO;O;;;;;;4454252520q38883333333",
"++e+++++++++++++w+384OO;OO#OO#O##OO##OOOOOO;;55454936e6838333333",
"e++e++++++++++w++3O44O#OO#@@@@@1@##@@#@@@#OO;;4;;;rq33q888833333",
"+e+++++++++wwww+eeq#O####1@1@,,1@11,1111@#@##OOO4;59ee3888333333",
"e++++++++w+w+www+4;O@@@11,-,,-,,,1,-,-,1,11@@##O;5q08qqq88883333",
"+++++++www+wwww+e9O@11,,-@1=-,--=1,&-,-,-,11@#@#OO03e3qq8q833333",
"+e+++++++wwwwww+9;#1,,--=--&===&$==&==&&--,,,1@#@#@0888qq8888333",
"++++++wwwwwww9w+32,---====&$&&*&&$&=$$&&==--,1,1,5q389qqq8888333",
"e++++w+wwwww9w9wO@,=&&*$&&$$&***<<$%1=**$$&&---,@@;6389qqqq88833",
"++++w+wwww99ww9+8O$$$$*$*<*%***%%::%<*<%<$$&==---=4q0999qqqq8888",
"+++++wwwwww9+wweO1$**<<*%<<o%::%o%%:o:%<%*$$&&=-2Orr0r999qqqq888",
"++w+w++www9ww+we-*$**:%:o%*%<o%:o:%o:::<**$$$*$*#qe8rrr999qq8886",
"+e+ewwewweww8qO32<$*<:::o.oX::  :X.oo:<%:%:<<**;1r9990r9q93q863e",
"+e+e++eqrqr,-2-;<*<<<oo: XX  oX  .. Xo o  o%:%*@9e2rq20r69363e88",
"8e830O95&#0=&=$<%%:<% :.X . :. X :o.XX   : <o$->O9qq3q83eq8er892",
"282r##45-,-=$*<%::%%%o  oo .   ..::>oo o: %oo,9r6O-Oq;;9q@#905r2",
"005;O@@--=$$$<<:o:$<o X Xoo. o. .ooXo:>.:X::o%:222=<#&$#41O;5;45",
"254O#@1,-=$&$$%%% %%  :<o XX .. XX  X.X.XX o:o%2: $$*$&-,1@##;45",
"25;O#1,=&&$$*% <<ooXo.XoXX> %>X.>:.>>>X..X:>,2#@ <<<<=&=-,1@#O;5",
"24;;#1-=&=*<%%X oXo X.X.. .. ..>XoXt X>.X..,o1e2o%<%$;$&==,1@O;5",
"54;#@,-=&$**%o   .&:XoX>tXX> X>.>tX>-&t.X>>@5140O.<%*$%*&=-,@;44",
"24O#1,-&***%:% oO<.oo..XXX   X>..o .> XX>*$u26X>*: %%%<*==-1@#55",
"24O@11-*$$:<:: o#   X.>.XX X@>...  >>..>O@9O425X%o%::<**=&-1;#O4",
"5;O#@--,&*o:<:X >XoXoo...X.t:.>.XX>>>.>uO090to5oXo:oo:<%&&-1##O4",
"4;491-,5$:*%%%>XXXo.X.X..X.t>:.....>.>t@2rX2$ ..Xo oo:***$=,,@O4",
"9592=04-1<%% XXX... o.>>>>.> >X.>oX>>%OO<%t=#%:.%.oo :%$$$=@##O4",
"q8er;8=*$11oo.X.o XX:.tX t>>>.>>>t>>t,*u>tt.X  ..XX  o<:&&&0;@O4",
"Orq4q392$2=X.O%X= :>. X$o..>>>.>t>..>ttXt =>X%$.X    o%<$==O#@O4",
";r4-q##093;=@4u;@t<$ t>>>.Xt.t.>..>.>.t..o@>.o .:XXo:::$*$==,#O4",
"4O@@4,&o;0#58qO9-uO@.&o>:Xt>t.>.XXX>X.....t.  X % :oX%$*$$=-,@O4",
"4O#@-=-$O-..2,4800q,:2tX: >>.>>>>. >.o>X.>X..X .>Xo o%%*$$=-1@O;",
"4O#11=&**< &0u1Ot-q23q=:tu=-t.t>tX>X X..XX>X.X X.. ::<%$$$$=-@O;",
"4;#1,-&:**%<*o%:>o0tr;rq0=0&u.$Xt. > .>t*<t XX%:oXo%o %$&*&-,@O;",
"4;#@,==@**<:Xo.. o-*4uu25@32= 4> ..>.X>.X XX.  .X o   %$$*=-1@O;",
"5O#@1=-;$<::%X%oX..:X1##u$#&482t>O. >...XXXXX:oXo: X :<<$$=-@#O4",
"5;#1,=&*$::<%  X. X%-,e;t-,u rO50@t> .>.XX>.XX.<oX o %o%$&&=10;;",
"5;O@,-&**<%:o .>Xo t09X5Ou.t$#u-e2X&#X.t>.X XXXX   o%o%%*&=-1#O;",
"5;O#@-&&$*<:%o*< >=4#9,>:...X>tO,-rqX >%:.o:XX X:o   :<<$$=-1#O;",
"54O@1-&&$<:ooo<<%*.3r>r%tt.>X .< >20rX-9<> o X. oo X %**$&=-1#;;",
"5;O#1,=&$%:: oX.&2142@t.>.>.X X..&@t@39Xo=.XX X.o    :%*$&=,@O;4",
"5;O#@1,=$<<%% o*tO3.o&.>.X..oX. X:>o42010, ..<oX:X%& $*$&&=,@OO4",
"54O#@,-&&&%<%% =;#9@.X .>XX>: .X.X.o,u&e2tX,$ ooXX <<<%&-$=,1OO4",
"54O##1-=&=**%%% 53:& .X X X. ......>>*9,0@@0oX:Xoo:::<<$=&-1@#O4",
"5;O#@1-&$$**%--tOrr XXXX X>XoXX..X .X%*tt88tX<X o::o:<*&==,1@#;5",
"25;O#1,--&$$*%114X&%ooX.XXXXo .XX. X....#22@21::%oo**<*&=,11##;5",
"25;O#@1-=&$$$<=6r&** o .X::. o..  .Xo XX@>*e;.%: oo&$<*===,@O545",
"25;O#@1,=&&$:O0,-9# oX oXoo   .. oXo X .t*r10=@$oo:%%*$&=,1##805",
"024O###,,-&$%-e,X:<: X:o oXo:. o. : . ooo*=t1eO %**$$&$=,1@q#238",
"254;O##@1,&O=0#0&*$o::o%%*X :   <: o    o  *2q@&0&<$$$1,#q19q9e6",
"225;O#@@-#5#65X&$%*%<%o%o:oXo%XX:oX : oo:% -;.89@<*$=$04=qr8e666",
"0254;O##@,r0rqO*$*&$%%: :*%:%o  o :::%o:<o$*o;q2<=#O;;@qr6e76676",
"0254;;O#O4@e;=@=$*&$$<:<%<<:%%:oo*$::%<%%<*$$;=88r5qr39e7y677676",
"025444OO#9e5q@$&=&&$$***%o:$%%<%%-@ <<<%:%<&$:#28y7ey6776y777766",
"22555;O22292@@=====&&$*$**%<<**%<$$%<*%%<*$$&$@Oy0yyr77y77777766",
"025442;4e3;O@1@,--=&-&&&&$&*&*<<*<*<**<$*$$$=&186yryyyyyyy777666",
"022550q9r535##@@11,,-=-==&&&&$$$$&$*&==&$&$==-=977yyyyy777776666",
"0002r98e0;;4OO##@##@1,,----=&=&&&==&=,=--==---,qyryyyyy777776666",
"00090e30q2444;O5;@##@@11,,,-----=--1,-==,,-11007yyyyy77777666666",
"rr0q383r225555;4;OO##@@#@#@,11--,,-,,,,,11,O##9e6yyy7y7767675666",
"rr00e3rr02222544;;;OO##@#@@@@1,,11,,1@11@@@O#15777y777777665o5e6",
"rrr9639000020255554;;OOO###@##@@@@@@@#@@###OO497y777777666675666",
"99rq3r9rr000022552554;;OOOO#O############OO;4r66777777667666e666",
"9993q999rrr0000222255;;;O;OO;O;OO;OOO;OOO;;;93e677777676666666e6"
};
