/* XPM */
static char *_10e941de6144c26fc0ad761abf2feacUqo9TmtpQin37WmG[] = {
/* columns rows colors chars-per-pixel */
"64 64 216 2 ",
"   c #000000",
".  c #0B0504",
"X  c #0C0609",
"o  c #110704",
"O  c #160A05",
"+  c #1B0C06",
"@  c #150B09",
"#  c #1B0D09",
"$  c #130708",
"%  c #1B1009",
"&  c #070312",
"*  c #1B0E14",
"=  c #220E06",
"-  c #220E08",
";  c #261106",
":  c #2A1306",
">  c #23110B",
",  c #2B140A",
"<  c #2A180B",
"1  c #32150A",
"2  c #341A0A",
"3  c #3D1B0B",
"4  c #3C1809",
"5  c #231414",
"6  c #291515",
"7  c #2B1918",
"8  c #341C12",
"9  c #311C1B",
"0  c #3A1B11",
"q  c #3A200F",
"w  c #3A2514",
"e  c #211F2D",
"r  c #362826",
"t  c #2C3028",
"y  c #36322A",
"u  c #3D2432",
"i  c #283A39",
"p  c #373D37",
"a  c #292926",
"s  c #451D0A",
"d  c #4C1E0A",
"f  c #461F07",
"g  c #4C1F12",
"h  c #421C10",
"j  c #44220D",
"k  c #4C220B",
"l  c #4C290E",
"z  c #53240C",
"x  c #59250C",
"c  c #5A2A0D",
"v  c #522B0F",
"b  c #432212",
"n  c #4B2613",
"m  c #432A15",
"M  c #492916",
"N  c #542713",
"B  c #5C2712",
"V  c #542B15",
"C  c #4D3119",
"Z  c #53321A",
"A  c #5A321B",
"S  c #583619",
"D  c #652A0D",
"F  c #6A2D0C",
"G  c #61250E",
"H  c #732E0D",
"J  c #7A2E0C",
"K  c #6A340F",
"L  c #7C330D",
"P  c #743B0D",
"I  c #7F390D",
"U  c #76300F",
"Y  c #642B13",
"T  c #692B13",
"R  c #762E11",
"E  c #653313",
"W  c #6B3212",
"Q  c #613519",
"!  c #683B18",
"~  c #723411",
"^  c #783312",
"/  c #733915",
"(  c #7B3C14",
")  c #7C3E19",
"_  c #713B19",
"`  c #5A3927",
"'  c #6A3F23",
"]  c #2F453B",
"[  c #32403B",
"{  c #364035",
"}  c #6C411A",
"|  c #72431B",
" . c #764118",
".. c #454437",
"X. c #434238",
"o. c #514B3F",
"O. c #694220",
"+. c #724539",
"@. c #303D43",
"#. c #3B4E45",
"$. c #27534E",
"%. c #2C534C",
"&. c #255553",
"*. c #255758",
"=. c #305553",
"-. c #2D4B45",
";. c #4F4D46",
":. c #832F0D",
">. c #83350C",
",. c #89370D",
"<. c #853A0D",
"1. c #8C3B0D",
"2. c #91370A",
"3. c #923D0C",
"4. c #9B3D0C",
"5. c #983A06",
"6. c #853711",
"7. c #843C13",
"8. c #A43F09",
"9. c #8E410E",
"0. c #95420D",
"q. c #9B440C",
"w. c #9F490D",
"e. c #844215",
"r. c #894414",
"t. c #82451B",
"y. c #834D1C",
"u. c #8A491C",
"i. c #8A4A16",
"p. c #934511",
"a. c #954A14",
"s. c #9B4B12",
"d. c #914E18",
"f. c #984711",
"g. c #86501C",
"h. c #9C5115",
"j. c #95541D",
"k. c #9A5A1B",
"l. c #A2450B",
"z. c #A34A0C",
"x. c #AA4C0C",
"c. c #A6420A",
"v. c #A3520F",
"b. c #AD520E",
"n. c #B4540D",
"m. c #B9550D",
"M. c #B6590E",
"N. c #BB5C0E",
"B. c #A34E11",
"V. c #AA4F10",
"C. c #A45315",
"Z. c #AB5412",
"A. c #AC5915",
"S. c #A15619",
"D. c #A65B1B",
"F. c #AC5C1A",
"G. c #A75816",
"H. c #B15711",
"J. c #B45C14",
"K. c #BB5E12",
"L. c #B45F18",
"P. c #AB601E",
"I. c #BD6315",
"U. c #B5631B",
"Y. c #BB6619",
"T. c #B7691F",
"R. c #BC6A1D",
"E. c #855422",
"W. c #955A22",
"Q. c #A45F23",
"!. c #BD6C22",
"~. c #B16C2A",
"^. c #B9712A",
"/. c #C25E0D",
"(. c #C35F11",
"). c #C4620F",
"_. c #CA650F",
"`. c #D46A0F",
"'. c #D86E0F",
"]. c #DB710F",
"[. c #C36312",
"{. c #C96611",
"}. c #C66A16",
"|. c #CC6C14",
" X c #C36C1B",
".X c #CA6E19",
"XX c #D36C11",
"oX c #D96F11",
"OX c #CF7117",
"+X c #CC721C",
"@X c #C5701D",
"#X c #D47316",
"$X c #D97515",
"%X c #DB7A17",
"&X c #D3751A",
"*X c #D57A1D",
"=X c #DA7B1B",
"-X c #E27E19",
";X c #C16F21",
":X c #C47323",
">X c #CB7520",
",X c #CE7B23",
"<X c #C4782B",
"1X c #D47C21",
"2X c #D57921",
"3X c #DD811E",
"4X c #E3821C",
"5X c #E8801B",
"6X c #DD8323",
"7X c #DF8825",
"8X c #DA8529",
"9X c #D68225",
"0X c #E88C24",
"qX c #E58D29",
"wX c #E58823",
"eX c #F0932A",
/* pixels */
"                                                                                                                                ",
"                                                                                                                                ",
"                                                                                                                                ",
"                                                                                                                                ",
"                                                                                                                                ",
"                                                                .                                                               ",
"                                                          . m   2 <       . .                                                   ",
"                                                        .   8 ! m |   % Q Z X                                                   ",
"                                                          w w E.W.g.b D.;Xj.k.| %                                               ",
"                                                      . % w ~.:X8X X+XXXA.&XwX4X!.v                                             ",
"                                                      5 ^.qX&XwXqX4X$X#XU.C.[.XX[.A.W                                           ",
"                                                @ C S } +X4X=X1X7X3X}.#X{.:.R }.OXh.s.7.O                                       ",
"                                              % w M !.eXwX&X&X,X>X:XR. XR.F.R H A.D.7.7.7.=                                     ",
"                                            Z <X6X.X=X*X&X1X1X1X,X1X,X8X8X7X8Xr.Y u.r.~ ^ B .                                   ",
"                                          @ j.+XA.Z.I.T.T.T.9XqX7X0X0X+Xm.J.&X+X^ Y ~ H W V @                                   ",
"                                          / }.}.s.( D.Y.+X6X9X6X1X=X#Xn.x Y x.).B.g 0 B T N                                     ",
"                                        > a.M._.<.T .X&X0X1X|.#X}.H.x.1.9 8 l.n.z.z X $ 3 g                                     ",
"                                        # s.z.Z.D 7.+X>X X~ b <.b.x.x.z.5 * q.x.0.q.I O   1 X                                   ",
"                                        3 Z.a.a.D F.+XR.3.9 r h _.#X#XXXe.~ z.q.q.3.D #   . .                                   ",
"                                      ; / e.r.r.Y F.+XS.M.N & N {.%X{.[.XX{.B.p.3.l.3.z .                                       ",
"                                      j E r.e./ Y C.|.C.#X[.r.C.}.|./.x.w.K.$X=XK.1.l.q.s                                       ",
"                                      X / t. ._ G p.|.{.$X=X].&X=XXXr.m 7 V #X&X$XZ.3.l.6.,                                     ",
"                                      . W ) y.Q 4 s.$X|.%X&XK.+X-X}.6 6 7 6 [.#XJ.[.B.1.3.x                                     ",
"                                        N e.t.> O .X|. X&X3XF.*X#XXX/ 6 6 W _.|.n.x.n.,.H 1.;                                   ",
"                                        # u.Q    .+X}.R.*X1XR.+X{.XX`.z.>.0.q.1.q.z.z.3.L 1 1                                   ",
"                                          V M X V >XY. X>X=X XY.{.K.n.>.L >.J :.L q.z.>.3.;                                     ",
"                                          . >   y.:XT.*X>X*X[.A.[.s.H >.c.q.q.4.0.3.0.0.z O                                     ",
"                                                y.Q.:X1X:X:X|.[.0.H 3.0.l.l.3.0.0.3.U 1.#                                       ",
"                                                q j.D.:X1XT.#XJ.>.,.3.0.0.z.3.1.<.q.= 1 o                                       ",
"                                                k.#Xa.t.1X&X[.q.0.q.1.3.3.1.<.0.D A n O                                         ",
"                                            X E L.=X-Xd.' |.h.Q z.1.x.^ ~ 3.G ~ y -...s                                         ",
"                                            b G.}.*X*X#X| ` ! i O.A ` Z t ^ r a [ %.&.b O                                       ",
"                                        . k w.n.[. X1X=X{.j.' y %.r e a y [ o.` p $.#.) 4                                       ",
"                                          c K./.). X+X#X|.).m.Q p p u @.] $.;.+.$.$...1.F                                       ",
"                                      . K )./.[.I.U.+X&XI.}.b.l.J ~ ` p V { i [ &.*.=.1.3.1                                     ",
"                                      > Z.K.b.L.).Y.R.@XR.}.b.q.q.<.l.5.L >./ Q A &.X.l.z 1                                     ",
"                                      P [.I.Z.G.`.I.!.6XT.U.Z.Z.b.z.9.q.0.1.q.2.>.L <.x.F                                       ",
"                                    # [.Z.{.I.C.{.A.,X6X+XF.J. Xs.v.0.<.q.3.3.3.L 3.q.3.z.3                                     ",
"                                    < J.N.[.|.J.z.A.6X*X1X6X&X+X}.z.w.0.9.z.3.3.0.0.q.1.3.3.#                                   ",
"                                    k oX_.{.[._.q.s.1X X>X*X=X+X}./.x.n.l.0.q.3.z.z.3.3.0.;                                     ",
"                                    v.$X{.N.[.{.Z.s.P.U.>XY.*X XL.n.x.z.n.q.q.z.w.q.1.3.z.f                                     ",
"                                  1 [.I.{.).{.Z.F.L.a.S.>XY.,X&XJ.q.x.x.q.x.q.q.q.1.1.q.<.z                                     ",
"                                  j M.I._._.)._.z.J.{.A..XY.*XI.[.x.q.x.0.0.q.0.w.>.1.0.I O                                     ",
"                                  P #XI././.Z.C.L.+XL.&X=X}..XL.n.x.0.z.1.1.w.1.0.<.0.3.z                                       ",
"                                : [.+X=X|.).N.H.s.a.T.>X*X=X$X[.q.z.w.w.1.z.q.L I 0.0.U x                                       ",
"                                3 A.}. XJ.p.N._.x.U.:XT.&X*X&X|.z.3.1.0.z.z.<.L 1.0.q.s #                                       ",
"                                1 |.I.}.}.I.C.9.z.U.d.R. X&X}.L.n.0.<.>.l.3.>.0.1.0.0.F                                         ",
"                              # G.XX}.=X=X#XZ.1.x.a.p.D. X=X#Xz.J.0.1.l.3.<.q.<.0.q.L 1                                         ",
"                              0  X|.&X+X*X#XK.Z.1.3.q.D. X X#XN.0.q.U 3.1.>.0.3.3.z.D                                           ",
"                              i.&X.X X+X*X+X XJ.0.>.F.F.L. X}.#Xz.<.,.U <.k <.0.q.x.c                                           ",
"                            X u.&X+X+X+X=X[.{.I.9.L f.Y.Y.&XOX}.b.H 1.4.d , ( q.q.z.L                                           ",
"                          .   i.wX1X&X=X6X&X[.{.Z.U 0.G.L.|.#X&XJ.>.U 3.3.O 2 l.0.q.q.3                                         ",
"                      .       a.4X=X=X|.*X+XI.n.J.0.0.>.A.I..X*X[.0.H 3.L . F 0.0.z.L z .                                       ",
"                        8 j. X}.#X=X|.}.+X+X XR.p.1.>.1.A. X=X&X[.z.J z.; + p.q.1.q.z.=                                         ",
"                    > l d.&X}.F. X%X#X#XI.#X|.}.s.J ,.>.a.R.+X Xn.w.>.d     <.z.1.3.z.x                                         ",
"                  O E K.oX'.n.s.+X{.|.[.K.N.N.N.0.3.,.1.6.+X+XI.n.<.0.1     c 0.0.3.l.,                                         ",
"              . c b._.b.n.n.x.b.J.b.n.n.x.z.Z.s.>.3.0.3.3. X&X#XH.3.J 3.D .   L c.2.3.>.3                                       ",
"          . n C.[.Z.(./.m.m.x.3.q.0.1.0.1.z.[.{.J.0.L H e.d.+X=X|.(.s.1.^ X ; 4.3.4.3.8.4.d                                     ",
"            . + # 8 E ~ L F F <.4 D 1.1.l.[.}.}.U.L.s     ) =X&X#X}.Z.V.z   4 s 4.c.c.4.c.6.o                                   ",
"                            O .   O k x ~ [.J.[.F.a.;     j >X&XF.[.C.V.D       , s z s k -                                     ",
"                                          > 2 3 , X         3 ) ) h.( E #                                                       ",
"                                                                  .                                                             ",
"                                                                                                                                ",
"                                                                                                                                "
};
