/* XPM */
static char *_82586594b1b41f7e83106f680c532b5YP6RCMWKehQdrXql[] = {
/* columns rows colors chars-per-pixel */
"64 64 232 2 ",
"   c #8E7A64",
".  c #798878",
"X  c #77917E",
"o  c #96927B",
"O  c #8A8A73",
"+  c #A59171",
"@  c #AE9673",
"#  c #B89873",
"$  c #AE906F",
"%  c #BBA27B",
"&  c #C8A87E",
"*  c #7B9284",
"=  c #7AA799",
"-  c #889888",
";  c #9C9B83",
":  c #969E87",
">  c #889F94",
",  c #A19C83",
"<  c #82A18E",
"1  c #9BA58B",
"2  c #98A488",
"3  c #8DAA94",
"4  c #8EAB9C",
"5  c #85A797",
"6  c #95AC9C",
"7  c #99AD9D",
"8  c #98A994",
"9  c #8FB09F",
"0  c #9AB19F",
"q  c #98B29B",
"w  c #AAA484",
"e  c #A1A48E",
"r  c #ADAA8D",
"t  c #A6A785",
"y  c #B3AC8C",
"u  c #B9A884",
"i  c #BAB38E",
"p  c #ACAF93",
"a  c #A7AB96",
"s  c #B1AE92",
"d  c #ABB19B",
"f  c #A8B89C",
"g  c #B1B392",
"h  c #BCB392",
"j  c #BCBA93",
"k  c #B2BA9C",
"l  c #BDBC9C",
"z  c #B7B993",
"x  c #9BAFA1",
"c  c #89B3A3",
"v  c #87B6A7",
"b  c #96B5A4",
"n  c #9BB3A2",
"m  c #9ABAA6",
"M  c #9DBDAB",
"N  c #96BBAC",
"B  c #9EBFB0",
"V  c #A2B3A1",
"C  c #AAB3A3",
"Z  c #A3BBAA",
"A  c #A9BAA6",
"S  c #B4BDAB",
"D  c #B7B9A7",
"F  c #B3BFB0",
"G  c #AFBEB4",
"H  c #C0B693",
"J  c #C3BB94",
"K  c #C4BE9B",
"L  c #C9BE97",
"P  c #CFB185",
"I  c #A8C19D",
"U  c #9FC2AF",
"Y  c #86C0B1",
"T  c #8BC5B3",
"R  c #92C8B6",
"E  c #9CCAB5",
"W  c #93CBB9",
"Q  c #9DCCBA",
"!  c #99C1B2",
"~  c #9CD1BC",
"^  c #ACC2AA",
"/  c #A5C3A8",
"(  c #BDC2AC",
")  c #B6C4A6",
"_  c #A5C3B2",
"`  c #ABC9B5",
"'  c #A4CDBB",
"]  c #ABCBB9",
"[  c #ABC5B6",
"{  c #BAC4B3",
"}  c #B4CBBF",
"|  c #BBC9BA",
" . c #B4C6B6",
".. c #A3D3BC",
"X. c #AED3BE",
"o. c #BAD5BC",
"O. c #B8D3B8",
"+. c #C3C29C",
"@. c #CBC39E",
"#. c #CBC292",
"$. c #D5CA9C",
"%. c #DCD49C",
"&. c #E3D99F",
"*. c #C9C7A6",
"=. c #D3CBA3",
"-. c #D4CBA5",
";. c #DDD5AC",
":. c #D8D4A8",
">. c #C3CBB4",
",. c #C2CDBB",
"<. c #C8CDB5",
"1. c #CBD4B5",
"2. c #C3D3BB",
"3. c #CCD3BB",
"4. c #C9DABB",
"5. c #DBDCB5",
"6. c #D4D5BE",
"7. c #DED3BC",
"8. c #D7D8B3",
"9. c #CAD0AF",
"0. c #E5DAA4",
"q. c #E4DCAB",
"w. c #EADEAC",
"e. c #E4D8A7",
"r. c #E5DDB3",
"t. c #E1D5BF",
"y. c #D7E1BE",
"u. c #EAE1A9",
"i. c #E8E2B7",
"p. c #F2E6B3",
"a. c #F5EAB5",
"s. c #FBECB4",
"d. c #F5ECBB",
"f. c #FAEEBC",
"g. c #FBF1BD",
"h. c #9BD3C0",
"j. c #9ED9C6",
"k. c #B3CDC2",
"l. c #A3D6C1",
"z. c #ACD3C2",
"x. c #ACD9C4",
"c. c #A7DAC7",
"v. c #BCD2C5",
"b. c #B2D9C6",
"n. c #BAD9C6",
"m. c #BBDDCB",
"M. c #B5D7C7",
"N. c #B7D6D1",
"B. c #B9D7D1",
"V. c #BCD9D3",
"C. c #BBE1CD",
"Z. c #B3E0CB",
"A. c #BDE3D2",
"S. c #B7E5D2",
"D. c #C4D3C3",
"F. c #CCD5C4",
"G. c #CCDAC5",
"H. c #C3D6CB",
"J. c #C4DCCB",
"K. c #CCDCCC",
"L. c #C3DAC0",
"P. c #D4D6C2",
"I. c #D4DAC5",
"U. c #DBDBC5",
"Y. c #D2DDC9",
"T. c #DCDDC9",
"R. c #C3DDD5",
"E. c #C8DFD6",
"W. c #CBDED2",
"Q. c #C4DDD8",
"!. c #D0DFD0",
"~. c #E2D6C0",
"^. c #E4DBC4",
"/. c #EBDDC5",
"(. c #E1DFC9",
"). c #ECDFC8",
"_. c #C3E3CE",
"`. c #CFE2C7",
"'. c #D5E2C4",
"]. c #DCE3C5",
"[. c #D4E3CE",
"{. c #DCE4CB",
"}. c #DCE8CF",
"|. c #C7E0D6",
" X c #C5E2D3",
".X c #C9E0D6",
"XX c #CAE1D6",
"oX c #CAE1D6",
"OX c #CDE2D6",
"+X c #CCE2D6",
"@X c #C9E9D6",
"#X c #CAE2D8",
"$X c #CDE3D9",
"%X c #C6E9D8",
"&X c #D3E5D6",
"*X c #D9E7D4",
"=X c #D7E8D6",
"-X c #DBEAD4",
";X c #D3E6D8",
":X c #D5E9DA",
">X c #DBECDA",
",X c #D8E7D8",
"<X c #DEF0D9",
"1X c #E4E3CB",
"2X c #ECE3CC",
"3X c #E5EBCE",
"4X c #EAEECF",
"5X c #E9EDC5",
"6X c #F1E4CD",
"7X c #F2E8CF",
"8X c #F9EEC0",
"9X c #FCF3C4",
"0X c #FFF9C7",
"qX c #FDF6C9",
"wX c #FFFCCC",
"eX c #E3ECD2",
"rX c #E9EED0",
"tX c #E3EEDA",
"yX c #E3E6D1",
"uX c #F3ECD4",
"iX c #F6EBD3",
"pX c #E7F1D6",
"aX c #ECF1D4",
"sX c #E4F1DB",
"dX c #ECF3DA",
"fX c #F6F1D7",
"gX c #F7F3D9",
"hX c #F9F5DB",
"jX c #FCF8DE",
"kX c #F8F1D7",
"lX c #DDF2E1",
"zX c #F7F8E6",
/* pixels */
"B.B.V.N.N.B.B.B.B.B.B.B.B.B.B.B.B.B.B.B.B.N.B.N.B.B.B.B.N.B.B.B.B.B.B.B.B.N.N.B.B.B.B.B.B.B.V.V.V.V.B.N.B.B.B.B.B.V.B.B.B.B.B.B.",
"V.B.B.B.B.B.B.B.B.B.B.B.B.B.B.B.B.B.B.B.B.B.B.B.B.B.V.B.B.B.V.B.B.B.V.B.N.V.V.B.B.B.V.V.B.V.V.V.V.V.B.B.B.B.B.B.B.B.B.B.V.V.B.B.",
"B.B.B.N.B.B.N.B.V.V.B.B.B.B.B.B.B.B.B.B.B.B.B.B.B.V.V.V.B.B.V.B.B.B.V.V.V.V.V.B.B.V.B.V.B.V.V.V.V.V.V.B.B.B.B.B.V.V.B.V.V.V.V.V.",
"B.B.B.B.N.E.eXR.B.V.B.B.R.V.B.B.B.B.B.B.B.B.B.V.V.V.B.V.V.V.V.V.B.B.V.V.V.V.V.V.V.V.V.V.V.B.B.V.V.V.V.V.V.V.B.B.B.V.V.V.V.B.V.V.",
"B.B.B.V.B.R.yXV.V.B.V.V.R.R.B.B.B.B.V.B.B.V.V.V.V.B.V.V.B.V.V.B.V.V.V.V.V.B.V.R.V.V.V.V.V.V.V.V.V.B.V.V.V.B.V.V.V.V.B.B.B.V.R.B.",
"B.B.B.B.B.B.B.B.V.V.V.V.B.B.V.V.V.V.V.V.V.V.V.V.V.V.V.B.V.V.V.V.R.V.B.V.V.V.V.R.V.V.V.V.V.V.V.B.V.V.B.B.B.V.V.V.V.V.V.V.B.R.R.B.",
"V.B.B.V.V.B.B.V.R.OXR.V.V.V.V.V.V.V.V.V.R.V.R.R.V.V.V.R.V.R.R.V.V.R.V.V.R.V.V.R.R.R.R.V.V.V.V.V.V.V.R.V.V.R.V.R.R.V.V.R.V.V.V.V.",
"V.V.B.V.V.R.OXR.R.R.R.R.V.R.R.R.R.R.R.R.R.R.R.V.V.V.V.R.R.V.R.R.V.V.R.R.R.R.R.R.R.R.R.R.V.V.R.R.R.R.R.R.R.R.R.R.R.R.R.V.V.R.V.V.",
"V.V.V.V.V.R.*XR.V.V.V.R.R.R.R.R.R.R.R.R.R.R.R.R.R.R.R.R.R.R.R.R.R.R.R.R.R.R.R.R.R.R.R.R.R.R.R.R.R.R.R.R.R.R.R.R.R.R.R.R.R.R.V.R.",
"V.V.R.R.R.V.V.V.V..X&XR.R.R.R.R.R.R.R.R.R.R.R.R.R.R.R.R.R.R.R.R.R.R.R.R.R.R.R.R.R.R.R.R.R.R.R.R.R.R..XR.R.R.R.R.R.R.R.R.R.R.R.V.",
"R.R.V.R.R.R.V.&X*X&XeXR.R.R.R.R.R.R.R.R.R.R.R.R.R.R.R..XR.R.R.E..XR.R.R.R..XE.R.R.R.R.R.R.R.R.R.R.R.R.R.R.R.R.R.R.R.R.R.R.R.R..X",
"rX.XR.V.R.R.V.&X*XR.R.R.R.R.R.R.R.R.R.R.R.R..XE.E.E.R..X$X#X$X$X$X$X#X.XR.R.R.R.R.R.R.R.R.R.R.R.R.R.R.R.R.R.R.R.R.R.R.R.R.#X|.*X",
"OXR.R.*X&XR.R.R.R.R.R.R.R.R.R.R.R.R.R.E.E.E..XE.E.OX;XR.H.G.v.} k.D.D.H.Q.#X.XE.R.E.R.R.R.R.R.R.R.R.R.R.R.R.R.R.R.R.R.#Xk.[ k.OX",
"R.R.V.yX*XR.R.R.R.R.R.R.R.R.R.R.R..XR..XE..XE.OX;XR.} 1.q.q.E ~ ~ / e.r.9.k.R.$X.X.XR..XR.R.R.R.R.R.R.|.-XOXR..X|.|..X.XR.v.[ } ",
"|.R.R.R.R.R.R.R.R.R.R.|.R..X.X.XE..X.X.X.X.X;XOX} ` ;.s.g.4.h.l...h.5.s.s.:.U k.E..XR..XR..X*X|.R..XyX$X*X.X.XOX.X.X.X.X.X$X$XR.",
".XR..XR.;XtXR.|..X|..XE..XOX.XR.E.OXOX#X.X;XJ.` ..i.f.a.p.X.l.l.l.l.O.p.a.s.5...] R.$XE..X.X.XE..X.XeX&XR..XOX.X.X.X.X.X.X.X.XOX",
".XR.|.|.&X>X.X.X.X.X.X.XOXE..X.X.X.X.X.X$Xv.U x.1.s.a.s.q.X.b.x.b.x.' u.s.a.s.o.x._ H.$X.X.X.X.X.X.XR.R.OXOX.X.XyX-XOX*XOXOX.X.X",
"R.R.|.R.|..X.X.X.X.X.X.X.XOXeX.X&XOX.X;XH.b x.X.r.f.a.f.8.b.J.J.J.J.z.5.9Xd.9X5.z.m.^ J.#X.X.X.X.X.XOXOXOXOXOX$XrXrX.XOXOXOXOXOX",
".X.XOXtXOX.X.X.X.X.X.X.X.X.XOX.X.X.XOXOXA E x.o.8X9X9X0X'.C._._._. XC.].0XqXqXd.o.m.n.( .XOX.X.X.XOXOXOXOXOX&X$X$X$X$XOX;X$XOXOX",
"$X#X;XdXOX.X.X$X.X.X.X.X.X.X.X.X.X.X$X>.m ~ x.y.f.r.;.=.8 n 7 0 0 0 n e -.;.i.9XG.C.C.>.3.$XOXOXOXOXOXOXOX&X$X$X;XOX$X$X$XOXOXOX",
"$X$X.XR..X.X.XOX;X.X$X.X.XOX.X.XOX$XJ.) Q Q m s h h =.y . _ n.M.M.n.M . J =.h H p _ m._.8.E.;XOX$XOXOXOXOX$X$X;X&XOX&X&XOXOX$XOX",
"$XOXOX.XOX.X.X.X;XOX.X.XOXOXOXOXOX$XF.f 5 3 . y 9X9Xd.@.2.x  X X Xn.n 4.L qX9X9X; * n Z 5.Y.$X$XOXOXOXOX&X:X&X;X&X&X;X&X&X&X&X;X",
"$X$XOXOX.XOX.X.X.XOXOXOXOXOXOX&XOX:Xd O v ' n l ;.wXj ;.[._ 7 @X_.8 z.'.$.=.wX-.) b n.M 1 ( :X$X$XOX&X$X&X;X&X$X&X&X:X&X&X&X;X&X",
".X.X.XOXOX.XOX.X.X.X.XOXOXOXOXOX;XOXo - j.b _ d.H ;.K 9X2.%Xm [ Z [ A.4.f.J ;.K 5Xm [ %X: , $X;X&X&X$X&X$X$X&X&X&X&X&X&X;X;X&X&X",
"$X.X.X.X$XOXOXOXOXOXOX.XOXOXOX&X:XW.g 8 c 9 ] i.a.o r.9X4.m.@X- 6 @Xm.4.wX@., 9Xy.' m U k @.OX;X&X&X&X&X&X&X$X&X&X;X&X&X&X&X;X&X",
"$X.X*X*X.XOX.X.X.X.XOXOXOXOX&X&X:XW.r / = 7 b.8.f.r j 9XG.A. .n 7 v.C.'.9Xy h 9X3.A.6 N 1.K ;X;X&X$X&X&X&X;X&X;X;X:X&X&X&X&X&XF.",
";X.X,X&X.X.XOXOX.XOXOXOX;X;X&X&X:XE.p ) v * z.y.$.=.;.L ].M.7 @Xm.7 m.].H r.@.q.`.z.- z.5.l OX&X&X&X&X&X&X&X;X;X;X;X&X&X*X:XF.rX",
"OX$X&XOX.X#X&XOXOX&X&X&XOX&X&X&X&X;Xd *.c 5 4 O.H i.9XH 1 - n Z ^ 7 > ; @.9Xr.@.o.0 4 ] i.C ;X&X;X;X&X&X;X$X;X:X:X:X:X:X:XOXT.jX",
"$X;XOX.X.XOX.X.XOX;X;X;X&X&X&X&X&X:X| w 3 v ' - , J i =.w 6 ` _ _ ] 3 y @.i J ; - C.B ^ H D.:X&X&X;X&X;X&X*X:X:X:X:X:X*X:XG.2XhX",
"-X-XOX.X*X,X.X.XOX&XOX&X;X&X&X:X&X:XOX+.: * 5 4 r p.d.0X;.] @X_._.%X[ i.0Xd.p.e 4 n > s -.OX:X;X&X;X:X:X;X:X:X:X>X:X:X>X:XF.rXhX",
";X:X;X;X*X*X&XOXOX;XOXOX&X:X:X*X:X*X:X3.w . ! x.f 0.a.d.e.Z C.J.m.C.A i.f.9Xw.m S.' . J T.;X&X&X:X*X:X:X:X:X:X:XOXK.G.W.>XG.rXhX",
"D..XJ.OX:X;X;X.X.XOXOXOX$X&X:X*X*X*X:XH.z g v Q N J a.a.w.A C.J.J.m.f a.d.9X+.Q Z.' =.K R.:X&X:X:X*X:X:X:X>X&XD.T.2X2XU.F.,.1XjX",
"1XY.1XG.K.G.D.R.$X;X;X;X;X&X&X*X&X&X&X:XG.+.< T W 8 0.u.p.f m.J.C.M.k g.f.p.V c.c.8 :.K.:X:X;X&XOX&X>X:X>X&XF.uXhXhXhXjX2XuXuXrX",
"iXkXhXkXiXkXkX1XK.K.OX&X&X&X&X;X:X:X&X&X:X2.t c R c J w.u.p ' b.x.Q l a.d.=.N c.M t 3.:XOXD.{.T.T.I.F.:X>XF.rXhXgXgXgXgXhXhXkX~.",
"^./.^.^.^.).1X2X1X(.P.P.P.3.yXI.{ | &X*X*X>XS 2 T Y 2 0.0.j v W Q v J u.0.8 ~ Q t S :XK.P.uXhXhXhXhXrXY.F.P.hXgXhXgXgXgXkXkXkXiX",
"G.G.K.K.K.H.H.H.E.W.K.W.K.Y.,X,XK.W.&X:X*X,X;Xd k Y = L u.#.5 R R 5 #.u.L c R k a :X*XF.hXhXgXhXgXgXhXkX4X1XgXgXhXkXiXiXiXiXiX6X",
";X>X>X;X:X;X;X;X&X;X;X;X*X:X*X,X;X:X&X,X,X*X>X} p / v : 0.$.3 T T 3 %.&.2 Y ) p  .lXK.1XhXgXhXhXgXhXhXhXhXhXgXhXgXiXiXgXgXgXgXiX",
"&X,X-X&X&X*X*X&X&X&X&X&X*X*X&X*X&X:X,X*X*X*X,X*XA <.f = j u.8 T T 8 u.z = I 1.G :XOXP.gXgXhXhXgXgX4XuXgXhXfXgXgXiXiXkXhXhXhXgX6X",
"&X*X:X:X&X*X*X,X*X&X&X*X*X:X*X*X:X-X:X*X*X,X*X>X| D.9.3 < %.t = = t %.< q *.| A K.P.kXhXgXgXkXiX~.t.t.^.2X~.6X6X6X6XuXiXiXuX6X2X",
"*X&X:X*X-X-X*X,X*X*X*X*X*X:X*X*X*X,X>X*X*X-X,X>X&XS lX<.X 2 J A A L 2 X 8.zX*.^.uXhXgXuX7X7X7X6X6X7X6X6X6X6X6X6X6X6X6X6X6X2X6X6X",
",X*X*X:X-X-X,X*X*X,X,X*X*X*X,X*X*X,X-X,X,X,X-X-X[.C ,.Y.e ^ s.L.4.s.^ d iXU.D 2X~.~.~.t.7.t.7.7.~.~.~././.).).2X).)././.6X6X)./.",
",X,X:X:X,X-X-X*X,X-X,X,X,X,X,X,X*X-X,X,X,X,X-X-XK.,.d [.F.- 2 p s 2 : G.*XC D.&XK.K.K.G.Y.Y.K.K.G.G.G.G.G.I.F.F.G.F.F.G.-XeXT.F.",
",X,X,X-X,X-X-X-X-X,X-X,X,X,X,X,X,X-X,X-X,X-X,X,X-XsX{ K.>XV V u u x C >X&X{ >X-X>X>X>X>X>X>X>X>X>X>X>X>X>X>X>X>X>X>X>X>X>X-X>X>X",
"-X-X-X-X-X-X-X-X-X*X*X,X-X-X-X-X-X-X-X-X-X-X,X,X-X>XY.S -X{ &Xa e [.,.-X{ F.>X*X-X-X-X-X-X-X-X-X-X-X-X-X-X-X-X-X-X-X-X-X-X-X-X-X",
"-X-X-X-X-X-X-X-X-X-X-X-X,X-X-X-X-X-X-X-X*X*X-X-X-X*X>XS G.,.G.{ { G.D.[.S >X*X*X-X-X-X-X-X-X-X-X-X-XtX-X-X-X-X-X>X-X-X-XtXeX-X-X",
"-X-X-X-X-X-X-X-X-X-X-X-X-X*X*X*X-X-X-X-X*X*X*X*X&X-X>XY.S ( ( >.>.S ( S F.<X*X*X-X-X-X-X-X-X-X-X-X-X-X-X-X-X-X-X-X-X-X-XaXfX-X-X",
"-X-X-X-X-X-X-X-X-X*X-X-X-X*X*X-X-X*X*X*X*X*X-X*XOX-X*X>Xo   + + O @ + O [.>X-X-X-X-X*X-X-X-X-X-X-X-XtXsX-X-X-X-X-X-X-X>X>XtX-X>X",
">X-X-X-X-X-X-X-X-X-X-X*X-X*X-X*X*X*X-X-X-X-X-X*X-X-X>XY.: s & u k P u 1 ,.tX-X-X-X-X-X*X*X-X-X-X-X-X>XtX-X-X-X-XeXtX>XtX>X-XtXeX",
"eXtX>X>X>X-X-X-X-X-X-X-X-X-X-X-X-X*X-XyX-X-X-XyX-X-XtXG.: w & P h P % e >.tX-X-X-X-X-X-X-X-X-X-X-X-X-X-X-XtXzX-XtXtXtXtXtXtXaXfX",
"tX[.I.I.[.>X-XtXtX-X-X-X-X-X*X-XeXeX-X-X-X-X-XyXyX-X-XpX>.  + # $ # # h sXyX-XyX-X-XeXtXeX-X-X-X-X-X-X-X-XtXdX-XeXdXaXdXtXeXaXaX",
"Y.U.gXhXU.I.U.I.{.tX-XyXyX-X-X-XeX-XOX-X-X-X&X-XyXyXeXeX-X1.( ( ( ( <.}.eXyXeXyXyXeXeXeX-X-XyX-X-X-XtX-X-XtXeXtXtXtXeXeXeXeXeXeX",
"(.uXjXhXhXgXhXgXU.Y.eX-X}.yXeXyXeX-X-X-XeXyXyXyXdXdXeXeXeXpXpXdXdXdXaXeXeXeXeXeXeXeXeXyXyXeX-X-X-XeXeXeXeXeXeXeXtXeXeXeXeXeXeXeX",
"jXhXgXhXhXhXhXhXjX(.I.I.U.I.T.tXyXtXyX}.[.}.pXeXeXeXeX-XyX3X3XeXeXeXeXeXeXeXeXeXeXeXeXyXeXeXeXyXyXeXeXeXeXeXeXeXeXeXyXeXeXeXeXeX",
"hXhXhXhXhXhXhXhXhXhX1XuXhXhX(.{.pXI.6.U.U.U.I.{.eXeXeXyXeXeXeXeXeXeXrXeXeXeXeXeXeXeXeXeXeXeXeXeXeXeXeXeXeXeXeXeXeXeXeXeXeXeXeXyX",
"hXhXhXhXhXhXhXhXhXhXhXgXuXgXhX6.3.1XhXhXhXhXkXU.{.rXeXeXeXeXeXeXrXeXeXeXeXeXeXeXeXeXeXeXeXeXeXeXeXeXeXeXeXpXeX3XeX3X{.{.{.{.U.1X",
"hXhXhXhXhXhXhXhXhXhXhXiX2X6XkX2X~.kXhXhXhXhXhXhXU.eXrXrXeXeXeXeXeXeXrXaXrXeXeXeXeXeXeXeXeXeXeXeXeXeXeXeX3.<.<.3.6.6.1X(.U.(.(.(.",
"hXhXhXhXhXhXhXhXhXhXgXiX6X~.~.6X6X7XhXhXhXhXgXhXU.1XdXeXeXeXeXeXeXrXrXaXrXeXrXeXeXeXeXeXeXeXeXeXeXeXeXeX3X3X3X3X1X1X3X3X{.{.{.{.",
"gXhXhXhXhXhXhXhXhXgXgXkXiX)./.7.).6X6XgXhXhXgXhX2X6.{.rXeXeXeXrXrX4XrXrXrXrXrXeXrXrXeXrXeXeXeX3XeXeXeXeXrXrXrXrXrXrX3XeXrXeXaXaX",
"gXgXhXhXhXhXhXhXhXhXgXgXuX6X7X2X7.6X).t.iXhXkXkXhXhXU.3XaXaX3XrXrXrX4X4XrXrXrXrXrXrXrXrXrXrXrXaX4XrXrXrX3X3XrXrX4X3X3X3X3X3XrXrX",
"iXgXgXhXhXhXhXhXhXhXhXgX7X2X).7X7.2X7.~.).kXhXhXhXhX2X].aXeXrXrXrXrXrXrXrX4X4XrX4X4XrXrXrXrXaXfX4XrXrXrXrXrXrX4X4XrX3XrXdXaXaXrX",
"6X7XiXgXhXhXhXhXhXhXhXhXgXgX1X^./.2Xt.~.6X6XiXhXgXhX2X].rXrXaXrX4X4X4XrXrX4X4X4X4X4X4X4X4X4XrXrX4X4X4XrXrXrXrXrXaXrX4XdXzXgX4XrX",
"6X6X6XiXgXhXgXgXhXhXhXhXhXhXhX2X^.6X2X/.).2X6XhXgXjXU.{.aXaXrX4X4XrXrX4X4X4X4X4X4X4X4X4X4X4X4X4X4X4XrXrXrX4XrXaXaX4X4XrXdXrXrXhX",
"6X6X6X6X6XiXiXgXhXgXhXhXhXhXgXhX~.).2X6X/.2X6XiXhXuXI.rXdXrX3X4X4X4X4XrX4X4X4X4X4X4XrX4X4X4X4X4X4X4X4X4X4X4X4X4X4X4X4X4X4X4XrXaX",
"6X6X6X6X6X6XiXiXgXhXgXhXhXgXgXhX^./.6X2X6X2X2XiXjX(.3.4X4XrXrXrX4X4X4X4X4X4X4X4X4X4X4X4X4X4X4X4X4X4X4X4X4X4X4X4X4X4X4X4XrX4XaXaX"
};
