/* XPM */
static char *cdea80f199a445cc82356dc05c2c9decr8OcsCc1wGqrIEqs[] = {
/* columns rows colors chars-per-pixel */
"64 64 129 2 ",
"   c None",
".  c #3E1D12",
"X  c #452214",
"o  c #4A2413",
"O  c #4C2A16",
"+  c #532614",
"@  c #5B2513",
"#  c #532B16",
"$  c #5C2C15",
"%  c #532F19",
"&  c #5D2F18",
"*  c #5C3016",
"=  c #563018",
"-  c #5D3419",
";  c #642512",
":  c #6D2713",
">  c #622D14",
",  c #6C2A12",
"<  c #712711",
"1  c #732C13",
"2  c #7B2B12",
"3  c #643314",
"4  c #6A3515",
"5  c #6D3916",
"6  c #633519",
"7  c #633A1C",
"8  c #6C3B1A",
"9  c #743716",
"0  c #7A3215",
"q  c #733C16",
"w  c #793D16",
"e  c #723D19",
"r  c #7B3E18",
"t  c #673F22",
"y  c #6D411F",
"u  c #7C4117",
"i  c #75411B",
"p  c #7C431A",
"a  c #6F4320",
"s  c #724622",
"d  c #754824",
"f  c #7D4A22",
"g  c #7F5128",
"h  c #83290F",
"j  c #992E0F",
"k  c #832C11",
"l  c #8B2D11",
"z  c #942F12",
"x  c #843314",
"c  c #8D3313",
"v  c #8D3916",
"b  c #953412",
"n  c #9C3312",
"m  c #943B16",
"M  c #9D3A14",
"N  c #A33411",
"B  c #AA3611",
"V  c #A53B14",
"C  c #AD3913",
"Z  c #AD3812",
"A  c #AD3A12",
"S  c #AD3A13",
"D  c #AF3811",
"F  c #AB3C13",
"G  c #AD3D13",
"H  c #AE3C13",
"J  c #AA3D14",
"K  c #AA3A13",
"L  c #B13711",
"P  c #B03711",
"I  c #B13B13",
"U  c #B63811",
"Y  c #B33D13",
"T  c #B03E13",
"R  c #B63D13",
"E  c #B93C12",
"W  c #BA3E13",
"Q  c #804317",
"!  c #824417",
"~  c #834319",
"^  c #82411A",
"/  c #81431A",
"(  c #814518",
")  c #824518",
"_  c #83441A",
"`  c #81471B",
"'  c #83471A",
"]  c #864719",
"[  c #85441B",
"{  c #86441B",
"}  c #81461C",
"|  c #82471C",
" . c #85451C",
".. c #83461A",
"X. c #89461A",
"o. c #83481B",
"O. c #864819",
"+. c #874819",
"@. c #87491A",
"#. c #83481C",
"$. c #83481D",
"%. c #84481C",
"&. c #85491C",
"*. c #84491D",
"=. c #86491C",
"-. c #864A1D",
";. c #85481A",
":. c #884919",
">. c #8A491A",
",. c #8B491B",
"<. c #884A1A",
"1. c #884B1B",
"2. c #8A4A1A",
"3. c #8B4A1A",
"4. c #8A4B1B",
"5. c #8B4C1B",
"6. c #8C4C1B",
"7. c #88481C",
"8. c #8D4B1C",
"9. c #8A4A1A",
"0. c #A84115",
"q. c #B34014",
"w. c #B24114",
"e. c #B04215",
"r. c #B74014",
"t. c #815127",
"y. c #8C5324",
"u. c #855529",
"i. c #85562B",
/* pixels */
"                                                                                                                                ",
"                                                                                                                                ",
"                                                                                                                                ",
"                                                                                                                                ",
"                                                                                                                                ",
"                                                                                                                                ",
"                                                                                                                                ",
"                                                                                                                                ",
"                                                                                                                                ",
"                                                                                                                                ",
"                                                                                                                                ",
"                                                                                                                                ",
"                                                                                                                                ",
"                                                                          8                                                     ",
"                                                                    * r ^ ( ^ 8 i.t                                             ",
"                                                                      3 3 > $ - t.i.                                            ",
"                                                                                % g s                                           ",
"                                                                                - d d                                           ",
"                                      i e                                     i y.f 7                                           ",
"                                    q X.,.8.7. .[ [ ^ 6                       f f                                               ",
"                                    4 9 w w w 9 4 4 3                         8 i                                               ",
"                                      3 4 4 > $                               o $ #                                             ",
"                                            - i                               ; x b                                             ",
"                                            - f %                   x m M V F S L R x                                           ",
"                                              4 0       0 v M V J G S B N z l < l W M                                           ",
"                                              c r.M V K S K N n l 2 1         0 T U G                                           ",
"                                              b W B l k 2                     q.n h b @                                         ",
"                        e p o.%.%.} i       0 M n M                         0.S : o > + # i #.%.%.%.i                           ",
"                    i %.+.p q q q u +.6.} $ M 1 1 K 1                     M I 2     , c 4 [ Q u w p +.,.( 8                     ",
"                  #.+.q 3 3 3 4 4 3 3 4 q c x     N c                   m T l     e 1 S , 3 3 3 3 3 3 4 u 5.p                   ",
"                ,.( 3 3 e 8 6 * 6 5 q 3 , b 9 i   l V                 v q.z     p ,.> j k 3 8 6 6 8 q 5 3 5 ,.p                 ",
"              ( ( 3 q 8               @ n , 4 ,.8 : S 0             0 q.n     p ,.4 3 2 n               e 4 3 ,.p               ",
"            i +.3 q *                 c k 3 3 q ( # n b             J N 1     6.5 4 8 @ N 2               6 4 4 ,.e             ",
"            +.q 5 5                 2 n     q 3 ! 3 2 N           M Z 2      .u 3 e     l n                 e 3 q (             ",
"          e [ 3 e                 ; n 1     3 4 4 u @ B 2       c L k       ,.4 q       ; N 2                 e 3 [ e           ",
"          p u 4 8                 b k         4 $ q o k , O   2 Z l       e [ 4 e         l M +               e 3 ^ p           ",
"          ( 5 5             O $ 2 l X         # # 3 o - y s 7 , l         p u 4 8           n k # X           5 5 w (           ",
"          +.5 e             6 1 B < @ @       * * 4 7 y 6 - y 7 X         p q 5 *           ; N 1 &           - 5 q (           ",
"          ( 5 e             6 , k l b b b b c x k , 8 7 # # - y %         p q 5 6           o , , $           * 5 q p           ",
"          p q q             X # o .       , , 1 2 , 7 7 O 7 # 7 #         e u 5 e           X + # X           5 5 q p           ",
"          e u 5 8                             e 3 4 - 8 - = 7 #           8 u 4 p                             i 4 u e           ",
"          6 u 4 p                           5 5 q q O - 7 7 # 7 O           u 5 p                             p 4 ^             ",
"            q u 5 e                         p 3 w 4           # * # 6       q u 5 p                         i 4 u q             ",
"            3 p 5 e 5                     e 4 q q             $ 5 e 8         u q q 8                     8 e q u 6             ",
"              4 p 5 q i               5 i 4 5 q 3                             8 p 5 q p                 i q 4 p 5               ",
"                4 u q 3 e i e 6 5 e e 5 3 q q 3                                 4 u q 4 i p e 6 6 e i i 4 5 u 5                 ",
"                  3 w u q 5 5 5 5 5 5 q u q 3                                     3 w u 5 4 e i e 5 4 4 q w 4                   ",
"                      4 q u u u u u u q 3                                             4 q u p u u u u w 5 3                     ",
"                          * 3 3 3 3 *                                                     3 4 5 5 4 3                           ",
"                                                                                                                                ",
"                                                                                                                                ",
"                                                                                                                                ",
"                                                                                                                                ",
"                                                                                                                                ",
"                                                                                                                                ",
"                                                                                                                                ",
"                                                                                                                                ",
"                                                                                                                                ",
"                                                                                                                                ",
"                                                                                                                                ",
"                                                                                                                                ",
"                                                                                                                                ",
"                                                                                                                                ",
"                                                                                                                                "
};
