/* XPM */
static char *aba8936071494955d5b71ac91ee18799h3sEoqLLYTHMVl6D[] = {
/* columns rows colors chars-per-pixel */
"64 64 249 2 ",
"   c #5B3A27",
".  c #78553C",
"X  c #6E4A32",
"o  c #597737",
"O  c #657A3A",
"+  c #756B37",
"@  c #7A5941",
"#  c #627C47",
"$  c #697954",
"%  c #756E4B",
"&  c #797873",
"*  c #945335",
"=  c #B64F32",
"-  c #BA5735",
";  c #A85032",
":  c #8B683A",
">  c #B5663B",
",  c #C55C39",
"<  c #CA5E39",
"1  c #C55A36",
"2  c #D15D36",
"3  c #CC633B",
"4  c #CA673B",
"5  c #D2643B",
"6  c #D4693E",
"7  c #D7683B",
"8  c #D3723E",
"9  c #E5743D",
"0  c #9B7755",
"q  c #8F6A4B",
"w  c #A37858",
"e  c #AE6F4D",
"r  c #8F796D",
"t  c #936B54",
"y  c #DB6E41",
"u  c #DC7442",
"i  c #D87847",
"p  c #C5744E",
"a  c #E47A45",
"s  c #F37D45",
"d  c #C67F62",
"f  c #6A873A",
"g  c #78883E",
"h  c #7C913B",
"j  c #668443",
"k  c #6B8948",
"l  c #788B48",
"z  c #7B944D",
"x  c #77964B",
"c  c #6C8855",
"v  c #798D54",
"b  c #778B58",
"n  c #779456",
"m  c #788B67",
"M  c #799567",
"N  c #7B857A",
"B  c #7A9474",
"V  c #6F945F",
"C  c #84973E",
"Z  c #859949",
"A  c #879958",
"S  c #8C9351",
"D  c #A8835D",
"F  c #B08554",
"G  c #87A24E",
"H  c #93A94D",
"J  c #8BA553",
"K  c #95A957",
"L  c #9BB357",
"P  c #9CB24C",
"I  c #A2B55B",
"U  c #A4B95C",
"Y  c #A7BC59",
"T  c #ACBB59",
"R  c #859966",
"E  c #869877",
"W  c #959273",
"Q  c #AB8A65",
"!  c #B58B64",
"~  c #BA976C",
"^  c #B09477",
"/  c #96A767",
"(  c #9DB163",
")  c #8CA677",
"_  c #97A976",
"`  c #9BB178",
"'  c #8DA668",
"]  c #A5B866",
"[  c #A6B877",
"{  c #ACAF72",
"}  c #D88855",
"|  c #C98854",
" . c #ED894C",
".. c #EC8449",
"X. c #F28C4C",
"o. c #F28647",
"O. c #F4924D",
"+. c #EB8C52",
"@. c #EC9353",
"#. c #EA9758",
"$. c #F39553",
"%. c #F49A56",
"&. c #F49D5A",
"*. c #F99B56",
"=. c #F18F52",
"-. c #F5A25C",
";. c #FCA55C",
":. c #C79C6E",
">. c #EF9D62",
",. c #D0A376",
"<. c #F5A966",
"1. c #F7B16D",
"2. c #F7B976",
"3. c #EEAF71",
"4. c #AAC15C",
"5. c #B3C65D",
"6. c #AEC663",
"7. c #B2C562",
"8. c #B8CA66",
"9. c #BFD16A",
"0. c #B1C179",
"q. c #C4D56A",
"w. c #C8DA72",
"e. c #FBC37D",
"r. c #7B8987",
"t. c #7B9590",
"y. c #859A87",
"u. c #989488",
"i. c #899896",
"p. c #8D9390",
"a. c #A59A85",
"s. c #8AA486",
"d. c #98AB88",
"f. c #98B389",
"g. c #97A997",
"h. c #99B597",
"j. c #89A697",
"k. c #AAB989",
"l. c #B3B985",
"z. c #A4A897",
"x. c #A7B996",
"c. c #B9B598",
"v. c #B1A68A",
"b. c #8F9CA5",
"n. c #97A9A9",
"m. c #95B4AC",
"M. c #99ACB4",
"N. c #99B7B5",
"B. c #8CACAA",
"V. c #A8B9A8",
"C. c #B8B9A9",
"Z. c #A5B9B5",
"A. c #B7BDB2",
"S. c #A7ADA5",
"D. c #C9AA86",
"F. c #D4AC82",
"G. c #CAB88C",
"H. c #D6B58B",
"J. c #C9B897",
"K. c #D6B996",
"L. c #E3BD96",
"P. c #C2BAA2",
"I. c #B6C689",
"U. c #ACC79D",
"Y. c #B6CA98",
"T. c #B5CB94",
"R. c #ACC5A9",
"E. c #B7CAA7",
"W. c #B8D4A8",
"Q. c #A8C6B6",
"!. c #B8C8B6",
"~. c #B8D3B9",
"^. c #ABD1B1",
"/. c #CEC99B",
"(. c #F5CA8C",
"). c #C8C8A9",
"_. c #D9C8A5",
"`. c #C6D8A9",
"'. c #C7C7B8",
"]. c #C7D9B8",
"[. c #D4DAB7",
"{. c #D6D2B0",
"}. c #E4C7AA",
"|. c #E6D6B8",
" X c #E4CDB4",
".X c #CCE3B8",
"XX c #D5E5BB",
"oX c #D7E2AB",
"OX c #EAE6BD",
"+X c #A4BEC0",
"@X c #9FC4C5",
"#X c #A8C8C5",
"$X c #BACCCA",
"%X c #B8D6C7",
"&X c #ABD6D7",
"*X c #B8DAD9",
"=X c #ACCECE",
"-X c #BCE3D3",
";X c #B9DEE0",
":X c #AFDEE4",
">X c #BAE3E6",
",X c #D3CCC3",
"<X c #C7DAC8",
"1X c #D8D7CB",
"2X c #C4DEDB",
"3X c #C9DAD5",
"4X c #DAD9D7",
"5X c #C9CEC8",
"6X c #E1DEDB",
"7X c #EBDCC7",
"8X c #CBE2C8",
"9X c #DAECC3",
"0X c #D7E8C9",
"qX c #CBE3D7",
"wX c #D8EAD7",
"eX c #DDF0D3",
"rX c #E5E9CB",
"tX c #F2E5CA",
"yX c #E7E9D8",
"uX c #F2EAD7",
"iX c #E7F2DC",
"pX c #F0F1D4",
"aX c #C1DEE2",
"sX c #E2DFE2",
"dX c #C3E2E3",
"fX c #CCE4E4",
"gX c #C9E9E9",
"hX c #D4ECEB",
"jX c #DBEDEB",
"kX c #D8ECE4",
"lX c #DCF0EA",
"zX c #DEF1F2",
"xX c #D2EFF1",
"cX c #E7EAE7",
"vX c #E3F1ED",
"bX c #E8F3E4",
"nX c #F3F4EC",
"mX c #F5F7E9",
"MX c #E3F3F3",
"NX c #EAF5F5",
"BX c #ECF7F7",
"VX c #F4F9F4",
"CX c #FAFAF4",
"ZX c #F5FAFA",
"AX c #FEFEFE",
"SX c #FDFEFE",
"DX c #FEFEFE",
"FX c #F4F6F4",
"GX c #F3ECE2",
/* pixels */
"AXAXAXAXAXAXAXAXAXAXAXAXAXAXAXAXAXAXAXAXAXAXAXAXAXAXAXAXAXAXAXAXAXAXAXAXAXAXAXAXAXAXAXAXAXAXAXAXAXAXAXAXAXAXAXAXAXAXAXAXAXAXAXAX",
"AXAXAXAXAXAXAXAXAXAXAXAXAXAXAXAXAXAXAXAXAXAXAXAXAXAXAXAXAXAXAXAXAXAXAXAXAXAXAXAXAXAXAXAXAXAXAXAXAXAXAXAXAXAXAXAXAXAXAXAXAXAXAXAX",
"AXAXAXAXAXAXAXAXAXAXAXAXAXAXAXAXAXAXAXAXAXAXAXAXAXAXAXAXAXAXAXAXAXAXAXAXAXAXAXAXAXAXAXAXAXAXAXAXAXAXAXAXAXAXAXAXAXAXAXAXAXAXAXAX",
"AXAXAXAXAXAXAXAXAXAXAXAXAXAXAXAXAXAXAXAXAXAXAXAXAXAXAXAXAXAXAXAXCXCXAXAXAXAXAXAXAXAXAXAXAXAXAXAXAXAXAXAXAXAXAXAXAXAXAXAXAXAXAXAX",
"AXAXAXAXAXAXAXAXAXAXAXAXAXAXAXAXAXAXAXAXAXAXAXAXAXAXAXAXAXAXAXAXtXpXAXAXAXAXAXAXAXAXZXAXAXAXAXAXAXAXAXAXAXAXAXAXAXAXAXAXAXAXAXAX",
"AXAXAXAXAXAXAXAXAXAXAXAXAXAXAXAXAXAXAXAXAXAXAXAXAXAXAXAXAXAXAXAXCXSXAXAXAXcXAX].k./.{ 1XCXAXAXBXAXAXAXAXAXAXAXAXAXAXAXAXAXAXAXAX",
"AXAXAXAXAXAXAXAXAXAXAXAXAXAXAXAXAXAXAXAXAXAXAXAXAXAXAXxXxXAXAXAXSXAXAXZXE.l.'.5.T 9.8.P ).AXZXgXZXAXAXAXAXAXAXAXAXAXAXAXAXAXAXAX",
"AXAXAXAXAXAXAXAXAXAXAXAXAXAXAXAXAXAXAXAXAXAXAXAXAXAXAXNXMXAXAXbX[ ZXAX[.T ( ] 4.6.P [ ].SXAXAXAXAXAXAXAXAXAXAXAXAXAXAXAXAXAXAXAX",
"AXAXAXAXAXAXAXAXAXAXAXAXAXAXAXAXAXAXAXAXAXAXAXAXAXAXCXAXAXAX1Xl.4.'.AX/.q.K H 4.5.C 5XAXCXSXAXAXAXAXAXAXAXAXAXAXAXAXAXAXAXAXAXAX",
"AXAXAXAXAXAXAXAXAXAXAXAXAXAXAXAXAXAXAXAXAXAXAXAXAXVX`.VXZXZXY.5.6.K 1Xl.5.G 4.H A wXZXAXbXVXAXAXAXAXAXAXAXAXAXAXAXAXAXAXAXAXAXAX",
"AXAXAXAXAXAXAXAXAXAXAXAXAXAXAXAXAXAXAXAXAXZXZXAXFXFXvXNXjXk.[ w.5.I.V.H J G J R g.).E.3XwXNXNXZXZXAXAXAXAXAXAXAXAXAXAXAXAXAXAXAX",
"AXAXAXAXAXAXAXAXAXAXAXAXAXAXAXAXZXZXNXhXhXhXMXvXkXMXvXMX3XT I U 4._ d.J x n s.x.] q.9.5.k.MXMXNXBXZXZXZXBXZXAXAXAXAXAXAXAXAXAXAX",
"AXAXAXAXAXAXAXAXAXAXAXAXAXAXAXZXBXNXiXhXhXgXhXjXvXlXjXlXjXI.5.I K z R k j f.Z H w.8.U k.hXMXMXMXNXMXMXNXMXZXAXAXAXAXAXAXAXAXAXAX",
"AXAXAXAXAXAXAXAXAXAXAXAXAXAXAXVXNXiXvXjXgXgXjXzXjXzXjXkXlXR.K L J ' n j h.A H L H C E gXkXjXjXzXMXhXZXAXzXZXAXAXAXAXAXAXAXAXAXAX",
"AXAXAXAXAXAXAXAXAXAXAXAXZXZXZXBXMXiXzXhXgXfXqX!.E.!.<XbX].K K z k x.n h.M f f c s.s.Q.gXOXwXgX>XMXjXjXVXMXAXAXAXAXAXAXAXAXAXAXAX",
"AXAXAXAXAXAXAXAXAXAXAXAXjXgXnXvXwXyXzXjXzXqX[ 0.8.I I.qX~.( P z # _ R n o B B.#X>X>XdXdXfXfXfXdXfXfXhXgXMXAXAXAXAXAXAXAXAXAXAXAX",
"AXAXAXAXAXAXAXAXAXSXmXVXbXiX0X0XqX0XwXqXqXkXU.4.8.q.] U.[ !.) x o z f M N.N.s.m.:X*X*X*X^.*XdX*XdXdXdXdXjXSXAXAXAXAXAXAXAXAXAXAX",
"AXAXAXAXAXAXAXAXAXAXVXiXrXeX8X8X0X8X-X-X8XwXU.H 6.I I ( U E.wXf.O G f.N.M G h A f.&X&X*X%X*X>X*X;X>X>XfXhXBXAXAXAXAXAXAXAXAXAXAX",
"AXAXAXAXAXAXAXAXAXSXmXyX0X9X9X0X8X.X.X.X.X.X8XE./ L L I L d.<X!.Z / >Xb f J z Z h.&X&X*X*X;X>X;X*X;XdXdXfXvXAXAXAXAXAXAXAXAXAXAX",
"AXAXAXAXAXAXAXAXAXVX>X0XXX9XE.I.[ `..XoX].`.`.` L ( G G J c R.~.H x.t.O k j c m.&X&X&X=X&X*X3XqX8X2XdXdXfXvXAXAXAXAXAXAXAXAXAXAX",
"AXAXAXAXAXAXAXAXSXmXwX9X9X.X] T ] W.`.oX`.W.W.U.) j j j x M %XQ.Z V.j o k g k s.#X=X=X&X=X*X3X2X2XqXaXdXfXBXAXAXAXAXAXAXAXAXAXAX",
"AXAXAXAXAXAXAXAXCXmXrXXXXXY.q.8.A ( W.`.`.`.`.`.R.) n k f B %XR.A h.j o j B ) J ' _ s.=X&X*XaX2XqXqX*X%XhXvXvXZXAXAXAXAXAXAXAXAX",
"AXAXAXAXAXAXAXCXmXmX9X9X`.J 7.7.Y / `.W.W.`.`.W.W.W.R.R.s.A Q.h./ h.o s.+Xg.L L I 9.q.` =X2X2XdXwXqXfXhXjXcXiXzXVXAXAXAXAXAXAXAX",
"AXAXAXAXAXAXCXmXmXiX9X9XI.8.L 4.z f.T.Y.W.`.^.^.R.E.Q.Q.Q.A h.` / m d.#X_ Z H U 8.U ] f.*XqX2X8X8XqXqXhXjXjXzXzXMXAXAXAXAXAXAXAX",
"AXAXAXAXAXAXCXmXiXI.`.XXT.8.P J k v K Y.W.E.`.!.!.!.Z.Q.Z._ ) _ O $ S.A v c z J R J y.=X*X%X].<X<X8X8XqXhXjXjXjXMXAXAXAXAXAXAXAX",
"AXAXAXAXAXAXCXmX).8.K T.`.K K k z 5.J T.W.Q.Z.R.!.Z.Z.#XZ.g.A A O $ J m M.M.B l E Z.#X#X%X[.].#X%X8X8XqXhXjXjXzXMXZXAXAXAXAXAXAX",
"AXAXAXAXAXAXbXeXY.9.5.0.I.I G k L 4.J Y.~.Q.Z.Z.Z.Z.Z.S.Z.n.J Z O Z b M.M.n.Z.n.n.=X#X~.].Q.Q.=X%X8XqXE.[ 3XjX2X3XBXAXAXAXAXAXAX",
"AXAXAXAXAXVXiX].( ] 8.H R 6.z k I J Z x.'.S.z.g.M.!.{.M.Z.n.( l g l i.M.S.V.M.+X#X!.~.~.Q.Q.Q.Q.~.%Xx.q.[ V.[ 0./ x.cXAXAXAXAXAX",
"AXAXAXAXVXlXbX8X] q.U H K z z # z G v z.) / I R M.Z.A.N.M.b.A Z h $ M.M.M.n.n.A.A.#XN.Q.Q.#Xf.` =XR 7.8.A I 5.w.9.K 1XAXAXAXAXAX",
"AXAXAXSXgXkXyXeX].k.( Z K n n k z x B / H q.Y A n.N.N.z.~ } > : + * e w p.n.n.@X#Xn./ ` ) N._ T B ] q.U H 4.7.P A <XSXAXAXAXAXAX",
"AXAXAXSXvXkXOXrXqXk.K I z x R k k M m L 7.7.v s.N.N.a.#.2.2.1.$.=.o.u 5 4 Q B.@XN.j.I 7.L g.' 7.z K U K L J l _ x.wXVXAXAXAXAXAX",
"AXAXAXZXvXlXrXrX<XJ 4.L G f n R n s.f I L K k y.N.g.} %.2.(.2.-.&.$...3 2 7 u.B.n.j.A 7.7.E n L K z x n n c g.lXkXwXVXAXAXAXAXAX",
"AXAXAXAXVXlXwXwXqXQ.R d.B ) n v R j.x J z x c B.B.Q X.@.@.%.%.%.%.X.a < 1 2 d B.m.j.M K I A M z R c m c c ` ` !.wXwXVXAXAXAXAXAX",
"AXAXAXAXZXlXlXR.[ k.( ` A f.Q.O b m.k k j j M m.B.} -.2.2.<.&.&.%.$. .6 5 5 i i.m.i.Z Z G / y.# # $ k z Z 7.9.( E.eXbXAXAXAXAXAX",
"AXAXAXAXNXMXqX[ 7.9.I H G G N.h.Z B.B j B j.B.B.j.} ..#.+.+.%.&.%.$.X.u < 1 a u.B.n.N z x E i.O # j k L 6.U L ' [.eXrXmXAXAXAXAX",
"AXAXAXAXMXNX!.L 9.] 4.J z f B =XA E y.b M.m.n.i.W @.<.(.<.%.&.&.&.$.O.a 5 < u u.B.i.b.y.v n.E j # M R c x n x.E.eX0XrXVXAXAXAXAX",
"AXAXAXAXBXMXjXx.x.A n k j B R s.g.A m E b.i.z.i.r @.2.(.1.&.-.&.%.O.o.7 3 3 u W n.C.p.p.b i.A B S.V.x.R c d.`.yXeXqXeXCXAXAXAXAX",
"AXAXAXAXZXMXvXzXV.) g.k t.=XM.R R S g m b.t.t.t.r @.1.(.2.-.-.&.&.%.o.8 6 6 i & p.C.p.r.b R R n.g.E z K K 7.K E.eXeXiXAXAXAXAXAX",
"AXAXAXAXAXZXMXfX2XaX#Xm.#X#XM.n.R H g $ r 0 0 N r.@.<.3.>.&.-.&.%.$.o.6 , 3 p N i.r.p.N Z S y.E v x n Z 4.T w.T k.iXiXAXAXAXAXAX",
"AXAXAXAXAXAXFXfX3X3X#X#XZ.!.Z.M.i.K l + - 3 2 4 t | =.+.a  .%.&.$.O. .y < 3 e t.t.r.t.N Z S A v y.m o $ A Z / K E.iXVXAXAXAXAXAX",
"AXAXAXAXAXZXcX3X3X$X[.Q.Z.Z.N.B.a.e : |  .u 3 1 - p *.<.+...@.&.$.O.o.7 3 7 0 & w w r A S l m i.z.S.E z.C.z.'.,X0XnXAXAXAXAXAXAX",
"AXAXAXAXAXnXsX4X5X$X'.!.Z.m.m.W #.1.<.*.$.O.7 3 < 8 &.3.<.&.&.%.$.X.a 6 3 6 e - 9 ;.#.F + % r.p.g.z.C.A.'.|.1X4XyXAXAXAXAXAXAXAX",
"AXAXAXAXZXcX4X4X3X$X!.'.A.V.g.>.e.e.<.%.$.O.o.3 = 4 ;.(.2.-.-.&.$.X.a 6 3 4 - a 3.<.2.<.8 > w p.z.c.S.C.'.|.,X4X4XnXAXAXAXAXAXAX",
"AXAXAXAXZXsX3X4X4X5X'.A.).V.^ %.<.<.<.&.%.$...3 < - @.(.2.&.-.$.o...6 < , 4 = u <.1.&.&.;.a 5 w u.z.V.A.A.P.'.1X4XcXAXAXAXAXAXAX",
"AXAXAXAXZXcX6XsX4X1X'.).).S.^ $.1.2.-.%.&.$.o.a 7 - i <.<.-.-.O.=.a 5 1 1 - < #.>.%.-.%.$.a 7 i u.V.V.V.A.!.,X4X4XcXAXAXAXAXAXAX",
"AXAXAXAXSXcXcXsX4X1X).P.J.c.a.#.*.#.&.-.%.O.O.o.i , 7 <.1.&.&.%.O. .y 3 6 - 3 <.2.&.-.&.X.7 5 i W V.V.V.V.!.,X1X4XnXAXAXAXAXAXAX",
"AXAXAXAXAXCXcXyX6X6X{.J.c.c.a.|  .3.1.-.-.%.X.o.y - 3 <.2.&.&.%.$.o.y < 4 - < $.-.-.-. ...7 5 i a.x.x.x.V.A.,X1XcXAXAXAXAXAXAXAX",
"AXAXAXAXAXAXFXnXyX2X1X)./.G.v.! ;.2.1.-.-.$.o.o.7 1 1 *.2.-.&.%.$.a 3 4 4 = y X.$.&.%.a 6 , < e k./.v.V.C.!.,XyXSXAXAXAXAXAXAXAX",
"AXAXAXAXAXAXAXAXnXqX1XoX).G._ ^ #.<.2.<.-.-.$.o.a < - a %.&.&.%. .y , 4 - = a $.$.*.$...5 1 y ! ` l.R.U.`.0XrXnXAXAXAXAXAXAXAXAX",
"AXAXAXAXAXAXAXAXnXrX[.[./.l./ R F %.1.1.<.&.<.o.a 5 - 3 %.%.%.$.o.u 5 4 ; 1 u O.$.3.#.9 2 2 8 S ' U.T.T.`.yXiXCXAXAXAXAXAXAXAXAX",
"AXAXAXAXAXAXAXAXVX0XXX.X`.l.{ / / >.1.1.%.&.%.o.a 5 = 4 @.@.X.O.a 5 4 p = 1 u +.$.#.,.d p } Q B f.` I.Y.[.yXiXAXAXAXAXAXAXAXAXAX",
"AXAXAXAXAXAXAXAXAXbX0X`..X[ / { { ~ a ..%.X.X.$.a < = - 9 ..$.O.y , 4 4 = , 7 } >.9 7 p d ! ) A J A _ .XeXyXVXAXAXAXAXAXAXAXAXAX",
"AXAXAXAXAXAXAXAXuXuXc.Q W G.D.Q w 0 p s  .X.*. .2 = - ; - o.a u 5 < 4 * - < < 5 7 7 , 2 5 : w Q ~ { v._.7XCXAXAXAXAXAXAXAXAXAXAX",
"AXAXAXAXAXAXAXAXFXFX1Xv.^ K.D.Q Q 0 . ; 3 4 4 , e w * X   - 7 5 = 4 *   ; ; q e e - 1 - * . @ t 0 D.|.|.uXAXAXAXAXAXAXAXAXAXAXAX",
"AXAXAXAXAXAXAXAXAXAXAXCXCX XF.G.~ 0 q q 0 0 q q ~ 0 q . X . * ; ; X   X X @ w D Q 0 q . X : t 0 t 0 ~ _.uX7X_.nXAXAXAXAXAXAXAXAX",
"AXAXAXAXAXAXAXAXAXAXAXAXAXuX|.}.K.H.F.~ Q :.Q Q ~ ! ,.D ! D q q w 0 q 0 D D 0 ! ! 0 ! :.D ^ J.J.J.1XrXtXGXnXGXSXAXAXAXAXAXAXAXAX",
"AXAXAXAXAXAXAXAXAXAXAXAXAXAXAXSXGXtX|.}.H.H.H.F.F.L.(.,.F.,.~ ~ :.,.H.:.,.F.H.L.D.^ D.L.}.tXtXCXSXAXAXAXAXAXAXAXAXAXAXAXAXAXAXAX",
"AXAXAXAXAXAXAXAXAXAXAXAXAXAXAXAXGXuXuXtX}._.H.v. X X}.}.}.K.K._._././.H.F.K._._.tXuXuXuXuX7X7XCXAXAXAXAXAXAXAXAXAXAXAXAXAXAXAXAX",
"AXAXAXAXAXAXAXAXAXAXAXAXAXAXAXAXSXCXCXSXSXnXnXSXAXSXnXGXtX7XuXGXuXtXpXuXuXuXuXuXGXmXnXCXCXCXSXAXAXAXAXAXAXAXAXAXAXAXAXAXAXAXAXAX",
"AXAXAXAXAXAXAXAXAXAXAXAXAXAXAXAXAXAXAXAXAXAXAXAXAXAXAXAXSXCXSXCXCXCXSXAXAXAXAXCXSXAXAXAXAXAXAXAXAXAXAXAXAXAXAXAXAXAXAXAXAXAXAXAX",
"AXAXAXAXAXAXAXAXAXAXAXAXAXAXAXAXAXAXAXAXAXAXAXAXAXAXAXAXAXAXAXAXAXAXAXAXAXAXAXAXAXAXAXAXAXAXAXAXAXAXAXAXAXAXAXAXAXAXAXAXAXAXAXAX",
"AXAXAXAXAXAXAXAXAXAXAXAXAXAXAXAXAXAXAXAXAXAXAXAXAXAXAXAXAXAXAXAXAXAXAXAXAXAXAXAXAXAXAXAXAXAXAXAXAXAXAXAXAXAXAXAXAXAXAXAXAXAXAXAX",
"AXAXAXAXAXAXAXAXAXAXAXAXAXAXAXAXAXAXAXAXAXAXAXAXAXAXAXAXAXAXAXAXAXAXAXAXAXAXAXAXAXAXAXAXAXAXAXAXAXAXAXAXAXAXAXAXAXAXAXAXAXAXAXAX",
"AXAXAXAXAXAXAXAXAXAXAXAXAXAXAXAXAXAXAXAXAXAXAXAXAXAXAXAXAXAXAXAXAXAXAXAXAXAXAXAXAXAXAXAXAXAXAXAXAXAXAXAXAXAXAXAXAXAXAXAXAXAXAXAX"
};
