/* XPM */
static char *f0ee20caee444d4b99b772eff2544cc8d6K67AljWhYgz0EY[] = {
/* columns rows colors chars-per-pixel */
"64 64 256 2 ",
"   c white",
".  c #FFFEFE",
"X  c #D58126",
"o  c #DC8D2B",
"O  c #D17A25",
"+  c #FFFEFF",
"@  c #E6A139",
"#  c #FEFFFF",
"$  c #D27D29",
"%  c #D3791C",
"&  c #DA8421",
"*  c #DB8527",
"=  c #DE902D",
"-  c #CF7623",
";  c #CA701F",
":  c #DA8827",
">  c #E69931",
",  c #D88A30",
"<  c #9B4E1D",
"1  c #FEFDFD",
"2  c #E29835",
"3  c #E8A43F",
"4  c #C98243",
"5  c #E19C39",
"6  c #B8712E",
"7  c #C86A1A",
"8  c #DF8826",
"9  c #E3922E",
"0  c #D47E23",
"q  c #E09532",
"w  c #CC9059",
"e  c #E8E2E2",
"r  c #D29255",
"t  c #CF8E4C",
"y  c #BE661C",
"u  c #D1A177",
"i  c #D87E20",
"p  c #CC9E77",
"a  c #D39E6C",
"s  c #C79874",
"d  c #D89341",
"f  c #E79D38",
"g  c #C57425",
"h  c #E29F42",
"j  c #CD9563",
"k  c #91451B",
"l  c #C48B57",
"z  c #B56A28",
"x  c #F7F8FB",
"c  c #B05B21",
"v  c #D1C2BE",
"b  c #D7852C",
"n  c #AD6327",
"m  c #AF897A",
"M  c #C27B30",
"N  c #A5551C",
"B  c #D5A87E",
"V  c #C48751",
"C  c #A1511E",
"Z  c #D2AB88",
"A  c #C9782A",
"S  c #CF711A",
"D  c #CFA480",
"F  c #C7873D",
"G  c #C2ABA3",
"H  c #ECEAE9",
"J  c #E38D2A",
"K  c #DC9134",
"L  c #ECAB46",
"P  c #BAA299",
"I  c #BF762F",
"U  c #DC8E35",
"Y  c #ECA73F",
"T  c #A45825",
"R  c #DA8120",
"E  c #D69A60",
"W  c #F1F1F0",
"Q  c #D89651",
"!  c #965634",
"~  c #A37560",
"^  c #A45C2C",
"/  c #B66221",
"(  c #9D5425",
")  c #C83C28",
"_  c #C56F25",
"`  c #D08331",
"'  c #9C674B",
"]  c #A24A12",
"[  c #BC8655",
"{  c #C3936F",
"}  c #D7A26A",
"|  c #B57C4E",
" . c #DAA672",
".. c #DDAC75",
"X. c #A46841",
"o. c #BD6117",
"O. c #BC8B67",
"+. c #A97551",
"@. c #BB9276",
"#. c #A85119",
"$. c #CBBDB7",
"%. c #D95C2E",
"&. c #B87638",
"*. c #D5B9A1",
"=. c #B35916",
"-. c #CEB6AC",
";. c #B95C15",
":. c #CA8A4A",
">. c #AB6D40",
",. c #C19D87",
"<. c #C6976D",
"1. c #DD9841",
"2. c #DFC1A4",
"3. c #E3DDDB",
"4. c #DED7D7",
"5. c #D28B39",
"6. c #DD8931",
"7. c #DDB78D",
"8. c #A56F52",
"9. c #D38527",
"0. c #D4B295",
"q. c #C8832D",
"w. c #9C6245",
"e. c #C38E62",
"r. c #D1863C",
"t. c #B36622",
"y. c #A36238",
"u. c #C59068",
"i. c #AE5417",
"p. c #BF6C22",
"a. c #DFA156",
"s. c #AD6732",
"d. c #BE7C45",
"f. c #B49286",
"g. c #DACFCD",
"h. c #D6B08C",
"j. c #DB9B52",
"k. c #CF9B6D",
"l. c #994712",
"z. c #D28E39",
"x. c #994F2D",
"c. c #D19043",
"v. c #D78E41",
"b. c #CA7D25",
"n. c #A57C6B",
"m. c #B57A42",
"M. c #B48569",
"N. c #B2744B",
"B. c #84411F",
"V. c #DDB897",
"C. c #A95E28",
"Z. c #D8AE83",
"A. c #BA8561",
"S. c #C3B4AD",
"D. c #C47B3C",
"F. c #FCFBFB",
"G. c #AF7A5C",
"H. c #C0814F",
"J. c #8D4827",
"K. c #C56B5F",
"L. c #9A6F58",
"P. c #DFA965",
"I. c #9C5B2F",
"U. c #CD7E33",
"Y. c #DEC9B6",
"T. c #C27034",
"R. c #B86C32",
"E. c #985B3B",
"W. c #A88372",
"Q. c #B26E38",
"!. c #D17135",
"~. c #E1B279",
"^. c #DD6A34",
"/. c #DB3C34",
"(. c #E7AE5A",
"). c #EB938A",
"_. c #F5FEFC",
"`. c #CA4629",
"'. c #F0AFB3",
"]. c #E67C6C",
"[. c #D48F91",
"{. c #DEACAB",
"}. c #D4C9C5",
"|. c #C86227",
" X c #CD5125",
".X c #AD9632",
"XX c #C7A38C",
"oX c #DF7B1D",
"OX c #E9C287",
"+X c #EEC6CA",
"@X c #F6B24B",
"#X c #E8B35A",
"$X c #F7DADB",
"%X c #E49DA1",
"&X c #DDB288",
"*X c #77B15F",
"=X c #8C512D",
"-X c #B69A90",
";X c #53A133",
":X c #F48C9D",
">X c #AD500C",
",X c #CAAA93",
"<X c #B5E1AF",
"1X c #A47523",
"2X c #DA6B5D",
"3X c #EC8286",
"4X c #B08161",
"5X c #A2D89B",
"6X c #BB5A48",
"7X c #DA732B",
"8X c #C08C2E",
"9X c #6D9D3A",
"0X c #EC687D",
"qX c #A8882B",
"wX c #888A58",
"eX c #8D9E34",
"rX c #EDDBCD",
"tX c #A5A23C",
"yX c #628E2D",
"uX c #C99F9E",
"iX c #E1BDBE",
"pX c #CE7572",
"aX c #EB4D49",
"sX c #D8E9D6",
"dX c #5FC547",
"fX c #E95C64",
"gX c #64B241",
"hX c #D55E4E",
"jX c #88CA76",
"kX c #F34717",
"lX c #EECED3",
"zX c #4DB836",
"xX c #8B9F56",
"cX c #B17A2A",
"vX c #DB7D82",
"bX c #82BE6E",
"nX c #AF6B67",
"mX c #EABA71",
"MX c #E18540",
"NX c #EEAE9A",
"BX c #B0C6A4",
"VX c #D18785",
"CX c #7D3919",
"ZX c #8EB458",
"AX c #908B2E",
"SX c #86DB88",
"DX c #A3A989",
"FX c #837E28",
"GX c #CF9750",
"HX c #C6E4C5",
"JX c #CC7D79",
"KX c #727725",
"LX c #F6BEBF",
"PX c #F2D4A8",
"IX c #C68678",
"UX c #DA1D00",
/* pixels */
"      # # # # #                                                             #                         #               # # # #   ",
"                                                                                                                                ",
"  +                 +                         +                                   +                                             ",
"1               F.      1 1               1       1 .                       1       . 1               1 1     . F.            1 ",
"  1           .   # x x     1         .     F.x x     1                   1   # x x     1           1     x x #   . .       1   ",
"g.  1       .   v e.[ [ M.4.  1     .   # -.e.l [ ,.W   1               1   3.{ l [ M.g.  1   #   1   e ,.l [ A.$.    #   1   H ",
"C $.  F.  F.  G I (.> 2 ` ( g.  F.F.. # @.5.L > f g X.W   F.1     1 1 F.  g.&.(.@ > 5.N -.  F.. 1   3.Q.h h > d N P   F.F.  e m.",
"4 I.H   F.  4.6 mXZ * U 0.D.E.x   #   -.b.OXk.* Q h.y n.      1         W m.(.0.5.o Z w < e   1   F.| h 0.c.* D a ] g.      @.1.",
"$ N g.  F.  -.b.h u O 1.<.; ^ e $XlX  ,.o j.p % j.l 7 X.W '.$X  F.+X{.W 3.I f u U.o p g =.uX$XF.  H &.> } :.& u D.=.G _.<XW l @ ",
"0 C 3.  1   v g : j 6., w % ^ lX:XfX  ,X0 , w * d 4 7 8.NXkX2X# +XvX2XJX3.I 8 w 5.: w O ;.vX0X$X  x &.8 t t & j ` i.-.<XzX5Xu.& ",
"_ ! v 4.W rXP z q t s { D.7 w.v pX[.3.-Xg 2 w s { M ;.~ uX`.iX  '.vXuXJX$.>.9 Q s <.4 - I.nXK.H e v +.o z.<.s H.- < S.BX9XS.M.$ ",
"g 6 n ! d.u.F d 5 ~.r.Q  ._ R.( y.l j F d a.~.U.a a.p.s.| +.+.G +XN.V <.4 :.f .XqXq.AXg R.s.! m.e.:.c.2 P.E r. .U.R.I.^ V w F 1.",
"q $ 6 L J 2...@ d x Y.H 4.X b.&.Y = Y.(.@ P._.*._.*.& 8 &Xr % c X.5 > B Q 3 K gXzX9XzX1X9 6 d > ~.2.@ = rXH Y._.t g F Y d Y.h 2 ",
"8 t.q.@ o *.t 9 , Z H.j { R z d > K *.c.9 d XXI p l X , Z V & z 6 Y = a 4 = 9 AXFX1XKXb.` s.3 : ~.B = : a <.4 XX` t.5 o a.0., ].",
"$ c n 6.X *.d.* 2 o 8 % 0 J C.z 8 , *.A o 2 : 8 % : * $ 0.d.% c C b * &XD.X 5 9 o , i : _ ( b i ..p % 2 = : R % 8 n A & j.0.T.2X",
"- c k l.s.4X#.b h f /.`., O c B.l.d.+.=.K @ q /.%.o - =.+.N.l.x.f.( / s s.0 @ > tX;X$ X y k B.N O.T g 5 @ ^.) X : / k ] A.y.o.|.",
"X ;.nXK.nXG N.= 3 q 7 7 X - =.8.~ J.f.&.> @ o |.- 0 ; ] f.,.m 4.  g.6XnX+.: h > q.6 i - o.X.G E.-Xf.A 3 2 - |.X O 7 ! wXwXL.M 3 ",
"i o.6X0X%X  O.q @ o ^.%.X R c K.).pX-.[ 3 5 * %.7X& X ] v   # 5XbX_.'.[.@.o @ J 8XeXX R 7 ' '.:XLX}.b.L = 7X%.0 * 7 y.5XjX*XD.L ",
"j.V J.{.  W m.@ : &  X`.X i p.x.iX%Xw.F @ & X )  X& & i.W.  W gX;XH $XpX^ ~.a.oXqXyXS U r ! [.3X{.s K 9 : %.) O & - C $.<XDX5.@ ",
"p d.e.G g.,.7.} d 0 A - b Q l @.m K.G.OXj.v.O A - r.r u.M.G e sXsX1 {.IXZ.t p } U.O r D V V f.uX-.h...Q b - A 0 v.w e.m v XX..v.",
"d.a ,.n q.1.V.D u.E >X/ u j Z m t.z.j.0.k.a r.] I u :.0.u.y T uXW l U., &XB t l H.| A.&.e.Z I 6 T u 2.w } z ] l u j ,XI c E.,. .",
"s O.Q.5 Y M t.[ 6 k L.G.:.B A.t.3 ` z &.m.n < m X.E h.H.: z.z s.>.T F 3 9.w Z 4 ! E.z &.N.y.9 > _ < w 0.&.C.y.Q.X.@.` = f ; x.s ",
"4 p.6 > t.F (.2 h q.>.P M.4 p.M 6 F #Xf f r.k 3.-.+.U.J b.&.(.3 > 1.C.n = X 4 ~ =X(.L f K z n , O < b.R.V #X@X5 c.N 6 9 b $ C z ",
"=.p.T / I mXD b , h.D.X.G N ; ( M OXB : 5.Z U.w._.@.o.g z (.h.r., B w < p.S < J.h Z.r & E B c c / ( y 6 OXZ.U K h.w l.p.; / < o.",
"S.X.( B.z.1.p $ 1.<.; C.e @.y.k z.1.u O 1.<.; ^ rXNX8.! M f a 4 * p A / k y.P [ 9 E V oXa d.; ! J.< ! z.L B ` U k.b.n k ! B.x.~ ",
"W jXjXG g o w b U l % ( P.@XrXG - : j 6.U w S y.).kX).e z J t 5.8 t X i.-X    | R c.r & r 4 ;.m <XgXDXU.q t , U 4 * N G 5X*XBX  ",
"<X*X*XP 6 9 r s u.4 ; E.t % V.S.z 2 t s u.D.7 ' ,.6X{.}.>.: d s s [ ; ( }.W g.~ X 1.u s O.O N -XbX;XwX&.5 a.Z h.V ; ( S.*XgXHX  ",
"u.cXe.F 1.5 ZXqXtXAX- I.I.D.<.F d h 7.c.} } g s.! m.<.F F K ^.%.!.%.; I.m.l w t h @ & $ O b I s.B.>.e.I 3 2 X $ * A ^ Q.+.=Xf.x ",
"@ 9 2.j.Y .XdXyXdXyX_ M L 2 2.a.3 d _.Y.H Y.g 6 h 9 &X .@ U aX/.aXaX#.1.f ..h.2 3 q 6.J 6.b q 6 q a.p q 3 = = o b U : a B i ;.' ",
"2 , *.r 9 q.KX9XyX1Xy 5.f ` *.Q = , p M w j y 6 3 X h.a = o  X`.) ) n Y :  .D b = J 8X9XM J g 6 > t { , 2 o 7X%.X b % a D - $ < ",
"* b 2.4 : h J eXqX8 M n : 6.2.D.o 5 7X!.O i O C.b i V.u.% q 5 ^.) X n ` i  .,X; q 2 z.FXg 8 p.T % Q { S 5 @ %.) 9.$ y D s ; 7 k ",
"] Q.M.i.o 5 = $ 9.* O C ] s.4Xi.= MX3X).6X0 i N k N O.N O f 2 , v.8 A < i.O.y.y 5 5 9..XX 0 - < l.j A.- f 2 %.) 9.O ;.s.M.] ( -.",
"}.~ -XN.= K oXeX9XoX$ o.L.P -XN.= 4 ).3XK.O $ o.~ P f.G.X h R  .Y.% * y J.f.m 6 @ J 8X;XM * O N m [.x., f : S |.& X o.w.P W.{.e ",
"NXkX%X@.= = * b.I i & o.m     4X= = K.6X; X R o.f.    XXX > & b ` X i - w.  e I f : * g $ i i T VX:X2X, f o ^.%.& i ;.n.  LX].VX",
"NXkXVXd...} oX.XeXS } V E.  e s.~.} S 7. .7  .V E.# # | Q  .i a.2.S Q a < e *.4 ..6.b.gX1X$ B y.n.'.6XP.a.i  X) S Q l w.x ).pXvX",
"H -.,.~., u u xXxXp l 7 s m ,.~.9.u  .D p p [ ; @.f.-.B 8 E B k.XXk.u y w n.M.a.d u l wX<.D T.A W.m u z.p B r r a s _ | f.VX[.{.",
"d.:.z.7.E S T.c / _ 7 u { I U &XE % T.N / _ ; s O.M z.u Z.% _ n c T.o.E Z p.6 >.A % T.#.R.7 I >.F q.B a % 4 N.H.H.;.r p t.Q.^ %X",
"f 3 2 b.p Z.=.n.L.I 2.G.g L tXcXB Z.=.n.8.M 2.+.X L @ X j V.A w.n./ 7.s !.2XU _ ! :.N f.^ k.@.9.Y MX Xp V./ ' ' _ &X{ A f 2 y ~ ",
"K o K o X A.+.[ | ~ | t.X tXSXbXg O.8.[ | 8.N./ 2 , K o R H.M.| O.' 4XS ].:XhX/ 6 4X^ ,.W.A.C.5 !.aX/.!.O.+.| +.~ e.$ q U , - ! ",
"y S - O p.z #X@ @ r.< C.c 1X*XwXc z #XL @ z.C < y ; - $ _ z a.L @ d C t.^.hXc GX#X@ 5 D.X.w.k / ; `.`.c q.#X@ @ I l.A O - 7 i.J.",
"@.X.C.< n OXB U U ..r k B.x.=XJ.n mX..h q } r < CXw.s.l.T #X7.d 9 ..} < < l.c.mXt q K a g 8.-X=X=X( < M OXk.o v.&XI B.N ( ' L.&.",
"  lXiXS.q.3 D ` 1.p A T $.sXBX$.F L B c.q u U.c G +XiXv &.3 B t : Z r.i.P { @ h B & a.j y y.# PX0.e @.= a.D i a.u.; w.g.IXiX-.K ",
"$X3X3Xv A = r X * :.% N 3.5XdXDX4 > r , 8 r b N G :X0XW D.8 t v.8 t X >Xv D o , r 9 v.4 7 y.H @XJ 1 ,X% U t 0 v.:.7 8.+X].].M.X ",
"# %X[.$.R.9 a D s l S ! 4.BX*XS.Q.9 j.Z Z.j - ( S.vX%X4.>.8 c.p a V ; C v m q.Y a Z D 4 =.L.e  ...H P g K u.hXK.V ;.~ g.K.[.P g ",
",XO.<.V :.2 ^.!.!.%.g X.! >.u.V 4 3 2 ` ` O - T =XI.<.l :.h P.t 4  .$ ^ >.+.I.s., K O 0 y 8.~ E.<.e.V r.2X) /.) 0 p.>.| 8.=X' 5.",
"5 o 2.P.L MXfX/.fX/.$ 6 z.> ~...3 Y J 8 9.* 2 6 F >  .7.Y q rXH Y.x t & j.V.O p.T , q : 8 g &.@ o 2.3 MXaX`.y ; : U * 7.w i N &.",
"h K *.Q > X ) i.`.) A 6 L : Z.a = q 5.ZXZX8X$ z Y * Z.u q o D s 4 ,XU.8 Q XXA * N c %.- : n d > d 0.d o  X- 6.!.- * b V.j % p.J.",
"9 * 2.:.8 5 U K 9.9.$ C.6.i V.D % 9 .XSXSXAX7XT 6.% 7.D % f o 9., O 6.% E ,X; _ < c /.7 * C.I J , Y.r.o 5 * ].).hX; O *.V S c < ",
">XR.@.#., 3 5 %.`.: X ( < =.{ T - 2 5.xXxXcXR C < =.O.n O 5 f tX;XX 8 y Q.@.i.] ( 9..Xq.* T.k i.d.A.=.o 3 6.3X).pXo./ G.| ] k 6 ",
"G W.m >.o @ 2 |.|.X O ;.w.W.m G.X h R E *.% * 7 J.~ m ' $ 3 2 q.cXR O _ k ' 8.N.* o ;X1XoXU.C.w.W.W.R.q 5 = T.K.|._ #.n.W.' >.f ",
"].$X  O.2 h o 7X7X& * ;.n.+X'.,.9.3 & v.j % * 7 X.3.sXXXb.Y J 8XeXX i S CXp OX .} Q b.t j e.G.P   _.| @ 2 & V.4 % 0 ] $.PX2.[ @ ",
"UX'.# m.Y o :  X) 9.& o.! :X0XN.h 2 R j.7.O X - E.7.@Xs.} h oX.XyXS 8 r B.:.P.} r w w [ H.u.s.8.  e M Y : R D 4 R & i.+.@X6.m.Y ",
"{.e -.~.1.X i A A R v.w O.f.[.a L K & Q h.O 0 O n m.5.{ E D E $ !.r.u u.H.m., GXu u w { u.d.7 x.$.,X..d X 0 ; - 0 r.V m { O.} v.",
"k.F c.0.Z E A =.y r w Z ,.&.c.h.P.* 6.S y * X 7 j | N @.a :.j e.:.u.d.k.0.Q.z N A R.C.4 y =.C n M Q *.p l A ;.y r j *.<.t.X.O.k.",
"K L @ $ p Z z ' w.:.7.4X6 L 3 d Z Q - I.' ; 0 E <., f y ' Z.4 < B.4 7.,.M 2 2 / l.>.n.l.^ ~ X.Y L 2 ` Z Z.c L.y.E 0.[ 0 f J T m ",
"2 o K U 0 j L.3.g.M.r t.` K K = 5.k.^ S.e ^  .s ` = , O l.V +.-XG G.e.O = = b _ B.4.e $.H e M f o K o ` k.L.W G A.4 & 2 , U o.' ",
"; % O $ O ] P     m =.A n O O X $ >X~     S.C.; * $ - / ( >XE.<X_.P >X0 b $ ; ] n.'.0XlX  W >.7 O $ $ - ] }.  x X.o.X b O 7 < v ",
"G.T #.#.x.P   1   # W.T k J.T #.C ~ x   F.  G T #.< k CXJ.m 5XdXjX  P < #.C x.n.F.%XfX+X    e +.T #.#.x.$.  F.  W 8.C ] C ! -.  ",
"# H v v H   . + .     3.v 4.4.$.4.#   1   .   H v }.g.v 3.  sXbXHX    e $.}.H     x H     1   # e v v W   1   1   # 4.$.3.x   . ",
"          1       . .               .       1             1       # .         . 1     .     1           1       .           1   ",
"  . F.F..             1 F.1 1 F.1             . F.1 1 F.1   . # .     . F.1 .     . .           . F.1 .             1 F.1 .     ",
"                                                                                                                                ",
"                                                                                                                                ",
"                                                                                                                                "
};
