/* XPM */
static char *_34543e823b14b62bd8fb19b21aea76dQG1Zv5M7LMU9AXxO[] = {
/* columns rows colors chars-per-pixel */
"64 64 256 2 ",
"   c #5FFF9B",
".  c #5EFD97",
"X  c #5DF492",
"o  c #5BF291",
"O  c #5CF692",
"+  c #5BF18F",
"@  c #5DF995",
"#  c #5BEE8F",
"$  c #F51F25",
"%  c #68FFA1",
"&  c #5BEF8F",
"*  c #5AEC8D",
"=  c #5AE88D",
"-  c #5FF895",
";  c #50E486",
":  c #5BFF97",
">  c #5EFB96",
",  c #5DF092",
"<  c #3ECC76",
"1  c #61C286",
"2  c #45C775",
"3  c #3CC471",
"4  c #8BFFC2",
"5  c #F9292F",
"6  c #F7AEAB",
"7  c #54F18C",
"8  c #56CE7F",
"9  c #6FFFAF",
"0  c #69F9AA",
"q  c #FCCCC6",
"w  c #56EE8C",
"e  c #3CC873",
"r  c #58F48F",
"t  c #58DA85",
"y  c #44C171",
"u  c #58FB93",
"i  c #63BE85",
"p  c #F58986",
"a  c #F04C4D",
"s  c #F46365",
"d  c #68FFAA",
"f  c #5CA26F",
"g  c #F14446",
"h  c #4EE988",
"j  c #57C07F",
"k  c #57D582",
"l  c #FFA2A2",
"z  c #62FE9A",
"x  c #3CC06D",
"c  c #D5575A",
"v  c #F25C5E",
"b  c #EF393C",
"n  c #FF9C9D",
"m  c #40BE6F",
"M  c #60F596",
"N  c #61BA84",
"B  c #F6A39F",
"V  c #54F68F",
"C  c #50AC6C",
"Z  c #F15657",
"A  c #61FB97",
"S  c #40D179",
"D  c #56D281",
"F  c #FE8285",
"G  c #FEB9BA",
"H  c #FAD5CC",
"J  c #3F332A",
"K  c #68F5A7",
"L  c #55C97B",
"P  c #EE3336",
"I  c #F5817F",
"U  c #59DF88",
"Y  c #F6B2B0",
"T  c #984D44",
"R  c #F26666",
"E  c #F15052",
"W  c #FEB5B6",
"Q  c #4BDF82",
"!  c #9A423C",
"~  c #FE7172",
"^  c #5BC383",
"/  c #BA5654",
"(  c #F7A9A4",
")  c #D95057",
"_  c #F2484A",
"`  c #7AFFBB",
"'  c #41D67B",
"]  c #FFFFF7",
"[  c #EF7475",
"{  c #60B580",
"}  c #F16061",
"|  c #F79794",
" . c #EE2A2E",
".. c #F47777",
"X. c #4F6541",
"o. c #46A66B",
"O. c #5BBF82",
"+. c #9F8274",
"@. c #59E68A",
"#. c #56BC7B",
"$. c #6EF8A5",
"%. c #FF9597",
"&. c #71B589",
"*. c #F69491",
"=. c #6DC28E",
"-. c #4B7E55",
";. c #59E288",
":. c #FD6B6D",
">. c #3D2C26",
",. c #5C9061",
"<. c #FFC1BE",
"1. c #68F1A4",
"2. c #EF7B7B",
"3. c #FFF2E8",
"4. c #5FC787",
"5. c #F3706F",
"6. c #B9B5AA",
"7. c #855248",
"8. c #4FA367",
"9. c #4C9660",
"0. c #B82526",
"q. c #5FEC90",
"w. c #BA6561",
"e. c #47AB6F",
"r. c #F58D8C",
"t. c #56F991",
"y. c #39B868",
"u. c #FF343A",
"i. c #434936",
"p. c #FE5C62",
"a. c #F9C5BE",
"s. c #F5918E",
"d. c #FFECE2",
"f. c #54C478",
"g. c #FFAEAE",
"h. c #FDE2DA",
"j. c #609C6D",
"k. c #E44D57",
"l. c #C5B9B1",
"z. c #F18082",
"x. c #F7B7B2",
"c. c #9D6E63",
"v. c #FDA8AA",
"b. c #5CB37D",
"n. c #FE6267",
"m. c #EC1C22",
"M. c #FA4C50",
"N. c #FFD2CC",
"B. c #FF888B",
"V. c #84FFBA",
"C. c #4D7653",
"Z. c #FCD9D1",
"A. c #807D63",
"S. c #5ECE8B",
"D. c #A0887A",
"F. c #FB565B",
"G. c #DCA6A2",
"H. c #E0D7D1",
"J. c #D4151E",
"K. c #FFFAEF",
"L. c #CC151E",
"P. c #CA6263",
"I. c #FFC7C3",
"U. c #78EFA9",
"Y. c #DFB2AE",
"T. c #F7D1C8",
"R. c #F57B7A",
"E. c #EE3E41",
"W. c #CD4C53",
"Q. c #C65859",
"!. c #48583A",
"~. c #F8BCB6",
"^. c #BE7B75",
"/. c #4BB873",
"(. c #403A2E",
"). c #9D776B",
"_. c #6EFCA5",
"`. c #77E6A5",
"'. c #4EB271",
"]. c #75E4A3",
"[. c #E05A60",
"{. c #6DAE83",
"}. c #414132",
"|. c #FF8F91",
" X c #52AB77",
".X c #FE797B",
"XX c #7BFFB1",
"oX c #F59D9A",
"OX c #609665",
"+X c #BC3E40",
"@X c #D74249",
"#X c #72E9A3",
"$X c #9E6055",
"%X c #D82F37",
"&X c #858A72",
"*X c #A45951",
"=X c #F4888D",
"-X c #72F3A6",
";X c #55B97C",
":X c #DA807E",
">X c #6CA57B",
",X c #72BC8C",
"<X c #DB6869",
"1X c #66C992",
"2X c #AC4B47",
"3X c #4E9B63",
"4X c #734338",
"5X c #FDDDD4",
"6X c #9F8F82",
"7X c #8E5E50",
"8X c #E2C3BD",
"9X c #3E7F54",
"0X c #B5A39A",
"qX c #B1AC9F",
"wX c #BB716C",
"eX c #D42128",
"rX c #F73438",
"tX c #DBD0CA",
"yX c #528A5C",
"uX c #D1C1BA",
"iX c #83F5B3",
"pX c #EF6B6D",
"aX c #78FAB0",
"sX c #48CE78",
"dX c #DC908E",
"fX c #8F8673",
"gX c #60AB77",
"hX c #BA4F4E",
"jX c #70D09A",
"kX c #C0B1A7",
"lX c #7D9779",
"zX c #A93433",
"xX c #5F7E60",
"cX c #BA9A90",
"vX c #F57B83",
"bX c #63895F",
"nX c #E6E0D9",
"mX c #35905A",
"MX c #8AFFCA",
"NX c #E69999",
"BX c #A92724",
"VX c #839E82",
"CX c #B48279",
"ZX c #74493C",
"AX c #775A4A",
"SX c #68ECA1",
"DX c #61F092",
"FX c #91FFCD",
"GX c #32AC60",
"HX c #8BB094",
"JX c #816F55",
"KX c #7A9072",
"LX c #6D392E",
"PX c #6B4E3F",
"IX c #81DC9F",
"UX c #793A32",
/* pixels */
"nX8X<XdXG.8X[ +XN iX].`.`.`.U./.qXT.<XdXG.8X2.+XgXiX].`.`.].U./.b.iX].].].].U./.qXT.<X:XG.8X:X+X>XiX].`.`.].U.y qXH :X:XG.8X:Xc ",
"q |.W s h.R 5 P.jX4 M M X M z 3 0X%.G R H R.5 c =.4 M O X M z 3 1X4 M O X M z < 0X|.W s N.I 5 [.,X4 M X o X z S 0X%.W } a.| $ 5.",
"E.v.Z p B m.:.:X1XXX# r : + O 3 0.v.v R.6 m.p.:Xi 9 # r : o @ y O.XX& r : o O < 0.v.v [ Y m.F.:XN 9 # + : o X ' BXn pXR x. .a *.",
"v F _ 6 _ 6 ] tX4.@ o t -.;.. x +X%.g ( a ( ] nXO.@ + t -.;.. y j > + U -.U . 3 +X%.g B a B ] nXN @ & ;.-.t > S 2X%.E.( E | K.] ",
"5.} B s Z | %.dXS.@   8 i.U . x Q.n.*.[ a | n dX1 >   k i.t : y j .   t i.k   3 / p.s...a *.| dX1 @ : U i.8 . S *X:.r..._ s.*.( ",
"a.x.( 6 | b $ eXS.* 9.@.: & @ x cX<.B B B g $ eXO.o 9.;.: & @ y j X 9.;.: + - 3 cXI.B oXB g $ J.{ O 9.t : & O < cX<.( | ( E m. .",
"N.N.b ~ h.*.5 %XS.= i.U . - z m cXd.b ~ h.( 5 %X4.X i.t z O   2 4.M i.k z M z 3 cX3.b :.h.( 5 %Xi A i.L z M z < CXK.g :.<.<. .g ",
") dXJ.<XNX%XP / e.' Q ' S < ' GXzXNXeX[.NX@X%XW.3X' S sXsXsXS GXo.' Q ' S < Q GXzXoXeX[.NX@X%XW.3X' Q ' S sX' y.zXB eX@XNX@XeX[.",
">X{.{.&.&.>X&.9X6X6.*X).6X0XwX! xX&.{.&.&.>X&.yX9.1 N N N N =.mX&X6.$Xc.D.cXCX! C.&.{.&.&.>X&.yX&X6.$Xc.6X0X).! xX&.{.{.&.>X{.f ",
"MXV.% % % % d e uXl g.:.H %.u.[.jXMX% % % % d sXjXFX% % % % 9 < l.g.g.~ N.n u.<XjXMX% % % % d ' l.g.g.~ I.l u.[.,XFX% % % % % V ",
"aX$.w r u w O m +Xl 2.pX~.m.g P.1 XX* + u w O m O.XX# 7 u w X < 2Xn z.R ~. .g <Xi XX* w u w o S 2Xn =Xv a. .b <X{ XXq.w u + w ; ",
"$.& X U C * > y.+X%.P ~.E ..3.H.O.> o @.C @.. y j A + @.C @.> 3 zX%.P ~.v 5.3.H.O.A & @.C @.- < zX%.P x.} 5.d.nXN > & = C U O ; ",
"$.&   #.J @.. y.P..Xz.R Z a.q Y.4.@   D J D   m O.> : D >.k   3 / ~ z.R Z q I.Y.4.@ : k >.8 z e / .X2.5.g <.q Y.i @ > ;.>.f.> ; ",
"$.@.L # # & > m ^.l ~.B I P 5 %X4.O L * & # @ y j - L = # # - 2 CXn Y oXI P 5 %X1 - L = # # - < CXn ~.oXp b 5 %X{ . L @.& & o ; ",
"9 L J = @ X z y.kX3.E R.h.| 5 eX4.q.J D z o A y 4.q.J D   o z x qXK.a ..5XoX5 eX1 DXJ 8 z o A 3 0X] Z ..N.6 5 eXb.> (.f.  X M h ",
"= Q Q h h Q 7 y.+Xg.m.v Y a rX) /.h Q ; h ; h 3 /.h D Q Q Q h y.+Xg.m.Z ( Z 5 ) ;Xh Q ; h Q h e zXW m.E 6 v  .k.f w sXQ ; ; Q ' ",
"VXHXJXA.&XVXA.ZXX.lXA.lXlXA.&XX.xXHXJXA.A.VX&X4X9X'. X X X Xb.9.X.KXA.lXlXA.&XX.xXHXJXA.A.VX&X4XX.lXA.KXVXA.&XC.9Xb. X X X X Xo.",
"d.n n F q n M.c jX4 d % % d 9 < uXv.n B.I.l M.[.=.FX$._._._.9 2 S.MXd d % d 9 S uXv.n F I.v.M.[.=.MXd d % d 9 ' 1 FX$._._._._., ",
"5.( *.v H  .rXQ.1XV.* 7 r * O 3 w.l oXa H E. .c =.V.* 7 V w O m i V.* w r * o < w.n oXa T.E. .c ,XV.q.w r * X 2 N V.# w r 7 w ; ",
"b | P a.E Z Z.uX^ A , * t # > 3 0.l P x.} E N.8Xi A , * t * > y j z , # t * - e 0.l P Y R a q tXN A , # t * > 2 ;XA & & t * X ; ",
"I 5.R.5.Z H d.uXS.@ > f.>.t z m / .X[ ..a T.d.8X^ @ @ 8 >.D   y j @ @ D >.8 z 3 / ~ [ ..a H d.8Xi @ O k >.L   2 ;XA O U >.f.> ; ",
"p p x.p R b rXW.S.O = @.L * @ 3 wXF Y *.5.b rX@X1 @ = = L = > y j A = = L = - 2 wXF ( | 5.b rX@Xi > = = f.@.@ 2 ;XA = = L @.X ; ",
"3.Z.} r.h.2.$ L.S.U J t   & A m l.3.} I H s.$ L.1 q.J 8   & - m ^ q.J 8   & A x 6.K.} I H s.$ J.{ o (.L   , - 2 O.X (.#.  + , ; ",
".Xg.$ ~ G F.u.) L 7 f.w V 7 u 3 hX<.$ p.G :.u.k.O.V y h V 7 t.< j O /.; 7 w O x hX<.$ F.G ~ 5 k.{ t./.; 7 w r 2 /.t.y h V 7 7 7 ",
"7XfX7XfXfX7.c.AXxX{.bXbXbX>XOX!.PXfX7X).fX7.c.AXC.{.,.bXbXj.j.!.9Xe.'.e.o.o.e.mXPXfX7X).&X7.7XAX9Xe.'.e.o.o.C mXC.&.OXxX,.j.j.X.",
"` ` d 0 0 d 9 x uXW vXF <.v.p.c 1X` d 0 0 d 9 e l.W vXB.G g.n.c &.4 1.-X-X-XXXf.1XV.d _.0 d 9 < i 4 1.-X-X-XaX2 6.G =XF g.<.F.n.",
"V.aX# + o * X y P.%.Y a Z._ $ W.=.4 * & X # X < wX|.v.g Z.E $ c =.V.& 7 r 7 @ x =.4 # 7 o * O y 1 V., 7 r + O S ).B.6 _ T.} m.R ",
"$.M o & = & > m 0.l P ~.5.b W Y.1 % , & = # - < 0.l b 6 ..P g.Y.O.z , & = & > y j % + & = & > 2 #.z + & = & - ' BXn E.oXr.P oXZ.",
"$.w . #.J @.. y.Q.B.R I v H K.tX^ @ @ D >.D   x hXF R I E H K.tXO.@ O k >.D   y j > O k >.8   2 #.> O t >.L   < *XB.} p g q 3.3.",
"$.& @ ;.'.* > m P..Xx.I s _ g W.4.> O = '.@.A 3 w.~ 6 p R _ g ) 1 @ X = '.@.@ y j A X = '.@.> 2 #.. X = '.;.A S wX~ 6 s.s _ E.v ",
"9 L }.@.  # - y.l.d.[ *.q 2.$ L.1 = (.8   , - y 6.3.5.r.q z.$ L.N q.(.8   # - m ^ q.}.8   & - 2 O., (.f.  , M 2 qXK.[ p a.*.m. .",
"% Q '.7 V 7 : y.Q.q $ n.I.:.u.) j r C h t.7 . e hXq $ p.<..X5 k.^ V C h t.7 u < ^ O C ; r + t.2 j V C h t.r u ' 2XN.5 M.G B.5 n.",
">Xb.OX,.,.gXOX!.ZXD.T ).D.T $XAX-.{ j.,.,.f j.!.ZX+.T ).6XT $X7.-.N OX,.,.f j.X.9Xe.'.e.o.o.C mXC.N j.bXOXj.j.X.4X+.7Xc.6XT 7X7X",
"h.l vXr.~.( p.W.1X` 0 K K d 9 3 l.W ..r.G Y p.) i ` 0 0 K d 9 < l.W ..=Xx.6 p.) &.4 #XU.U.U.aX2 6.<.vXvXW G F.) {.` 0 0 1.d d w ",
"s.| v.E h.E.5 Q.1X4 * + X & O e wXn 6 g 5XZ $ c =.4 # + X # O < ^.B.Y a Z.Z $ c =.4 & 7 r + O S ^.B.x._ q } $ ) &.4 DX& o & + ; ",
"b B b x.s b W G.4._., & # & @ 2 0.n E.( ..P g.Y.i % , & # & - e 0.v.b ( R.P g.Y.i % , & * # - S BXl b ( p  .l Y.{ % , & # + X ; ",
"5...5.R.Z Z.] tXS.t.@ L J t   x / F } r.Z T.K.H.1 @ O 8 J k   3 / F R I E H K.H.1 @ O k >.8   e 2XB.} p Z q K.H.i @ o U J f.> ; ",
"I ..x.I s a M.Q.S.> > @.C = > 3 w.~ Y p s a _ c 1 > @ @.C @.A 3 w.~ Y p s _ _ ) 1 > @ = C @.> < w.~ x.p s a _ ) N . @ # C U X ; ",
"d.Z.5.| T.5.$ L.S.U }.t   , - m l.3.[ r.q z.$ L.i q.}.D   # - x kX3.[ s.q 2.$ L.i q.}.8   , M 3 kX3.2.s.a.p $ J.gX- i.f.  , , ; ",
"B.W $ ~ I.n.u.) 8 & 8.w u r : 3 Q.q $ n.I..Xu.k.O.V 8.h t.r : e / N.$ p.<..X5 k.O.r 8.h t.r u S hXZ.5 F.G F u.k.b.: 8.; u V V 7 ",
"T +.T ).+.! $XAX-.b.f ,.yXgXf !.4X+.T ).D.! $X7.C.{ f OX,.f f X.ZX+.T c.D.T *X7.C.{ f ,.yXf f X.4X+.T c.D.! *X7.C.{ gXyXOXf j.C.",
"` aX0 K K d 9 m l.W [ =XY 6 n.W.i ` 0 K 1.0 9 3 6.G [ =Xx.Y p.c i ` 0 K 1.0 9 3 6.W 2.=X6 6 s ) { ` 0 K 1.0 9 < 6.G 2.=XB <.} v ",
"V.XX& o O & - 3 ^.n 6 _ h.a $ c =.4 # o X & O < ^.%.6 g 5Xv $ ) =.4 * + O & O S ^.|.6 _ 5Xv $ c ,X4 & + X & - S CX|.( a H R m.s ",
"$.M o & # # > m 0.l b ( R.P l G.1 z , & * & - e 0.l b B R. .l Y.i % & & * # - < 0.l b B I P l Y.N z , & * & M ' BXn g r.*.P r.T.",
"$.w . #.J @.. y.Q.F R p E H ] tX^ @ O 8 J k   x / F } s.E q ] H.1 @ O D >.8   x hXF s r._ q ] H.O.@ X t J 8   < 2XB.} *.E.a.K.K.",
"$.+ . U C * > m P.~ Y p } a M.c 4.@ @ @.C @.> e w.:.6 p v a M.) 1 > @ = C @.> e w.~ 6 p s a M.c i > O * C ;.A S w.:.B *.R E _ s ",
"9 L }.@.  & - y.l.d.[ *.q [ $ L.1 = }.k   & - x kX3.[ r.T.2.$ L.i q.}.8   & - x 6.3.[ s.q z.$ J.b.X }.f.  & - e qXK.2.p a.r.m. .",
"% Q o.r V r : y.P.q $ n.q .Xu.k.4.r 8.h u r : e / N.$ n.I..Xu.k.O.O 8.h t.r : < / N.$ p.<.F 5 k.N u 8.; t.r u ' / Z.5 F.G |.5 p.",
"f b.3X,.OXf j.X.4XD.T c.D.! *X7.-.{ f ,.,.f f !.ZX+.T c.+.! *X7.C.b.f OX,.f f !.4X+.T c.D.! *X7.C.{ f yX,.j.f X.LXD.T $X6X! T $X",
"h.B vX=Xx.6 F.W.1X` 0 K 1.0 9 x 6.W [ =X6 6 s W.N ` 0 K 1.0 9 3 6.G [ z.Y 6 s W.N ` 0 K 1.0 9 e 6.W 2.z.( Y v ) {.` K K 1.0 0 = ",
"*.| 6 E h.g 5 Q.jX4 & o X & - < ^.%.Y _ h.Z $ c =.4 # + X & - < ^.%.Y g Z.v $ c =.4 & + X & - S ^.|.x.a H } $ [.&.4 DX+ X + + ; ",
"P B b Y 5.P v.G.^ % , , o & @ 3 0.l b B I P l G.i % , + , & - < 0.n E.6 I  .l G.i % , & + & - S BXn g oXr. .| Y.{ % , + o + o ; ",
"....pXI Z 5X] tX4.O O L J t z m / F } p _ H ] H.1 @ O 8 J k   x / |.} p Z T.] H.1 @ X k J 8   e / B.v s.g q ] nXi @ o U J f.> ; ",
"R.5.x.R.} E M.P.S.@ . ;.8.@.A 3 w.:.6 p v E M.c 1 . . @.8.@.A e w.:.x.I v E M.c 1 > . = 8.;.A < w.:.( p R E M.[.i > > * 8.U O ; ",
"d.H ..B a.R $ L.S.;.i.t   # - m l.d.2.*.q 2.$ L.i q.i.D   , - x kXd.2.| a.[ $ L.N q.i.8   & - 3 qX3.z.*.a.z.$ J.gX- i.f.  + , ; ",
"|.<.$ :.N.~ u.) D + 3Xw u O : 3 P.N.$ n.q F u.k.^ @ 3Xh u O : e Q.Z.5 p.q F u.k.1 > 9.;.@ O . < / 5X5 F.G |.5 k.{ : 3XU @ O O h ",
"T +.! ).+.! 2X7.yX;X8.9.3X8.8.X.UX+.! c.+.! *X7.C.b.C 9.9.f 8.X.4X+.! c.D.! 2X7.9Xe./.e.o.o.e.mXLXD.T $X6X! T 7.9Xe./.e.o.o.o.o.",
"aXU.K 1.SXK 9 y.l.W pXz.Y Y v @XN ` 1.1.SXK 9 m 6.G [ z.( Y } W.{ aX1.1.SXK 9 m { iX].#X#X#XU.#.O.` 1.1.SXK 9 3 b.iX].#X#X#X#XU ",
"4 XX+ X X + A 2 ^.%.G a 5XZ $ c =.4 , X X + - < ^.%.W _ 5X} $ c =.4 DXo X , A y 1X4 o r O o . 2 1 4 DXo X & - 2 1 4 X r r r O h ",
"$.M , o O , > m 0.l E.( I  .n G.O.% , o O , - < 0.n g oXI  .%.G.#.% , + O + @ y O.% , o O + @ 2 #.% , o O , - 2 ;X% , , iXo + ; ",
"$.w > #.}.= . y.Q.F v s.a H ] H.^ @ O D (.k   3 / F Z | a q ] H.1 - o k (.D   m j @ o k (.D   2 #.@ r t (.8 : 2 ;X> w U.0XIXO ; ",
"$.o   t 3X* > m P.:.6 R.} Z F.P.4.>   @.9.;.A 3 w.~ ( I s Z F.<X1 > : @.9.;.> y j A   @.9.;.. 2 #.. : = 9.U > 2 ;X. : , ,X;.O ; ",
"9 8 !.*   & > y.l.h.I oXa.R $ L.^ q.!.t   + A x kXd.z.| a.5.$ J.N & !.k   & - y ^ q.!.D   + - 2 j X !.8   + - 2 #.- !.f.: + o ; ",
"_.k -.= , & @ GXwXq  .R q p rX@X1 q.-.t o # - m w.N. .s I.s.rX@Xi , -.t o # O y ^ , -.k o # O y j X -.k X # O 2 #.- -.8 O & & ; "
};
