/* XPM */
static char *_6322307aee74ed0fd4e709a2f8be1cfJ5dKE2AQKRD0MGJV[] = {
/* columns rows colors chars-per-pixel */
"64 64 118 2 ",
"   c white",
".  c #FDEBC7",
"X  c #FEEAC8",
"o  c #FEFFFF",
"O  c #FDE8C5",
"+  c #FDE9C7",
"@  c #FDEAC7",
"#  c #FDE9C6",
"$  c #FEFDFE",
"%  c #FEEDC9",
"&  c #FFF1CB",
"*  c #FDECC8",
"=  c #EAA492",
"-  c #FFFEFF",
";  c #FFF2CD",
":  c #FEEFCA",
">  c #F0B497",
",  c #FFF4CE",
"<  c #EBA894",
"1  c #FFFFFE",
"2  c #ECAB94",
"3  c #E69E8D",
"4  c #FBE5C2",
"5  c #F6D4B5",
"6  c #FDF4D3",
"7  c #E8A191",
"8  c #F7D8B8",
"9  c #F9E0BF",
"0  c #FFF7D0",
"q  c #FDF8D8",
"w  c #FDEAC7",
"e  c #F9DFBE",
"r  c #D8AEB1",
"t  c #EEB197",
"y  c #F9E3C1",
"u  c #E53A42",
"i  c #FDF1CE",
"p  c #CE7B77",
"a  c #EDAE95",
"s  c #FAE5CC",
"d  c #F1C0A5",
"f  c #E0323D",
"g  c #FEFCDE",
"h  c #ECB9A2",
"j  c #FFFAD2",
"k  c #D42C3B",
"l  c #E4998C",
"z  c #D4817A",
"x  c #EB4146",
"c  c #FAEACD",
"v  c #F4D0B2",
"b  c #FDF5EF",
"n  c #F0B69D",
"m  c #DA565C",
"M  c #CA7774",
"N  c #CC2234",
"B  c #F2CEB1",
"V  c #CC6E6D",
"C  c #C5555B",
"Z  c #DD2735",
"A  c #FA5451",
"S  c #EF4A4D",
"D  c #EDC3A9",
"F  c #F1CAAE",
"G  c #F6DABA",
"H  c #EFBCA3",
"J  c #F2C6AA",
"K  c #D68F84",
"L  c #B73A47",
"P  c #BD1C32",
"I  c #FEFCFC",
"U  c #FEFFE4",
"Y  c #EDDEE1",
"T  c #F8DCBC",
"R  c #DC6163",
"E  c #B94550",
"W  c #EEB39E",
"Q  c #B12034",
"!  c #C12839",
"~  c #E4444A",
"^  c #E9AF99",
"/  c #DE877E",
"(  c #D53441",
")  c #FBEDCE",
"_  c #CC8E93",
"`  c #EABEA5",
"'  c #D23E4A",
"]  c #F15759",
"[  c #E44D53",
"{  c #E8B39E",
"}  c #E19487",
"|  c #E07D77",
" . c #C33744",
".. c #F3504F",
"X. c #FB5F5C",
"o. c #E7CBCC",
"O. c #C36165",
"+. c #AD3342",
"@. c #E0716F",
"#. c #F7494A",
"$. c #EFE1E4",
"%. c #C41429",
"&. c #DE6A6A",
"*. c #FDF7F2",
"=. c #D79891",
"-. c #DFA395",
";. c #DD9F90",
":. c #E38D83",
">. c #F2E6E7",
",. c #FAEBDC",
"<. c #F0ADAF",
"1. c #FAEDE0",
"2. c #D44C53",
"3. c #DFBFC1",
"4. c #EFA1A4",
"5. c #A91128",
"6. c #FBF2E9",
"7. c #EDD9D7",
/* pixels */
"    o o o o                     o o o o o o o o                                                                       o o o o - ",
"          - - - 1 1 - - 1 1 1 - - o o o o o o o o o 1 1 - - 1 1 1 1 1 - - - - - $ - - - 1 1 1 - 1 1 1 - 1 1 1 1           o o o ",
"  - - - -           - $ - - $ o   o - - - - o o - o                     o o o                                     -           o ",
"  - - -   *.b b b b 1 1 1 1 1 I b ,.s s c s s s s ,.*.b b b b b b b *.o.R R m m <.I b b b b b b b b b b b b b b $   -         - ",
"o - - o 6.c c c c ) } @.| | @.W . 6 g g g i O . * 4 T y c ) c c ) ) 6 m u #.f %.Q B e T T e 9 9 9 9 c c c c c c ,.I - 1     o o ",
"o - o 6.) U g i : 6 m Z f f Z  .5 , % : % . . . , , & : 6 g g g i i 0 ` ' k P Q z 4 & . % q q q 6 6 q 6 i i q U i ,.  -     o o ",
"- o - s g q % # , 0 m u ~ u k C B % # @ @ . * ; :.} G 9 % O @ @ # # O , ` V V ;.O # T w * . . O : 0 , % @ O : 6 g B >.  $ - o o ",
"- o - s g : # : W d F L P P C h 9 * @ @ @ @ # :.S ] ' @.y % w @ % % . # : % 4 % * : ;.y % # # 0 8 3 l 5 j { &.@ q H =.    -   o ",
"- o $ s g % @ : W H j ` p z ^ G * + @ . w % T ' S [ x P { , O ; h d ; O # @ . @ O 8 4 % @ % * / R ] Z = 0 8 -.y q J / 3.  -   o ",
"o o $ s i % & i g ; # : O y y . w . * . # ; a [ ( ~ ( +.D & # % T e , & # . @ : G k h 0 # w :.S S S ~ l # % j % % D 3 M $.  -   ",
"o o $ s , i :.m { 0 O + . . # , h D ; 4 & h N u u k L ;.5 * @ . % w d F 0 % # * 4 H e . * 8 ' A k f ~ K O @ O . . d = p Y   $   ",
"o o $ s 6 | ] S ( ;.0 @ . @ + . y 4 + 4 : J O.Q Q L } h 9 . @ # & F ( [ / 8 & # * , * : , # @.Z x S k K # . # ) ) H 7 p Y   -   ",
"o o - s 4 ~ X.] u ( < & @ w w @ * X & , % : 4 -.K -.H G * @ . # : @.x S Z m e : # O % 5 D : G C N f ! =.O . O i i h = p Y   $   ",
"o o - s y m ] k ....L e % @ . @ O & h &.^ , O & # 9 y * w . @ @ * R u k A f C e * O j / ' i * B V +.p B O . # 6 y 7 = p Y   $   ",
"o o $ s G m A f u u  .` * . . + : 5 [ S ( ^ ; # . . . w . @ @ . * R #.~ x x Q D ; @ % T v * . # e D v : 0 . @ q v 3 3 M Y   $   ",
"o o $ s 8  .#.x f N V F @ # @ O : d S X.u E w @ + @ @ @ @ O # @ % R u f ! Q O.e % @ # , , @ . @ @ % , { } : * q h 3 3 M Y   -   ",
"- o - s . O.P P L O.h y * : + O : @.u u ..! =.0 O @ @ + O ; , + % J C E p -.F % @ # & D 5 : + @ @ O % z C G i ) a 3 3 M Y   $   ",
"- o - s 6 T K z h B T % 4 5 4 0 ^ k f f A N M & # @ + O , :.@.: @ % T 5 v 9 . @ # # & F G % O # # @ @ ; & @ % ) ^ 3 3 M Y   $   ",
"o o $ c i * ; O O . w ; d ! B 0 h Q P ! ! ! K T * # @ # ; l | % . . . @ * * . @ & % w ; * % , , : @ . @ w O : ) ^ 3 3 M Y   $   ",
"o o $ c 6 @ # . @ # w % 9 2 G * & ` K K K ;.H y e d : w # % & . . @ @ . @ w @ % B 4 * O : T n n F * w @ . ; : ) a 3 3 M Y   -   ",
"- o $ T g 6 @ @ % ; w @ % ; . @ # : # 4 O y 4 . O O . @ w + # . @ # @ . @ # + % n 9 * % T 2.u f R & X X 4 ^ : i { 7 = M $.  -   ",
"- o - F 6 U i . % V { 0 O O + # # O O @ . . w + @ O + @ + @ @ # X : & . @ @ @ @ ; . O , l Z ..A k K % @ # v 6 U v 7 < K o.  $   ",
"o o o 5 5 g g : 9 K 5 & # @ # ; & . , * # @ @ @ % 0 % @ @ . + & O n l : # @ * @ O # % 9 2...S x u  .5 : . & : U 8 7 = V L o.  $ ",
"o o o s v s U * * j : # @ w ; h } } l e : O @ % 9 7 8 : w # : d @.~ ~ | t e O @ @ O 0 :.x A k f .. .5 & w @ @ U 8 = } ( Z <.  I ",
"o o o s 5 v 6 @ w O + @ # & H ~ f ~ ~ R G * # : v ( H , 4 & d k Z ] ] u ' h O @ @ O 0 } %.x x S .. .D * @ @ 6 g d = / ! Z <.  I ",
"o o o s 8 G % & & O + @ O , 3 f x ( x Z / , O + + 4 O @ O 0 < N ....~ k L ` O @ + + X y | ! N [ u ! h . . # q 6 ^ < L P Z 4.  I ",
"o o   9 8 , G R 7 0 O @ O & W ( x k x u  .D & # @ * ; . O 0 = k #.x %.! ;.8 w @ + + # % O -.V +.+.V F % @ ) q B = < p Q %.4.  I ",
"-   b e ; G &.X.[ ^ : + @ # & R f S S k L ` & w @ @ { 4 * : B ' P ! C V 5 . . @ @ @ . # # O B ` ` F 4 % @ i 6 H l 2 > M +.r   I ",
"-   ,.y , 3 [ X.A f D , # # ; m Z k ! z -.d @ . @ @ v O . O ; D =.;.H 8 . . @ @ . . @ @ @ . * w # @ . . # i 6 H 3 a 2 l p b   - ",
"$   ,.4 T [ ] x Z P ;.: w + : { V V K W H 9 * + + @ & w + w 4 : . O y # @ + + @ @ + + @ . @ + + @ @ @ + # i i h 3 2 = z 3.  -   ",
"$   1.4 4 R f !  .O.{ 4 + + + ; . e G 8 O . O + @ @ # + + @ j : O w . . % + @ @ @ O # @ . @ @ @ @ @ O % * . : d l 2 = M $.  -   ",
"$   7.G , 5 / M ;.D e . 0 ; @ w + w . % @ : & # w # + + . w &.W , O . y T % @ @ O & : @ . @ . . @ O & e 4 % : e < 2 = p Y   $   ",
"$   o.h w : . e 8 y % % = J ; + + # w # : v J & w ; % w * w R W , O & B { ; O # : B 8 & @ . . . O ; 5 m &.# % : J 2 = p Y   $   ",
"-   *.D d # w . % # ; h k l 0 4 O w w # : 8 v : O F 9 % + # , * O X @ : & + + * 4 m &.: . . . O , v m #.f { , * 5 2 7 p Y   $   ",
"o -   9 n 5 % w w w . 4 T 4 + & & O O + + : : : 5 C 5 : O @ O ) i O T 8 y + + . # G 5 @ . @ O : 5 m #.( f C 8 % v = 3 p Y   $   ",
"- o - s 5 h c : + . . * % + ; v B 0 , . w w O . y T & O @ @ O j = 2.R R m F & + w % : . w + O 0 l f X.S u  .J i 5 3 3 p Y   $   ",
"o o o y e { c i @ O w . O % D m R | | d 9 + w w * % O @ . O , 3 ( ] A X.~ M e + + # w . w @ O j 8 ' N ( k V F 0 G 3 3 p Y   $   ",
"o o - s e B q * % : w w % e m A S x S m B w . . @ # @ . w O ; &.x A u k ..L F . w . @ @ @ w & d d ` } C L ;.v 0 G = 7 p Y   $   ",
"o o o s 8 ) i % 8 ^ & O % 8 m A k ~ A ~ d . @ + + @ @ @ O O & R A A N u x E F . @ @ + @ . w & W < , G F F F O 6 T = 3 p >.  $   ",
"- o o s y 6 & ; % e . w % 9  .u X.#.A  .d . + + + @ @ + & % : / k S x u N L B # @ + + @ @ + 4 , , # . @ . * @ 6 B 7 = M 3.  -   ",
"-   6.c q 8 F F D G : w + : K P f f N V 8 # O O # O # X B G * : | Z A u P M 8 , # . . @ O & 0 % # @ @ . . + ) 6 t 7 2 V O.  -   ",
"-   ,.q J ' u ~ [ &.F * w . ; K C C C ` & O % , ; ; . % / ^ , # % p P ! p v T h % . w * 0 h / J . : % . . @ : i ^ 7 3 2.@.  -   ",
"-   ,.g | u ] ~ [ ( C e % w w : e 8 8 y O & G n H n y , ; : . @ % O =.=.5 O y F % w * 8 R ' ~ ] m = % w w @ : i ^ < C N &.o -   ",
"-   ,.j | f X.[ k x  .G % @ @ O @ . @ O : v m [ [ [ &.W % O . . # X % # . * , ; @ O , / Z ] X.#.S ' 8 % @ @ : ) ^ = L %.R   -   ",
"-   ,.q l N A X.X.f E e % + . , * # + O , H u S u ] x @.; # . @ @ @ # + * e H 4 * O , / x A N ( A ' ` % . @ % ) ^ = C %.m o -   ",
"-   1.) , p k u f E -.y . . . 7 T : @ . O 0 V %.S #.Z p & # @ . . . @ O , h N 8 : O 0 | u ] N [ S Q h 4 . @ : i t 7 l L C   -   ",
"-   1.) * % M L E -.5 # # ; J R e % w . # : B 2.N P E ` . O @ . * . . . . % } 5 & # , = k ..X.] P E D y . # 6 q n 3 3 M o.  $   ",
"-   1.i i . y d J 8 + w . * # @ . w @ + @ O ; B z z F % % j % . . . . * . * % . * . w * z N u ! E h y # # % g q h l l p $.  -   ",
"-   ,.c U 6 . O O @ # @ w w @ + # + + + @ w O * ; & * : 8 l 9 % + # @ @ # O O w w w + : B C E K G O @ i 6 g U ) n < p O.Y   $   ",
"o   I h T g g q q q q q 6 * % * * w w # # # O # w . O ; J ' 5 : # : : : i i i : * # @ @ w T T % & 6 q g U q s d = @.( +.>.  $   ",
"o o o _ t 8 6 q q q 4 e e T e T T 4 . i 6 6 6 w e e @ % . * w : q g q i c c c 6 U 6 6 6 i % . e e 9 9 9 e d t ^ K ! k +.>.  $   ",
"o   I _ J { n J d { t a ^ ^ ^ ^ 2 d 4 ) ) ) T H < < d . g q q g # v B J a t a H c U g U y J ` = < < < < 2 a t 2 K ( N +.>.  $   ",
"-   $ _ v d = 2 2 a > > > > > t 2 = J 5 d { 2 < 2 a = h 5 5 8 5 h = 2 > > t > 2 2 5 5 5 ^ l 3 7 7 7 7 = t n n > l Q 5.E >.  $   ",
"- -   7.^ 5 d > > > a 2 2 a a 2 3 3 3 = 3 l 2 > > > t < = 3 3 l 7 t > > > > > > 2 3 3 3 3 3 7 = = 7 = 7 2 t > t > V E V Y   $   ",
"o $   Y K 5 v > 2 = < 2 2 2 2 = 3 l l 3 3 < t > > > > > > a a 2 > n > t t > > > > a a < 7 7 7 7 7 7 7 = 7 < > > > n < M Y   $   ",
"o $   7.K 8 v t = < t > n t t a < 3 3 3 7 = a > > > > > > > > > a t n a < < < = 2 > > t 7 7 = < 7 3 l 7 < = 2 t > 2 7 M Y   $   ",
"o -   $.K J d 2 } C E E V W > t 2 = = = 7 = = 2 a a t t t a < < < :.E C 2.C l = = < < < = = = O.+.L L L V < = = a a 3 M >.  -   ",
"o o $   o.K n 2 E P Q Q ! E = t < < 2 W H H n W n t < < < < < = < E u x f 5.O.< 7 7 7 = 7 < p 5.P Q P P Q z = = t < p o.  $     ",
"    o -   o.M p +.%.%.%.Z Q V / z z } J 5 5 5 F d n } z / z / z M L N N 5.Q O.p z z z z z z p +.N Z Z Z Q O.p z z z o.  $ o     ",
"  -   o $   o.r r _ _ _ _ r r r r r 3.=.l W ^ 7 z M -.r r r r r r r _ _ _ r r r r r r r r r r r =.4.4.l =.r r r r o.  $ o       ",
"          $   -                       >.r _ _ _ 3.Y $                                                   o       -   $ o         ",
"            $ I I I I I I I I I I I I     o o o       I I I $ I I I I I I I I I I I I I I I I I I I I I I I I I I $ o           ",
"                                      - -   -   - $ -                                                                           ",
"                                                                                                                                "
};
