/* XPM */
static char *b76cbd45a2ca408db8e7535d083572c5lbdn98dZ4Kb6kqnq[] = {
/* columns rows colors chars-per-pixel */
"64 64 256 2 ",
"   c #C8590E",
".  c #C4590F",
"X  c #BE500D",
"o  c #E3781A",
"O  c #D87018",
"+  c #CF6414",
"@  c #D0691A",
"#  c #CB5F12",
"$  c #C2560E",
"%  c #CC5C10",
"&  c #C1530C",
"*  c #CC6112",
"=  c #C6560D",
"-  c #F4780E",
";  c #CB560C",
":  c #F4740C",
">  c #DC7319",
",  c #C5530D",
"<  c #E27016",
"1  c #D47A1F",
"2  c #C85D13",
"3  c #E8821F",
"4  c #DE8822",
"5  c #F87A0D",
"6  c #E38C28",
"7  c #E17519",
"8  c #BF4D0B",
"9  c #CC5309",
"0  c #EC6E0D",
"q  c #C3500B",
"w  c #DC751B",
"e  c #CD590E",
"r  c #D7721E",
"t  c #DD7018",
"y  c #F6AF31",
"u  c #D66E18",
"i  c #E8660A",
"p  c #DE600F",
"a  c #F38D1E",
"s  c #CC6719",
"d  c #E38120",
"f  c #F9891A",
"g  c #DE7B1E",
"h  c #C8510B",
"j  c #FC7E0D",
"k  c #DD8327",
"l  c #DF7E22",
"z  c #EB6A0B",
"x  c #E29C37",
"c  c #E4600C",
"v  c #E5630A",
"b  c #E6690F",
"n  c #DA6914",
"m  c #F4B439",
"M  c #C64C08",
"N  c #F4C146",
"B  c #DD8729",
"V  c #F4A62D",
"C  c #D36C16",
"Z  c #FAB532",
"A  c #F58618",
"S  c #EE6709",
"D  c #E9851F",
"F  c #F28118",
"G  c #E36510",
"H  c #D96D15",
"J  c #F67D12",
"K  c #C2651C",
"L  c #F7AC2E",
"P  c #D18831",
"I  c #EB932A",
"U  c #DA711C",
"Y  c #D76613",
"T  c #D58C33",
"R  c #F26E09",
"E  c #D7892D",
"W  c #D15C0E",
"Q  c #F2710C",
"!  c #ED7311",
"~  c #C46017",
"^  c #F3A930",
"/  c #D0832D",
"(  c #F5A32A",
")  c #D8570E",
"_  c #F3BE44",
"`  c #DE771B",
"'  c #D56815",
"]  c #C05C14",
"[  c #D85C0E",
"{  c #D74D09",
"}  c #E0560A",
"|  c #FBBE3A",
" . c #DD8B2F",
".. c #DC6C16",
"X. c #B94F0E",
"o. c #E76F13",
"O. c #DD5C0C",
"+. c #D67E22",
"@. c #E09036",
"#. c #FDB934",
"$. c #D07822",
"%. c #D89339",
"&. c #D0550D",
"*. c #E67D1B",
"=. c #D07D26",
"-. c #D86314",
";. c #D26110",
":. c #CD7321",
">. c #E98920",
",. c #FD830E",
"<. c #DD781E",
"1. c #D78125",
"2. c #E1922E",
"3. c #ED9926",
"4. c #F9B131",
"5. c #E6962F",
"6. c #FCC33E",
"7. c #F2B73C",
"8. c #DA973B",
"9. c #FE8A0F",
"0. c #D28F35",
"q. c #E27C1D",
"w. c #D95209",
"e. c #C74609",
"r. c #DA9031",
"t. c #E35C09",
"y. c #DF9632",
"u. c #B94B0D",
"i. c #D06F1D",
"p. c #EC8A23",
"a. c #D77723",
"s. c #E39636",
"d. c #FB770C",
"f. c #E9A738",
"g. c #E48726",
"h. c #D6862E",
"j. c #D1751F",
"k. c #BF490E",
"l. c #EE6B0A",
"z. c #E18F2E",
"x. c #ED781B",
"c. c #E28322",
"v. c #EBA334",
"b. c #DE9E3B",
"n. c #C76C1F",
"m. c #E26B10",
"M. c #F5921C",
"N. c #EEAF3C",
"B. c #E8A43E",
"V. c #DD6511",
"C. c #D66B17",
"Z. c #E9AA42",
"A. c #B5460C",
"S. c #CD4C0B",
"D. c #BE5717",
"F. c #BB5412",
"G. c #F7B93A",
"H. c #FDC747",
"J. c #C33B09",
"K. c #FBCE4F",
"L. c #F9830F",
"P. c #DF9436",
"I. c #D35E14",
"U. c #D68329",
"Y. c #E4A03C",
"T. c #ED861C",
"R. c #C54108",
"E. c #D04508",
"W. c #FB7007",
"Q. c #ED8017",
"!. c #F49123",
"~. c #F5C549",
"^. c #F09E29",
"/. c #E67E23",
"(. c #F79822",
"). c #EB7B18",
"_. c #D7610E",
"`. c #D46414",
"'. c #EF6106",
"]. c #E79F35",
"[. c #F86B0C",
"{. c #D25111",
"}. c #E89A35",
"|. c #E0A53C",
" X c #D97B2C",
".X c #EE7C49",
"XX c #CD5714",
"oX c #E9B341",
"OX c #B33C11",
"+X c #BD410B",
"@X c #ED8F29",
"#X c #EFC54D",
"$X c #E69024",
"%X c #E9AE44",
"&X c #CC6D37",
"*X c #E1AC3F",
"=X c #D9361F",
"-X c #DF411C",
";X c #EC7238",
":X c #C18935",
">X c #EDBB49",
",X c #CB5523",
"<X c #F0060F",
"1X c #F57214",
"2X c #EA6D20",
"3X c #CB2B10",
"4X c #EEAC38",
"5X c #E14914",
"6X c #C95E26",
"7X c #D46C22",
"8X c #B99C42",
"9X c #F6893F",
"0X c #C1782D",
"qX c #A48850",
"wX c #9E9864",
"eX c #E85328",
"rX c #B2AB61",
"tX c #BEAD3F",
"yX c #E8852A",
"uX c #F47E2F",
"iX c #D4625D",
"pX c #B50002",
"aX c #CA4D29",
"sX c #E07C50",
"dX c #E16C48",
"fX c #B81D0D",
"gX c #F18568",
"hX c #DD5B2A",
"jX c #D39A34",
"kX c #ECA36A",
"lX c #D46635",
"zX c #DE6E68",
"xX c #AD551A",
"cX c #DF8F62",
"vX c #93AD82",
"bX c #DC7131",
"nX c #AC9437",
"mX c #C1BB50",
"MX c #99AF47",
"NX c #F1982E",
"BX c #B07245",
"VX c #89C593",
"CX c #DD6822",
"ZX c #F5975C",
"AX c #82AF72",
"SX c #F8292E",
"DX c #CA7E4E",
"FX c #CA5E3E",
"GX c #CC0808",
"HX c #F3964A",
"JX c #EFB699",
"KX c #E18F74",
"LX c #E28279",
"PX c #EF8B8F",
"IX c #E38E6E",
"UX c #68B589",
/* pixels */
"].*Xh.! - J x.m.+.3.V 2.B k o h B %Xh.q.A J r b.2.5.V 5.4 4 q.h B Z.b.x h.3 <  .y.5.V 5. .4 *.h +.%Xh.Q.F -  .Z.r.7 0 l z.4 g V.",
"b.D.;.G R L.[ {.aX1.Z ] W ; u = r.K ;.`.q.9.M % e $.#.~ W ; u . T K s ~ j.M.E.* s :.#.~ e e C   T n.W U ).j , aX{.' /.~ % % * O ",
"y.n - c - 7 &.x.iXg.y ' d.R 7 = E <.L.J n a } o.uXd L DXcXR o . / o.8XqX- a 5XE y.o Z ' - - o   / <.L.- U !.t.b 5 ` ^ H W.J < u ",
"b.W i { : 0 S.- t.k |   i G > = 0.+ ! b u a } hXiX1.6.6XCXz >   T + z v t M.E.V.v 1 6.# i b >   P @ i i 7X@X} m.z r | qXwXl.C.u ",
"N.Z.%Xl 5 z @.N.Y.N.( x 2.d p.q y.Z.Z.}.l ,.o.s.B.}.V }.I d p., r.%XZ.w ).j [ P.V mXmXI 5.3 p.= E %XB.}.s.F m.s.Y.Z.( |.rXD >.H ",
"m >XoXy.n }.oX|.*X^ (.v.$Xo F 8 y._ %Xv.g.x.a.|.%XeXQ.^ $Xo F q r.N *Xg 5 W.0  .>Xf.$XV I q.Q.h E _ *Xf.l o z.f.oXN.!.( M.q.).n ",
"x X e h P.N X.W M +.H.F.XX= u $ T ~ 9 M h.Z.D.; h j.6.D.9 e C . P ] 9 &.m.j [ h 9 a.H.] ;   C.  / ~ 6X,Xs >XK 9 ; s H.n.. K * u ",
"x n 1Xc ].4X`.,.^ 6 y bXgX0 7 . E C 9XuX$X| Y ,.J B Z `.f J 7 . P O gX2X<.g.W 9XJ l G.' 1X: 7 . / > .X;X6 | @ PXuXl | Y jXtXb u ",
"b.% } E.x m ; - > B #.  c O.w . T + ;XlX6 N   0 iX&X6 9 kX Xt . P @ dXO.z.N   /.c 1 | + =X{ w   P 7Xi t. X6.2 G iXFX3.= m.CX`.O ",
"v.Y.f.].^ ( x 5.}.v.I y.I c.!.&  .Z.x x N.B.@.].@./.L.7 l c.a & E Z.f.B.N.L x 5.}.N.( 5.}.r i.  1.f.B.B.N.y Y.].P.k A < k g.>.H ",
"V N.v.f.@X2Xv.I 3.yXo 6 $Xo F X 4 ^ >X%X( x.I ^.$Xo W.: < 7 Q., 4 7.%XoX^ !.V I 3.^.!.3.4 s )., +.m %XoX4X!.4X^.5.d W.0 > q.).n ",
"6 u.e M z.^ u.;.M [ ! +X% , u . +.X LXFX1 G.X e h ; L.w.{ q O . 1 $ &.M k Z u.e h n.#.D.OXfX@ 2 $.2 9 e.j.#.F.9 M [ j w.e.  2 u ",
"4 n d.eX>.3.I.[.- G m.% j 1Xo . 1 n : : D ^.;.5 j + o t.{ o.*.. $.H j 5 l 3.Y eXl.d ( aXSXGXF.+ j.' j kXk ^.`.5 - p b {.0 5 < u ",
"4 % v {.<.D 9 -Xp `./.# i p w . j.;.b G U p.XX=Xp W S { w.) > . :.* i p n G W ) O.<.(.u.GXfX@ # i.+ b sXi.a 2 v v ' 3 2 p c Y u ",
"3 g q.U U /.`.d <.>.f g ` g a X C.d g <.*.A g w w n [.G -.` a & @ d t a.J S XXl <.g.f d j.<.!.$ + D w t 3 A g <.<.c.f 3 g w D ..",
"q & & u.+Xe.+XX $ u.A.X & X u.8 M X & & k.+XM q $ OXJ.h k.u.u., q u.X M R.OX+XX & u.A.8 X X.u.8 8 X X X k.+Xk.X X 8 A.8 X X X.X ",
"6 8.%.a.b R `./ +.-.[ U.1.1 u 9  X8.%.h.U 0 b V.a.@ v V.@ =.C &. X8.0.a.o.i @ T 1.B $XB +.1 u ; a.8.%./ ..z v * E B $Xk +.=.r Y ",
"|.K + 7XF f ; 2 , < /.~ ;.% > $ %.:.+ @ A ,.) ) # Y 9.-.] # 7 X 0.j.s & q.(.M s # =.| K % % O   T :.# @ J f O.XX+ :.#.i.  # + O ",
"y.C.,.< I - O.[.} B L &X.XQ q.$ U.g L.< d A w.o.j < q.} j ! w . / r - Q *.(.t.- - yXL E I R *.. / a.j o.*.L.{ ! j o.4.C x.- < C ",
"b.W : m.F - S.- c U.6.6XG z <.. 0.+ R z r A w.5 z $.( qXwXS r   0.* S z <.J w.! z =.| s b 0 >   P C l.l.9 F w.G 0 vX>X' zX2X..u ",
"Z.r.s.1.x.F s 5.@.Z.f.6 6 r c.= P.8.s.k D 5 ;.s.@.|.4.rXwXo @X& r.x s.a.yXd.I.2.@.UX*X6 g.<.D   h.x @.6 @ - z j.s.vX*XI B q.d O ",
"m ~.N 5.F W.g.7.#X^ a m ( i.o q y.K.H.P q.j c.7.#X4.a L (.3 A q r.K.~.2.F : s.7.N %Xa y ^.D f q h.K.#XN.@Xd.7 v.~.Z (.^ V T.F n ",
"b.F.# K ..q., ; e.U.H.D.OXX > & r.~ OXA.+ g.. ; e.1 6.] = ; @ = T ] 6X6X~ v.K   X $.H.~ & = @   P K q e C.6 D.2 $ K G.n.q . 2 C.",
"b.p 6 MX@.oX[ %.wXd Z ,X=X3Xr   h.,X-X3XU.7._.>.8Xl G.C.J : o . P H 9X.X6 _ + ;X[.g.G.Y : : 7   / r F : k ~.C.S J < d * J - ..C ",
"b.W Q } x m 9 l BXl Z 3X<XpXK % 0.OX<XpX0X6.9 *.0X<.y % -X} w . P @ l.c B N , G nX1 | S.=Xb ..  / @ v.i  XH.K :X0 p L.) c z Y u ",
"].T s.@.f.L  .g.3 f.L $.,X,Xp.X  .%.&X&Xf.4.@.g.3 B.p.* bXw >.& E P.P. .Y.Z  .2.8Xb.Z U.1 <.p.= =.s.z.z.].Z jXmXz.g Q R n <.d O ",
"V _ _ _ V (.y ( ^ ( a y ^.D f X 4 H.N ~.4.!.y ( ^ V ! - <.D A q k | _ _ y M.7.V ( ( F L 3.*.A , 1 #._ _ m a y (.^ ^ b d.o.o A Y ",
"6 X e 8 2.^ X.e 8 1 Z F.h X i.. +.D.; 8 1.Z X.; h s p.} R.X u . +.] , M +.#.F.; q ~ d $ ; = s   1 ] e.8 1 #.F.] ; ~ o.b [ , * C.",
"4 _.9XsX>.3.`.j Q c.( I.: Q o $ 1 + J - g d _.J : w o.} } 0 7 2 1 `.5 gXc.3.W J m.x.J S.Q : > 2 j.-.-Xl.w 3.* N.F ..b i ) 0 t u ",
"k W 0 -.g D * l.v w a = i c U $ j.+ z G -.).&.b i % v { { t.O ] :.# z dX# < S.0 { t.Q } S.c t 2 i.+ i O.7XG 9 G c H o.) S.t.Y u ",
"3 <.o w 3 f a.` w D f g 7 > a X.C 3 w C.yX0 q ` ` o.[.} n o p.$ ' g o < t j -.o ..p W.'.&.U a . + *.7 Y ! W.) U w g 1X'.p ` 3 ..",
"h = $ $ q 8 = $ , q 8 $ & & X 8 q &   , A.E.e.8 . k.J.OX$ . ; A.u.e $ F.R.{ k.8 X.e.J.R.S.X X., h , = u.J.E.+Xu.$ k.J.R.u.. $ 8 ",
" .8.%.%.x B.8.r.U.4 6 U.1 $.C 9  X8.%.P U ! ! C.:.B >. .$.xX@ q j.8.%.P C.o m.I.:.@ v O.s 1.C &.a.8.%./ Y ! m._.~ I.S e =.=.u -.",
"|.K ' 2 |.H.K s ~  .6.K + 2 w $ %.$.~ r !.9.&.I.&X=.L 6XX.$ r # r.n.+ @ NX9.p p ;   9.[ $ * 7 = P =.s 2 7 9...[ + 2 @Xs . # s O ",
"2.i.AX< }.7.Y d.W.6 v.{.eX! 7 $ / O ,.z *.f { x.uXd hXSX=X! o . U.r j ! F 5 O.G - ! x.e - 0 7 % =.r j 0 c 9._.G F a.m r .X: < C ",
"b.;.$.O.x N w.:XqX../.E.c 0 w . 0.2 : b V.,.O.v '.B hX<XfXm.7 . P @ R v < M.{.i Q -.5.# z 0 H % T s S c S L.} O.i r | s dX0 n u ",
"Z.%.I k f.m k rXrX3 ,.b k c.>.& P.8.y.6 3 5 n s.z.B.^ n.=.l p.= r.x s.h. X9.i 1.5.x 4.z.B g p.  E Y.P...5 5 S V. .b.4.z.4 l d O ",
"m ~.N 0.3.( N y G.l : <.I Q.A 8 y.K._ m ^./.x 7.N y a Z ( D F q y.K.#XY.Q.d.w f.N m !.4.^.3 f , h.K.#XE o.W.L.+.>XG.T.L V D F n ",
"Y.X.A.A.y._ D.. X i.2.X.e &Xi., T ] 2 F.1.H.~ , S.a.| D.R.& O . P ~ 9 M p g X # q :.6.] h e ' = P K 9   XX,.p . & s | n.8 = # u ",
"x aX=X3XY.N.W f .X4 #.Y - cX<.= T b :XqX!.7.;.d.rX:X#.I.-X0 o . / U T.Q k 7.' : d.c.Z 7X.Xl.< % / C .X;X).3   J j ` | C l.[.< u ",
"|.fX<XpX0.m 9 ;XiXk 4.e S } O . 0.+ l.c z.G.; : / :.>.= b c >   / n.tXO.k 6.  : jX=.#.+ hXc t 2 P C 2Xc a.N * Q zXlX6 # } -X' u ",
"v./ lX0X4X^ @.6 4 4Xy U.g.q.>.& E y.}.z.].y @.2.l p.5 e 6 q.D   E %.P.2.|.VX0.I 0.x 4.4 c.q.>.  1.x s.2.B.Z @.2.DX XL.V.l q.d O ",
"( N N ~.^ M.y V ^ V VX*XM.3 f 8 4 6.>X7.L M.y ^ 3.m.d.*.>.Q.A X 4 H.7._ m 8XN.^.V ( V.6 3.3 f , +.6._ _ G.M.y ^ 3.3 d.! 6 T.F n ",
"z.X ; k.2.4.8 ; h r 0.u.e , C $ +.. 9 8 1.y X.9 h O.,.p q & H . 1 ] ; 8 +.#.X M 9 , A e.q ; @ % 1 ] e.k.n.^ D.M h &.j { 8   2 H ",
"4 Y j ! g 7 _.L.Q V.J {.: Q ` . 1 Y 5 - t m.) 5 z ! J { b - > . 1 + 5 5 ` I C.ZX: [ - } 0 Q 7 2 $.`.-Xl.< < 9 ZXuX_.< &.0 5 t C ",
"B % l.p p o e Q t.&.A O.S.p w . j.# z V.o S 9 0 c p J { { p > . j.+ i -.t p XXsXG ) R w.{.c H 2 :.* v b ..x.S.bXp C.@X# G v `.u ",
"3 w q.`.! - C.*.t o [.'.XXw a X U l w n R '.2 *.<.[ '.S I.u !.$ @ 3 ..`.R [.) ;.g [ W.t.I.q.p.. s 3 ` C.r f [ ` 7 d f q.` > 3 t ",
"h = $ u.R.E.e.X X E.J.R.S.. X A.8 e $ A.E.R.R.X $ +XJ.k.q $ X.q 9 X., S.e.J.e.k.F.e.J.J.k.$ X u.8 & $ 8 M &.+X$ & & 8 & & & & X ",
"B 8.%.T w z m...6XO.i v e 1 H 8 j.8.8.$...S o.n.$.[ p :.1.$.C q a.8./ V.i b _.$.1.&.v p s $.C &.r 8.0.T I.O.i.T U.U.4 U.+.1 C _.",
"|.K C s NXf O.-.XXv 9.} k.2 `   %.n.@ n.w 9.) + D.Q.Q.D.@ # > . 0.$.s 9 - 9.; &XXXO.9.v XX2 > % T =.2 0X8Xx.  s * :.#.:.2 * s t ",
"P.' j o.p.I ) 0 - ..o {.Q Q ` $ h.t $XMXr @Xw.;XzXm./.+ : - o   / r ,.! g a ) .X0 o.).) 0 : o . =.1 j r.nXF [ J gXw m C 0 R < u ",
"b.W : G Q.- ) 5 i h.m % [.l.w . E  XkX[ i.!.} b S a.y + ;Xb w   0.@ R z t M.w.O.R a.4X2 S 0 >   P @ 0 R { A ) ! dXu 6.s v 5XI.r ",
"Z.r.s.k /.: i.5. .B.Z k 8XnXT.& r.y.@.g.@.T.<  . .B.#X0.IX<.>.= r.P.@.1.l L.p  .z.x Z  .k > >.= h.x  .B B o. Xz.4 x #.z.k w l t ",
"m ~.~.f.Q.x.oX7.#XL a Z tX:X,.8 y.K._ m L yXf.7.#XL tXoX(.D A q 2.K.#XG.( /.s.y ~.m A 4.v.3 f q E K.N m y I _ 7.~.7.a.^ L T.F n ",
"Y.D.h e.r B.~   q U.6.] &.h u = T ~ K xX+.K.K $ = +.#.] e % C.= T K e h U.K.n.BXF.1 H.~ e.9 u   P n.= & :.K.K A.u.xXjXK +X. # H ",
"x H S 5XB.7.[ @.vXg.G.I.1X! ` $ P V.wX:Xp.7.`.1X'.B G.;.AX=.! . P V.tX:Xp.N ;.cXx.l @X{ b.4 < 2 / r - : B 6.= eX3X~ 6.@ 5X- < u ",
"b.W - v s.m e J @ 1.G.{.-Xv w $ T @ [.'.@.G.  S 5XC d e i.p t . T ' w `.B G.= W.Q e J { :X:.m.  P i.S 5X7X6.A.<X<XOX| C z z Y O ",
"v.E P. .f.y h.6 g.v.L E c.w p.& B z.@.h.v.4.h.4 4 l 9.-.<.<.>.= h.2.6 B x y E  .B w ,.V.I.7 p.  =.2.6 r > D =.,Xk.0.4.@ r g d t ",
"V N N N L (.G.V y V a L I Q.A X c.| _ _ ^ !.Z ( ^ g.j ! 6 T.A & c.#.| b.].(.m V ^ >.d.5 < *.f , 1 | >X5.,.- @XL y L yXp.m.3 A n ",
"6 X 2 D.2.L X.e 8 1 Z D., , O $ 1 ] ; 8 1.L X ; h % ,.[ , = C.. 1 . OXA.B Z F.9 M @ f w.{.q u   $.~ , e.t.j M = = ] I G &X$ * t ",
"B _.9XKX4 3.;.5 ;Xk V W : R o . j.' 5 Q c.3.@ y - -.5 &.! : 7 . j.,X=X3X<.^.W J a Y ).w.p : o 2 :.' - v ) b &.- J U 7 9XJXHX..O ",
"k W R p g D * R ) r !.  S c > . j.;.l.v > T.# o.b + G e.G c O . 1 J.<XpXF.a ; x.2.C.D q v v t 2 i.+ z z C.p.e =Xt.U < {.sXi `.U ",
"D r > r 3 A r 7 > 3 f <.t O >.& u <.t U *.F r < U d ).w > H >.& u O J.k.l A r t n d f g t H D . + g U U d f r ' O l A U O t d > ",
"% + # * % % * # # #   * # * # X   * # # 2   # # # %   # # # # X ; + s s #   * * * #   * * * * X , ;.* * #   * + * #   * * * * = "
};
